<?xml version="1.0" encoding="utf-8"?>
<!-- Generator: Adobe Illustrator 22.0.1, SVG Export Plug-In . SVG Version: 6.00 Build 0)  -->
<svg version="1.1" id="Layer_1" xmlns="http://www.w3.org/2000/svg" xmlns:xlink="http://www.w3.org/1999/xlink" x="0px" y="0px"
	 viewBox="0 0 1920 1080" style="enable-background:new 0 0 1920 1080;" xml:space="preserve">
<style type="text/css">
	.st0{opacity:0.42;fill:#ED1C24;}
	.st1{opacity:0.42;fill:#999999;}
</style>
<path class="st0" d="M1808.1,197.2c-38.5-34.9-84.6-60-133.3-75.5c-46.7-14.6-97-21.3-148.9-20.8c-7.9,0.1-15.8,0.3-23.8,0.7
	c0.4,0.2,0.9,0.4,1.3,0.6c110.4-5.1,215.6,18.8,304.1,95.4c42.2,31.2,80.2,64.2,113.6,97.9v-1.3
	C1887.8,260.9,1850,228.1,1808.1,197.2z"/>
<path class="st0" d="M875.9,270.7c223.8-77.4,163.6-50.8,395.1-123.8c76.6-23.4,154.6-40.7,230.2-44.5c-0.4-0.2-0.8-0.4-1.3-0.6
	c-88.3,4.5-182.7,27.6-287.6,63.5c-214.5,60.1-133.1,34.4-336.4,105.1c-118.1,42.2-443.2,113.5-545.3,134.7
	C244,423.4,62.8,427.9-5.3,431.6v0.4c67.9-3.6,249.2-8,335.8-26.7C432.7,384.2,757.8,312.8,875.9,270.7z"/>
<path class="st1" d="M1515.4,108.7c-4-2.2-8-4.3-12.1-6.3c-0.7,0-1.4,0.1-2.1,0.1c52.1,26.5,403.1,170.6,451.3,229.1
	c124.9,133.7,293.7-18.2,342.2,108.8v-2.5c-48.8-126.7-217.4,26-341.7-106.9C1911.8,278.9,1564.1,135.7,1515.4,108.7z"/>
<path class="st1" d="M179.3,466c95.4-16.2,202.7-48.6,310.9-91.2C695.5,297.4,917.7,163.5,1131,93.1c121.3-38.2,248.9-51.9,369,8.7
	c0.7,0,1.4-0.1,2-0.1c-42.6-21.3-87.1-34.4-132.1-39.5c-91.8-10.7-187.2,9.3-293,48.5C881,185.9,676.6,303.4,490.2,374.4
	C382,417,274.7,449.5,179.3,465.6C114.6,477,55.4,481.9,1,481.6v0.6C55.3,482.5,114.6,477.7,179.3,466z"/>
<path class="st1" d="M1502,101.7c-0.7,0-1.4,0.1-2,0.1c0.4,0.2,0.8,0.4,1.3,0.6c0.7,0,1.4-0.1,2.1-0.1
	C1502.9,102.1,1502.4,101.9,1502,101.7z"/>
</svg>
