<?xml version="1.0" encoding="utf-8"?>
<!-- Generator: Adobe Illustrator 22.0.1, SVG Export Plug-In . SVG Version: 6.00 Build 0)  -->
<svg version="1.1" id="Layer_1" xmlns="http://www.w3.org/2000/svg" xmlns:xlink="http://www.w3.org/1999/xlink" x="0px" y="0px"
	 viewBox="0 0 1920 639" style="enable-background:new 0 0 1920 639;" xml:space="preserve">
<style type="text/css">
	.st0{opacity:0.49;}
	.st1{fill:none;}
	.st2{fill:#ED1C24;}
	.st3{fill:#999999;}
</style>
<g class="st0">
	<polygon class="st1" points="0,638.1 0,295.5 0,294.2 0,294.2 0,115.4 0,115.2 0,114 0,113.9 0,0.9 1920,0.9 1920,-1.1 -2,-1.1 
		-2,640.9 1920,640.9 1920,638.9 0,638.9 	"/>
	<rect y="638.1" class="st1" width="1920" height="0.8"/>
	<path class="st1" d="M933,65.5c0.2,0,0.4,0.1,0.6,0.1C933.4,65.6,933.2,65.5,933,65.5c-143.6-35.9-273.1-54-397.6-44.2c0,0,0,0,0,0
		c0,0,0,0,0,0C660,11.5,789.4,29.7,933,65.5z"/>
	<path class="st1" d="M1729.3,306.1c-0.1,0-0.1,0-0.2,0c-0.2-0.1-0.4-0.1-0.7-0.2c0.2,0.1,0.4,0.1,0.7,0.2
		C1729.1,306,1729.2,306.1,1729.3,306.1z"/>
	<path class="st1" d="M753.3,116.2c288.6,68.2,594.6,165.4,869.2,229.6C1347.9,281.6,1041.9,184.4,753.3,116.2z"/>
	<path class="st1" d="M354.3,57.8c0.7-0.2,1.3-0.4,1.9-0.5c0,0,0,0,0,0c15.9-5.3,32-10.1,48.3-14.3c-16.3,4.2-32.4,9-48.3,14.3
		c-0.1,0-0.3,0-0.4,0C355.3,57.4,354.8,57.6,354.3,57.8C228.1,53.8,106.9,68.7,0,115.2v0.2C106.9,68.8,228.2,53.9,354.3,57.8z"/>
	<path class="st1" d="M669.6,98.5C565.7,77.2,459.9,61.4,357.3,57.9c0.5-0.2,1.1-0.4,1.8-0.5c0,0,0,0,0,0
		c79-26.8,160.3-37.6,241.8-37.8c-81.6,0.1-163,11-242,37.8c0,0,0,0,0,0c-0.5,0.2-1.1,0.4-1.8,0.5c-0.9,0-1.8-0.1-2.7-0.1
		c-5.4,1.8-11,3.7-16.4,5.7c-66.1,24.7-130.3,60.8-186.3,108.4C96.7,211.5,45.8,252.7,0,294.2v0c45.9-41.5,96.8-82.7,151.8-122.3
		C207.7,124.4,271.9,88.3,338,63.7c5.4-2,10.9-3.9,16.4-5.7c0.9,0,1.9,0.1,2.8,0.1C460,61.5,565.8,77.2,669.6,98.5
		c314.1,66.7,649.3,177.2,953,247.8c101.6,24.4,202.1,45.9,297.4,63.4v-0.1c-95.3-17.4-195.8-39-297.4-63.3
		C1318.9,275.6,983.8,165.1,669.6,98.5z"/>
	<path class="st1" d="M0,113.9c37.9-16.5,79.1-29.3,121.7-38.4c63.4-13.3,131.6-19.4,202-19c10.7,0.1,21.4,0.3,32.3,0.6
		c-0.1,0-0.2,0.1-0.3,0.1c0.1,0,0.3,0,0.4,0c15.9-5.4,32-10.1,48.3-14.3c42.8-11.1,86.7-18.3,130.9-21.7c0,0,0,0,0,0
		c124.4-9.8,254,8.4,397.6,44.2c0.2,0,0.4,0.1,0.6,0.1c265.4,68.5,542.3,175.5,794.9,240.2c0.2,0.1,0.4,0.1,0.7,0.2
		c0.1,0,0.1,0,0.2,0c64.2,17,128.2,32.2,190.7,45.2V0.9H0V113.9z"/>
	<path class="st1" d="M859.6,49.4c-84.8-18-171.9-30-258.7-29.8C519.3,19.7,438,30.6,359,57.4c0,0,0,0,0,0
		c119.8,4.1,247.9,25.2,390.2,57.9c1.3,0.3,2.7,0.6,4,1c288.6,68.2,594.6,165.3,869.2,229.6c0,0,0.1,0,0.1,0
		c101.6,24.4,202.1,45.9,297.4,63.4v-57.6c-62.6-13-126.6-28.2-190.9-45.2C1450.5,235.8,1149,113.6,859.6,49.4z"/>
	<path class="st1" d="M669.6,98.6C565.8,77.2,460,61.5,357.3,58c-70.7,24.2-139.4,61.1-204.8,114.5C97.1,212.3,46,253.8,0,295.5
		v342.6h1920V409.6c-95.3-17.4-195.8-39-297.4-63.4C1318.9,275.7,983.8,165.2,669.6,98.6z"/>
	<path class="st1" d="M338,63.6c5.4-2,11-3.9,16.4-5.7c0,0-0.1,0-0.1,0c0,0,0,0,0,0C228.2,53.9,106.9,68.8,0,115.4v178.8
		c45.8-41.5,96.7-82.6,151.7-122.2C207.7,124.4,271.9,88.3,338,63.6z"/>
	<path class="st2" d="M354.3,57.7c0.5-0.2,1-0.3,1.5-0.5c-10.7-0.4-21.3-0.5-31.9-0.6c-70.4-0.5-138.7,5.7-202,19
		C79.1,84.7,37.9,97.5,0,114v1.2C106.9,68.7,228.1,53.8,354.3,57.7z"/>
	<path class="st2" d="M323.9,56.6c10.6,0.1,21.2,0.3,31.9,0.6c0.1,0,0.2-0.1,0.3-0.1c-10.9-0.4-21.6-0.5-32.3-0.6
		c-70.4-0.5-138.7,5.7-202,19C79.1,84.6,37.9,97.4,0,113.9v0.1c37.9-16.5,79.1-29.3,121.9-38.4C185.2,62.3,253.5,56.2,323.9,56.6z"
		/>
	<path class="st2" d="M1622.5,345.9c-274.6-64.2-580.5-161.4-869.2-229.6c-1.3-0.3-2.7-0.6-4-1C606.8,82.5,478.7,61.5,359,57.4
		c-0.7,0.2-1.2,0.4-1.8,0.5c102.6,3.5,208.4,19.2,312.4,40.6c314.1,66.6,649.3,177.1,953,247.7c101.6,24.3,202.1,45.9,297.4,63.3
		v-0.2c-95.3-17.4-195.8-39-297.4-63.4C1622.5,345.9,1622.5,345.9,1622.5,345.9z"/>
	<path class="st2" d="M753.3,116.2c-1.3-0.3-2.7-0.6-4-1C606.9,82.5,478.9,61.5,359,57.4c119.7,4.1,247.8,25.2,390.2,57.9
		C750.6,115.6,752,115.9,753.3,116.2z"/>
	<path class="st2" d="M1920,409.3L1920,409.3c-95.3-17.4-195.8-39-297.4-63.4C1724.2,370.3,1824.7,391.8,1920,409.3z"/>
	<path class="st3" d="M357.3,58c-0.9,0-1.9-0.1-2.8-0.1c-5.6,1.8-11,3.7-16.4,5.7c-66.1,24.6-130.3,60.8-186.2,108.3
		C96.8,211.5,45.9,252.7,0,294.2v1.3c46-41.8,97.1-83.2,152.5-123C217.9,119,286.6,82.2,357.3,58z"/>
	<path class="st3" d="M357.3,58c-70.7,24.2-139.4,61-204.8,114.5C217.9,119.1,286.6,82.2,357.3,58z"/>
	<path class="st3" d="M1729.1,306c-0.2-0.1-0.4-0.1-0.7-0.2c-252.7-64.7-529.6-171.7-794.9-240.2c-0.2,0-0.4-0.1-0.6-0.1
		c-143.6-35.8-273-54-397.6-44.2c0,0,0,0,0,0c-44.2,3.4-88.2,10.6-130.9,21.7c-16.3,4.2-32.4,9-48.3,14.3c0,0,0,0,0,0
		c0.9,0,1.9,0.1,2.7,0.1c79-26.8,160.3-37.7,242-37.8c86.9-0.1,174,11.9,258.9,29.8c289.4,64.2,590.9,186.4,869.5,257
		c64.2,17,128.2,32.2,190.8,45.2v-0.3c-62.5-13-126.5-28.2-190.7-45.3C1729.2,306.1,1729.1,306,1729.1,306z"/>
	<path class="st3" d="M404.5,42.9c42.8-11.1,86.7-18.3,130.9-21.7C491.2,24.6,447.3,31.8,404.5,42.9z"/>
	<path class="st3" d="M933.6,65.6c265.3,68.5,542.2,175.5,794.9,240.2C1475.9,241.1,1199,134.2,933.6,65.6z"/>
	<path class="st3" d="M1920,351.3L1920,351.3c-62.5-13-126.5-28.3-190.7-45.3C1793.5,323.1,1857.5,338.4,1920,351.3z"/>
	<path class="st3" d="M859.7,49.4c-84.9-18-172-30-258.9-29.8c86.8-0.1,173.9,11.9,258.7,29.8c289.4,64.2,590.9,186.4,869.5,257
		c64.3,17,128.3,32.2,190.9,45.2v0c-62.5-13-126.5-28.2-190.8-45.2C1450.7,235.8,1149.2,113.6,859.7,49.4z"/>
	<path class="st3" d="M354.4,57.8C354.4,57.8,354.4,57.8,354.4,57.8c0.9,0,1.8,0.1,2.7,0.1c0.7-0.2,1.2-0.4,1.8-0.5c0,0,0,0,0,0
		c-0.9,0-1.9-0.1-2.7-0.1c-0.5,0.2-1.2,0.4-1.9,0.5C354.3,57.8,354.4,57.8,354.4,57.8z"/>
	<path class="st3" d="M354.3,57.8C354.3,57.8,354.3,57.8,354.3,57.8c0,0,0.1,0,0.1,0c0,0,0,0,0,0C354.4,57.8,354.3,57.8,354.3,57.8z
		"/>
	<path class="st3" d="M356.2,57.3c0.8,0,1.8,0.1,2.7,0.1C358.1,57.4,357.1,57.3,356.2,57.3z"/>
</g>
</svg>
