<?xml version="1.0" encoding="utf-8"?>
<!-- Generator: Adobe Illustrator 22.0.1, SVG Export Plug-In . SVG Version: 6.00 Build 0)  -->
<svg version="1.1" id="Layer_1" xmlns="http://www.w3.org/2000/svg" xmlns:xlink="http://www.w3.org/1999/xlink" x="0px" y="0px"
	 viewBox="0 0 283.5 283.5" style="enable-background:new 0 0 283.5 283.5;" xml:space="preserve">
<style type="text/css">
	.st0{opacity:0.15;fill:#E62524;}
	.st1{fill:#FFFFFF;}
</style>
<circle class="st0" cx="141.8" cy="141.8" r="140"/>
<g id="Layer_1-2">
	<path class="st1" d="M142,183.6l-30.7-30.4l-19.1,18.7l49.5,49.9l50.5-49.9l-20.4-19.7L142,183.6z"/>
	<path class="st1" d="M81.1,122.7l-18.7,19l18.3,19.5l19.3-19.5L81.1,122.7z"/>
	<path class="st1" d="M122.9,141.7l18.3,19.5l19.3-19.5c-6.3-6.3-12.6-12.6-18.9-18.9L122.9,141.7z"/>
	<path class="st1" d="M142,99.9l29.8,31.5l20.4-19.7l-50.5-50l-49.5,50l19.1,18.7L142,99.9z"/>
	<path class="st1" d="M183.4,141.7l18.3,19.5l19.3-19.5c-6.3-6.3-12.6-12.6-18.9-18.9L183.4,141.7z"/>
</g>
</svg>
