<svg id="Layer_1" data-name="Layer 1" xmlns="http://www.w3.org/2000/svg" viewBox="0 0 100 100"><defs><style>.cls-1{fill:#EC5646;opacity:0.1;}.cls-2{fill:#fff;}</style></defs><title>blockachain</title><circle class="cls-1" cx="50" cy="50" r="49.5"/><path class="cls-2" d="M80.71,42.69a.57.57,0,0,0,.29-.5V32.47a.57.57,0,0,0-.29-.5l-8.42-4.86a.55.55,0,0,0-.58,0L63.59,31.8l-4.54-2.62V19.8a.57.57,0,0,0-.29-.5l-8.41-4.86a.55.55,0,0,0-.58,0L41.35,19.3a.57.57,0,0,0-.29.5v9.38L36.53,31.8,28.4,27.11a.55.55,0,0,0-.58,0L19.4,32a.57.57,0,0,0-.29.5v9.72a.57.57,0,0,0,.29.5l8.13,4.69v5.24l-8.24,4.75a.6.6,0,0,0-.29.51V67.6a.59.59,0,0,0,.29.5L27.71,73a.57.57,0,0,0,.58,0l8.24-4.76,4.53,2.62V80.2a.57.57,0,0,0,.29.5l8.42,4.86a.57.57,0,0,0,.58,0l8.41-4.86a.57.57,0,0,0,.29-.5V70.82l4.54-2.62,8.12,4.69a.57.57,0,0,0,.58,0L80.71,68a.57.57,0,0,0,.29-.5V57.81a.57.57,0,0,0-.29-.5l-8.13-4.69V47.38Zm-51.44,20,6.56-3.79v7.58ZM41.64,30.19l7.84,4.52V40l-7.84,4.52-4.53-2.62V32.8ZM63,32.8v9.05l-4.54,2.62L50.64,40V34.71l7.83-4.52ZM42.8,70.48l6.68-3.85v7.71ZM36.41,57.21l-7.72-4.46V47.38l7.84-4.52,4.53,2.62v9ZM36,33.47v7.71l-6.68-3.85,1.23-.71ZM50.64,49V41.29l6.67,3.85Zm-1.16,0-1.37-.8L42.8,45.14l6.68-3.85ZM35.37,42.19,28.69,46V38.33Zm-.12,15.69-6.56,3.79V54.09Zm7-11.73L48.9,50l-6.68,3.85ZM49.48,51v7.71L42.8,54.86Zm1.16,23.34V66.63l6.67,3.85Zm0-23.34,6.67,3.86-6.67,3.85Zm.58-1,6.67-3.85v7.7Zm7.83-4.52,4.54-2.62,7.83,4.52v5.24l-7.83,4.52-4.54-2.62Zm5.7,12.33L71.42,54v7.71ZM71.42,46l-6.67-3.85,6.67-3.86ZM64.17,33.47l5.44,3.15,1.23.71-6.67,3.85Zm-13.53-.1V25.66l6.67,3.86Zm-1.16,0L42.8,29.52l6.68-3.86ZM37,58.21l4.65-2.68,7.84,4.52v5.24l-7.84,4.52L37,67.13Zm21.48,11.6-7.83-4.52V60.05l7.83-4.52L63,58.15V67.2Zm5.7-11,3.23,1.86,3.44,2-6.67,3.86Zm15.67-17L72.58,46V37.66l7.26-4.19ZM72,28.28l7.26,4.19L72,36.66l-6.77-3.91-.48-.28ZM51.22,24.66l6.67-3.86v7.71Zm-1.16-9,7.25,4.19L50.06,24l-1.82-1L42.8,19.8ZM42.22,20.8,47.66,24l1.24.71-6.68,3.85ZM28.11,28.28l7.26,4.19-.48.28-6.78,3.91-1.81-1-5.45-3.14Zm-7.84,5.19,5.45,3.15,1.81,1V46l-7.26-4.19ZM27.53,54V61.8l-6.79-3.92Zm-7.37,4.92,7.26,4.19v8.38l-7.26-4.19Zm8.42,12.57V63.61l6.79,3.92Zm13.64,0,7.26,4.19v8.38l-7.26-4.19Zm15.67,8.38-7.25,4.19V75.68l7.25-4.19ZM71.42,63.68v7.7l-6.67-3.85Zm8.42,3.52-7.26,4.18V63l7.26-4.19Zm-.58-9.39-6.68,3.86V54Z"/></svg>