<?xml version="1.0" encoding="utf-8"?>
<!-- Generator: Adobe Illustrator 22.0.1, SVG Export Plug-In . SVG Version: 6.00 Build 0)  -->
<svg version="1.1" id="Layer_1" xmlns="http://www.w3.org/2000/svg" xmlns:xlink="http://www.w3.org/1999/xlink" x="0px" y="0px"
	 viewBox="0 0 374.1 49.4" style="enable-background:new 0 0 374.1 49.4;" xml:space="preserve">
<style type="text/css">
	.st0{fill:none;stroke:#EB5746;stroke-miterlimit:10;}
</style>
<title>code</title>
<g id="Layer_2_1_">
	<g id="Layer_1-2">
		<path class="st0" d="M17.2,29.3c1.8,1.4,3,3.4,3.4,5.7h-5.4c-0.4-0.9-1-1.7-1.8-2.3c-0.9-0.6-1.9-0.9-2.9-0.8
			c-1.4-0.1-2.7,0.5-3.6,1.6c-1,1.2-1.4,2.8-1.4,4.4C5.5,39.5,6,41,7,42.3c0.9,1.1,2.2,1.7,3.6,1.6c1,0,2-0.3,2.9-0.8
			c0.8-0.6,1.4-1.3,1.8-2.2h5.3c-0.4,2.2-1.6,4.1-3.3,5.5c-1.9,1.4-4.2,2.2-6.6,2.1c-1.9,0-3.7-0.4-5.3-1.3
			c-1.5-0.9-2.8-2.2-3.6-3.7c-1.7-3.5-1.7-7.5,0-11c0.8-1.5,2-2.8,3.5-3.7c1.6-0.9,3.5-1.4,5.3-1.3C13,27.2,15.3,27.9,17.2,29.3z"/>
		<path class="st0" d="M38.6,28.5c1.6,0.9,2.9,2.2,3.8,3.8c1.9,3.4,1.9,7.6,0,11c-0.9,1.6-2.2,2.9-3.8,3.8c-3.3,1.8-7.3,1.8-10.6,0
			c-1.6-0.9-2.9-2.2-3.8-3.8c-1.9-3.4-1.9-7.6,0-11c0.9-1.6,2.2-2.9,3.8-3.8c1.6-0.9,3.4-1.4,5.3-1.3C35.1,27.1,37,27.6,38.6,28.5z
			 M29.4,33.4c-1,1.2-1.5,2.8-1.5,4.4c-0.1,1.6,0.4,3.2,1.5,4.4c1,1.1,2.4,1.7,3.9,1.6c1.5,0.1,2.9-0.5,3.9-1.6
			c1-1.2,1.5-2.8,1.5-4.4c0.1-1.6-0.4-3.1-1.5-4.4c-1-1.1-2.4-1.7-3.9-1.6C31.8,31.7,30.4,32.3,29.4,33.4z"/>
		<path class="st0" d="M64,43.2c-0.9,1.6-2.2,2.9-3.8,3.7c-1.8,0.9-3.8,1.4-5.8,1.3h-7.8V27.5h7.9c2-0.1,4,0.4,5.8,1.3
			c1.6,0.8,2.9,2.1,3.8,3.6C65.8,35.8,65.8,39.8,64,43.2L64,43.2z M58.6,42.2c1.1-1.2,1.7-2.7,1.6-4.4c0.1-1.6-0.5-3.2-1.6-4.4
			c-1.3-1.1-2.9-1.7-4.6-1.6h-2.4v11.9H54C55.7,43.8,57.3,43.3,58.6,42.2L58.6,42.2z"/>
		<path class="st0" d="M73.2,31.5v4.4h7v3.8h-7v4.6h7.9v4H68.2V27.5h12.9v4H73.2z"/>
		<path class="st0" d="M88.3,43.2v5h-5.2v-5H88.3z"/>
		<path class="st0" d="M119.1,23.7c2.3,1.9,3.9,4.5,4.4,7.4h-6.9c-0.5-1.2-1.3-2.2-2.4-3c-1.1-0.7-2.4-1.1-3.8-1.1
			c-1.8-0.1-3.5,0.7-4.7,2.1c-1.2,1.6-1.9,3.6-1.8,5.7c-0.1,2,0.5,4,1.8,5.6c1.1,1.4,2.9,2.2,4.7,2.1c1.4,0,2.7-0.3,3.8-1.1
			c1.1-0.7,1.9-1.7,2.4-2.9h6.9c-0.6,2.9-2.1,5.5-4.4,7.4c-2.5,1.9-5.5,2.9-8.6,2.8c-2.4,0-4.8-0.6-6.9-1.8c-2-1.2-3.6-2.9-4.6-5
			c-1.1-2.2-1.7-4.7-1.6-7.2c0-2.5,0.5-5,1.6-7.2c1-2.1,2.6-3.8,4.6-5c2.1-1.2,4.5-1.8,6.9-1.7C113.6,20.8,116.6,21.8,119.1,23.7z"
			/>
		<path class="st0" d="M147.1,22.6c2.1,1.2,3.8,2.9,5,5c1.2,2.2,1.8,4.7,1.8,7.2c0,2.5-0.6,5-1.8,7.2c-1.2,2.1-2.9,3.8-5,5
			c-4.3,2.4-9.5,2.4-13.9,0c-2.1-1.2-3.8-2.9-5-5c-1.2-2.2-1.9-4.7-1.8-7.2c0-2.5,0.6-5,1.8-7.2c1.2-2.1,2.9-3.8,5-5
			C137.5,20.3,142.7,20.3,147.1,22.6L147.1,22.6z M135,29.1c-1.3,1.6-2,3.6-1.9,5.7c-0.1,2.1,0.6,4.1,1.9,5.7
			c2.8,2.8,7.4,2.8,10.3,0c1.4-1.6,2.1-3.6,2-5.7c0.1-2.1-0.6-4.1-1.9-5.7C142.4,26.3,137.9,26.3,135,29.1L135,29.1z"/>
		<path class="st0" d="M180.3,41.9c-1.1,2.1-2.9,3.7-5,4.8c-2.3,1.2-4.9,1.8-7.6,1.7h-10.3V21.3h10.3c2.6-0.1,5.2,0.5,7.6,1.7
			c2.1,1.1,3.8,2.7,5,4.8c1.2,2.2,1.8,4.6,1.7,7.1C182.1,37.3,181.5,39.7,180.3,41.9z M173.2,40.6c1.5-1.5,2.3-3.6,2.1-5.7
			c0.1-2.1-0.7-4.2-2.1-5.7c-1.6-1.4-3.8-2.2-5.9-2h-3.1v15.5h3.1C169.4,42.7,171.5,42,173.2,40.6L173.2,40.6z"/>
		<path class="st0" d="M192.3,26.5v5.7h9.2v5h-9.2v6h10.4v5.3h-16.9V21.3h16.9v5.2L192.3,26.5z"/>
		<path class="st0" d="M212,41.9v6.6h-6.8v-6.6H212z"/>
		<path class="st0" d="M251.4,12.7c3.3,2.7,5.6,6.5,6.4,10.7h-10.1c-0.7-1.7-1.9-3.2-3.4-4.3c-1.6-1.1-3.6-1.6-5.5-1.6
			c-2.6-0.1-5.1,1.1-6.7,3.1c-1.7,2-2.6,4.8-2.6,8.2s0.9,6.2,2.6,8.2c1.7,2,4.1,3.1,6.8,3c2,0.1,3.9-0.5,5.5-1.6
			c1.5-1,2.7-2.5,3.4-4.2h10.1c-0.8,4.2-3.1,8-6.4,10.7c-3.3,2.7-7.5,4-12.5,4c-3.5,0.1-7-0.8-10.1-2.5c-2.9-1.7-5.2-4.1-6.7-7.1
			c-1.6-3.2-2.4-6.8-2.4-10.4c-0.1-3.6,0.7-7.2,2.4-10.4c1.5-3,3.8-5.4,6.7-7.1c3.1-1.7,6.6-2.6,10.1-2.5
			C243.9,8.7,248.1,10,251.4,12.7z"/>
		<path class="st0" d="M292,11.1c3,1.7,5.5,4.2,7.2,7.2c1.8,3.2,2.7,6.8,2.6,10.4c0.1,3.7-0.9,7.3-2.6,10.4c-1.7,3-4.2,5.5-7.2,7.2
			c-6.3,3.5-13.9,3.5-20.2,0c-3-1.7-5.5-4.2-7.2-7.2c-1.8-3.2-2.7-6.8-2.6-10.4c-0.1-3.6,0.9-7.2,2.6-10.4c1.7-3,4.2-5.5,7.2-7.2
			C278.1,7.6,285.7,7.6,292,11.1L292,11.1z M274.4,20.4c-1.8,2-2.8,4.8-2.8,8.3c0,3.5,0.9,6.3,2.8,8.3c4.1,4.1,10.8,4.1,14.9,0
			c1.9-2,2.8-4.8,2.8-8.3c0-3.5-0.9-6.2-2.8-8.3C285.2,16.3,278.6,16.3,274.4,20.4L274.4,20.4z"/>
		<path class="st0" d="M340.2,39c-1.6,3-4.1,5.4-7.2,7c-3.4,1.7-7.2,2.6-11,2.5h-14.9V9.1h14.9c3.8-0.1,7.6,0.7,11,2.5
			c3,1.6,5.5,4,7.1,6.9c1.7,3.1,2.6,6.7,2.5,10.3C342.8,32.3,341.9,35.9,340.2,39z M329.9,37.1c2.1-2,3.1-4.8,3.1-8.4
			c0-3.6-1-6.4-3.1-8.3c-2.1-2-5-3-8.7-3h-4.5V40h4.5C325,40,327.9,39,329.9,37.1z"/>
		<path class="st0" d="M357.6,16.7v8.3H371v7.2h-13.4v8.8h15v7.6h-24.6V9.1h24.6v7.6H357.6z"/>
	</g>
</g>
</svg>
