<?xml version="1.0" encoding="utf-8"?>
<!-- Generator: Adobe Illustrator 22.0.1, SVG Export Plug-In . SVG Version: 6.00 Build 0)  -->
<svg version="1.1" id="Layer_1" xmlns="http://www.w3.org/2000/svg" xmlns:xlink="http://www.w3.org/1999/xlink" x="0px" y="0px"
	 viewBox="0 0 1920 461.5" style="enable-background:new 0 0 1920 461.5;" xml:space="preserve">
<style type="text/css">
	.st0{fill-rule:evenodd;clip-rule:evenodd;fill:#E71F25;}
	.st1{fill:none;stroke:#FFFFFF;stroke-width:4;stroke-linecap:round;stroke-miterlimit:22.9256;}
</style>
<path class="st0" d="M375.2,222.1c2.4-1.1-7.9-0.4-8.6,0.6C367.7,223.8,371.6,221.5,375.2,222.1z M366.2,385c-0.2,2.6,6,0.3,8.7,0.7
	C372.9,383.3,369.6,385.8,366.2,385z M319,394.3c6.3-2.3,16.8-0.6,20.9-1.4C337.3,390.4,321.2,391.2,319,394.3z M1495.2,445.2
	c-44,0.7-92.5,6.5-142.4,8C1398.1,453.2,1445.9,450.3,1495.2,445.2z M268.1,264.5c10-0.5,30.5,5.6,46.4,6.8c-1.7,4,8.8,3.5,9.1,8
	c3.6,1,4.3-2,8.6-0.6c-0.8,2.9-4.9,2.9-8.4,1.2c-2.5,3.2,6.7,3.1,7.1,6.4c-3,2.3-10.1-0.3-12.3,1.5c6.3,1.7,13.6,2.7,22.2,2.9
	c1.7,5.5,9.2,8.4,8.5,13.7c3.4-0.3,9,5.7,7.8,2.6c3.8-0.1-1.2,3.4,3.1,3.5c-2.6,2.3-5.8,3.1-11.3,2.6c-6.3,2.4-8.7,7-17.6,8l-1.8,2
	c-11.4-1.5-20.9,1.3-39,0.8c2.2,0.6,13,0.5,15.4,3.3c-1.5,2.1-2.6-1.4-5.7-0.2c3.4,1.7,1.6,1.4-2.8,1.4c0.3,2.6,4.7-0.5,6.8,1.4
	c-2.6,1.2-6.2,1.7-10.4,1.9c14.3,8.9,42.4,21,74.2,22.9c-8.6,2.5-17.7-0.2-23-2.2c4.5,3.6,12.1,8.3,22.6,9.6
	c4.4,0.6,9.8-0.8,14.3-0.3c8.4,0.9,14.2,6.5,21.5,6.6l-2.8,1.4c4.4,0.8,7.9,2.3,12.7,2.8c-8.1,1.8-24.9,2-31.1,7.1
	c17.9,1.9,39.6-0.5,55.5,0c-17.3,1.9-28.7,4.1-48.4,5.1c29.7,2.8,72.7-4.3,97.7,2.1l-1.8,1.3c17.5-0.6,34.8,4.1,53,5.1
	c-15.6,0.8-30.5-4.4-48.1-4.2c11.5,3.9,28.3,3.8,41.5,6.5c-34.7-0.9-75.5-2.7-108.5-6.9c8.3,3.9,27.9,2.1,32.9,6.4
	c31,2.5,62.1,3.5,93.1,4.8c30.2,1.3,58.9,7.6,87.7,9c-91.5,3-189.4,5.1-255.3-13.1c-3.9,1.4,5.9,3.1,6.1,5.8
	c82.6,21.2,200.1,16.5,311.8,13c38-1.2,74.3,6.4,110.6,9.8c106.3,9.8,216.5,22.3,343.2,21.4c26.2-0.2,55.9-1.8,86.9-4.3
	c-2.4-0.8-6.3-0.4-9.6-0.6c14-6,28.1-7.6,49.2-8.4c41-1.7,82.7-4.1,126-6c46.9-2.1,94.2-1.8,138-3.5c14.6-0.6,25.5-2.5,39.2-4.3
	c1.7-0.9-4.4-1.5-6.9-1.3c5.2-1.2,10.5-2.3,11.1-5.9c7.2-0.3,10.9-2.5,16.2-3.7c-1.2-2.6-4.5-3.6-10-2.9c4.3-2.7,1.1-2.6-2.3-4.2
	l4.7-1c-10.5-3.5-28.8-1.2-44.4-0.8c10.9-2.7,18.3-2,31.6-3.1l-5-1.5c11-2,29.9-1,40.4-2.6c-4.1-0.3-8.1-0.2-13.6-0.8
	c5-5.1,17.5-6.4,21.3-12.2c5.4-0.1,10.4-1.5,13.4-1.1c3-0.2-0.7-4.8,6.4-4.3l-7.9-1.2c6-1.3,3.6-7.1,12-7.2c-0.9-3-4.8-4.3-10.2-5.3
	c1.7-1.9,5,0.4,7.8,0c-5.8-3.1,9.5-4.1,16.1-4.5c0.4-2.5-2.8-3.9-7.2-4.3c0.9-2.3,2-2.6-0.4-4.3c1.9-1.1,6.4-1,8.6-2
	c-4.3-4.2-5.9-8.1-14.4-9.9c16.4-5.2,25-10.6,30.3-18.9c3.5,0,6.3,0.2,6.7-2.5c-4.6,0.5-7.8-0.1-10-1.5c8.5-12.8-13.4-15-29.4-14.7
	c-2.8-1.4-0.2-3-2.3-4.8c-9.7-0.2-20.1,0.2-29.8,0c12.9-3.5,37.3-2.7,49.6-3.6c-6.9-3.9-33.6,2-37.9-6c4.2,2.2,9.1-2.2,18.1-1
	c-3.1-4.8,0.4-9.9,2.5-15.1l3.9,0.9c2.7-1.2-3.4-0.8-3.1-2.2c6.1-5.4,10.7-11.5,11.5-19.7c3.7-1.5,5.7-4,11.9-4.2
	c-5.3-3.4-16.6-2.2-22.3-5.4c5.3-3.8,13.3-2.5,19.5-3.6c-8.7-12.7-31.1-8.8-48.4-12.5c-3.5-0.8-3.6-2.3-7-3.7
	c-12.5-5.5-33.3-5.8-49.1-7.2c-17.6-1.6-35.9-1.9-53.7-3.3c-9.2-0.7-17.9-3.5-27-4.7c-28-3.9-61.3-3.1-92-5c2.4,2.2,7.5,0.9,11.5,1
	c27.7,1,64.4,2.2,86.5,8.4c-10.8-1.8-24.4-1.4-37.3-1.5l5.7,0.2c-7.2,2.1-12.7-1.1-18.1,0.7l0.9-0.7c-15.5-0.5-31.8,2.2-46.9-1.5
	l5.9,2.6c-26.7,1.8-55.7-3.7-82.3-2c8.5,1.8,20.2,1.1,29.7,2.2c-34.1,2.3-56.5,3.5-90.5,3.4c-101-0.3-201.8,4.6-307.1,8.5
	c-13.6,0.5-26.4,1.2-42,1.7c-27.7,0.8-57.6-3.6-88.2-4.5c-68.2-1.9-142.2-5.6-210.6-4.2c-27.4,0.5-59.3,2-88.7,2.9
	c-17.7,0.5-36.2,2.9-51.5,2.2c-8.4-0.3-14.8-2.4-25.8,1.1L440,219c-6.5,2.6-17,2.2-24.6,3.5c-10.3,1.8-14.3,5.5-21.4,7.6
	c2-5.6,17.3-6.8,16.5-10.4c-12.3,1.9-30,14.4-46.3,8.7c-0.7-2.6,6.3-0.9,5.5-3.5l-6.5,1.7l0.2,3.1c-15,0.9-30.8-1.1-43-0.2
	c-0.1,1,5.9,1.7,1.1,2.4c16.5-1,35.4,0.4,53.6,0.2l0.2,2.5c-10,2.5-26,0.2-33.2,4.7c-31.4,0.7-48.3-9.5-69.9-16.4l0.2,1.8
	c-6,0.9-13.5-3.2-23.3-5.9c-2.2,0.4,1.2,1.6,2.1,1.8c-1.9,2.2-2.9-1.7-5.8-0.9c19.4,11.4,43.9,19,72.3,23.7
	c0.3,7.4,1.8,7.9-7.8,11.1c2.2,0.7,4.4,1.5,7.8,1.3c-2.6,3.1-10.2,0.8-15.2,1.7c2.4,4.3,13.2,2.2,15.8,6.4c-9.4-1.6-11,1.8-20,1.4
	c3.6,2.7,10.6,2.8,15.6,4.5c-24.2-2-51.8-7.1-67.2-17.8l1.6-5.1c-4.3-2.6-9.2-0.8-14.5-2.2C228.5,258.1,262.9,258.5,268.1,264.5z
	 M1618.7,283.7c2.9,0.2,3.4-0.9,5.6-1.1l5.1,2.7C1626.3,284.3,1621.8,284.5,1618.7,283.7z M1531.6,246.5c0.6-2,3.9-2.6,6.4-3.6
	c8.8,1.3,20.4,1.8,30.8,3.2c9.1,1.2,21.4,1.4,23.4,6.2C1573.4,249.3,1552.8,247.7,1531.6,246.5z M1444.4,243.2
	c4-0.7,45.7-4.8,47.8,0.7C1476.4,243.7,1461.1,242.9,1444.4,243.2z M930.7,251.8c34.5-1.3,68.8-2.4,96.7,1.3
	C994,252.2,958.5,256.6,930.7,251.8z M578.5,259.8c45.6-2.8,91.7-0.4,134.8,0.7C666.8,261.5,615.9,265.7,578.5,259.8z M538.9,393.8
	c3.6,0.2,7.4,0.1,9.7,1.2C545,394.8,541.3,394.9,538.9,393.8z M409.3,343.7c3.7-5.5,20.9-6.5,31.1-6.5c3,1.2-6.8,0.1-5.6,2.3
	l4.8,1.5C427.7,341.8,417.6,340.7,409.3,343.7z M387.2,342c9.2,0.4,15.7-1.6,23.8-1C406.3,344.5,393.7,344.3,387.2,342z M371,329.5
	l-0.1-1.2l-0.1-1.2c3.9,0.4,8.8,0.4,10.4-1.9l-3.9-2.2c10.5,0.1,18.8,1.9,28.7,2.4c-1.5,2.4-1.2,2.7-1.5,5.1c4.7,1,8.6,2.6,12.7,4.1
	c-12.4,3.4-20.8,1.3-28-3.7l4.1,4.1C384.7,334.1,382.1,326.3,371,329.5z M357.7,344c5.8,0.3,11.4,0.8,11.7,3.6
	C364.9,346.8,358.5,347.5,357.7,344z M356.6,328.6c1.1,2,7.4,3.5,5.2,5.8c-3.7-1.2-2.7,0.9-2.7,2.6c-4.4-2.1-10.2-3.2-12.9-6.6
	C349.3,329.8,354.3,327.9,356.6,328.6z M366.5,318.6c0.4,3.1-1.4,4.8-0.4,8.1c-4,1.2-5.2,0.3-7.5,2.4l-2-1.1
	c3.3-1.7,9.4-1.9,8.2-6.1c-3.3-0.6-13.1,3.3-14.4-0.3C354.9,322.3,364.6,320.8,366.5,318.6z M351.3,264.6
	c-6.5-0.2-16.8-0.9-16.5-3.9C339.1,262.9,347.8,261.7,351.3,264.6z M329.3,265.4c9.5,0.9,18.7,2,24.3,5.8
	C344.2,270.4,336.4,268.1,329.3,265.4z M256.5,262.2c3,0.1,5.4,0.7,7.7,1.4C267,262.2,251.7,261,256.5,262.2z M1359.8,198.6
	c4.4,1,9.5,1.4,15.4,1.4C1371.1,198.8,1365.3,198.8,1359.8,198.6z M1382.9,200.7 M314.1,280.1c1.7-0.9-2.8-2.6-5.8-2.1L314.1,280.1z
	 M315.6,287.4c-2.5-1.4-14.9-1-23-0.3C297.9,288.4,307.7,286.6,315.6,287.4z M339,378.1c4.5,1.6,10.6,2,15.5,3.3l-6.9-2.6
	c9.5-2.8,19.8-0.5,25,2c0.8-2.1-8.5-2.2-9.9-4.9C354.2,378.6,345.1,375.6,339,378.1z M366,381.3 M390.9,382.1l7.7,0.7
	C400.2,382,393.6,381.7,390.9,382.1z M1302.3,196c14.7,4.8,37.5,2.9,56.6,2.7C1341.2,197,1321.8,196.4,1302.3,196z"/>
<g>
	<path class="st1" d="M1917,359c-236.8,45.9-277.6-10-502.7-4.8c-238.7,5.5-479.1,9.2-482.2,8.1c-11.7-4.1-7.2-71.7-0.6-127
		c6.5-54.6,18.8-104.6,30.3-100c2.6,1.1-1,8.7-3.6,22.5c-6.6,35.6-21,103.1-13.3,136.7c3.2,13.7-4,65-12,57.3
		c-3.4-3.3,4.4-87.1-3.9-87.2s-33.6,24.9-18.2,32.2c15.4,7.2,10.2-30.2-9.9-12c-20.1,18.2,0.3,35.9,5.7,26.4
		c5.3-9.4-15.1-21.1-21.7-12c-10.4,14.4-1,29.5,7.3,22.4c8.3-7.1-13.8-24.5-19.7-12c-5.8,12.6-3.5,24.2,4.1,19.2
		c7.6-5-5.2-28.5-18.9-15.9c-13.7,12.6-3.8,22.2,2.2,19.8c6-2.4,1.8-26.3-13.3-19.4c-15.1,6.9-12.6,27-3.7,23.8
		c8.9-3.2,4.4-24.5-7.1-24.2c-11.5,0.3-25.6,28.5-12.6,29.7c13.1,1.3,8.8-28.2-5.3-27.5c-14.2,0.6-22,20.1-12.3,24.1
		c9.8,3.9,11.6-21.5-2.9-25.6c-14.5-4.1-24.8,17.7-17.1,22.9c7.7,5.2,20-20.3-0.8-22.5c-20.8-2.2-25.8,20.9-15.9,23.3
		c9.9,2.4,12.7-25.3-3-24.5c-15.7,0.8-27.1,21.4-14.6,25.8c12.4,4.4,9.7-23.6-6.1-23.2c-15.7,0.4-25.7,20.1-14.9,27.1
		c10.9,7.1,12-23.1-1.6-26.3c-13.5-3.1-30.2,13.4-17.5,22c12.7,8.7,16.2-23.8,1.1-23.4c-15.1,0.3-33.2,11-18.6,16.7
		c14.6,5.7-2.5-19.5,13.8-27.4c16.4-7.9,26.4-10.5,25.8-0.6c-0.6,9.9-24.7,5.7-17.9-10.7c6.8-16.4,43.6-5.8,36.8,5.7
		c-6.8,11.5-25.2-2.8-15.6-19.4c9.6-16.5,41.2,2.2,32.7,8.3c-8.5,6.1-27.2-2-17.2-18.7s34.6-7.4,31.2,4.7
		c-3.5,12.1-28.1-4.1-21-20.5c7.1-16.4,36.3-13.4,32.2,0.6c-4.1,14-34.1-0.6-26.3-23.3c7.9-22.7,34.7-22.5,31-4.6
		s-41.2,8.5-39.9-11.6c1.3-20.1,39.2-36.9,39.1-19c-0.1,17.9-40,12.4-43.1-5.8c-3.1-18.3,33.8-40,41.4-21.1
		c7.6,18.9-43.6,17.2-45.8-7.7c-2.2-24.9,33.1-36.2,39.4-19.4c9.5,25-36.4,9.7-32.5-13c3.9-22.6,42.5-27.7,39.3-8.5
		c-3.1,19.2-39.3-0.3-34.9-16.4c4.4-16,59.5-19.5,51.3-1.3c-8.2,18.3-44.3-6.3-29.6-20.8c14.7-14.4,73.8,3.8,59.5,17.6
		c-14.3,13.8-25.8-1.3-12.9-16.4c12.9-15.1,23.6,1.8,37.1,10.3c13.5,8.5,16.9-15.4,11.2-18.6c-16-8.9-24.2,74.1-13.7,79.1
		c6.3,3,59.4-37.8,74.2-29.9c5.3,2.8,4.9,30.9-1.3,38.7c-3,3.8-65.2,27.5-70.6,21.1c-21.6-25.7-14.2-99.9,6.6-120
		C908.9,30,1016.8,9.7,1122.3,11c104.4,1.3,206.5,23.9,226.5,52.7c11.3,16.4,36.2,65.1,29,78.4c-7.2,13.2-96-26.7-100.4-15.7
		c-2.9,7.2,3.3,14.5,6.1,21.2c11.4,27.7,73.5,53,79.5,41.5c7.9-15.2,14.1-36.6,9.8-37.8c-4.3-1.1-108.6-20.8-112.3-34.9
		c-3.8-14.2-6.3-51.3-45-63.3c-38.7-12-192.9-6-212.7,9.4c-19.8,15.4-20.1,31.5-18.9,39.3c1.3,7.9-37.1,14.2-38.2,17.3
		c-1.1,3.1,1.7,12.6,4.2,11.5c2.4-1.1,43.3-16.7,43.3-24.6c0-7,2.1-16.2,9.7-20.6c32.3-19,204.2-17,218.4-6.1
		c10.1,7.8,6.1,23.5,10.5,26c4.4,2.5,21.6,16.2,20.8,8.5c-0.8-7.7-69.3-15.5-73-16.4c-3.7-0.9,0.4-56.6,0.6-58.8
		c0.3-2.2,31.4-1.2,31.2,1.1c-0.2,2.3-0.4,55.2-2,55.1c-1.6-0.2-154,0-161.8,1.7c-7.9,1.7-37.5,11.1-37.3,0.9
		c0.2-10.2,0-45,0.3-53.4c0.2-6.3,33.1-3.5,33.2-2.1c0.3,4.1,5.7,57.7,3.3,58.5c-25,8.3-49,17.5-64.2,33.5
		c-26,27.5-27.2,65.8,28.3,88.4c200.1,81.4,387-101.5,126.2-119.6c-31.8-2.2-72.3-2-97.5,11.9c-25.2,13.8-58.9,38.2-23.6,73.2
		c35.3,35,162.1,30.2,190.1-0.3s0.8-60.7-16.8-65.6c-17.6-4.9-28.4,5.3-17.9,7.3c10.5,2,15.2-6.7-3.4-13c-18.6-6.3-38-4.5-36.9,0.6
		c1.1,5,15.7,4,13.6-3.7s-56.9-5.5-54.5,1.5c2.4,7,17.9,4.8,11.4-2.4c-6.5-7.2-55.2,1.9-53.3,12c1.9,10.1,18.7,7.4,12.9-1.1
		c-5.8-8.5-40,11.2-32.7,21.7c7.2,10.5,19,1.4,11.6-9.6c-7.3-11-29.3,9.9-18.7,25.3c10.6,15.3,28.8,12.1,22.5-0.7
		c-6.5-13.2-31.8,13.4,2.5,25c34.3,11.6,27.4-10.9,19.2-13.1c-8.2-2.2-19.8,24.2,14.8,23.6c34.6-0.6,25.3-18.3,16.9-19.1
		c-8.4-0.9-26,22.6,24.9,19.4c38.5-2.4,15.3-29,4.1-14.5c-4.4,5.7,24.8,27.4,56.8-7.2c4.5-4.8-0.4-11.6-4-14.4
		c-10.5-8.2-29.2,12.4,4,14.4c10.1,0.6,11.1-21.4,8.4-28.4c-2.8-7-14.8,1.4-25.7-5.1c-79.9-47.5-133.3,12.7-84.4,23.1
		c37.3,7.9,67.7-0.7,80.5-15.7c12.7-14.9,71.6-39.4,95.8-19.6c24.2,19.8,52.1,109,54.3,139.8c2.2,30.8,6.7,87.6,3.5,87
		c-27.9-5-458.5,13.2-812.5,13.7C272.5,368.9,73.1,333.9,3,392.8"/>
</g>
</svg>
