<?xml version="1.0" encoding="utf-8"?>
<!-- Generator: Adobe Illustrator 22.0.1, SVG Export Plug-In . SVG Version: 6.00 Build 0)  -->
<svg version="1.1" id="Layer_1" xmlns="http://www.w3.org/2000/svg" xmlns:xlink="http://www.w3.org/1999/xlink" x="0px" y="0px"
	 viewBox="0 0 283.5 283.5" style="enable-background:new 0 0 283.5 283.5;" xml:space="preserve">
<style type="text/css">
	.st0{opacity:0.15;fill:#E62524;}
	.st1{fill:#FFFFFF;}
	.st2{fill:none;}
</style>
<circle class="st0" cx="141.8" cy="141.8" r="140"/>
<g id="Layer_2_1_">
	<g id="Layer_1-2">
		<path class="st1" d="M201,141.6c0-0.7-0.3-1.4-0.7-2l-1.3-2l-2-3.3l-2.7-4.4l-3.3-5.2l-3.8-6l-4.1-6.6l-4.3-7.1l-4.5-7.3l-4.6-7.3
			l-4.5-7.3l-4.4-7l-4.1-6.5c-1.2-1.9-2.5-4-3.7-5.9l-3.2-5.2l-2.6-4.2l-1.9-3.2l-1.2-1.8l-0.3-0.4c-0.5-0.7-1.3-1.2-2.1-1.2
			c-0.9,0-1.7,0.5-2.1,1.2l-0.3,0.4l-1.1,1.8l-1.9,3.1c-0.9,1.4-1.7,2.8-2.6,4.2l-3.2,5.2l-3.7,5.9c-1.3,2.1-2.7,4.4-4,6.5
			c-1.5,2.4-2.9,4.6-4.4,7l-4.6,7.2c-1.5,2.4-3,4.9-4.6,7.3c-1.5,2.4-3,4.8-4.6,7.3l-4.4,7l-4.1,6.6c-1.3,2-2.5,4-3.8,6
			c-1.1,1.7-2.2,3.5-3.3,5.2l-2.7,4.4l-2,3.3c-0.4,0.7-0.8,1.3-1.3,2c-0.4,0.5-0.7,1.1-0.8,1.7c-0.1,1,0.5,1.9,1.3,2.4l0.4,0.3
			l0.5,0.3l2.8,1.5l4.7,2.6l6.1,3.4l7.1,3.9l7.5,4.2l7.5,4.2l6.9,3.8l5.9,3.3l4.4,2.4l2.5,1.3l0.3,0.2c0.8,0.5,1.7,0.4,2.6-0.1
			l1.8-1l3.9-2.1l5.6-3.1l6.7-3.7l7.3-4.1l7.5-4.2l7.3-4l6.4-3.6l5.2-2.9l3.4-1.9l1.3-0.7c0.4-0.2,0.7-0.5,1-0.7
			C200.7,142.6,200.9,142.1,201,141.6z M144.3,117.1v-58c0.2,0.3,0.3,0.6,0.5,0.9c0.5,0.8,1.1,1.7,1.5,2.5l2.4,3.9
			c1.1,1.7,2.1,3.4,3.2,5c1.2,1.9,2.5,4,3.7,6c1.3,2.2,2.8,4.4,4.2,6.6l4.4,7.1l4.6,7.3c1.5,2.4,3,4.8,4.6,7.3l4.4,7.1l4.1,6.5
			l3.6,5.8c1,1.6,2,3.2,3,4.8c0.7,1.2,1.5,2.4,2.3,3.7c0.5,0.7,0.9,1.5,1.4,2.2l0.4,0.6l-1.6-0.7l-4.4-1.7l-6.4-2.6l-7.6-3l-8-3.2
			l-7.6-3l-6.4-2.6l-4.4-1.8L144.3,117.1z M139.3,117.1l-1.6,0.7l-4.4,1.7l-6.4,2.6l-7.5,3.1l-8,3.2l-7.7,3l-6.4,2.6l-4.4,1.8
			l-1.7,0.7l0,0l0.5-0.9l1.6-2.5c0.8-1.3,1.6-2.6,2.4-3.9l3.2-5c1.2-1.9,2.4-4,3.7-6c1.4-2.2,2.8-4.4,4.2-6.6c1.5-2.4,3-4.7,4.4-7.1
			c1.5-2.4,3-4.8,4.6-7.3l4.5-7.3l4.2-7c1.3-2.1,2.7-4.4,4.1-6.5l3.6-5.8l3-4.8c0.7-1.2,1.5-2.4,2.3-3.7c0.5-0.7,0.9-1.5,1.4-2.2
			l0.4-0.6V117.1L139.3,117.1z M139.3,122.5v46.3l0,0l-1.5-0.8l-4-2.1l-5.8-3.2l-7-3.9l-7.5-4.2l-7.4-4.1l-6.6-3.7l-5.2-2.9
			l-3.2-1.7l-0.6-0.3l1.6-0.7l4.4-1.7l6.4-2.6l7.6-3l8-3.2l7.6-3.1l6.5-2.6l4.6-1.8L139.3,122.5L139.3,122.5z M144.3,122.5l1.6,0.7
			l4.4,1.7l6.4,2.6l7.6,3l8,3.2l7.7,3l6.5,2.6l4.6,1.8l1.9,0.7l0,0l-1.5,0.8l-4,2.1l-5.8,3.2l-7,3.9l-7.5,4.2l-7.4,4.1l-6.6,3.6
			l-5.2,2.9l-3.2,1.7l-0.6,0.3L144.3,122.5L144.3,122.5z"/>
		<path class="st1" d="M200.5,154c-0.1-1.4-1.3-2.4-2.6-2.4c-0.3,0-0.7,0.1-1.1,0.3l-0.5,0.3l-2.7,1.5l-4.6,2.6l-6.1,3.4l-7.1,3.9
			l-7.5,4.2l-7.5,4.2l-6.9,3.8l-5.8,3.2l-4.2,2.4l-2.1,1.2c-0.1,0-0.1,0.1-0.2,0.1l-0.5-0.3l-2.8-1.5l-4.7-2.6l-6.2-3.4l-7.1-3.9
			l-7.5-4.2l-7.4-4.1l-6.8-3.8l-5.8-3.2l-4.2-2.3l-2.1-1.1c-0.7-0.4-1.5-0.5-2.3-0.2c-1.3,0.5-1.9,2-1.3,3.3
			c0.1,0.1,0.1,0.3,0.3,0.5l0.7,1l1.7,2.5l2.6,3.7l3.4,4.8l4,5.6l4.5,6.2l4.8,6.7l5,7l5,7l4.9,6.9l4.6,6.5l4.3,6l3.8,5.2l3.1,4.3
			l2.3,3.2l1.3,1.9l0.3,0.3c0.7,0.9,1.8,1.3,2.9,0.9c0.7-0.3,1.3-0.8,1.6-1.5l1.5-2.1l2.4-3.4l3.2-4.5l3.8-5.4l4.4-6.1
			c1.5-2.2,3.2-4.4,4.7-6.6l4.9-6.9l5-7l5-6.9l4.8-6.6l4.4-6.2c1.3-1.8,2.6-3.6,3.9-5.5l3.3-4.6c0.8-1.2,1.7-2.4,2.6-3.6l1.6-2.3
			c0.2-0.3,0.4-0.6,0.6-0.9C200.5,155,200.6,154.5,200.5,154L200.5,154z M139.2,225.3l-0.7-1l-1.9-2.8l-3-4.2l-3.8-5.4l-4.5-6.2
			l-4.8-6.7l-5-7l-5-6.9l-4.7-6.6l-4.2-5.9l-3.5-4.9l-2.6-3.6l-1.5-2.1l-0.3-0.3l1.5,0.9l4.2,2.3l6,3.4l7.1,3.9l7.5,4.2l7.2,4l6,3.4
			l4.2,2.4l1.6,0.9c0,0.2,0,0.3,0,0.5L139.2,225.3L139.2,225.3z M144.3,186.8l1.5-0.9l4.2-2.3l6-3.4l7.1-4l7.5-4.2l7.2-4l6-3.4
			l4.2-2.4l1.6-0.9l0,0l-0.7,1l-1.9,2.8l-3,4.2l-3.8,5.4c-1.5,2.1-3,4.2-4.4,6.2L171,188c-1.7,2.4-3.4,4.6-5,7
			c-1.6,2.4-3.3,4.6-5,6.9l-4.7,6.6l-4.2,5.9c-1.1,1.6-2.4,3.3-3.5,4.9l-2.6,3.6l-1.5,2.1l-0.3,0.3L144.3,186.8L144.3,186.8z"/>
	</g>
</g>
<rect class="st2" width="283.5" height="283.5"/>
</svg>
