<svg id="Layer_1" data-name="Layer 1" xmlns="http://www.w3.org/2000/svg" viewBox="0 0 100 100"><defs><style>.cls-1{fill:#EC5646;opacity:0.1;}.cls-2{fill:#fff;}</style></defs><title>fintech</title><circle class="cls-1" cx="50" cy="50" r="49.5"/><path class="cls-2" d="M55.74,61.92V60.63a1.39,1.39,0,0,0,.66-1.18V56.79a.43.43,0,0,0,.22-.06,12.25,12.25,0,0,0,5.65-10.19,12.38,12.38,0,0,0-11.61-12.4,12.27,12.27,0,0,0-7.28,22.59l.12.06v2.66a1.38,1.38,0,0,0,.67,1.18v1.29a2.26,2.26,0,0,0,2,2.24A3.82,3.82,0,0,0,50,68a3.82,3.82,0,0,0,3.83-3.79A2.27,2.27,0,0,0,55.74,61.92ZM44.41,59.45V57H55.49v2.47a.47.47,0,0,1-.48.48H44.89A.48.48,0,0,1,44.41,59.45ZM38.64,46.4a11.35,11.35,0,0,1,12-11.35A11.46,11.46,0,0,1,61.36,46.53,11.32,11.32,0,0,1,56.13,56a.57.57,0,0,0-.11.11H44a.32.32,0,0,0-.1-.1A11.34,11.34,0,0,1,38.64,46.4ZM51.41,66.65A2.91,2.91,0,0,1,47,64.18h5.83A2.93,2.93,0,0,1,51.41,66.65Zm3.41-4.73a1.35,1.35,0,0,1-1.35,1.35h-7a1.35,1.35,0,0,1-1.35-1.35V60.84h9.74ZM45.71,49a.45.45,0,0,1,.4-.5.46.46,0,0,1,.5.41c.13,1.31,1.6,2.35,3.33,2.35s3.34-1.14,3.34-2.55c0-.65-.61-2.53-3.36-2.53-3.16,0-4-2.2-4-3.5,0-1.72,1.53-3.09,3.56-3.25a.35.35,0,0,1,0-.14V37.34a.46.46,0,0,1,.46-.45.45.45,0,0,1,.45.45v1.91a.32.32,0,0,1,0,.14c1.92.16,3.37,1.34,3.51,2.91a.47.47,0,0,1-.41.5.48.48,0,0,1-.5-.42c-.11-1.21-1.39-2.1-3-2.1s-3.05,1-3.05,2.36.81,2.59,3.09,2.59c3.11,0,4.28,2.11,4.28,3.44,0,1.8-1.71,3.28-3.87,3.44a.47.47,0,0,1,0,.17v2a.45.45,0,0,1-.45.45.46.46,0,0,1-.46-.45v-2a.47.47,0,0,1,0-.17A3.85,3.85,0,0,1,45.71,49Zm32,9.1L79.38,60l-2.44,2.87-2.18-1.38a8.78,8.78,0,0,1-2.34,1.2l-.16,2.57-3.75.3L67.94,63a10.8,10.8,0,0,1-2.5-.81l-1.93,1.7-2.87-2.44L62,59.31a8.9,8.9,0,0,1-1.3-2.64.46.46,0,1,1,.88-.26A8.06,8.06,0,0,0,62.93,59l.19.25-1.29,2,1.67,1.42,1.81-1.6.28.15a9,9,0,0,0,2.77.9l.33,0,.53,2.37,2.18-.17L71.55,62l.31-.09a8.06,8.06,0,0,0,2.61-1.33l.25-.19,2,1.29L78.18,60l-1.6-1.81.15-.28a8,8,0,0,0,.9-2.79l0-.31L80,54.28l-.18-2.18L77.45,52l-.1-.3A7.91,7.91,0,0,0,76,49l-.19-.25,1.28-2-1.66-1.42-1.81,1.6-.28-.15a8,8,0,0,0-2.79-.9l-.31,0-.54-2.36-2.17.18-.15,2.41-.31.09a8.06,8.06,0,0,0-2.61,1.33.45.45,0,0,1-.64-.08.46.46,0,0,1,.09-.64,9,9,0,0,1,2.6-1.39l.16-2.57,3.75-.3L71,45a9.1,9.1,0,0,1,2.51.81l1.93-1.7,2.87,2.44-1.38,2.17a9.31,9.31,0,0,1,1.2,2.35l2.57.16L81,55l-2.51.57A9.15,9.15,0,0,1,77.68,58.06Zm-8.21-.12h.32a4,4,0,1,0-.32,0ZM69.23,51h.25a3,3,0,0,1,3,2.77A3,3,0,0,1,69.71,57a3,3,0,0,1-.48-6ZM38,59.31l1.38,2.18-2.87,2.44-1.93-1.7a10.8,10.8,0,0,1-2.5.81l-.57,2.51-3.75-.3-.16-2.57a9,9,0,0,1-2.35-1.2l-2.17,1.38L20.62,60l1.7-1.93a9.15,9.15,0,0,1-.81-2.5L19,55l.3-3.75,2.57-.16a9,9,0,0,1,1.2-2.35l-1.38-2.17,2.87-2.44,1.93,1.7A9.15,9.15,0,0,1,29,45l.57-2.51,3.75.3.16,2.57a9.18,9.18,0,0,1,2.6,1.39.46.46,0,0,1,.09.64.45.45,0,0,1-.64.08,8.16,8.16,0,0,0-2.61-1.33l-.31-.09-.15-2.41-2.17-.18-.54,2.36-.31,0a8,8,0,0,0-2.79.9l-.28.15-1.81-1.6-1.66,1.42,1.28,2L24,49a7.91,7.91,0,0,0-1.33,2.62l-.1.3-2.4.15L20,54.28l2.36.53,0,.31a8,8,0,0,0,.9,2.79l.15.28L21.82,60l1.42,1.67,2-1.29.25.19a8.06,8.06,0,0,0,2.61,1.33l.31.09.15,2.42,2.18.17.53-2.37.33,0a9,9,0,0,0,2.77-.9l.28-.15,1.81,1.6,1.66-1.42-1.28-2,.19-.25a8,8,0,0,0,1.33-2.61A.47.47,0,0,1,39,56.1a.45.45,0,0,1,.3.57A8.88,8.88,0,0,1,38,59.31Zm-11.36-5.6a3.93,3.93,0,0,0,3.59,4.22h.32a3.92,3.92,0,1,0-3.91-4.23Zm6.9.56a3,3,0,1,1-3-3.25h.25A3,3,0,0,1,33.52,54.27Zm16-35V31.37a.47.47,0,0,0,.46.46.46.46,0,0,0,.45-.46V19.3a2.49,2.49,0,1,0-.91,0Zm.46-4a1.58,1.58,0,1,1-1.58,1.58A1.58,1.58,0,0,1,50,15.27Zm-8.23,6.07V33.41a.45.45,0,0,0,.45.45.46.46,0,0,0,.46-.45V21.34a2.5,2.5,0,1,0-.91,0Zm.45-4a1.58,1.58,0,1,1-1.58,1.58A1.59,1.59,0,0,1,42.22,17.31ZM34,27.37v4a8.27,8.27,0,0,0,1.83,5.19l1.65,2a.46.46,0,0,0,.35.17.46.46,0,0,0,.29-.1.46.46,0,0,0,.06-.64l-1.64-2a7.37,7.37,0,0,1-1.63-4.62v-4a2.5,2.5,0,1,0-.91,0Zm.45-4a1.59,1.59,0,1,1-1.58,1.58A1.59,1.59,0,0,1,34.44,23.34Zm22.88-2V33.41a.46.46,0,0,0,.46.45.45.45,0,0,0,.45-.45V21.34a2.5,2.5,0,1,0-.91,0Zm.46-4a1.58,1.58,0,1,1-1.59,1.58A1.58,1.58,0,0,1,57.78,17.31Zm4.4,21.44a.46.46,0,0,0,.35-.17l1.65-2A8.27,8.27,0,0,0,66,31.36v-4a2.5,2.5,0,1,0-.91,0v4A7.37,7.37,0,0,1,63.47,36l-1.64,2a.46.46,0,0,0,.06.64A.46.46,0,0,0,62.18,38.75ZM64,24.92a1.59,1.59,0,1,1,1.59,1.59A1.59,1.59,0,0,1,64,24.92ZM50.45,80.7V71.13a.45.45,0,0,0-.45-.46.46.46,0,0,0-.46.46V80.7a2.5,2.5,0,1,0,.91,0Zm-.45,4a1.58,1.58,0,1,1,1.58-1.58A1.58,1.58,0,0,1,50,84.73Zm8.23-6.07V65.79a.45.45,0,0,0-.45-.45.46.46,0,0,0-.46.45V78.66a2.5,2.5,0,1,0,.91,0Zm-.45,4a1.58,1.58,0,1,1,1.58-1.58A1.59,1.59,0,0,1,57.78,82.69ZM66,72.63v-6a.46.46,0,1,0-.91,0v6a2.5,2.5,0,1,0,.91,0Zm-.45,4a1.59,1.59,0,1,1,1.58-1.58A1.59,1.59,0,0,1,65.56,76.66Zm-22.88,2V65.79a.46.46,0,0,0-.46-.45.45.45,0,0,0-.45.45V78.66a2.5,2.5,0,1,0,.91,0Zm-.46,4a1.58,1.58,0,1,1,1.59-1.58A1.58,1.58,0,0,1,42.22,82.69ZM34.9,72.63v-6a.47.47,0,0,0-.46-.46.46.46,0,0,0-.45.46v6a2.5,2.5,0,1,0,.91,0Zm-.46,4A1.59,1.59,0,1,1,36,75.08,1.58,1.58,0,0,1,34.44,76.66ZM26.68,34.58v7.19a.47.47,0,0,0,.46.46.46.46,0,0,0,.45-.46V34.58a2.5,2.5,0,1,0-.91,0Zm.46-4a1.59,1.59,0,1,1-1.59,1.58A1.58,1.58,0,0,1,27.14,30.55Zm45.27,4v7.19a.46.46,0,0,0,.45.46.47.47,0,0,0,.46-.46V34.58a2.5,2.5,0,1,0-.91,0Zm.45-4a1.59,1.59,0,1,1-1.58,1.58A1.58,1.58,0,0,1,72.86,30.55Z"/></svg>