<svg id="Layer_1" data-name="Layer 1" xmlns="http://www.w3.org/2000/svg" viewBox="0 0 138.2 134.6"><defs><style>.cls-1{fill:#EC5646;stroke:#EC5646;stroke-miterlimit:10;}</style></defs><title>githubIcon</title><path class="cls-1" d="M141.65,74.95a68.5,68.5,0,0,0-21.6,133.5c3.4.6,4.7-1.5,4.7-3.3,0-1.6-.1-7-.1-12.8-19.1,4.1-23.1-8.1-23.1-8.1-3.1-7.9-7.6-10-7.6-10-6.2-4.3.5-4.2.5-4.2,6.9.5,10.5,7.1,10.5,7.1,6.1,10.5,16,7.4,19.9,5.7.6-4.4,2.4-7.5,4.4-9.2-15.2-1.7-31.2-7.6-31.2-33.9a26.46,26.46,0,0,1,7.1-18.4c-.7-1.7-3.1-8.7.7-18.1,0,0,5.8-1.8,18.8,7a65.46,65.46,0,0,1,34.4,0c13.1-8.9,18.8-7,18.8-7,3.7,9.4,1.4,16.4.7,18.1a26.46,26.46,0,0,1,7.1,18.4c0,26.3-16,32.1-31.3,33.8,2.5,2.1,4.6,6.3,4.6,12.7,0,9.2-.1,16.5-.1,18.8,0,1.8,1.2,4,4.7,3.3a68.46,68.46,0,0,0-21.9-133.4Zm-42.9,97.6a1,1,0,0,1-1.2.2c-.5-.2-.8-.7-.6-1s.7-.4,1.2-.2S99,172.15,98.75,172.55Zm3.4,3a1,1,0,0,1-1.4-.3c-.4-.5-.5-1.1-.2-1.4a1,1,0,0,1,1.4.3C102.35,174.65,102.45,175.25,102.15,175.55Zm2.3,3.8c-.4.3-1.1,0-1.5-.6a1.2,1.2,0,0,1,0-1.6c.4-.3,1.1,0,1.5.6A1.2,1.2,0,0,1,104.45,179.35Zm3.9,4.5a1.32,1.32,0,0,1-1.8-.3c-.6-.6-.8-1.3-.4-1.8a1.32,1.32,0,0,1,1.8.3C108.55,182.65,108.75,183.45,108.35,183.85Zm5.1,1.5a1.4,1.4,0,0,1-1.7.6c-.8-.2-1.3-.9-1.1-1.4a1.4,1.4,0,0,1,1.7-.6A1.44,1.44,0,0,1,113.45,185.35Zm5.7.6c0,.6-.6,1-1.5,1s-1.5-.4-1.5-1,.6-1,1.5-1S119.15,185.45,119.15,185.95Zm5.7-.2c.1.6-.5,1.1-1.3,1.3s-1.5-.2-1.6-.7.5-1.1,1.3-1.3A1.31,1.31,0,0,1,124.85,185.75Z" transform="translate(-72.65 -74.45)"/></svg>