<?xml version="1.0" encoding="utf-8"?>
<!-- Generator: Adobe Illustrator 25.0.0, SVG Export Plug-In . SVG Version: 6.00 Build 0)  -->
<svg version="1.1" id="Layer_1" xmlns="http://www.w3.org/2000/svg" xmlns:xlink="http://www.w3.org/1999/xlink" x="0px" y="0px"
	 viewBox="0 0 1920 461.5" style="enable-background:new 0 0 1920 461.5;" xml:space="preserve">
<style type="text/css">
	.st0{fill-rule:evenodd;clip-rule:evenodd;fill:#FF5733;}
	.st1{fill:none;stroke:#FFFFFF;stroke-width:3;stroke-miterlimit:22.9256;}
	.st2{fill:none;stroke:#FFFFFF;stroke-width:5;stroke-miterlimit:22.9256;}
	.st3{fill:none;stroke:#FFFFFF;stroke-width:5;stroke-miterlimit:10;}
</style>
<path class="st0" d="M375.2,222.1c2.4-1.1-7.9-0.4-8.6,0.6C367.7,223.8,371.6,221.5,375.2,222.1z M366.2,385c-0.2,2.6,6,0.3,8.7,0.7
	C372.9,383.3,369.6,385.8,366.2,385z M319,394.3c6.3-2.3,16.8-0.6,20.9-1.4C337.3,390.4,321.2,391.2,319,394.3z M1495.2,445.2
	c-44,0.7-92.5,6.5-142.4,8C1398.1,453.2,1445.9,450.3,1495.2,445.2z M268.1,264.5c10-0.5,30.5,5.6,46.4,6.8c-1.7,4,8.8,3.5,9.1,8
	c3.6,1,4.3-2,8.6-0.6c-0.8,2.9-4.9,2.9-8.4,1.2c-2.5,3.2,6.7,3.1,7.1,6.4c-3,2.3-10.1-0.3-12.3,1.5c6.3,1.7,13.6,2.7,22.2,2.9
	c1.7,5.5,9.2,8.4,8.5,13.7c3.4-0.3,9,5.7,7.8,2.6c3.8-0.1-1.2,3.4,3.1,3.5c-2.6,2.3-5.8,3.1-11.3,2.6c-6.3,2.4-8.7,7-17.6,8l-1.8,2
	c-11.4-1.5-20.9,1.3-39,0.8c2.2,0.6,13,0.5,15.4,3.3c-1.5,2.1-2.6-1.4-5.7-0.2c3.4,1.7,1.6,1.4-2.8,1.4c0.3,2.6,4.7-0.5,6.8,1.4
	c-2.6,1.2-6.2,1.7-10.4,1.9c14.3,8.9,42.4,21,74.2,22.9c-8.6,2.5-17.7-0.2-23-2.2c4.5,3.6,12.1,8.3,22.6,9.6
	c4.4,0.6,9.8-0.8,14.3-0.3c8.4,0.9,14.2,6.5,21.5,6.6l-2.8,1.4c4.4,0.8,7.9,2.3,12.7,2.8c-8.1,1.8-24.9,2-31.1,7.1
	c17.9,1.9,39.6-0.5,55.5,0c-17.3,1.9-28.7,4.1-48.4,5.1c29.7,2.8,72.7-4.3,97.7,2.1l-1.8,1.3c17.5-0.6,34.8,4.1,53,5.1
	c-15.6,0.8-30.5-4.4-48.1-4.2c11.5,3.9,28.3,3.8,41.5,6.5c-34.7-0.9-75.5-2.7-108.5-6.9c8.3,3.9,27.9,2.1,32.9,6.4
	c31,2.5,62.1,3.5,93.1,4.8c30.2,1.3,58.9,7.6,87.7,9c-91.5,3-189.4,5.1-255.3-13.1c-3.9,1.4,5.9,3.1,6.1,5.8
	c82.6,21.2,200.1,16.5,311.8,13c38-1.2,74.3,6.4,110.6,9.8c106.3,9.8,216.5,22.3,343.2,21.4c26.2-0.2,55.9-1.8,86.9-4.3
	c-2.4-0.8-6.3-0.4-9.6-0.6c14-6,28.1-7.6,49.2-8.4c41-1.7,82.7-4.1,126-6c46.9-2.1,94.2-1.8,138-3.5c14.6-0.6,25.5-2.5,39.2-4.3
	c1.7-0.9-4.4-1.5-6.9-1.3c5.2-1.2,10.5-2.3,11.1-5.9c7.2-0.3,10.9-2.5,16.2-3.7c-1.2-2.6-4.5-3.6-10-2.9c4.3-2.7,1.1-2.6-2.3-4.2
	l4.7-1c-10.5-3.5-28.8-1.2-44.4-0.8c10.9-2.7,18.3-2,31.6-3.1l-5-1.5c11-2,29.9-1,40.4-2.6c-4.1-0.3-8.1-0.2-13.6-0.8
	c5-5.1,17.5-6.4,21.3-12.2c5.4-0.1,10.4-1.5,13.4-1.1c3-0.2-0.7-4.8,6.4-4.3l-7.9-1.2c6-1.3,3.6-7.1,12-7.2c-0.9-3-4.8-4.3-10.2-5.3
	c1.7-1.9,5,0.4,7.8,0c-5.8-3.1,9.5-4.1,16.1-4.5c0.4-2.5-2.8-3.9-7.2-4.3c0.9-2.3,2-2.6-0.4-4.3c1.9-1.1,6.4-1,8.6-2
	c-4.3-4.2-5.9-8.1-14.4-9.9c16.4-5.2,25-10.6,30.3-18.9c3.5,0,6.3,0.2,6.7-2.5c-4.6,0.5-7.8-0.1-10-1.5c8.5-12.8-13.4-15-29.4-14.7
	c-2.8-1.4-0.2-3-2.3-4.8c-9.7-0.2-20.1,0.2-29.8,0c12.9-3.5,37.3-2.7,49.6-3.6c-6.9-3.9-33.6,2-37.9-6c4.2,2.2,9.1-2.2,18.1-1
	c-3.1-4.8,0.4-9.9,2.5-15.1l3.9,0.9c2.7-1.2-3.4-0.8-3.1-2.2c6.1-5.4,10.7-11.5,11.5-19.7c3.7-1.5,5.7-4,11.9-4.2
	c-5.3-3.4-16.6-2.2-22.3-5.4c5.3-3.8,13.3-2.5,19.5-3.6c-8.7-12.7-31.1-8.8-48.4-12.5c-3.5-0.8-3.6-2.3-7-3.7
	c-12.5-5.5-33.3-5.8-49.1-7.2c-17.6-1.6-35.9-1.9-53.7-3.3c-9.2-0.7-17.9-3.5-27-4.7c-28-3.9-61.3-3.1-92-5c2.4,2.2,7.5,0.9,11.5,1
	c27.7,1,64.4,2.2,86.5,8.4c-10.8-1.8-24.4-1.4-37.3-1.5l5.7,0.2c-7.2,2.1-12.7-1.1-18.1,0.7l0.9-0.7c-15.5-0.5-31.8,2.2-46.9-1.5
	l5.9,2.6c-26.7,1.8-55.7-3.7-82.3-2c8.5,1.8,20.2,1.1,29.7,2.2c-34.1,2.3-56.5,3.5-90.5,3.4c-101-0.3-201.8,4.6-307.1,8.5
	c-13.6,0.5-26.4,1.2-42,1.7c-27.7,0.8-57.6-3.6-88.2-4.5c-68.2-1.9-142.2-5.6-210.6-4.2c-27.4,0.5-59.3,2-88.7,2.9
	c-17.7,0.5-36.2,2.9-51.5,2.2c-8.4-0.3-14.8-2.4-25.8,1.1L440,219c-6.5,2.6-17,2.2-24.6,3.5c-10.3,1.8-14.3,5.5-21.4,7.6
	c2-5.6,17.3-6.8,16.5-10.4c-12.3,1.9-30,14.4-46.3,8.7c-0.7-2.6,6.3-0.9,5.5-3.5l-6.5,1.7l0.2,3.1c-15,0.9-30.8-1.1-43-0.2
	c-0.1,1,5.9,1.7,1.1,2.4c16.5-1,35.4,0.4,53.6,0.2l0.2,2.5c-10,2.5-26,0.2-33.2,4.7c-31.4,0.7-48.3-9.5-69.9-16.4l0.2,1.8
	c-6,0.9-13.5-3.2-23.3-5.9c-2.2,0.4,1.2,1.6,2.1,1.8c-1.9,2.2-2.9-1.7-5.8-0.9c19.4,11.4,43.9,19,72.3,23.7
	c0.3,7.4,1.8,7.9-7.8,11.1c2.2,0.7,4.4,1.5,7.8,1.3c-2.6,3.1-10.2,0.8-15.2,1.7c2.4,4.3,13.2,2.2,15.8,6.4c-9.4-1.6-11,1.8-20,1.4
	c3.6,2.7,10.6,2.8,15.6,4.5c-24.2-2-51.8-7.1-67.2-17.8l1.6-5.1c-4.3-2.6-9.2-0.8-14.5-2.2C228.5,258.1,262.9,258.5,268.1,264.5z
	 M1618.7,283.7c2.9,0.2,3.4-0.9,5.6-1.1l5.1,2.7C1626.3,284.3,1621.8,284.5,1618.7,283.7z M1531.6,246.5c0.6-2,3.9-2.6,6.4-3.6
	c8.8,1.3,20.4,1.8,30.8,3.2c9.1,1.2,21.4,1.4,23.4,6.2C1573.4,249.3,1552.8,247.7,1531.6,246.5z M1444.4,243.2
	c4-0.7,45.7-4.8,47.8,0.7C1476.4,243.7,1461.1,242.9,1444.4,243.2z M930.7,251.8c34.5-1.3,68.8-2.4,96.7,1.3
	C994,252.2,958.5,256.6,930.7,251.8z M578.5,259.8c45.6-2.8,91.7-0.4,134.8,0.7C666.8,261.5,615.9,265.7,578.5,259.8z M538.9,393.8
	c3.6,0.2,7.4,0.1,9.7,1.2C545,394.8,541.3,394.9,538.9,393.8z M409.3,343.7c3.7-5.5,20.9-6.5,31.1-6.5c3,1.2-6.8,0.1-5.6,2.3
	l4.8,1.5C427.7,341.8,417.6,340.7,409.3,343.7z M387.2,342c9.2,0.4,15.7-1.6,23.8-1C406.3,344.5,393.7,344.3,387.2,342z M371,329.5
	l-0.1-1.2l-0.1-1.2c3.9,0.4,8.8,0.4,10.4-1.9l-3.9-2.2c10.5,0.1,18.8,1.9,28.7,2.4c-1.5,2.4-1.2,2.7-1.5,5.1c4.7,1,8.6,2.6,12.7,4.1
	c-12.4,3.4-20.8,1.3-28-3.7l4.1,4.1C384.7,334.1,382.1,326.3,371,329.5z M357.7,344c5.8,0.3,11.4,0.8,11.7,3.6
	C364.9,346.8,358.5,347.5,357.7,344z M356.6,328.6c1.1,2,7.4,3.5,5.2,5.8c-3.7-1.2-2.7,0.9-2.7,2.6c-4.4-2.1-10.2-3.2-12.9-6.6
	C349.3,329.8,354.3,327.9,356.6,328.6z M366.5,318.6c0.4,3.1-1.4,4.8-0.4,8.1c-4,1.2-5.2,0.3-7.5,2.4l-2-1.1
	c3.3-1.7,9.4-1.9,8.2-6.1c-3.3-0.6-13.1,3.3-14.4-0.3C354.9,322.3,364.6,320.8,366.5,318.6z M351.3,264.6
	c-6.5-0.2-16.8-0.9-16.5-3.9C339.1,262.9,347.8,261.7,351.3,264.6z M329.3,265.4c9.5,0.9,18.7,2,24.3,5.8
	C344.2,270.4,336.4,268.1,329.3,265.4z M256.5,262.2c3,0.1,5.4,0.7,7.7,1.4C267,262.2,251.7,261,256.5,262.2z M1359.8,198.6
	c4.4,1,9.5,1.4,15.4,1.4C1371.1,198.8,1365.3,198.8,1359.8,198.6z M314.1,280.1c1.7-0.9-2.8-2.6-5.8-2.1L314.1,280.1z M315.6,287.4
	c-2.5-1.4-14.9-1-23-0.3C297.9,288.4,307.7,286.6,315.6,287.4z M339,378.1c4.5,1.6,10.6,2,15.5,3.3l-6.9-2.6c9.5-2.8,19.8-0.5,25,2
	c0.8-2.1-8.5-2.2-9.9-4.9C354.2,378.6,345.1,375.6,339,378.1z M390.9,382.1l7.7,0.7C400.2,382,393.6,381.7,390.9,382.1z M1302.3,196
	c14.7,4.8,37.5,2.9,56.6,2.7C1341.2,197,1321.8,196.4,1302.3,196z"/>
<g>
	<path class="st1" d="M4506.58-843.64c-88.41-81.33-399.95,22.98-449.07,23.56c-49.12,0.57-53.33-57.15-17.52-57.15
		s0,70.72-39.69,28.11c-39.69-42.61,93.69,0,93.69,0v-56.39H3761.4v-84.86c0,0-272.25-8.84-282.07-8.84
		c0,0-51.84-109.61-164.19-54.81c0,0-32.28,28.29-9.82,70.72c0,0,28.07,17.68,42.1-22.98c0,0,14.03-60.11-79.99-45.97
		c-94.02,14.14-196.47,135.52-186.64,232.18"/>
	<path class="st1" d="M3630.98-995.9c0,0,24.8,0.59,32.1,2.55c7.3,1.96,7.7-6.57-1.57-13.24c-9.27-6.67-9.07-10.94-4.69-15.7
		c4.38-4.76,29.26-57.17,31.25-70.13c0,0,31.38,20.3,33.55,20.75c2.17,0.45-1.84,44.03-1.84,44.03s-11.51,4.19-9.63,8.21
		s26.16,6.08,39.53,11.56c0,0,6.72-5.41-11.21-17.04c0,0,16.72-43.67,14.67-49.08c-2.05-5.41-47.46-36.77-41.16-43.17
		c6.31-6.4,16.22-25.24,34.11-16.76c17.9,8.48,46.45,34.77,50.63,34.27c4.18-0.5,11.31,6,11.31,6s1.93-7.57,2.05-12.53
		c0,0-4.56-8.65-8.04-8.23s-49.56-48.53-51.65-48.28s7.05-0.13,12.54-1.49s12.58-7.14,13.72-9.4c1.15-2.26,2.74-6.68,5.53-7.01
		s11.85-1.4,8.85-8.82c-3-7.42-11.8-33.93-31.46-21c0,0-19.99,10.14-17.6,30.35c0,0-0.53,1.48-4.63,2.67s-23.38-18.42-39.69-12.96
		c-16.31,5.47-38.33-7.47-63.26,38.59c0,0-0.69,12.09,11.64,2.86c12.33-9.23,2.69-13.04,16.38-16.78
		c13.69-3.74,33.2-6.06,34.31-2.66c1.11,3.4-30.59,34.01-29.88,45.94c0,0-30.86,91.28-28.48,99.47l-4.33,11.11
		C3634.04-1011.8,3622.1-996.21,3630.98-995.9z"/>
	<path class="st1" d="M3811.39-1083.76c0,0,42.1,18.26,44.21,24.2c2.1,5.94,23.86,48.23,21.05,53.42
		c-2.81,5.19-35.08,17.07-40.7,26.71c-5.61,9.65-15.44,54.16-15.44,54.16h-9.12c0,0-9.82,4.45-9.82,8.16
		c0,3.71,34.63,2.23,37.66,4.45s5.39-2.97,0-11.13c0,0,12.86-42.29,15.66-43.78c2.81-1.48,32.28-15.58,37.19-15.58
		c4.91,0,24.56,60.1,37.19,64.55c0,0-18.24,1.78-21.75,6.45c-3.51,4.68,0.7,5.42,3.51,5.42c2.81,0,32.28,1.48,37.89,0
		c5.61-1.48,0.7-10.39,0-13.36c-0.7-2.97-16.84-42.83-21.75-74.84c-4.91-32.01-23.16-50.56-23.16-50.56s4.21-10.18,18.95,4.93
		c14.74,15.11,18.24,36.62,21.05,40.33c2.81,3.71,15.14-5.19,7.57-15.58c-7.57-10.39-16.69-50.45-46.86-54.91
		c-30.17-4.45-12.63-8.16-12.63-8.16l8.42-9.65c0,0,18.24-27.45-1.4-31.16c-19.65-3.71-34.38-7.42-36.49,5.19
		c0,0,4.21,1.78,2.1,9.05c-2.1,7.27-2.81,18.23,4.91,21.66c0,0,12.63,10.84-0.7,5.65c-8.71-3.39-30.6-14.01-44.73-20.96
		c-7.49-3.69-12.8-6.34-12.8-6.34S3805.77-1081.99,3811.39-1083.76z"/>
</g>
<path class="st1" d="M2516.7-1353.29c-88.41-81.33-399.95,22.98-449.07,23.56c-49.12,0.57-53.33-57.15-17.52-57.15
	s0,70.72-39.69,28.11c-39.69-42.61,93.69,0,93.69,0v-56.39h-332.59v-84.86c0,0-272.25-8.84-282.07-8.84
	c0,0-51.84-109.61-164.19-54.81c0,0-32.28,28.29-9.82,70.72c0,0,28.07,17.68,42.1-22.98c0,0,14.03-60.11-79.99-45.97
	c-94.02,14.14-196.47,135.52-186.64,232.18"/>
<path class="st1" d="M-297.1-2218.13c0,0,24.8,0.59,32.1,2.55s7.7-6.57-1.57-13.24s-9.07-10.94-4.69-15.7
	c4.38-4.76,29.26-57.17,31.25-70.13c0,0,31.38,20.3,33.55,20.75c2.17,0.45-1.84,44.03-1.84,44.03s-11.51,4.19-9.63,8.21
	c1.89,4.02,26.16,6.08,39.53,11.56c0,0,6.72-5.41-11.21-17.04c0,0,16.72-43.67,14.67-49.08c-2.05-5.41-47.46-36.77-41.16-43.17
	c6.31-6.4,16.22-25.24,34.11-16.76c17.9,8.48,46.45,34.77,50.63,34.27c4.18-0.5,11.31,6,11.31,6s1.93-7.57,2.05-12.53
	c0,0-4.56-8.65-8.04-8.23c-3.48,0.41-49.56-48.53-51.65-48.28c-2.09,0.25,7.05-0.13,12.54-1.49c5.49-1.36,12.58-7.14,13.72-9.4
	s2.74-6.68,5.53-7.01c2.79-0.33,11.85-1.4,8.85-8.82s-11.8-33.93-31.46-21c0,0-19.99,10.14-17.6,30.35c0,0-0.53,1.48-4.63,2.67
	s-23.38-18.42-39.69-12.96c-16.31,5.47-38.33-7.47-63.26,38.59c0,0-0.69,12.09,11.64,2.86c12.33-9.23,2.69-13.04,16.38-16.78
	c13.69-3.74,33.2-6.06,34.31-2.66c1.11,3.4-30.59,34.01-29.88,45.94c0,0-30.86,91.28-28.48,99.47l-4.33,11.11
	C-294.04-2234.04-305.98-2218.45-297.1-2218.13z"/>
<path class="st1" d="M-66.39-2004.45c0,0,42.1,18.26,44.21,24.2c2.11,5.94,23.86,48.23,21.05,53.42s-35.08,17.07-40.7,26.71
	s-15.44,54.16-15.44,54.16h-9.12c0,0-9.82,4.45-9.82,8.16c0,3.71,34.63,2.23,37.66,4.45c3.03,2.23,5.39-2.97,0-11.13
	c0,0,12.86-42.29,15.66-43.78c2.81-1.48,32.28-15.58,37.19-15.58s24.56,60.1,37.19,64.55c0,0-18.24,1.78-21.75,6.45
	s0.7,5.42,3.51,5.42s32.28,1.48,37.89,0s0.7-10.39,0-13.36c-0.7-2.97-16.84-42.83-21.75-74.84c-4.91-32.01-23.16-50.56-23.16-50.56
	s4.21-10.18,18.95,4.93c14.74,15.11,18.24,36.62,21.05,40.33c2.81,3.71,15.14-5.19,7.57-15.58c-7.57-10.39-16.69-50.45-46.86-54.91
	s-12.63-8.16-12.63-8.16l8.42-9.65c0,0,18.24-27.45-1.4-31.16c-19.65-3.71-34.38-7.42-36.49,5.19c0,0,4.21,1.78,2.11,9.05
	c-2.11,7.27-2.81,18.23,4.91,21.66c0,0,12.63,10.84-0.7,5.65c-8.71-3.39-30.61-14.01-44.73-20.96c-7.49-3.69-12.8-6.34-12.8-6.34
	S-72.01-2002.68-66.39-2004.45z"/>
<g>
	<path class="st2" d="M1149.95,183.72l27.86-8.83l-21.75-76.79l-28.54,8.2l20.39,71.31l-14.95,2.72c0,0-14.27,13.59-14.27,15.63
		c0,2.04-44.17-43.49-50.29-46.21c-6.12-2.72-16.99-2.69-16.99-2.69h-15.63l-10.87,15.6c0,0-8.83,14.95-15.63,2.72
		s-1.36-10.81,0-18.31s4.08-17.7,9.51-19.74c5.44-2.04,8.83-2.04,16.31-4.08c7.48-2.04,12.91-4.08,14.95-6.12
		c2.04-2.04-6.01-13.59-44.12,6.12c0,0-3.45,0.68-14.32,4.08c-10.87,3.4-16.31-2.72-19.03-5.44s-29.22-15.58-29.22-15.58
		l-9.51,27.81l-11.55,29.9c0,0-12.91,16.31-8.83,18.35c4.08,2.04,25.14,8.83,25.14,8.83s29.9,2.72,36.02,12.23l-31.26-16.31
		l23.11-59.8"/>
	<path class="st2" d="M1009.28,147.06c0,0,22.83,5.27,20.6,8.47c-2.23,3.2-9.19,14.53-12.78,14.39c-3.59-0.14-9.14-0.7-9.83-8.54
		S1009.28,147.06,1009.28,147.06z"/>
	<path class="st2" d="M992.97,213.62c0,0,2.72-23.78-18.35-10.19c0,0-16.31,16.99-4.08,23.11
		C970.55,226.54,984.14,230.61,992.97,213.62z"/>
	<path class="st2" d="M1010.64,226.96c0,0,9.51-32.74-14.27-13.86c0,0-14.27,15.47-9.51,22.27
		C986.86,235.37,995.69,245.74,1010.64,226.96z"/>
	<path class="st2" d="M1030.03,217.02c0,0,5.75,7.48,3.04,13.59c-2.72,6.12-10.59,14.27-14.47,14.27s-15.65-0.84-11.43-10.87
		S1014.77,215.66,1030.03,217.02z"/>
	<path class="st2" d="M1045.63,238.23c0,0,3.07-16.45-12.56-7.61c0,0-14.9,18.35-3.04,18.35
		C1041.9,248.96,1039.84,247.2,1045.63,238.23z"/>
	<path class="st2" d="M1130.26,115.86c0,0-29.92,8.06-41.47,5.34s-17.67-7.48-38.73-4.08"/>
	<path class="st3" d="M1041.72,244.88c0,0,14.45,6.23,20.57-6.4c0,0,16.99,7.61,19.71-7.6c0,0,20.39,2.16,22.43-14
		c0,0,19.71-1.21,14.27-20.92"/>
</g>
<path class="st2" d="M151.84,207.56c-9.34-25.05,200.54-100.07,372.58-36.43s233.94,137.04,352.35,119.59s-21.2-110.22-74.18-83.16
	c-52.98,27.06-94.36,109.22,120.52,129.51c214.89,20.29,193.7-139.2,377.27-103.17s81.26,96.74,178.31,92.1
	c97.05-4.64,0-98.75,0-98.75s-171.25-44.18-135.94,109.82s326.65-11.07,326.65-11.07"/>
</svg>
