<svg xmlns="http://www.w3.org/2000/svg" viewBox="0 0 63 54.46"><defs><style>.cls-1{fill:#EC5646;}.cls-2{fill:#fff;}</style></defs><title>home</title><g id="Layer_2" data-name="Layer 2"><g id="Layer_1-2" data-name="Layer 1"><path class="cls-1" d="M34.5,0a1.51,1.51,0,0,0-1,.41L6.55,27.26a1.45,1.45,0,0,0,0,2.1l4.25,4.25a1.44,1.44,0,0,0,1,.45,1.36,1.36,0,0,0,1.05-.45L34.5,12.06l16,16V48.21a4.53,4.53,0,0,0-2.9,3.25H41.5V31a1.47,1.47,0,0,0-1.5-1.5H29A1.47,1.47,0,0,0,27.5,31v20.5h-9V38a1.5,1.5,0,0,0-3,0v3.7a6.46,6.46,0,0,0-4.85,5A6.46,6.46,0,0,0,5.7,51.46H1.5a1.5,1.5,0,0,0,0,3H49A1.47,1.47,0,0,0,50.5,53v-.5a1.5,1.5,0,0,1,3,0V53a1.47,1.47,0,0,0,1.5,1.5h1.5a1.5,1.5,0,0,0,0-3h-.1a4.53,4.53,0,0,0-2.9-3.25V31.06l2.55,2.55a1.44,1.44,0,0,0,1.05.45,1.36,1.36,0,0,0,1-.45l4.25-4.25a1.45,1.45,0,0,0,0-2.1L35.55.41A1.51,1.51,0,0,0,34.5,0Zm0,3.61L59.25,28.36l-2.1,2.1L35.55,8.91a1.45,1.45,0,0,0-2.1,0L11.85,30.46l-2.1-2.1Zm-19,41.2v6.65H8.85a3.43,3.43,0,0,1,3.15-2A1.47,1.47,0,0,0,13.5,48,3.43,3.43,0,0,1,15.5,44.81Zm46,6.65A1.5,1.5,0,1,0,63,53,1.5,1.5,0,0,0,61.5,51.46Z"/><polygon class="cls-2" points="39.61 38.36 38.52 37.73 37.61 39.32 37.61 39.3 37.61 37.2 36.4 36.49 36.4 41.65 34.04 45.73 34.04 48 34.55 48.3 35.27 47.88 35.27 46.06 36.5 43.93 36.5 47.16 37.73 46.45 37.73 41.65 38.5 40.3 38.5 40.3 39.61 38.36"/><polygon class="cls-2" points="38.96 41.98 38.96 45.73 40.08 45.08 40.08 43.26 40.08 40.01 38.96 41.98"/><polygon class="cls-2" points="35.17 37.47 35.17 35.78 34.55 35.42 33.94 35.78 33.94 36.92 33.94 40.97 32.71 43.1 32.71 36.59 32.71 36.49 32.57 36.57 32.57 36.57 29.02 38.64 29.02 45.08 30.25 45.79 30.25 39.36 31.48 38.65 31.48 46.51 32.81 47.28 32.81 45.4 35.17 41.32 35.17 37.47"/></g></g></svg>