<svg id="Layer_1" data-name="Layer 1" xmlns="http://www.w3.org/2000/svg" viewBox="0 0 100 100"><defs><style>.cls-1{fill:#EC5646;opacity:0.1;}.cls-2{fill:#fff;}</style></defs><title>market</title><circle class="cls-1" cx="50" cy="50" r="49.5"/><rect class="cls-2" x="25.54" y="16.57" width="2.25" height="6.13"/><rect class="cls-2" x="25.54" y="76.7" width="2.25" height="6.13"/><path class="cls-2" d="M21.67,66.16a3.42,3.42,0,0,1,.42.43,3.2,3.2,0,0,1,5,0,3.21,3.21,0,0,1,4.57-.46V24.7h-10Z"/><path class="cls-2" d="M27.1,70.69a3.21,3.21,0,0,1-5,0,4.16,4.16,0,0,1-.42.42V74.7h10V71.14a3.22,3.22,0,0,1-4.57-.45Z"/><rect class="cls-2" x="41.66" y="58.16" width="2.25" height="6.12"/><rect class="cls-2" x="41.66" y="29.49" width="2.25" height="6.13"/><rect class="cls-2" x="37.79" y="37.62" width="10" height="18.54"/><rect class="cls-2" x="73.91" y="72.64" width="2.25" height="6.13"/><rect class="cls-2" x="73.91" y="25.43" width="2.25" height="6.13"/><path class="cls-2" d="M80,65.41V33.55H70V65.41a3.24,3.24,0,0,1,2.22,1.18,3.21,3.21,0,0,1,5,0,3.22,3.22,0,0,1,2.5-1.21A2.3,2.3,0,0,1,80,65.41Z"/><path class="cls-2" d="M60,51V42.82h3.87V30.49H60V22.37H57.79v8.12H53.91V42.82h3.88V51ZM55.91,40.82V32.49h6v8.33Z"/><path class="cls-2" d="M14.56,67.38a1.26,1.26,0,1,0,1.25,1.26A1.25,1.25,0,0,0,14.56,67.38Z"/><circle class="cls-2" cx="19.58" cy="68.64" r="1.25"/><path class="cls-2" d="M25.85,68.64a1.26,1.26,0,1,0-1.26,1.25A1.25,1.25,0,0,0,25.85,68.64Z"/><circle class="cls-2" cx="29.61" cy="68.64" r="1.25"/><circle class="cls-2" cx="34.63" cy="68.64" r="1.25"/><path class="cls-2" d="M39.65,67.38a1.26,1.26,0,1,0,1.25,1.26A1.25,1.25,0,0,0,39.65,67.38Z"/><circle class="cls-2" cx="44.66" cy="68.64" r="1.25"/><path class="cls-2" d="M49.68,67.38a1.26,1.26,0,1,0,1.26,1.26A1.25,1.25,0,0,0,49.68,67.38Z"/><circle class="cls-2" cx="54.7" cy="68.64" r="1.25"/><path class="cls-2" d="M59.72,67.38A1.26,1.26,0,1,0,61,68.64,1.25,1.25,0,0,0,59.72,67.38Z"/><circle class="cls-2" cx="64.73" cy="68.64" r="1.25"/><circle class="cls-2" cx="69.75" cy="68.64" r="1.25" transform="translate(0.95 138.23) rotate(-89.86)"/><path class="cls-2" d="M76,68.64a1.26,1.26,0,1,0-1.25,1.25A1.25,1.25,0,0,0,76,68.64Z"/><circle class="cls-2" cx="79.78" cy="68.64" r="1.25"/><circle class="cls-2" cx="84.8" cy="68.64" r="1.25"/></svg>