<svg id="Layer_1" data-name="Layer 1" xmlns="http://www.w3.org/2000/svg" viewBox="0 0 1370 1256.34"><defs><style>.cls-1{fill:#EC5646;}.cls-2,.cls-3,.cls-4,.cls-6{fill:#fff;}.cls-2,.cls-5{stroke:#fff;stroke-miterlimit:10;}.cls-4{font-size:60.75px;font-family:Poppins-SemiBold, Poppins;font-weight:700;}.cls-6{opacity:0.5;isolation:isolate;}.cls-7{fill:#ed4582;}.cls-8{fill:#afd13c;}.cls-9{fill:#71cde5;}.cls-10{fill:#a385bd;}</style></defs><title>NGENIC</title><path class="cls-1" d="M63.4,311.1a3.63,3.63,0,0,1-2.8-1.2L37.8,287.1a4,4,0,1,1,5.7-5.7l19.9,19.9,49.8-49.8a4,4,0,1,1,5.7,5.7h0L66.3,310A4.36,4.36,0,0,1,63.4,311.1Z" transform="translate(-9.5 -17.6)"/><path class="cls-1" d="M1324.8,178.8a2,2,0,0,1-2-2h0V117.2a2.06,2.06,0,1,1,4.1-.3v59.9A2,2,0,0,1,1324.8,178.8Z" transform="translate(-9.5 -17.6)"/><path class="cls-1" d="M1354.6,149H1295a2.06,2.06,0,0,1,0-4.1h59.6a2.06,2.06,0,0,1,0,4.1Z" transform="translate(-9.5 -17.6)"/><path class="cls-1" d="M123.4,950.6a2,2,0,0,1-1.5-.6l-17-17L88.4,949.5a2.05,2.05,0,0,1-2.9,0L66.2,930.1,47.1,949.2a2.07,2.07,0,1,1-3.3-2.5.78.78,0,0,1,.4-.4l20.6-20.6a2.05,2.05,0,0,1,2.9,0h0L87,945l16.5-16.5a2.05,2.05,0,0,1,2.9,0l17,17,18.1-18.1a2.05,2.05,0,0,1,2.9,0l19.2,19.2a2.07,2.07,0,0,1-2.5,3.3.78.78,0,0,1-.4-.4L143,931.8l-18.1,18.1A1.93,1.93,0,0,1,123.4,950.6Z" transform="translate(-9.5 -17.6)"/><path class="cls-2" d="M696.6,1021.6A383.94,383.94,0,0,1,325.7,736.8l3.4-.9c44.2,166.1,195.4,282.2,367.6,282.2A375.39,375.39,0,0,0,862,980.4l1.6,3.1a382.14,382.14,0,0,1-80,28.2A386.32,386.32,0,0,1,696.6,1021.6Z" transform="translate(-9.5 -17.6)"/><path class="cls-2" d="M329,540l-3.4-.9a380.46,380.46,0,0,1,66-134.3l2.8,2.1A378.75,378.75,0,0,0,329,540Z" transform="translate(-9.5 -17.6)"/><path class="cls-2" d="M923.4,947.5l-2-2.8A379.39,379.39,0,0,0,963,909.3l2.4,2.5A397.87,397.87,0,0,1,923.4,947.5Z" transform="translate(-9.5 -17.6)"/><path class="cls-2" d="M1035.7,817.8l-3.1-1.6a374.62,374.62,0,0,0,31.6-80.3l3.4.9A389.93,389.93,0,0,1,1035.7,817.8Z" transform="translate(-9.5 -17.6)"/><path class="cls-2" d="M1064.3,540C1020.1,373.7,869,257.5,696.6,257.5A379.68,379.68,0,0,0,489.1,319l-1.9-2.9C665,200.4,902.9,250.9,1018.5,428.7a387.25,387.25,0,0,1,49.2,110.5Z" transform="translate(-9.5 -17.6)"/><path class="cls-2" d="M991.7,883.2,989,881c8.3-10.1,16.2-20.6,23.6-31.4l2.9,1.9A391.13,391.13,0,0,1,991.7,883.2Z" transform="translate(-9.5 -17.6)"/><path class="cls-2" d="M425.3,371.3l-2.5-2.4a411,411,0,0,1,36.1-32.4l2.1,2.7A386,386,0,0,0,425.3,371.3Z" transform="translate(-9.5 -17.6)"/><path class="cls-2" d="M552.8,1119.4a518.85,518.85,0,0,1-61.7-22.9l1.5-3.2a517.41,517.41,0,0,0,61.2,22.8Z" transform="translate(-9.5 -17.6)"/><path class="cls-2" d="M372.6,1021.8A504,504,0,0,1,242.5,853a497.52,497.52,0,0,1-35.7-103.1,508.65,508.65,0,0,1-12.5-112V634h3.5v3.9A497.93,497.93,0,0,0,375,1019.2Z" transform="translate(-9.5 -17.6)"/><path class="cls-2" d="M463,1082.7a486.88,486.88,0,0,1-49.4-29.8l1.9-2.9a485.76,485.76,0,0,0,49,29.5Z" transform="translate(-9.5 -17.6)"/><path class="cls-2" d="M696.6,1140.3a508.83,508.83,0,0,1-113.4-12.8l.8-3.4a502.67,502.67,0,0,0,112.7,12.8c275.1,0,499-223.9,499-499a497.07,497.07,0,0,0-36.5-187.7l3.2-1.4a499.57,499.57,0,0,1,36.8,188.9A506.74,506.74,0,0,1,1189,739a503.06,503.06,0,0,1-296.6,361.6,509.93,509.93,0,0,1-94.3,29.3A496,496,0,0,1,696.6,1140.3Z" transform="translate(-9.5 -17.6)"/><path class="cls-2" d="M1040,275.8c-8.7-8.2-17.9-16.4-27.3-24.1l2.2-2.7c9.4,7.7,18.6,15.8,27.4,24.2Z" transform="translate(-9.5 -17.6)"/><path class="cls-2" d="M244.5,426.3l-3.2-1.5c117.3-251.3,416.3-360,667.6-242.6a505.93,505.93,0,0,1,74.2,42.7l-2,2.9a495.64,495.64,0,0,0-284.6-89.1C503.8,138.8,326.3,251.6,244.5,426.3Z" transform="translate(-9.5 -17.6)"/><path class="cls-2" d="M1129.2,389a503.21,503.21,0,0,0-60.9-84.1l2.6-2.3a500.49,500.49,0,0,1,61.3,84.7Z" transform="translate(-9.5 -17.6)"/><path class="cls-2" d="M207.5,538.8l-3.4-.7a507.9,507.9,0,0,1,17-62.9l3.3,1.2A487.73,487.73,0,0,0,207.5,538.8Z" transform="translate(-9.5 -17.6)"/><path class="cls-2" d="M611,27.5l-.5-3.5a619.69,619.69,0,0,1,86.1-5.9c6.1,0,12.2.1,18.2.3l-.1,3.5c-6-.2-12-.3-18.1-.3A613.61,613.61,0,0,0,611,27.5Z" transform="translate(-9.5 -17.6)"/><path class="cls-2" d="M696.6,1257.5A620.32,620.32,0,0,1,135.5,901.1l3.2-1.5C239.9,1115,458.9,1254,696.6,1254a622,622,0,0,0,65.5-3.5l.4,3.5A631,631,0,0,1,696.6,1257.5Z" transform="translate(-9.5 -17.6)"/><path class="cls-2" d="M120.7,867a619,619,0,0,1,82.7-604.5l2.8,2.1C123.9,372.6,80.4,501.7,80.4,637.7A613.54,613.54,0,0,0,124,865.6Z" transform="translate(-9.5 -17.6)"/><path class="cls-2" d="M225.6,240.5l-2.7-2.2A620.12,620.12,0,0,1,522.2,42.9l1,3.4A614.65,614.65,0,0,0,225.6,240.5Z" transform="translate(-9.5 -17.6)"/><path class="cls-2" d="M875.7,1231.2l-1-3.4c207.7-62.6,368.7-232.2,420.4-442.8l3.4.9a620.38,620.38,0,0,1-422.8,445.3Z" transform="translate(-9.5 -17.6)"/><path class="cls-2" d="M1310.3,725l-3.5-.5a613.2,613.2,0,0,0,6-86.7c0-276.8-186.3-521.3-453-594.3l1-3.4c269.3,73.7,455.9,318.6,455.6,597.7A635.73,635.73,0,0,1,1310.3,725Z" transform="translate(-9.5 -17.6)"/><path class="cls-2" d="M817.5,33.4A596.66,596.66,0,0,0,758,24.6l.4-3.5A576.66,576.66,0,0,1,818.3,30Z" transform="translate(-9.5 -17.6)"/><path class="cls-3" d="M911.8,759.9H487.4a2,2,0,0,1-2.2-1.9,2.1,2.1,0,0,1,1.9-2.2H911.8a2.06,2.06,0,1,1,.3,4.1Z" transform="translate(-9.5 -17.6)"/><path class="cls-3" d="M913.3,815.5H486.1a12.82,12.82,0,0,1-12.8-12.8V787a2.06,2.06,0,1,1,4.1-.3v16a8.6,8.6,0,0,0,8.6,8.6H913.2a8.6,8.6,0,0,0,8.6-8.6V787a2.06,2.06,0,1,1,4.1-.3v16A12.59,12.59,0,0,1,913.3,815.5Z" transform="translate(-9.5 -17.6)"/><path class="cls-2" d="M521.2,444.6H878.1a10.71,10.71,0,0,1,10.7,10.7V680.7a10.71,10.71,0,0,1-10.7,10.7H521.2a10.71,10.71,0,0,1-10.7-10.7V455.3A10.71,10.71,0,0,1,521.2,444.6Z" transform="translate(-9.5 -17.6)"/><path class="cls-3" d="M878.1,693.5H521.2a12.82,12.82,0,0,1-12.8-12.8V455.3a12.74,12.74,0,0,1,12.8-12.7H878.1a12.8,12.8,0,0,1,12.8,12.7V680.7A12.76,12.76,0,0,1,878.1,693.5ZM521.2,446.7a8.6,8.6,0,0,0-8.6,8.6V680.8a8.6,8.6,0,0,0,8.6,8.6H878.1a8.6,8.6,0,0,0,8.6-8.6V455.3a8.6,8.6,0,0,0-8.6-8.6Z" transform="translate(-9.5 -17.6)"/><path class="cls-2" d="M913.3,797.7H486.1A10.71,10.71,0,0,1,475.4,787l35.1-84.8s4.9-10.7,10.7-10.7H878.1c5.9,0,10.7,10.7,10.7,10.7L923.9,787A10.63,10.63,0,0,1,913.3,797.7Z" transform="translate(-9.5 -17.6)"/><path class="cls-3" d="M913.3,799.8H486.1A12.82,12.82,0,0,1,473.3,787a1.88,1.88,0,0,1,.2-.8l35.1-84.8v-.1c.6-1.3,5.5-11.9,12.6-11.9H878.1c7,0,12,10.7,12.6,11.9v.1l35.1,84.8a2.35,2.35,0,0,1,.2.8A12.74,12.74,0,0,1,913.3,799.8ZM477.4,787.4a8.59,8.59,0,0,0,8.6,8.2H913.2a8.59,8.59,0,0,0,8.6-8.2L887,703c-1.6-3.7-5.5-9.4-8.7-9.4H521.2c-3.3,0-7.1,5.8-8.7,9.4Z" transform="translate(-9.5 -17.6)"/><polygon class="cls-1" points="525.9 687.4 506.2 739 874 739 854.4 687.4 525.9 687.4"/><path class="cls-3" d="M883.5,758.7H515.7a1.85,1.85,0,0,1-1.7-.9,1.88,1.88,0,0,1-.2-1.9l19.8-51.6a2.15,2.15,0,0,1,1.9-1.4H864a1.92,1.92,0,0,1,1.9,1.4l19.6,51.6a2,2,0,0,1-1.2,2.6,1.08,1.08,0,0,1-.8.2Zm-364.8-4.1H880.5l-18-47.4H536.8Z" transform="translate(-9.5 -17.6)"/><rect class="cls-1" x="519" y="443.5" width="342.6" height="211.4"/><path class="cls-3" d="M871.1,674.6H528.5a2,2,0,0,1-2-2h0V461.1a2,2,0,0,1,2-2H871.1a2,2,0,0,1,2,2h0V672.5a2,2,0,0,1-2,2.1Zm-340.6-4.2H869V463.2H530.5Z" transform="translate(-9.5 -17.6)"/><rect class="cls-2" x="547.3" y="467.3" width="58.2" height="13.5"/><rect class="cls-1" x="568.6" y="490.6" width="83.9" height="13.4"/><rect class="cls-2" x="665.3" y="490.6" width="42" height="13.4"/><rect class="cls-1" x="719.2" y="490.6" width="42" height="13.4"/><rect class="cls-2" x="774.6" y="490.6" width="42" height="13.4"/><rect class="cls-2" x="568.6" y="514" width="50.2" height="13.4"/><rect class="cls-2" x="630.4" y="514" width="63.9" height="13.4"/><rect class="cls-2" x="704.3" y="514" width="42" height="13.4"/><rect class="cls-2" x="568.6" y="537.4" width="56.4" height="13.4"/><rect class="cls-1" x="635.8" y="537.4" width="86.7" height="13.4"/><rect class="cls-2" x="547.3" y="570.1" width="83.9" height="13.4"/><rect class="cls-1" x="643.9" y="570.1" width="42" height="13.4"/><rect class="cls-1" x="597.6" y="594" width="83.9" height="13.4"/><rect class="cls-2" x="694.2" y="594" width="42" height="13.4"/><rect class="cls-2" x="748.2" y="594" width="42" height="13.4"/><rect class="cls-2" x="568.6" y="618.1" width="83.9" height="13.4"/><rect class="cls-1" x="665.3" y="618.1" width="42" height="13.4"/><circle class="cls-1" cx="682.8" cy="554.3" r="76.2"/><path class="cls-3" d="M692.3,650.2a78.36,78.36,0,1,1,55.3-23A78.33,78.33,0,0,1,692.3,650.2Zm0-152.4a74.1,74.1,0,1,0,74.1,74.1,74.13,74.13,0,0,0-74.1-74.1Z" transform="translate(-9.5 -17.6)"/><path class="cls-2" d="M681.5,590.7a1.94,1.94,0,0,1-2-2,2,2,0,0,1,.6-1.5,19.8,19.8,0,0,1,28.1-.3l.2.2a2.07,2.07,0,0,1-.4,2.9,2,2,0,0,1-2.5,0,15.87,15.87,0,0,0-22.3,0l-.1.1A2.45,2.45,0,0,1,681.5,590.7Z" transform="translate(-9.5 -17.6)"/><path class="cls-2" d="M666.4,575.6a2.05,2.05,0,0,1-1.5-3.5,41.07,41.07,0,0,1,58.1-.3l.2.2a2.07,2.07,0,0,1-.4,2.9,2,2,0,0,1-2.5,0,36.88,36.88,0,0,0-52.3,0l-.1.1A1.62,1.62,0,0,1,666.4,575.6Z" transform="translate(-9.5 -17.6)"/><path class="cls-2" d="M652.2,561.4a2.05,2.05,0,0,1-1.5-3.5,61.29,61.29,0,0,1,86.7-.3l.2.2a2.07,2.07,0,0,1-.4,2.9,2,2,0,0,1-2.5,0,57.16,57.16,0,0,0-80.8,0l-.1.1A2.45,2.45,0,0,1,652.2,561.4Z" transform="translate(-9.5 -17.6)"/><path class="cls-2" d="M698.8,605.5a4.5,4.5,0,0,1-9,0,4.42,4.42,0,0,1,4.5-4.5h0A4.68,4.68,0,0,1,698.8,605.5Z" transform="translate(-9.5 -17.6)"/><rect class="cls-3" x="264.8" y="1055.4" width="122.9" height="70.4"/><path class="cls-3" d="M433.6,1031H237.3a8.17,8.17,0,0,0-8.2,8.2v126.3a8.17,8.17,0,0,0,8.2,8.2H433.6a8.17,8.17,0,0,0,8.2-8.2V1039.2A8.3,8.3,0,0,0,433.6,1031Zm4,134.6a4.12,4.12,0,0,1-4.1,4.1H237.3a4.12,4.12,0,0,1-4.1-4.1V1039.3a4.12,4.12,0,0,1,4.1-4.1H433.6a4.12,4.12,0,0,1,4.1,4.1v126.3Z" transform="translate(-9.5 -17.6)"/><path class="cls-2" d="M433.6,1035.2H237.3a4.12,4.12,0,0,0-4.1,4.1v8.9H437.6v-8.9A4,4,0,0,0,433.6,1035.2Zm-30.9,10.2a3.4,3.4,0,1,1,3.4-3.4,3.44,3.44,0,0,1-3.4,3.4Zm12.7,0a3.4,3.4,0,1,1,3.4-3.4A3.37,3.37,0,0,1,415.4,1045.4Zm12.7,0a3.4,3.4,0,1,1,3.4-3.4,3.37,3.37,0,0,1-3.4,3.4Z" transform="translate(-9.5 -17.6)"/><path class="cls-2" d="M437.6,1103.1v-50.8H233.2v50.8h36.4v4.2H233.2v58.3a4.12,4.12,0,0,0,4.1,4.1H433.6a4.12,4.12,0,0,0,4.1-4.1v-58.3H402.9v-4.2Zm-117.9,27L315,1116H299.2l-4.7,14.1h-6l15.2-44.7h7l15.2,44.7Zm36.9-22.4c-3.1,3.2-8.1,4.9-13.7,4.9a18.68,18.68,0,0,1-4.7-.4v18h-5.8V1086a69.24,69.24,0,0,1,11.1-.9c5.7,0,9.9,1.4,12.5,3.7a11.9,11.9,0,0,1,3.9,9.4,12.42,12.42,0,0,1-3.3,9.5Zm17,22.4h-5.8v-44.7h5.8Z" transform="translate(-9.5 -17.6)"/><path class="cls-3" d="M441.7,1050.2a2,2,0,0,1-2,2H231.1a2.06,2.06,0,1,1-.3-4.1H439.6a2.18,2.18,0,0,1,2.1,2.1Z" transform="translate(-9.5 -17.6)"/><path class="cls-1" d="M406.1,1042a3.4,3.4,0,1,1-3.4-3.4,3.44,3.44,0,0,1,3.4,3.4Z" transform="translate(-9.5 -17.6)"/><path class="cls-1" d="M418.8,1042a3.4,3.4,0,1,1-3.4-3.4h0a3.31,3.31,0,0,1,3.4,3.4Z" transform="translate(-9.5 -17.6)"/><path class="cls-1" d="M431.5,1042a3.4,3.4,0,1,1-3.4-3.4,3.37,3.37,0,0,1,3.4,3.4Z" transform="translate(-9.5 -17.6)"/><rect class="cls-1" x="169.3" y="1085.5" width="90.8" height="4.2"/><path class="cls-1" d="M205,1128.4a1.9,1.9,0,0,1-1.3-.5l-26.3-21.2a2,2,0,0,1-.2-2.9,2,2,0,0,1,2.8-.3l26.3,21.2a2,2,0,0,1,.3,2.9,1.72,1.72,0,0,1-1.6.8Z" transform="translate(-9.5 -17.6)"/><path class="cls-1" d="M178.8,1107.3a2,2,0,0,1-2-2.1,2.09,2.09,0,0,1,.8-1.6l26.3-21.2a2.06,2.06,0,1,1,2.7,3.1c-.1,0-.1.1-.2.1l-26.3,21.2A2.36,2.36,0,0,1,178.8,1107.3Z" transform="translate(-9.5 -17.6)"/><rect class="cls-1" x="393.2" y="1085.5" width="90.8" height="4.2"/><path class="cls-1" d="M467.2,1128.4a2,2,0,0,1-2-2.1,2.09,2.09,0,0,1,.8-1.6l26.3-21.2a2.06,2.06,0,1,1,2.7,3.1c-.1,0-.1.1-.2.1l-26.3,21.2A1.54,1.54,0,0,1,467.2,1128.4Z" transform="translate(-9.5 -17.6)"/><path class="cls-1" d="M493.5,1107.3a1.9,1.9,0,0,1-1.3-.5l-26.3-21.2a2,2,0,0,1-.2-2.9,2,2,0,0,1,2.8-.3l26.3,21.2a2,2,0,0,1,.3,2.9,1.82,1.82,0,0,1-1.6.8Z" transform="translate(-9.5 -17.6)"/><path class="cls-1" d="M310.6,1085.4h-7l-15.2,44.7h6l4.7-14.1h15.8l4.8,14.1h6.2Zm-10.3,26.2,4.4-12.9a81.17,81.17,0,0,0,2.2-8.1h.1c.7,2.6,1.4,5.2,2.3,8.2l4.4,12.9Z" transform="translate(-9.5 -17.6)"/><path class="cls-1" d="M356.1,1088.8c-2.6-2.4-6.8-3.7-12.5-3.7a68.32,68.32,0,0,0-11.1.9v44.2h5.8v-18a18.68,18.68,0,0,0,4.7.4c5.6,0,10.7-1.6,13.7-4.9a13.33,13.33,0,0,0,3.5-9.5A12.78,12.78,0,0,0,356.1,1088.8ZM343,1108a19.59,19.59,0,0,1-4.8-.5v-17.4a24.13,24.13,0,0,1,5.4-.5c6.4,0,10.6,2.8,10.6,8.7.1,6.3-4.2,9.7-11.2,9.7Z" transform="translate(-9.5 -17.6)"/><path class="cls-1" d="M367.9,1085.4v44.7h5.8v-44.7Z" transform="translate(-9.5 -17.6)"/><path class="cls-3" d="M1369.9,513H1096.5a9.56,9.56,0,0,0-9.5,9.5V732.7a9.56,9.56,0,0,0,9.5,9.5h273.4a9.56,9.56,0,0,0,9.5-9.5V522.5A9.37,9.37,0,0,0,1369.9,513Zm5.4,219.6a5.34,5.34,0,0,1-5.3,5.3H1096.6a5.34,5.34,0,0,1-5.3-5.3h0V522.5a5.34,5.34,0,0,1,5.3-5.3H1370a5.34,5.34,0,0,1,5.3,5.3V732.6Z" transform="translate(-9.5 -17.6)"/><path class="cls-2" d="M1369.9,517H1096.5a5.34,5.34,0,0,0-5.3,5.3h0v11.3h284.1V522.3A5.42,5.42,0,0,0,1369.9,517Zm-39.3,12.8a4.12,4.12,0,0,1-4.1-4.1,4.1,4.1,0,1,1,4.1,4.1Zm15.4,0a4.15,4.15,0,1,1,4.2-4.1,4.2,4.2,0,0,1-4.2,4.1Zm15.3,0a4.12,4.12,0,0,1-4.1-4.1,4.1,4.1,0,1,1,8.2,0,4,4,0,0,1-4.1,4.1Z" transform="translate(-9.5 -17.6)"/><path d="M1091.2,537.8V732.6a5.34,5.34,0,0,0,5.3,5.3h273.4a5.34,5.34,0,0,0,5.3-5.3V537.8Zm101.7,129a2.05,2.05,0,1,1-2.9,2.9h0l-31.6-31.6a2.18,2.18,0,0,1,0-3l31.6-31.6a2.06,2.06,0,0,1,3.2,2.6l-.3.3-30.2,30.2Zm54.6-60.9-30.1,63.3a2.22,2.22,0,0,1-1.8,1.2,2.92,2.92,0,0,1-.9-.2,2,2,0,0,1-1-2.7l30.1-63.3a2,2,0,0,1,3.7,1.7Zm60.7,32.2-31.6,31.6a2.09,2.09,0,1,1-3-2.9h0l30.2-30.2-30.2-30.2a2.06,2.06,0,1,1,2.6-3.2l.3.3,31.6,31.6a2.2,2.2,0,0,1,.6,1.5,1.84,1.84,0,0,1-.5,1.5Z" transform="translate(-9.5 -17.6)"/><path class="cls-3" d="M1379.5,535.8a2,2,0,0,1-2,2H1089.2a2.06,2.06,0,0,1-.3-4.1h288.6a2,2,0,0,1,2,2.1Z" transform="translate(-9.5 -17.6)"/><path class="cls-1" d="M1334.7,525.8a4.12,4.12,0,0,1-4.1,4.1,4.1,4.1,0,1,1,4.1-4.1Z" transform="translate(-9.5 -17.6)"/><path class="cls-1" d="M1350.1,525.8a4.1,4.1,0,0,1-8.2,0,4.1,4.1,0,0,1,8.2,0Z" transform="translate(-9.5 -17.6)"/><path class="cls-1" d="M1365.5,525.8a4.12,4.12,0,0,1-4.1,4.1,4.1,4.1,0,1,1,4.1-4.1Z" transform="translate(-9.5 -17.6)"/><path class="cls-3" d="M1192.9,666.8a2.05,2.05,0,1,1-2.9,2.9h0l-31.6-31.6a2.18,2.18,0,0,1,0-3l31.6-31.6a2.06,2.06,0,0,1,3.2,2.6l-.3.3-30.2,30.2Z" transform="translate(-9.5 -17.6)"/><path class="cls-3" d="M1308.8,636.7a2,2,0,0,1-.6,1.5l-31.6,31.6a2.09,2.09,0,1,1-3-2.9h0l30.2-30.2-30.2-30.2a2.06,2.06,0,1,1,2.6-3.2l.3.3,31.6,31.6A2.13,2.13,0,0,1,1308.8,636.7Z" transform="translate(-9.5 -17.6)"/><path class="cls-3" d="M1247.5,605.9l-30.1,63.3a2.22,2.22,0,0,1-1.8,1.2,2.92,2.92,0,0,1-.9-.2,2,2,0,0,1-1-2.7l30.1-63.3a2,2,0,0,1,2.7-1,1.91,1.91,0,0,1,1,2.7Z" transform="translate(-9.5 -17.6)"/><path class="cls-1" d="M134.8,524.6c0,11.7-24,21.3-53.5,21.3s-53.6-9.5-53.6-21.3,24-21.3,53.6-21.3S134.8,512.9,134.8,524.6Z" transform="translate(-9.5 -17.6)"/><path class="cls-3" d="M81.2,547.9c-14.6,0-28.2-2.2-38.6-6.4-11-4.4-17-10.4-17-17s6-12.6,17-17c10.4-4.1,24.1-6.4,38.6-6.4s28.2,2.2,38.6,6.4c11,4.4,17,10.4,17,17s-6,12.6-17,17C109.5,545.7,95.8,547.9,81.2,547.9Zm0-42.5c-14.1,0-27.2,2.1-37.1,6.1-9.1,3.6-14.4,8.4-14.4,13.1s5.2,9.5,14.4,13.1c9.9,3.9,23,6.1,37.1,6.1s27.2-2.1,37.1-6.1c9.1-3.7,14.4-8.4,14.4-13.1s-5.2-9.5-14.4-13.1c-9.8-4-23-6.1-37.1-6.1Z" transform="translate(-9.5 -17.6)"/><path class="cls-1" d="M134.8,524.6v52.9c0,11.7-24,21.3-53.5,21.3s-53.6-9.5-53.6-21.3V524.6c0,11.7,24,21.3,53.6,21.3S134.8,536.3,134.8,524.6Z" transform="translate(-9.5 -17.6)"/><path class="cls-3" d="M81.2,600.8c-14.6,0-28.2-2.2-38.6-6.4-11-4.4-17-10.4-17-17V524.6a2.06,2.06,0,1,1,4.1-.3v.3c0,4.7,5.2,9.5,14.4,13.1,9.9,3.9,23,6.1,37.1,6.1s27.2-2.1,37.1-6.1c9.1-3.7,14.4-8.4,14.4-13.1a2.06,2.06,0,1,1,4.1-.3v53.2c0,6.6-6,12.6-17,17C109.5,598.5,95.8,600.8,81.2,600.8ZM29.8,533.6v43.9c0,4.8,5.2,9.5,14.4,13.1,9.9,3.9,23,6.1,37.1,6.1s27.2-2.1,37.1-6.1c9.1-3.7,14.4-8.4,14.4-13.1V533.6c-2.9,3-7.2,5.6-12.8,7.9-10.4,4.1-24.1,6.4-38.6,6.4s-28.2-2.2-38.6-6.4a34,34,0,0,1-13-7.9Z" transform="translate(-9.5 -17.6)"/><path class="cls-1" d="M134.8,577.5v52.9c0,11.7-24,21.3-53.5,21.3s-53.6-9.5-53.6-21.3V577.5c0,11.7,24,21.3,53.6,21.3S134.8,589.2,134.8,577.5Z" transform="translate(-9.5 -17.6)"/><path class="cls-3" d="M81.2,653.7c-14.6,0-28.2-2.2-38.6-6.4-11-4.4-17-10.4-17-17V577.5a2.06,2.06,0,0,1,4.1,0c0,4.8,5.2,9.5,14.4,13.1,9.9,3.9,23,6.1,37.1,6.1s27.2-2.1,37.1-6.1c9.1-3.7,14.4-8.4,14.4-13.1a2.06,2.06,0,0,1,4.1,0v52.9c0,6.6-6,12.6-17,17C109.5,651.4,95.8,653.7,81.2,653.7ZM29.8,586.5v43.8c0,4.8,5.2,9.5,14.4,13.1,9.9,3.9,23,6.1,37.1,6.1s27.2-2.1,37.1-6.1c9.1-3.6,14.4-8.4,14.4-13.1V586.5c-2.9,3-7.2,5.6-12.8,7.9-10.4,4.1-24.1,6.4-38.6,6.4s-28.2-2.2-38.6-6.4c-5.8-2.2-10.1-4.9-13-7.9Z" transform="translate(-9.5 -17.6)"/><path class="cls-1" d="M134.8,630.3v52.9c0,11.7-24,21.3-53.5,21.3S27.7,695,27.7,683.2V630.3c0,11.7,24,21.3,53.6,21.3S134.8,642,134.8,630.3Z" transform="translate(-9.5 -17.6)"/><path class="cls-3" d="M81.2,706.5c-14.6,0-28.2-2.2-38.6-6.4-11-4.4-17-10.4-17-17V630.2a2.06,2.06,0,0,1,4.1,0c0,4.8,5.2,9.5,14.4,13.1,9.9,3.9,23,6.1,37.1,6.1s27.2-2.1,37.1-6.1c9.1-3.6,14.4-8.4,14.4-13.1a2.06,2.06,0,0,1,4.1,0v52.9c0,6.6-6,12.6-17,17C109.5,704.3,95.8,706.5,81.2,706.5ZM29.8,639.4v43.8c0,4.8,5.2,9.5,14.4,13.1,9.9,3.9,23,6.1,37.1,6.1s27.2-2.1,37.1-6.1c9.1-3.7,14.4-8.4,14.4-13.1V639.4c-2.9,3-7.2,5.6-12.8,7.9-10.4,4.1-24.1,6.4-38.6,6.4s-28.2-2.2-38.6-6.4c-5.8-2.3-10.1-4.9-13-7.9Z" transform="translate(-9.5 -17.6)"/><circle class="cls-1" cx="1044.1" cy="103.4" r="67.4"/><path class="cls-3" d="M1053.7,190.6a69.48,69.48,0,1,1,49.2-20.4A69.54,69.54,0,0,1,1053.7,190.6Zm0-134.9A65.3,65.3,0,1,0,1119,121h0A65.45,65.45,0,0,0,1053.7,55.7Z" transform="translate(-9.5 -17.6)"/><path class="cls-3" d="M1053.7,190.6c-10.7,0-20.6-7.4-27.9-20.8-7.2-13-11.1-30.3-11.1-48.6s4-35.6,11.1-48.7c7.4-13.4,17.3-20.9,27.9-20.9s20.6,7.4,27.9,20.9c7.2,13,11.1,30.3,11.1,48.7s-4,35.6-11.1,48.6C1074.3,183.1,1064.4,190.6,1053.7,190.6Zm0-134.9c-9.1,0-17.8,6.6-24.4,18.6-6.8,12.4-10.6,29-10.6,46.7s3.8,34.3,10.6,46.7c6.6,12,15.2,18.6,24.4,18.6s17.8-6.6,24.4-18.6c6.8-12.4,10.6-29,10.6-46.7s-3.8-34.3-10.6-46.7C1071.4,62.4,1062.7,55.7,1053.7,55.7Z" transform="translate(-9.5 -17.6)"/><path class="cls-3" d="M1053.7,95.3a69.16,69.16,0,0,1-49.1-20.4,2.07,2.07,0,1,1,2.5-3.3.78.78,0,0,1,.4.4,65.36,65.36,0,0,0,92.4,0h0a2.07,2.07,0,0,1,2.9.4,2,2,0,0,1,0,2.5A69.16,69.16,0,0,1,1053.7,95.3Z" transform="translate(-9.5 -17.6)"/><path class="cls-3" d="M1101.4,170.8a2,2,0,0,1-1.5-.6,65.36,65.36,0,0,0-92.4,0h0a2.07,2.07,0,0,1-2.9-.4,2,2,0,0,1,0-2.5,69.41,69.41,0,0,1,98.3,0h0a2.05,2.05,0,0,1,0,2.9A2.4,2.4,0,0,1,1101.4,170.8Z" transform="translate(-9.5 -17.6)"/><path class="cls-1" d="M1053.7,53.7Z" transform="translate(-9.5 -17.6)"/><path class="cls-3" d="M1053.7,190.6a2,2,0,0,1-2-2h0V53.7a2.06,2.06,0,1,1,4.1-.3V188.5a2.18,2.18,0,0,1-2.1,2.1Z" transform="translate(-9.5 -17.6)"/><path class="cls-1" d="M986.3,121.1Z" transform="translate(-9.5 -17.6)"/><path class="cls-3" d="M1121.1,123.2H986.3a2.06,2.06,0,0,1,0-4.1h134.8a2.06,2.06,0,0,1,.3,4.1Z" transform="translate(-9.5 -17.6)"/><path class="cls-3" d="M1291.9,893.9H1109.7a7.38,7.38,0,0,0-7.4,7.4v44.4a7.38,7.38,0,0,0,7.4,7.4h182.2a7.38,7.38,0,0,0,7.4-7.4V901.3A7.38,7.38,0,0,0,1291.9,893.9Zm3.2,51.9a3.33,3.33,0,0,1-3.3,3.3H1109.6a3.33,3.33,0,0,1-3.3-3.3V901.4a3.33,3.33,0,0,1,3.3-3.3h182.2a3.33,3.33,0,0,1,3.3,3.3Z" transform="translate(-9.5 -17.6)"/><path d="M1291.9,898.1H1109.7a3.33,3.33,0,0,0-3.3,3.3v44.4a3.33,3.33,0,0,0,3.3,3.3h182.2a3.33,3.33,0,0,0,3.3-3.3V901.4A3.33,3.33,0,0,0,1291.9,898.1Zm-102.2,29.7a1.94,1.94,0,0,1-2,2h-63.6a2,2,0,0,1-2-2h0v-8.4a2,2,0,0,1,2-2h63.6a2,2,0,0,1,2,2h0Zm42.1,3a7.25,7.25,0,1,1,7.2-7.3h0a7.32,7.32,0,0,1-7.2,7.3Zm20.4,0a7.25,7.25,0,1,1,7.2-7.3h0a7.19,7.19,0,0,1-7.2,7.3Zm20.4,0a7.25,7.25,0,1,1,7.2-7.3h0a7.13,7.13,0,0,1-7.2,7.3Z" transform="translate(-9.5 -17.6)"/><rect class="cls-1" x="1114.6" y="901.7" width="63.6" height="8.4"/><path class="cls-3" d="M1187.6,917.3H1124a1.94,1.94,0,0,0-2,2h0v8.4a2,2,0,0,0,2,2h63.6a2,2,0,0,0,2-2h0v-8.4A1.89,1.89,0,0,0,1187.6,917.3Zm-2,8.4h-59.4v-4.4h59.4Z" transform="translate(-9.5 -17.6)"/><path class="cls-1" d="M1236.9,923.6a5.1,5.1,0,1,1-5.1-5.1h0A5,5,0,0,1,1236.9,923.6Z" transform="translate(-9.5 -17.6)"/><path class="cls-3" d="M1231.8,916.3a7.25,7.25,0,1,0,7.2,7.3h0A7.32,7.32,0,0,0,1231.8,916.3Zm0,10.3a3.1,3.1,0,1,1,3.1-3.1h0A3.11,3.11,0,0,1,1231.8,926.6Z" transform="translate(-9.5 -17.6)"/><path class="cls-1" d="M1257.4,923.6a5.1,5.1,0,1,1-5.1-5.1h0a5,5,0,0,1,5.1,5.1Z" transform="translate(-9.5 -17.6)"/><path class="cls-3" d="M1252.2,916.3a7.25,7.25,0,1,0,7.2,7.3h0A7.19,7.19,0,0,0,1252.2,916.3Zm0,10.3a3.1,3.1,0,1,1,3.1-3.1h0a3.11,3.11,0,0,1-3.1,3.1Z" transform="translate(-9.5 -17.6)"/><path class="cls-1" d="M1277.9,923.6a5.1,5.1,0,1,1-5.1-5.1h0A5.06,5.06,0,0,1,1277.9,923.6Z" transform="translate(-9.5 -17.6)"/><path class="cls-3" d="M1272.6,916.3a7.25,7.25,0,1,0,7.2,7.3h0A7.13,7.13,0,0,0,1272.6,916.3Zm0,10.3a3.1,3.1,0,1,1,3.1-3.1h0A3,3,0,0,1,1272.6,926.6Z" transform="translate(-9.5 -17.6)"/><path class="cls-3" d="M1291.9,964.3H1109.7a7.38,7.38,0,0,0-7.4,7.4v44.4a7.38,7.38,0,0,0,7.4,7.4h182.2a7.38,7.38,0,0,0,7.4-7.4V971.7A7.38,7.38,0,0,0,1291.9,964.3Zm3.2,51.8a3.33,3.33,0,0,1-3.3,3.3H1109.6a3.33,3.33,0,0,1-3.3-3.3V971.7a3.33,3.33,0,0,1,3.3-3.3h182.2a3.33,3.33,0,0,1,3.3,3.3Z" transform="translate(-9.5 -17.6)"/><path d="M1291.9,968.4H1109.7a3.33,3.33,0,0,0-3.3,3.3v44.4a3.33,3.33,0,0,0,3.3,3.3h182.2a3.33,3.33,0,0,0,3.3-3.3V971.7A3.4,3.4,0,0,0,1291.9,968.4Zm-102.2,29.7a1.94,1.94,0,0,1-2,2h-63.6a2,2,0,0,1-2-2h0v-8.4a2,2,0,0,1,2-2h63.6a2,2,0,0,1,2,2h0Zm42.1,3a7.25,7.25,0,1,1,7.2-7.3h0A7.32,7.32,0,0,1,1231.8,1001.1Zm20.4,0a7.25,7.25,0,1,1,7.2-7.3h0a7.19,7.19,0,0,1-7.2,7.3Zm20.4,0a7.25,7.25,0,1,1,7.2-7.3h0a7.13,7.13,0,0,1-7.2,7.3Z" transform="translate(-9.5 -17.6)"/><rect class="cls-1" x="1114.6" y="972.1" width="63.6" height="8.4"/><path class="cls-3" d="M1187.6,987.6H1124a1.94,1.94,0,0,0-2,2h0V998a2,2,0,0,0,2,2h63.6a2,2,0,0,0,2-2h0v-8.4a1.89,1.89,0,0,0-2-2Zm-2,8.5h-59.4v-4.4h59.4Z" transform="translate(-9.5 -17.6)"/><circle class="cls-1" cx="1222.3" cy="976.3" r="5.1"/><path class="cls-3" d="M1231.8,986.7a7.25,7.25,0,1,0,7.2,7.3h0A7.32,7.32,0,0,0,1231.8,986.7Zm0,10.3a3.1,3.1,0,1,1,3.1-3.1A3.18,3.18,0,0,1,1231.8,997Z" transform="translate(-9.5 -17.6)"/><circle class="cls-1" cx="1242.7" cy="976.3" r="5.1"/><path class="cls-3" d="M1252.2,986.7a7.25,7.25,0,1,0,7.2,7.3h0A7.19,7.19,0,0,0,1252.2,986.7Zm0,10.3a3.1,3.1,0,1,1,3.1-3.1,3.18,3.18,0,0,1-3.1,3.1Z" transform="translate(-9.5 -17.6)"/><path class="cls-1" d="M1277.9,993.9a5.1,5.1,0,1,1-5.1-5.1h0A5.06,5.06,0,0,1,1277.9,993.9Z" transform="translate(-9.5 -17.6)"/><path class="cls-3" d="M1272.6,986.7a7.25,7.25,0,1,0,7.2,7.3h0A7.13,7.13,0,0,0,1272.6,986.7Zm0,10.3a3.1,3.1,0,1,1,3.1-3.1A3.05,3.05,0,0,1,1272.6,997Z" transform="translate(-9.5 -17.6)"/><rect class="cls-1" x="1119.8" y="933.5" width="143" height="15.2"/><path class="cls-3" d="M1272.3,949h-143a2,2,0,0,0-2,2v15.2a2,2,0,0,0,2,2h143a2,2,0,0,0,2-2h0V951a1.94,1.94,0,0,0-2-2Zm-2.1,15.3h-139V953.2h139Z" transform="translate(-9.5 -17.6)"/><path class="cls-3" d="M1291.9,1034.6H1109.7a7.38,7.38,0,0,0-7.4,7.4v44.4a7.38,7.38,0,0,0,7.4,7.4h182.2a7.38,7.38,0,0,0,7.4-7.4V1042A7.38,7.38,0,0,0,1291.9,1034.6Zm3.2,51.8a3.33,3.33,0,0,1-3.3,3.3H1109.6a3.33,3.33,0,0,1-3.3-3.3V1042a3.24,3.24,0,0,1,3.3-3.2h182.2a3.31,3.31,0,0,1,3.3,3.2Z" transform="translate(-9.5 -17.6)"/><path d="M1291.9,1038.8H1109.7a3.31,3.31,0,0,0-3.3,3.2v44.4a3.33,3.33,0,0,0,3.3,3.3h182.2a3.33,3.33,0,0,0,3.3-3.3V1042A3.31,3.31,0,0,0,1291.9,1038.8Zm-102.2,29.7a1.94,1.94,0,0,1-2,2h-63.6a2,2,0,0,1-2-2h0v-8.4a2,2,0,0,1,2-2h63.6a2,2,0,0,1,2,2h0Zm42.1,3a7.25,7.25,0,1,1,7.2-7.3h0a7.39,7.39,0,0,1-7.2,7.3Zm20.4,0a7.25,7.25,0,1,1,7.2-7.3h0a7.26,7.26,0,0,1-7.2,7.3Zm20.4,0a7.25,7.25,0,1,1,7.2-7.3h0a7.19,7.19,0,0,1-7.2,7.3Z" transform="translate(-9.5 -17.6)"/><rect class="cls-1" x="1114.6" y="1042.3" width="63.6" height="8.4"/><path class="cls-3" d="M1187.6,1057.9H1124a1.94,1.94,0,0,0-2,2h0v8.5a2,2,0,0,0,2,2h63.6a2,2,0,0,0,2-2h0V1060a2,2,0,0,0-2-2.1Zm-2,8.4h-59.4v-4.4h59.4Z" transform="translate(-9.5 -17.6)"/><circle class="cls-1" cx="1222.3" cy="1046.6" r="5.1"/><path class="cls-3" d="M1231.8,1057a7.25,7.25,0,1,0,7.2,7.3h0A7.32,7.32,0,0,0,1231.8,1057Zm0,10.3a3.1,3.1,0,1,1,3.1-3.1h0A3.11,3.11,0,0,1,1231.8,1067.3Z" transform="translate(-9.5 -17.6)"/><circle class="cls-1" cx="1242.7" cy="1046.6" r="5.1"/><path class="cls-3" d="M1252.2,1057a7.25,7.25,0,1,0,7.2,7.3h0A7.19,7.19,0,0,0,1252.2,1057Zm0,10.3a3.1,3.1,0,1,1,3.1-3.1h0a3.11,3.11,0,0,1-3.1,3.1Z" transform="translate(-9.5 -17.6)"/><path class="cls-1" d="M1277.9,1064.2a5.1,5.1,0,1,1-5.1-5.1h0A5.19,5.19,0,0,1,1277.9,1064.2Z" transform="translate(-9.5 -17.6)"/><path class="cls-3" d="M1272.6,1057a7.25,7.25,0,1,0,7.2,7.3h0A7.13,7.13,0,0,0,1272.6,1057Zm0,10.3a3.1,3.1,0,1,1,3.1-3.1h0A3,3,0,0,1,1272.6,1067.3Z" transform="translate(-9.5 -17.6)"/><rect class="cls-1" x="1119.8" y="1003.8" width="143" height="15.2"/><path class="cls-3" d="M1272.3,1019.4h-143a1.94,1.94,0,0,0-2,2h0v15.2a2,2,0,0,0,2,2h143a2,2,0,0,0,2-2h0v-15.2a1.94,1.94,0,0,0-2-2Zm-2.1,15.2h-139v-11.1h139Z" transform="translate(-9.5 -17.6)"/><path class="cls-3" d="M1291.9,1105H1109.7a7.38,7.38,0,0,0-7.4,7.4v44.4a7.38,7.38,0,0,0,7.4,7.4h182.2a7.38,7.38,0,0,0,7.4-7.4v-44.4A7.38,7.38,0,0,0,1291.9,1105Zm3.2,51.8a3.33,3.33,0,0,1-3.3,3.3H1109.6a3.33,3.33,0,0,1-3.3-3.3v-44.4a3.24,3.24,0,0,1,3.3-3.2h182.2a3.31,3.31,0,0,1,3.3,3.2Z" transform="translate(-9.5 -17.6)"/><path d="M1291.9,1109H1109.7a3.31,3.31,0,0,0-3.3,3.2v44.4a3.33,3.33,0,0,0,3.3,3.3h182.2a3.33,3.33,0,0,0,3.3-3.3v-44.4A3.38,3.38,0,0,0,1291.9,1109Zm-102.2,29.8a1.94,1.94,0,0,1-2,2h-63.6a2,2,0,0,1-2-2h0v-8.4a2,2,0,0,1,2-2h63.6a2,2,0,0,1,2,2h0Zm42.1,2.9a7.25,7.25,0,1,1,7.2-7.3h0a7.32,7.32,0,0,1-7.2,7.3Zm20.4,0a7.25,7.25,0,1,1,7.2-7.3h0a7.19,7.19,0,0,1-7.2,7.3Zm20.4,0a7.25,7.25,0,1,1,7.2-7.3h0a7.13,7.13,0,0,1-7.2,7.3Z" transform="translate(-9.5 -17.6)"/><rect class="cls-1" x="1114.6" y="1112.7" width="63.6" height="8.4"/><path class="cls-3" d="M1187.6,1128.3H1124a2,2,0,0,0-2,2v8.4a2,2,0,0,0,2,2h63.6a2,2,0,0,0,2-2h0v-8.4a1.89,1.89,0,0,0-2-2Zm-2,8.4h-59.4v-4.3h59.4Z" transform="translate(-9.5 -17.6)"/><circle class="cls-1" cx="1222.3" cy="1117" r="5.1"/><path class="cls-3" d="M1231.8,1127.3a7.25,7.25,0,1,0,7.2,7.3h0A7.46,7.46,0,0,0,1231.8,1127.3Zm0,10.4a3.1,3.1,0,1,1,3.1-3.1h0A3.18,3.18,0,0,1,1231.8,1137.7Z" transform="translate(-9.5 -17.6)"/><circle class="cls-1" cx="1242.7" cy="1117" r="5.1"/><path class="cls-3" d="M1252.2,1127.3a7.25,7.25,0,1,0,7.2,7.3h0A7.26,7.26,0,0,0,1252.2,1127.3Zm0,10.4a3.1,3.1,0,1,1,3.1-3.1h0a3.18,3.18,0,0,1-3.1,3.1Z" transform="translate(-9.5 -17.6)"/><path class="cls-1" d="M1277.9,1134.6a5.1,5.1,0,1,1-5.1-5.1h0A5.06,5.06,0,0,1,1277.9,1134.6Z" transform="translate(-9.5 -17.6)"/><path class="cls-3" d="M1272.6,1127.3a7.25,7.25,0,1,0,7.2,7.3h0A7.19,7.19,0,0,0,1272.6,1127.3Zm0,10.4a3.1,3.1,0,1,1,3.1-3.1h0A3.05,3.05,0,0,1,1272.6,1137.7Z" transform="translate(-9.5 -17.6)"/><rect class="cls-1" x="1119.8" y="1074.2" width="143" height="15.2"/><path class="cls-3" d="M1272.3,1089.7h-143a2,2,0,0,0-2,2h0v15.2a2,2,0,0,0,2,2h143a2,2,0,0,0,2-2h0v-15.2A1.89,1.89,0,0,0,1272.3,1089.7Zm-2.1,15.3h-139v-11.1h139Z" transform="translate(-9.5 -17.6)"/><path class="cls-2" d="M1016.6,472.9v23.5a7.75,7.75,0,0,0,7.6,7.7h95.5a7.62,7.62,0,0,0,7.6-7.7V472.9Zm55.4,24.9a8.9,8.9,0,1,1,8.9-8.9h0a8.79,8.79,0,0,1-8.9,8.9Z" transform="translate(-9.5 -17.6)"/><path class="cls-3" d="M1119.8,506.1h-95.5a9.77,9.77,0,0,1-9.7-9.7V473a2,2,0,0,1,2-2h110.7a2,2,0,0,1,2,2h0v23.5A9.52,9.52,0,0,1,1119.8,506.1ZM1018.7,475v21.3a5.48,5.48,0,0,0,5.5,5.5h95.5a5.48,5.48,0,0,0,5.5-5.5V475Zm53.3,24.9a11.05,11.05,0,1,1,11-11.1h0A11.05,11.05,0,0,1,1072,499.9Zm0-17.9a6.9,6.9,0,1,0,6.9,6.9h0a7,7,0,0,0-6.9-6.9Z" transform="translate(-9.5 -17.6)"/><path class="cls-1" d="M1081,488.9a8.9,8.9,0,1,1-8.9-8.9h0A8.86,8.86,0,0,1,1081,488.9Z" transform="translate(-9.5 -17.6)"/><path class="cls-3" d="M1072,499.9a11.05,11.05,0,1,1,11-11.1h0A11.05,11.05,0,0,1,1072,499.9Zm0-17.9a6.9,6.9,0,1,0,6.9,6.9h0a7,7,0,0,0-6.9-6.9Z" transform="translate(-9.5 -17.6)"/><path class="cls-1" d="M1127.5,309.4V472.9H1016.8V309.4a7.75,7.75,0,0,1,7.6-7.7h95.5A7.89,7.89,0,0,1,1127.5,309.4Z" transform="translate(-9.5 -17.6)"/><path class="cls-3" d="M1127.5,475H1016.8a2,2,0,0,1-2-2h0V309.4a9.77,9.77,0,0,1,9.7-9.7H1120a9.77,9.77,0,0,1,9.7,9.7V472.9a2.54,2.54,0,0,1-2.2,2.1Zm-108.7-4.2h106.6V309.4a5.48,5.48,0,0,0-5.5-5.5h-95.5a5.48,5.48,0,0,0-5.5,5.5l-.1,161.4Z" transform="translate(-9.5 -17.6)"/><path class="cls-1" d="M1081,488.9a8.9,8.9,0,1,1-8.9-8.9h0A8.86,8.86,0,0,1,1081,488.9Z" transform="translate(-9.5 -17.6)"/><path class="cls-3" d="M1072,499.9a11.05,11.05,0,1,1,11-11.1h0A11.05,11.05,0,0,1,1072,499.9Zm0-17.9a6.9,6.9,0,1,0,6.9,6.9h0a7,7,0,0,0-6.9-6.9Z" transform="translate(-9.5 -17.6)"/><rect class="cls-2" x="1017.6" y="300" width="49.5" height="8.9"/><rect class="cls-2" x="1031.1" y="315.7" width="29.2" height="8.9"/><rect class="cls-1" x="1067.2" y="315.7" width="42.9" height="8.9"/><rect class="cls-2" x="1031.1" y="331.5" width="39.9" height="8.9"/><rect class="cls-1" x="1077.3" y="331.5" width="24.2" height="8.9"/><rect class="cls-1" x="1031.1" y="346.8" width="24.3" height="8.9"/><rect class="cls-2" x="1060.7" y="346.8" width="33.1" height="8.9"/><rect class="cls-2" x="1017.6" y="367.4" width="62.7" height="8.9"/><rect class="cls-2" x="1031.1" y="383.4" width="14.7" height="8.9"/><rect class="cls-1" x="1051.1" y="383.4" width="32.6" height="8.9"/><rect class="cls-2" x="1088.9" y="383.4" width="19.5" height="8.9"/><rect class="cls-1" x="1031.1" y="414.5" width="39.9" height="8.9"/><rect class="cls-1" x="1077.5" y="414.5" width="24" height="8.9"/><rect class="cls-2" x="1031.1" y="399.4" width="24.3" height="8.9"/><rect class="cls-2" x="1060.7" y="399.4" width="33.1" height="8.9"/><rect class="cls-2" x="1031.1" y="430.5" width="24.3" height="8.9"/><rect class="cls-1" x="1060.7" y="430.5" width="33.1" height="8.9"/><path class="cls-1" d="M267.3,584.1h-3.2V563.2l-4.9.1V561l8.2-.9-.1,24Z" transform="translate(-9.5 -17.6)"/><path class="cls-1" d="M292.4,575a11.32,11.32,0,0,1-2,7.1,7.73,7.73,0,0,1-11.2,0c-1.4-1.6-2-4-2-7.1v-5.7a11.32,11.32,0,0,1,2-7.1,7.58,7.58,0,0,1,10.7-.5c.2.2.4.3.5.5,1.4,1.6,2,4,2,7.1V575Zm-3.3-6.4a7.89,7.89,0,0,0-1.2-4.7,3.82,3.82,0,0,0-3.3-1.6,3.7,3.7,0,0,0-3.3,1.6,7.89,7.89,0,0,0-1.2,4.7v7.1a8.39,8.39,0,0,0,1.2,4.8,3.94,3.94,0,0,0,3.3,1.6,3.7,3.7,0,0,0,3.3-1.6,8.2,8.2,0,0,0,1.2-4.8Z" transform="translate(-9.5 -17.6)"/><path class="cls-1" d="M311.5,575a11.32,11.32,0,0,1-2,7.1,7.73,7.73,0,0,1-11.2,0c-1.4-1.6-2-4-2-7.1v-5.7a11.32,11.32,0,0,1,2-7.1,7.58,7.58,0,0,1,10.7-.5c.2.2.4.3.5.5,1.4,1.6,2,4,2,7.1V575Zm-3.3-6.4a7.89,7.89,0,0,0-1.2-4.7,4.26,4.26,0,0,0-5.9-.7,2.34,2.34,0,0,0-.7.7,7.89,7.89,0,0,0-1.2,4.7v7.1a8.39,8.39,0,0,0,1.2,4.8,3.94,3.94,0,0,0,3.3,1.6,3.7,3.7,0,0,0,3.3-1.6,8.2,8.2,0,0,0,1.2-4.8v-7.1Z" transform="translate(-9.5 -17.6)"/><path class="cls-1" d="M324.6,584.1h-3.2V563.2l-4.9.1V561l8.2-.9-.1,24Z" transform="translate(-9.5 -17.6)"/><path class="cls-1" d="M343.6,584.1h-3.2V563.2l-4.9.1V561l8.2-.9-.1,24Z" transform="translate(-9.5 -17.6)"/><path class="cls-1" d="M368.6,575a11.32,11.32,0,0,1-2,7.1,7.7,7.7,0,0,1-10.8.5c-.2-.1-.3-.3-.5-.5-1.4-1.6-2-4-2-7.1v-5.7a11.32,11.32,0,0,1,2-7.1,7.58,7.58,0,0,1,10.7-.5c.2.2.4.3.5.5,1.4,1.6,2,4,2,7.1l.1,5.7Zm-3.3-6.4a7.89,7.89,0,0,0-1.2-4.7,3.82,3.82,0,0,0-3.3-1.6,3.7,3.7,0,0,0-3.3,1.6,7.89,7.89,0,0,0-1.2,4.7v7.1a8.39,8.39,0,0,0,1.2,4.8,3.94,3.94,0,0,0,3.3,1.6,3.7,3.7,0,0,0,3.3-1.6,7.45,7.45,0,0,0,1.1-4.8Z" transform="translate(-9.5 -17.6)"/><path class="cls-1" d="M275.2,614.3a11.32,11.32,0,0,1-2,7.1,7.73,7.73,0,0,1-11.2,0c-1.4-1.6-2-4-2-7.1v-5.7a11.52,11.52,0,0,1,2-7.1,7.7,7.7,0,0,1,10.8-.5l.5.5c1.4,1.6,2,4,2,7.1l-.1,5.7Zm-3.2-6.4a7.89,7.89,0,0,0-1.2-4.7,3.94,3.94,0,0,0-3.3-1.6,3.7,3.7,0,0,0-3.3,1.6,7.89,7.89,0,0,0-1.2,4.7V615a7.89,7.89,0,0,0,1.2,4.7,3.94,3.94,0,0,0,3.3,1.6,3.7,3.7,0,0,0,3.3-1.6,8.2,8.2,0,0,0,1.2-4.8Z" transform="translate(-9.5 -17.6)"/><path class="cls-1" d="M294.3,614.3a11.32,11.32,0,0,1-2,7.1,7.73,7.73,0,0,1-11.2,0c-1.4-1.6-2-4-2-7.1v-5.7a11.52,11.52,0,0,1,2-7.1,7.7,7.7,0,0,1,10.8-.5l.5.5c1.4,1.6,2,4,2,7.1l-.1,5.7Zm-3.3-6.4a7.89,7.89,0,0,0-1.2-4.7,4.26,4.26,0,0,0-5.9-.7,4.62,4.62,0,0,0-.7.7,7.89,7.89,0,0,0-1.2,4.7V615a7.89,7.89,0,0,0,1.2,4.7,3.94,3.94,0,0,0,3.3,1.6,3.7,3.7,0,0,0,3.3-1.6,8.2,8.2,0,0,0,1.2-4.8v-7Z" transform="translate(-9.5 -17.6)"/><path class="cls-1" d="M307.4,623.5h-3.2V602.6l-4.9.1v-2.3l8.2-.9-.1,24Z" transform="translate(-9.5 -17.6)"/><path class="cls-1" d="M326.4,623.5h-3.2V602.6l-4.9.1v-2.3l8.2-.9-.1,24Z" transform="translate(-9.5 -17.6)"/><path class="cls-1" d="M351.5,614.3a11.32,11.32,0,0,1-2,7.1,7.61,7.61,0,0,1-10.8.4c-.2-.1-.3-.3-.4-.4-1.4-1.6-2-4-2-7.1v-5.7a11.52,11.52,0,0,1,2-7.1,7.7,7.7,0,0,1,10.8-.5l.5.5c1.4,1.6,2,4,2,7.1l-.1,5.7Zm-3.3-6.4a7.89,7.89,0,0,0-1.2-4.7,3.94,3.94,0,0,0-3.3-1.6,3.7,3.7,0,0,0-3.3,1.6,7.89,7.89,0,0,0-1.2,4.7V615a7.89,7.89,0,0,0,1.2,4.7,3.94,3.94,0,0,0,3.3,1.6,3.7,3.7,0,0,0,3.3-1.6,8.2,8.2,0,0,0,1.2-4.8Z" transform="translate(-9.5 -17.6)"/><path class="cls-1" d="M364.6,623.5h-3.2V602.6l-4.9.1v-2.3l8.2-.9-.1,24Z" transform="translate(-9.5 -17.6)"/><path class="cls-1" d="M275.2,653.6a11.32,11.32,0,0,1-2,7.1,7.7,7.7,0,0,1-10.8.5c-.2-.1-.3-.3-.5-.5-1.4-1.6-2-4-2-7.1v-5.7a11.32,11.32,0,0,1,2-7.1,7.58,7.58,0,0,1,10.7-.5c.2.2.4.3.5.5,1.4,1.6,2,4,2,7.1l.1,5.7Zm-3.2-6.4a7.89,7.89,0,0,0-1.2-4.7,3.82,3.82,0,0,0-3.3-1.6,3.76,3.76,0,0,0-3.4,1.6,7.89,7.89,0,0,0-1.2,4.7v7.1a8.39,8.39,0,0,0,1.2,4.8,3.94,3.94,0,0,0,3.3,1.6,3.7,3.7,0,0,0,3.3-1.6,8.2,8.2,0,0,0,1.2-4.8Z" transform="translate(-9.5 -17.6)"/><path class="cls-1" d="M288.3,662.8h-3.2V641.9l-4.9.1v-2.4l8.2-.9-.1,24.1Z" transform="translate(-9.5 -17.6)"/><path class="cls-1" d="M313.3,653.6a11.32,11.32,0,0,1-2,7.1,7.7,7.7,0,0,1-10.8.5c-.2-.1-.3-.3-.5-.5-1.4-1.6-2-4-2-7.1v-5.7a11.32,11.32,0,0,1,2-7.1,7.58,7.58,0,0,1,10.7-.5c.2.2.4.3.5.5,1.4,1.6,2,4,2,7.1l.1,5.7Zm-3.3-6.4a7.89,7.89,0,0,0-1.2-4.7,3.82,3.82,0,0,0-3.3-1.6,3.7,3.7,0,0,0-3.3,1.6,7.89,7.89,0,0,0-1.2,4.7v7.1a8.39,8.39,0,0,0,1.2,4.8,3.94,3.94,0,0,0,3.3,1.6,3.7,3.7,0,0,0,3.3-1.6,8.2,8.2,0,0,0,1.2-4.8Z" transform="translate(-9.5 -17.6)"/><path class="cls-1" d="M326.4,662.8h-3.2V641.9l-4.9.1v-2.4l8.2-.9-.1,24.1Z" transform="translate(-9.5 -17.6)"/><path class="cls-1" d="M345.6,662.8h-3.3V641.9l-4.9.1v-2.4l8.2-.9v24.1Z" transform="translate(-9.5 -17.6)"/><path class="cls-1" d="M370.5,653.6a11.32,11.32,0,0,1-2,7.1,7.7,7.7,0,0,1-10.8.5c-.2-.1-.3-.3-.5-.5-1.4-1.6-2-4-2-7.1v-5.7a11.32,11.32,0,0,1,2-7.1,7.58,7.58,0,0,1,10.7-.5c.2.2.4.3.5.5,1.4,1.6,2,4,2,7.1l.1,5.7Zm-3.2-6.4a7.89,7.89,0,0,0-1.2-4.7,3.82,3.82,0,0,0-3.3-1.6,3.7,3.7,0,0,0-3.3,1.6,7.89,7.89,0,0,0-1.2,4.7v7.1a8.39,8.39,0,0,0,1.2,4.8,3.82,3.82,0,0,0,3.3,1.6,3.43,3.43,0,0,0,3.2-1.6,8.2,8.2,0,0,0,1.2-4.8l.1-7.1Z" transform="translate(-9.5 -17.6)"/><path class="cls-1" d="M267.3,702.9h-3.2V682l-4.9.1v-2.3l8.2-.9-.1,24Z" transform="translate(-9.5 -17.6)"/><path class="cls-1" d="M292.4,693.7a11.32,11.32,0,0,1-2,7.1,7.7,7.7,0,0,1-10.8.5c-.2-.1-.3-.3-.5-.5-1.4-1.6-2-4-2-7.1V688a11.32,11.32,0,0,1,2-7.1,7.58,7.58,0,0,1,10.7-.5c.2.2.4.3.5.5,1.4,1.6,2,4,2,7.1l.1,5.7Zm-3.3-6.4a7.89,7.89,0,0,0-1.2-4.7,3.82,3.82,0,0,0-3.3-1.6,3.7,3.7,0,0,0-3.3,1.6,7.89,7.89,0,0,0-1.2,4.7v7.1a8.39,8.39,0,0,0,1.2,4.8,3.94,3.94,0,0,0,3.3,1.6,3.7,3.7,0,0,0,3.3-1.6,8.2,8.2,0,0,0,1.2-4.8Z" transform="translate(-9.5 -17.6)"/><path class="cls-1" d="M311.5,693.7a11.32,11.32,0,0,1-2,7.1,7.7,7.7,0,0,1-10.8.5c-.2-.1-.3-.3-.5-.5-1.4-1.6-2-4-2-7.1V688a11.32,11.32,0,0,1,2-7.1,7.58,7.58,0,0,1,10.7-.5c.2.2.4.3.5.5,1.4,1.6,2,4,2,7.1l.1,5.7Zm-3.3-6.4a7.89,7.89,0,0,0-1.2-4.7,4.26,4.26,0,0,0-5.9-.7,2.34,2.34,0,0,0-.7.7,7.89,7.89,0,0,0-1.2,4.7v7.1a8.39,8.39,0,0,0,1.2,4.8,3.94,3.94,0,0,0,3.3,1.6,3.7,3.7,0,0,0,3.3-1.6,8.2,8.2,0,0,0,1.2-4.8v-7.1Z" transform="translate(-9.5 -17.6)"/><path class="cls-1" d="M330.5,693.7a11.32,11.32,0,0,1-2,7.1,7.7,7.7,0,0,1-10.8.5c-.2-.1-.3-.3-.5-.5-1.4-1.6-2-4-2-7.1V688a11.32,11.32,0,0,1,2-7.1,7.58,7.58,0,0,1,10.7-.5c.2.2.4.3.5.5,1.4,1.6,2,4,2,7.1l.1,5.7Zm-3.3-6.4a7.89,7.89,0,0,0-1.2-4.7,4.26,4.26,0,0,0-5.9-.7,2.34,2.34,0,0,0-.7.7,7.89,7.89,0,0,0-1.2,4.7v7.1a8.39,8.39,0,0,0,1.2,4.8,3.94,3.94,0,0,0,3.3,1.6,3.7,3.7,0,0,0,3.3-1.6,8.2,8.2,0,0,0,1.2-4.8v-7.1Z" transform="translate(-9.5 -17.6)"/><path class="cls-1" d="M343.6,702.9h-3.2V682l-4.9.1v-2.3l8.2-.9-.1,24Z" transform="translate(-9.5 -17.6)"/><path class="cls-1" d="M362.7,702.9h-3.2V682l-4.9.1v-2.3l8.2-.9-.1,24Z" transform="translate(-9.5 -17.6)"/><path class="cls-3" d="M288.8,246.4a3.45,3.45,0,0,1-.8.9l-.1.1-.2.1-.1.1h-1a1.45,1.45,0,0,1-.7-.2,154.46,154.46,0,0,1-57.2-50.5c-11.5-16.9-19.8-36.5-24.7-58.2-8.4-36.9-4.3-67.7-4.2-68a1.81,1.81,0,0,1,1.4-1.6L286.1,37h.1c.1,0,.1,0,.2-.1s.3-.1.4-.1h.8l.2.1h.1a2.07,2.07,0,0,1,1.2,2.7,2,2,0,0,1-1.3,1.2L285,41.9,204,72.7a205.39,205.39,0,0,0,4.4,65.4c7.5,32.6,26.9,76.9,76.8,104.1,1,.6,2,1.1,3,1.6A2.05,2.05,0,0,1,288.8,246.4Z" transform="translate(-9.5 -17.6)"/><path class="cls-3" d="M369.8,138.6a170.94,170.94,0,0,1-24.7,58.2c-14.3,21.2-33.5,38-57.1,50.4l-.1.1-.2.1-.1.1h-1a1.45,1.45,0,0,1-.7-.2h-.1a2.21,2.21,0,0,1-1-1.7V175.2a2.06,2.06,0,0,1,4.1-.3v67.3c49.9-27.4,69.3-71.6,76.8-104.3A207.84,207.84,0,0,0,370,72.6L289,41.8V87.3a2.06,2.06,0,0,1-4.1,0V38.7a1.85,1.85,0,0,1,.9-1.7.52.52,0,0,1,.4-.2h.1c.1,0,.1,0,.2-.1s.3-.1.4-.1h.8l.2.1h.1l84.9,32.2a2.47,2.47,0,0,1,1.4,1.6A222.18,222.18,0,0,1,369.8,138.6Z" transform="translate(-9.5 -17.6)"/><circle cx="277.4" cy="112" r="32.5"/><path class="cls-3" d="M286.9,94.9a34.55,34.55,0,1,0,34.5,34.6h0A34.53,34.53,0,0,0,286.9,94.9Zm0,65a30.5,30.5,0,1,1,30.5-30.5h0a30.43,30.43,0,0,1-30.5,30.5Z" transform="translate(-9.5 -17.6)"/><path d="M370,72.4,289,41.6V87a2.06,2.06,0,0,1-4.1,0V41.7l-81,30.8a205.39,205.39,0,0,0,4.4,65.4c7.5,32.6,26.9,76.9,76.8,104.1V175a2.06,2.06,0,0,1,4.1-.3V242c49.9-27.4,69.3-71.6,76.8-104.3A210.54,210.54,0,0,0,370,72.4Zm-83.1,91.7a34.55,34.55,0,1,1,34.5-34.6v.1A34.38,34.38,0,0,1,286.9,164.1Z" transform="translate(-9.5 -17.6)"/><path class="cls-1" d="M283,141.6a2,2,0,0,1-1.5-.6l-11.9-12a2.07,2.07,0,0,1,.4-2.9,2,2,0,0,1,2.5,0L283,136.6l21.1-21a2.07,2.07,0,0,1,2.9.4,2,2,0,0,1,0,2.5L284.4,141A2,2,0,0,1,283,141.6Z" transform="translate(-9.5 -17.6)"/><path class="cls-1" d="M348.2,842.4c0,28.6-29.3,52-65,52H74.5c-35.8,0-65-23.4-65-52s29.2-52,65-52H283.1C319,790.5,348.2,813.9,348.2,842.4Z" transform="translate(-9.5 -17.6)"/><text class="cls-4" transform="translate(71.75 843.94) scale(1.06 1)">NGENI</text><path class="cls-3" d="M1287,437.6l-53.4-51.8L1202,409.9l-17.4-8.8V330.5l17.5-8.8,31.6,24.1,53.3-51.9,36.6,14.7V423L1287,437.6" transform="translate(-9.5 -17.6)"/><path class="cls-1" d="M1314.4,314.8l-25.2-10.1L1234.5,358l-33.4-25.4-7.2,3.6v59.2l7.2,3.6,33.4-25.4,54.8,53.2,25.2-10.1-.1-101.9Zm-109.7,64.9V351.9l15.5,13.8-15.5,14Zm49.4-14,30.9-23.1V389l-30.9-23.3Z" transform="translate(-9.5 -17.6)"/><path class="cls-1" d="M898.4,1187.9c0-2.4,0-4.8-.2-7.3s-.5-4.8-.8-7.2c-6.7-1.7-13.4-3.3-14.2-6s4.2-7.7,9.1-12.5a95.54,95.54,0,0,0-6.4-12.8c-6.8,1-13.7,2.1-15.4-.1s1-8.7,3.6-15a81.76,81.76,0,0,0-10.9-9.4c-5.9,3.5-11.9,7.1-14.3,5.7s-2.4-8.4-2.4-15.2a80.28,80.28,0,0,0-13.6-4.5c-4.1,5.5-8.3,11.1-11.1,10.8s-5.3-6.8-8-13.1c-2.4,0-4.8,0-7.3.2s-4.8.5-7.2.8c-1.7,6.7-3.3,13.4-6,14.2s-7.7-4.2-12.5-9.1a95.54,95.54,0,0,0-12.8,6.4c1,6.8,2.1,13.7-.1,15.4s-8.7-1-15-3.6a88.58,88.58,0,0,0-9.4,10.9c3.5,5.9,7.1,11.9,5.7,14.3s-8.4,2.4-15.2,2.4a80.28,80.28,0,0,0-4.5,13.6c5.5,4.1,11.1,8.3,10.8,11.1s-6.8,5.3-13.1,8c0,2.4,0,4.8.2,7.3s.5,4.8.8,7.2c6.7,1.7,13.4,3.3,14.2,6s-4.2,7.7-9.1,12.5a95.54,95.54,0,0,0,6.4,12.8c6.8-1,13.7-2.1,15.4.1s-1,8.7-3.6,15a88.58,88.58,0,0,0,10.9,9.4c5.9-3.5,11.9-7.1,14.3-5.7s2.4,8.4,2.4,15.2a80.28,80.28,0,0,0,13.6,4.5c4.1-5.5,8.3-11.1,11.1-10.8s5.3,6.8,8,13.1c2.4,0,4.8,0,7.3-.2s4.8-.5,7.2-.8c1.7-6.7,3.3-13.4,6-14.2s7.7,4.2,12.5,9.1a95.54,95.54,0,0,0,12.8-6.4c-1-6.8-2.1-13.7.1-15.4s8.7,1,15,3.6a88.58,88.58,0,0,0,9.4-10.9c-3.5-5.9-7.1-11.9-5.7-14.3s8.4-2.4,15.2-2.4a80.28,80.28,0,0,0,4.5-13.6c-5.5-4.1-11.1-8.3-10.8-11.1S892.1,1190.6,898.4,1187.9Zm-82.5,40.7a41.76,41.76,0,1,1,38.6-44.7A41.76,41.76,0,0,1,815.9,1228.6Z" transform="translate(-9.5 -17.6)"/><path class="cls-3" d="M819.1,1272.8a58.78,58.78,0,0,1-7.3.2h-.3l-.4-.9c-2.3-5.6-5-12-7.4-12.3s-6.7,5.4-10.4,10.3l-.4.5-.3-.1a84.42,84.42,0,0,1-13.7-4.5l-.3-.1v-.8c0-6.1,0-13.1-2.1-14.3s-8.2,2.4-13.5,5.5l-.6.4-.3-.2a88.58,88.58,0,0,1-10.9-9.4l-.2-.2.3-.7c2.4-5.7,5-12.2,3.5-14.1s-8.4-.9-14.4,0l-.8.1-.2-.3a90.53,90.53,0,0,1-6.5-12.8l-.1-.3.5-.5c4.4-4.4,9.4-9.4,8.7-11.8s-7.3-4-13.2-5.5l-.9-.2-.1-.3a60.33,60.33,0,0,1-.8-7.3,58.8,58.8,0,0,1-.2-7.3v-.3l.9-.4c5.6-2.3,12-5,12.3-7.4s-5.4-6.7-10.3-10.4l-.5-.4.1-.3a81.35,81.35,0,0,1,4.5-13.7l.1-.3h.8c6.1,0,13.1,0,14.3-2.1s-2.4-8.2-5.5-13.5l-.4-.6.2-.3a81.76,81.76,0,0,1,9.4-10.9l.2-.2.7.3c5.7,2.4,12.2,5,14.1,3.5s.9-8.4,0-14.5l-.1-.8.3-.2a90.54,90.54,0,0,1,12.8-6.5l.3-.1.5.5c4.4,4.4,9.4,9.3,11.8,8.7s4-7.3,5.5-13.2l.2-.9.3-.1a88.88,88.88,0,0,1,14.6-1.1h.3l.4.9c2.3,5.6,5,12,7.4,12.3s6.7-5.4,10.4-10.3l.4-.5.3.1a81.35,81.35,0,0,1,13.7,4.5l.3.1v.8c0,6.1,0,13.1,2.1,14.3s8.2-2.4,13.5-5.5l.6-.4.3.2a81.77,81.77,0,0,1,10.9,9.4l.2.2-.3.7c-2.3,5.7-5,12.2-3.5,14.1s8.4.9,14.5,0l.8-.1.2.3a86.54,86.54,0,0,1,6.5,12.9l.1.3-.5.5c-4.4,4.4-9.4,9.4-8.7,11.8s7.3,4,13.2,5.5l.9.2.1.3a60.33,60.33,0,0,1,.8,7.3c.2,2.4.2,4.8.2,7.3v.3l-.9.4c-5.6,2.3-12,5-12.3,7.4s5.3,6.7,10.3,10.4l.5.4-.1.3a84.43,84.43,0,0,1-4.5,13.7l-.1.3h-.8c-6.1,0-13.1,0-14.3,2.1s2.4,8.2,5.5,13.5l.4.6-.2.3a81.76,81.76,0,0,1-9.4,10.9l-.2.2-.7-.3c-5.7-2.4-12.2-5-14.1-3.5s-.9,8.4,0,14.4l.1.8-.3.2a90.54,90.54,0,0,1-12.8,6.5l-.3.1-.5-.4c-4.4-4.4-9.4-9.4-11.8-8.7s-4,7.3-5.5,13.2l-.2.9-.3.1A66.75,66.75,0,0,1,819.1,1272.8Zm-7-.7a90.23,90.23,0,0,0,13.7-1l.1-.3c1.7-6.8,3.3-13.1,6.2-13.9s7.7,3.9,12.8,9a85.64,85.64,0,0,0,12.1-6.1v-.2c-1-7-2-13.5.4-15.4s8.6.7,15.1,3.4h.1a87.71,87.71,0,0,0,8.9-10.3v-.1c-3.6-6.1-7-11.8-5.5-14.5s8.1-2.6,15.2-2.6h.2a84.87,84.87,0,0,0,4.3-12.9c-5.7-4.3-11.1-8.3-10.7-11.3s6.4-5.5,12.9-8.2l.3-.1c0-2.3-.1-4.7-.2-6.9s-.4-4.5-.8-6.8l-.3-.1c-6.8-1.7-13.1-3.3-13.9-6.2s3.9-7.7,9-12.8a85.64,85.64,0,0,0-6.1-12.1h-.2c-7,1-13.5,2-15.4-.4s.7-8.6,3.4-15.1v-.1a87.73,87.73,0,0,0-10.3-8.9h-.1c-6.1,3.6-11.8,7-14.5,5.5s-2.6-8.1-2.6-15.2v-.2a84.88,84.88,0,0,0-12.9-4.3c-4.3,5.7-8.3,11.1-11.3,10.7s-5.5-6.4-8.2-12.9l-.1-.3a90.23,90.23,0,0,0-13.7,1l-.1.3c-1.7,6.8-3.3,13.1-6.2,13.9s-7.7-3.9-12.8-9h0a85.64,85.64,0,0,0-12.1,6.1v.2c1,7,2,13.5-.4,15.4s-8.6-.7-15.1-3.4h-.1a87.71,87.71,0,0,0-8.9,10.3v.1c3.6,6.1,7,11.8,5.5,14.5s-8.1,2.6-15.2,2.6h-.2a84.87,84.87,0,0,0-4.3,12.9c5.7,4.3,11.1,8.3,10.7,11.3s-6.4,5.5-12.9,8.2l-.3.1c0,2.3.1,4.6.2,6.9s.4,4.6.8,6.8l.3.1c6.8,1.7,13.1,3.3,13.9,6.2s-3.9,7.7-9,12.8a85.64,85.64,0,0,0,6.1,12.1h.2c7-1,13.5-2,15.4.4s-.7,8.6-3.4,15.1v.1a87.73,87.73,0,0,0,10.3,8.9h.1c6.1-3.6,11.8-7,14.5-5.5s2.6,8.1,2.6,15.2v.2a84.88,84.88,0,0,0,12.9,4.3c4.3-5.7,8.3-11.1,11.3-10.7s5.5,6.4,8.2,12.9Zm3.8-43a42.31,42.31,0,1,1,39.1-45.3A42.44,42.44,0,0,1,815.9,1229.1Zm-6.1-83.3a41.26,41.26,0,1,0,44.2,38.1A41.3,41.3,0,0,0,809.8,1145.8Z" transform="translate(-9.5 -17.6)"/><path class="cls-3" d="M898.4,1187.9h.9c0-2.4,0-4.9-.2-7.3s-.5-4.9-.8-7.3l-.1-.6-.6-.1c-3.3-.8-6.7-1.7-9.2-2.6a33.25,33.25,0,0,1-3.1-1.4,3.51,3.51,0,0,1-.9-.7,2.09,2.09,0,0,1-.4-.6v-.2a2.49,2.49,0,0,1,.1-.8,7.12,7.12,0,0,1,1.1-2.1,34.58,34.58,0,0,1,3.3-4c1.3-1.4,2.9-3,4.4-4.5l.4-.4-.2-.5a86.54,86.54,0,0,0-6.5-12.9l-.3-.5-.6.1c-3,.4-5.9.9-8.4,1.1a29.21,29.21,0,0,1-4.2,0,13,13,0,0,1-1.3-.3,1.28,1.28,0,0,1-.7-.5h0a.52.52,0,0,1-.2-.4,1.48,1.48,0,0,1-.1-.7,11.48,11.48,0,0,1,.2-2.4c.3-1.4.9-3.1,1.5-4.9s1.5-3.8,2.3-5.7l.2-.5-.4-.4a90.32,90.32,0,0,0-11-9.5l-.5-.3-.5.3c-2.4,1.4-4.8,2.9-7,4a18.16,18.16,0,0,1-3,1.3,15.82,15.82,0,0,1-2.3.6h-.7c-.2,0-.3-.1-.5-.2h0a1.7,1.7,0,0,1-.6-.6,7.09,7.09,0,0,1-.8-2.1,24.83,24.83,0,0,1-.4-3.3c-.2-2.5-.2-5.5-.2-8.5v-.6l-.5-.2a81.35,81.35,0,0,0-13.7-4.5l-.6-.1-.4.5c-2,2.6-3.9,5.3-5.7,7.2a18.19,18.19,0,0,1-2.5,2.4,3.74,3.74,0,0,1-1,.6,3.09,3.09,0,0,1-.8.2h-.2a.86.86,0,0,1-.6-.3,3.74,3.74,0,0,1-.7-.6,11.51,11.51,0,0,1-1.4-2,35.94,35.94,0,0,1-2.2-4.4c-.8-1.7-1.5-3.5-2.3-5.3l-.2-.5h-.6c-2.4,0-4.9,0-7.3.2s-4.9.5-7.3.8l-.6.1-.1.6c-.8,3.3-1.7,6.7-2.6,9.2a33.23,33.23,0,0,1-1.4,3.1,3.52,3.52,0,0,1-.7.9,2.09,2.09,0,0,1-.6.4h-.2a2.49,2.49,0,0,1-.8-.1,7.12,7.12,0,0,1-2.1-1.1,34.58,34.58,0,0,1-4-3.3c-1.4-1.3-3-2.9-4.5-4.4l-.4-.4-.5.2a86.55,86.55,0,0,0-12.9,6.5l-.5.3.1.6c.4,3,.9,5.9,1.1,8.4a29.21,29.21,0,0,1,0,4.2,13,13,0,0,1-.3,1.3,1.27,1.27,0,0,1-.5.7.52.52,0,0,1-.4.2,1.48,1.48,0,0,1-.7.1,11.48,11.48,0,0,1-2.4-.2c-1.4-.3-3.1-.9-4.9-1.5s-3.8-1.5-5.7-2.3l-.5-.2-.4.4a90.32,90.32,0,0,0-9.5,11l-.3.5.3.5c1.4,2.4,2.9,4.8,4,7a18.15,18.15,0,0,1,1.3,3,15.82,15.82,0,0,1,.6,2.3v.7c0,.2-.1.3-.2.5h0a1.7,1.7,0,0,1-.6.6,7.09,7.09,0,0,1-2.1.8,24.83,24.83,0,0,1-3.3.4c-2.5.2-5.5.2-8.5.2h-.6l-.2.5a81.35,81.35,0,0,0-4.5,13.7l-.1.6.5.4c2.6,2,5.3,3.9,7.2,5.7a18.19,18.19,0,0,1,2.4,2.5,3.74,3.74,0,0,1,.6,1,3.09,3.09,0,0,1,.2.8v.2a.86.86,0,0,1-.3.6,3.74,3.74,0,0,1-.6.7,11.52,11.52,0,0,1-2,1.4,36,36,0,0,1-4.4,2.2c-1.7.8-3.5,1.5-5.3,2.3l-.5.2v.6c0,2.4,0,4.9.2,7.3s.5,4.9.8,7.3l.1.6.6.1c3.3.8,6.7,1.7,9.2,2.6a33.25,33.25,0,0,1,3.1,1.4,3.51,3.51,0,0,1,.9.7,2.09,2.09,0,0,1,.4.6h0v.2a2.49,2.49,0,0,1-.1.8,7.12,7.12,0,0,1-1.1,2.1,34.58,34.58,0,0,1-3.3,4c-1.3,1.4-2.9,3-4.4,4.5l-.4.4.2.5a86.54,86.54,0,0,0,6.5,12.9l.3.5.6-.1c3-.4,5.9-.9,8.4-1.1a29.21,29.21,0,0,1,4.2,0,13,13,0,0,1,1.3.3,1.28,1.28,0,0,1,.7.5h0a.52.52,0,0,1,.2.4,1.48,1.48,0,0,1,.1.7,11.48,11.48,0,0,1-.2,2.4c-.3,1.4-.9,3.1-1.5,4.9s-1.5,3.8-2.3,5.7l-.2.5.4.4a90.32,90.32,0,0,0,11,9.5l.5.3.5-.3c2.4-1.4,4.8-2.9,7-4a18.16,18.16,0,0,1,3-1.3,15.82,15.82,0,0,1,2.3-.6h.7c.2,0,.3.1.5.2h0a1.7,1.7,0,0,1,.6.6,7.09,7.09,0,0,1,.8,2.1,24.83,24.83,0,0,1,.4,3.3c.2,2.5.2,5.5.2,8.5v.6l.5.2a81.35,81.35,0,0,0,13.7,4.5l.6.1.4-.5c2-2.6,3.9-5.3,5.7-7.2a18.19,18.19,0,0,1,2.5-2.4,3.74,3.74,0,0,1,1-.6,3.09,3.09,0,0,1,.8-.2h.2a.86.86,0,0,1,.6.3,3.74,3.74,0,0,1,.7.6,11.51,11.51,0,0,1,1.4,2,35.94,35.94,0,0,1,2.2,4.4c.8,1.7,1.5,3.5,2.3,5.3l.2.5h.6c2.4,0,4.9,0,7.3-.2s4.9-.5,7.3-.8l.6-.1.1-.6c.8-3.3,1.7-6.7,2.6-9.2a33.23,33.23,0,0,1,1.4-3.1,3.52,3.52,0,0,1,.7-.9,2.09,2.09,0,0,1,.6-.4h.2a2.49,2.49,0,0,1,.8.1,7.12,7.12,0,0,1,2.1,1.1,34.58,34.58,0,0,1,4,3.3c1.4,1.3,3,2.9,4.5,4.4l.4.4.5-.2a86.55,86.55,0,0,0,12.9-6.5l.5-.3-.1-.6c-.4-3-.9-5.9-1.1-8.4a29.21,29.21,0,0,1,0-4.2,13,13,0,0,1,.3-1.3,1.27,1.27,0,0,1,.5-.7h0a.52.52,0,0,1,.4-.2,1.48,1.48,0,0,1,.7-.1,11.48,11.48,0,0,1,2.4.2c1.4.3,3.1.9,4.9,1.5s3.8,1.5,5.7,2.3l.5.2.4-.4a90.32,90.32,0,0,0,9.5-11l.3-.5-.3-.5c-1.4-2.4-2.9-4.8-4-7a18.15,18.15,0,0,1-1.3-3,15.82,15.82,0,0,1-.6-2.3v-.7c0-.2.1-.3.2-.5h0a1.7,1.7,0,0,1,.6-.6,7.09,7.09,0,0,1,2.1-.8,24.83,24.83,0,0,1,3.3-.4c2.5-.2,5.5-.2,8.5-.2h.6l.2-.5a81.35,81.35,0,0,0,4.5-13.7l.1-.6-.5-.4c-2.6-2-5.3-3.9-7.2-5.7a18.19,18.19,0,0,1-2.4-2.5,3.74,3.74,0,0,1-.6-1,3.09,3.09,0,0,1-.2-.8v-.2h0a.86.86,0,0,1,.3-.6,3.74,3.74,0,0,1,.6-.7,11.52,11.52,0,0,1,2-1.4,36,36,0,0,1,4.4-2.2c1.7-.8,3.5-1.5,5.3-2.3l.5-.2v-.6h-.9l-.3-.8a83.82,83.82,0,0,0-8.9,4,22.2,22.2,0,0,0-3.2,2.1,12,12,0,0,0-1.1,1.2,2.39,2.39,0,0,0-.5,1.4h0v.6a3.26,3.26,0,0,0,.4,1.4,8.87,8.87,0,0,0,1.7,2.4,38.9,38.9,0,0,0,4.1,3.7c1.6,1.3,3.3,2.6,5,3.8l.5-.7-.9-.2a78.16,78.16,0,0,1-4.5,13.4l.8.4v-.9c-3,0-6,0-8.6.2a19.32,19.32,0,0,0-4.5.7,8.65,8.65,0,0,0-1.7.7,3.45,3.45,0,0,0-1.2,1.2h0a4.18,4.18,0,0,0-.4,1,2.05,2.05,0,0,0,0,1.1,10.44,10.44,0,0,0,.7,2.8c.6,1.5,1.4,3.1,2.3,4.9s2.1,3.6,3.1,5.4l.8-.5-.7-.5a85.93,85.93,0,0,1-9.3,10.7l.6.6.3-.8c-2.6-1.1-5.2-2.2-7.6-3-1.2-.4-2.3-.7-3.4-1a15,15,0,0,0-2.9-.3,3.6,3.6,0,0,0-1.1.2,3.13,3.13,0,0,0-1,.5h0a2.81,2.81,0,0,0-1,1.4,10.58,10.58,0,0,0-.6,2.8,20.77,20.77,0,0,0,.1,3.5c.2,2.6.6,5.6,1.1,8.5l.9-.1-.5-.8a82.83,82.83,0,0,1-12.6,6.4l.3.8.6-.6c-2.3-2.3-4.7-4.7-6.8-6.4a25.75,25.75,0,0,0-3.1-2.2,4.71,4.71,0,0,0-1.5-.6,7.85,7.85,0,0,0-1.4-.2,1.27,1.27,0,0,0-.6.1,3.29,3.29,0,0,0-1.3.7,9,9,0,0,0-.9,1,11.65,11.65,0,0,0-1.3,2.5,40.34,40.34,0,0,0-1.6,4.9c-.5,1.8-1,3.7-1.5,5.6l.9.2-.1-.9a55.08,55.08,0,0,1-7.1.8c-2.4.2-4.8.2-7.2.2v.9l.8-.3a83.81,83.81,0,0,0-4-8.9,22.19,22.19,0,0,0-2.1-3.2,12,12,0,0,0-1.2-1.1,2.39,2.39,0,0,0-1.4-.5h-.6a3.25,3.25,0,0,0-1.4.4,8.87,8.87,0,0,0-2.4,1.7,38.9,38.9,0,0,0-3.7,4.1c-1.3,1.6-2.6,3.3-3.8,5l.7.5.2-.9a78.16,78.16,0,0,1-13.4-4.5l-.4.8h.9c0-3,0-6-.2-8.6a19.32,19.32,0,0,0-.7-4.5,8.65,8.65,0,0,0-.7-1.7,3.45,3.45,0,0,0-1.2-1.2h0a4.18,4.18,0,0,0-1-.4,2.05,2.05,0,0,0-1.1,0,10.44,10.44,0,0,0-2.8.7c-1.5.6-3.1,1.4-4.9,2.3s-3.6,2.1-5.4,3.1l.5.8.5-.7a85.94,85.94,0,0,1-10.7-9.3l-.6.6.8.3c1.1-2.6,2.2-5.2,3-7.6.4-1.2.7-2.3,1-3.4a15,15,0,0,0,.3-2.9,3.59,3.59,0,0,0-.2-1.1,3.13,3.13,0,0,0-.5-1h0a2.81,2.81,0,0,0-1.4-1,10.58,10.58,0,0,0-2.8-.6,20.77,20.77,0,0,0-3.5.1c-2.6.2-5.6.6-8.5,1.1l.1.9.8-.5a82.83,82.83,0,0,1-6.4-12.6l-.8.3.6.6c2.3-2.3,4.7-4.7,6.4-6.8a25.76,25.76,0,0,0,2.2-3.1,4.71,4.71,0,0,0,.6-1.5,7.72,7.72,0,0,0,.2-1.5,1.27,1.27,0,0,0-.1-.6h0a3.29,3.29,0,0,0-.7-1.3,9,9,0,0,0-1-.9,11.66,11.66,0,0,0-2.5-1.3,40.34,40.34,0,0,0-4.9-1.6c-1.8-.5-3.7-1-5.6-1.5l-.2.9.9-.1a55.06,55.06,0,0,1-.8-7.1c-.1-2.4-.2-4.8-.2-7.2h-.9l.3.8a83.82,83.82,0,0,0,8.9-4,22.2,22.2,0,0,0,3.2-2.1,12,12,0,0,0,1.1-1.2,2.39,2.39,0,0,0,.5-1.4v-.6a3.26,3.26,0,0,0-.4-1.4,8.87,8.87,0,0,0-1.7-2.4,38.9,38.9,0,0,0-4.1-3.7c-1.6-1.3-3.3-2.6-5-3.8l-.5.7.9.2a78.16,78.16,0,0,1,4.5-13.4l-.8-.4v.9c3,0,6,0,8.6-.2a19.32,19.32,0,0,0,4.5-.7,8.65,8.65,0,0,0,1.7-.7,3.45,3.45,0,0,0,1.2-1.2h0a4.18,4.18,0,0,0,.4-1,2.05,2.05,0,0,0,0-1.1,10.44,10.44,0,0,0-.7-2.8c-.6-1.5-1.4-3.1-2.3-4.9s-2.1-3.6-3.1-5.4l-.8.5.7.5a85.93,85.93,0,0,1,9.3-10.7l-.6-.6-.3.8c2.6,1.1,5.2,2.2,7.6,3,1.2.4,2.3.7,3.4,1a15,15,0,0,0,2.9.3,3.6,3.6,0,0,0,1.1-.2,3.13,3.13,0,0,0,1-.5,2.81,2.81,0,0,0,1-1.4,10.58,10.58,0,0,0,.6-2.8,20.77,20.77,0,0,0-.1-3.5c-.2-2.6-.6-5.6-1.1-8.5l-.9.1.5.8a82.83,82.83,0,0,1,12.6-6.4l-.3-.8-.6.6c2.3,2.3,4.7,4.7,6.8,6.4a25.75,25.75,0,0,0,3.1,2.2,4.71,4.71,0,0,0,1.5.6,7.85,7.85,0,0,0,1.4.2,1.27,1.27,0,0,0,.6-.1,3.29,3.29,0,0,0,1.3-.7,9,9,0,0,0,.9-1,11.65,11.65,0,0,0,1.3-2.5,40.34,40.34,0,0,0,1.6-4.9c.5-1.8,1-3.7,1.5-5.6l-.9-.2.1.9a55.08,55.08,0,0,1,7.1-.8c2.4-.2,4.8-.2,7.2-.2v-.9l-.8.3a83.81,83.81,0,0,0,4,8.9,22.19,22.19,0,0,0,2.1,3.2,12,12,0,0,0,1.2,1.1,2.39,2.39,0,0,0,1.4.5h.6a3.25,3.25,0,0,0,1.4-.4,8.87,8.87,0,0,0,2.4-1.7,38.9,38.9,0,0,0,3.7-4.1c1.3-1.6,2.6-3.3,3.8-5l-.7-.5-.2.9a78.16,78.16,0,0,1,13.4,4.5l.4-.8H846c0,3,0,6,.2,8.6a19.32,19.32,0,0,0,.7,4.5,8.65,8.65,0,0,0,.7,1.7,3.45,3.45,0,0,0,1.2,1.2h0a4.18,4.18,0,0,0,1,.4,2.05,2.05,0,0,0,1.1,0,10.44,10.44,0,0,0,2.8-.7c1.5-.6,3.1-1.4,4.9-2.3s3.6-2.1,5.4-3.1l-.5-.8-.5.7a85.94,85.94,0,0,1,10.7,9.3l.6-.6-.8-.3c-1.1,2.6-2.2,5.2-3,7.6-.4,1.2-.7,2.3-1,3.4a15,15,0,0,0-.3,2.9,3.59,3.59,0,0,0,.2,1.1,3.13,3.13,0,0,0,.5,1h0a2.81,2.81,0,0,0,1.4,1,10.58,10.58,0,0,0,2.8.6,20.77,20.77,0,0,0,3.5-.1c2.6-.2,5.6-.6,8.5-1.1l-.1-.9-.8.5a82.83,82.83,0,0,1,6.4,12.6l.8-.3-.6-.6c-2.3,2.3-4.7,4.7-6.4,6.8a25.76,25.76,0,0,0-2.2,3.1,4.71,4.71,0,0,0-.6,1.5,7.85,7.85,0,0,0-.2,1.4,1.27,1.27,0,0,0,.1.6,3.29,3.29,0,0,0,.7,1.3,9,9,0,0,0,1,.9,11.66,11.66,0,0,0,2.5,1.3,40.34,40.34,0,0,0,4.9,1.6c1.8.5,3.7,1,5.6,1.5l.2-.9-.9.1a55.06,55.06,0,0,1,.8,7.1c.2,2.4.2,4.8.2,7.2l.9.1-.3-.8Zm-82.5,40.7-.1-.9a40.9,40.9,0,1,1,28-14.1,40.9,40.9,0,0,1-28,14.1l.1.9.1.9a42.79,42.79,0,1,0-31-10.3,42.87,42.87,0,0,0,31,10.3Z" transform="translate(-9.5 -17.6)"/><path class="cls-3" d="M819.2,1273.7a60.41,60.41,0,0,1-7.4.2h-.9l-.6-1.5c-.7-1.6-1.3-3.2-2-4.7a44.43,44.43,0,0,0-2.2-4.4,10.4,10.4,0,0,0-1.4-1.9l-.6-.6c-.2-.1-.3-.2-.4-.2a1.72,1.72,0,0,0-.8.2,2.36,2.36,0,0,0-.9.6,16.39,16.39,0,0,0-2.4,2.3c-1.7,1.9-3.6,4.5-5.5,7l-.7.9-.9-.2a85.93,85.93,0,0,1-13.8-4.6l-.8-.4v-1.3c0-2.8,0-5.7-.2-8a23.12,23.12,0,0,0-.4-3.2,7.71,7.71,0,0,0-.7-2c-.2-.3-.3-.4-.4-.4s-.2-.1-.3-.1-.3-.1-.6,0a7.44,7.44,0,0,0-2.2.5,22.12,22.12,0,0,0-2.9,1.3c-2.1,1-4.4,2.4-6.7,3.8l-1.1.6-.7-.5a82.37,82.37,0,0,1-11-9.5l-.6-.7.5-1.2c.7-1.8,1.5-3.6,2.1-5.3a31.63,31.63,0,0,0,1.5-4.9,6.12,6.12,0,0,0,.2-2.2c0-.2-.1-.4-.1-.6s-.1-.2-.1-.3a1.07,1.07,0,0,0-.5-.3,10.4,10.4,0,0,0-1.2-.3,17.53,17.53,0,0,0-4,0h0c-2.3.2-5.2.6-7.9,1l-1.4.2-.5-.8a87.62,87.62,0,0,1-6.5-13l-.3-.9.9-.9c1.4-1.4,2.9-2.9,4.1-4.2a39.87,39.87,0,0,0,3.3-4,6.17,6.17,0,0,0,1-2,1.76,1.76,0,0,0,.1-.6v-.1a.76.76,0,0,0-.2-.4,2.76,2.76,0,0,0-.8-.6,14.23,14.23,0,0,0-3-1.4c-2.4-.9-5.6-1.7-8.6-2.5l-1.4-.4-.1-.9c-.4-2.4-.7-4.9-.9-7.3a60.42,60.42,0,0,1-.2-7.4v-.9l1.4-.6c1.6-.7,3.3-1.4,4.8-2a44.47,44.47,0,0,0,4.4-2.2,10.41,10.41,0,0,0,1.9-1.4l.6-.6c.1-.2.2-.3.2-.4v-.1a1,1,0,0,0-.2-.6,2.36,2.36,0,0,0-.6-.9,16.39,16.39,0,0,0-2.3-2.4c-1.9-1.7-4.5-3.7-7-5.5l-.9-.7.2-.9a82.77,82.77,0,0,1,4.6-13.8l.4-.8h1.3a68.81,68.81,0,0,0,11.2-.6,7.71,7.71,0,0,0,2-.7c.3-.2.4-.3.4-.4s.1-.2.1-.3v-.6a7.44,7.44,0,0,0-.5-2.2c-.3-.8-.8-1.8-1.3-2.9-1.1-2.1-2.4-4.4-3.8-6.7l-.6-1.1.5-.7a100,100,0,0,1,9.5-11l.7-.6,1.3.5c1.8.7,3.6,1.5,5.3,2.1a31.63,31.63,0,0,0,4.9,1.5,6.12,6.12,0,0,0,2.2.2h0c.2,0,.4-.1.6-.1s.2-.1.3-.1a1.07,1.07,0,0,0,.3-.5,10.38,10.38,0,0,0,.3-1.2,18.43,18.43,0,0,0,0-4.1c-.2-2.4-.6-5.2-1-7.9l-.2-1.4.8-.5a87.63,87.63,0,0,1,13-6.5l.9-.3.9.9c1.4,1.4,2.9,2.9,4.2,4.1a29.55,29.55,0,0,0,4,3.3,6.17,6.17,0,0,0,2,1,1.76,1.76,0,0,0,.6.1h.1a.76.76,0,0,0,.4-.2,2.76,2.76,0,0,0,.6-.8,14.23,14.23,0,0,0,1.4-3c.9-2.4,1.7-5.6,2.5-8.7l.4-1.4.9-.1a90.1,90.1,0,0,1,14.7-1.1h.9l.6,1.4c.7,1.6,1.3,3.2,2,4.7a44.43,44.43,0,0,0,2.2,4.4,10.4,10.4,0,0,0,1.4,1.9l.6.6c.2.1.3.2.4.2h.1a1,1,0,0,0,.6-.2,2.36,2.36,0,0,0,.9-.6,16.39,16.39,0,0,0,2.4-2.3c1.7-1.9,3.7-4.5,5.5-7l.7-.9.9.2a85.93,85.93,0,0,1,13.8,4.6l.8.4v1.4c0,2.8,0,5.6.2,8a23.12,23.12,0,0,0,.4,3.2,7.71,7.71,0,0,0,.7,2c.2.3.3.4.4.4s.2.1.3.1h.6a7.44,7.44,0,0,0,2.2-.5c.8-.3,1.8-.8,2.9-1.3,2-1,4.4-2.4,6.7-3.8l1.1-.6.7.5a100,100,0,0,1,11,9.5l.6.7-.5,1.2c-.7,1.8-1.5,3.7-2.1,5.4a48.66,48.66,0,0,0-1.5,4.9,6.12,6.12,0,0,0-.2,2.2c0,.2.1.4.1.6s.1.2.1.3a1.07,1.07,0,0,0,.5.3,10.4,10.4,0,0,0,1.2.3,17.53,17.53,0,0,0,4,0h.1c2.4-.2,5.2-.6,7.9-1l1.4-.2.5.8a87.62,87.62,0,0,1,6.5,13l.3.9-.8.8c-1.4,1.4-2.9,2.9-4.2,4.3a39.87,39.87,0,0,0-3.3,4,6.17,6.17,0,0,0-1,2,1.76,1.76,0,0,0-.1.6v.1c0,.1.1.2.2.4a2.76,2.76,0,0,0,.8.6,14.23,14.23,0,0,0,3,1.4c2.4.9,5.6,1.7,8.6,2.5l1.4.4.1.9c.4,2.5.7,4.9.9,7.3.2,2.2.2,4.5.2,6.9h0v1.4l-1.4.6c-1.6.7-3.2,1.3-4.7,2a44.47,44.47,0,0,0-4.4,2.2,10.41,10.41,0,0,0-1.9,1.4l-.6.6c-.1.2-.2.3-.2.4v.1a1,1,0,0,0,.2.6,2.36,2.36,0,0,0,.6.9,16.39,16.39,0,0,0,2.3,2.4c1.9,1.7,4.5,3.6,7,5.5l.9.7-.2.9a85.94,85.94,0,0,1-4.6,13.8l-.4.8h-1.3a68.81,68.81,0,0,0-11.2.6,7.71,7.71,0,0,0-2,.7c-.3.2-.4.3-.4.4s-.1.2-.1.3v.6a7.44,7.44,0,0,0,.5,2.2c.3.8.8,1.8,1.3,2.9,1,2,2.4,4.4,3.8,6.7l.6,1.1-.5.7a90.32,90.32,0,0,1-9.5,11l-.7.6-1.2-.5c-1.8-.7-3.6-1.5-5.3-2.1a31.63,31.63,0,0,0-4.9-1.5,6.12,6.12,0,0,0-2.2-.2h0c-.2,0-.4.1-.6.1s-.2.1-.3.1a1.07,1.07,0,0,0-.3.5,10.38,10.38,0,0,0-.3,1.2,18.43,18.43,0,0,0,0,4.1c.2,2.4.6,5.2,1,7.9l.2,1.4-.8.5a87.63,87.63,0,0,1-13,6.5l-.9.3-.9-.9c-1.4-1.4-2.9-2.9-4.2-4.1a39.88,39.88,0,0,0-4-3.3,6.17,6.17,0,0,0-2-1,1.76,1.76,0,0,0-.6-.1h-.1c-.1,0-.2.1-.4.2a2.76,2.76,0,0,0-.6.8,14.23,14.23,0,0,0-1.4,3c-.9,2.4-1.7,5.6-2.5,8.7l-.4,1.4-.9.1A71.12,71.12,0,0,1,819.2,1273.7Zm-7-.7a90.6,90.6,0,0,0,13.8-1l-1.2-.3.1-.3a92.16,92.16,0,0,1-11.7.9l.1.3Zm-8.8-13.2h.3a1.61,1.61,0,0,1,.9.3,5,5,0,0,1,.8.7,11.55,11.55,0,0,1,1.5,2,45.14,45.14,0,0,1,2.3,4.5c.7,1.5,1.3,3.1,2,4.7l.1.3v-1.2h.3a68.19,68.19,0,0,0-3.5-7.6,11.82,11.82,0,0,0-2.1-3.1,10,10,0,0,0-1.1-1,3.08,3.08,0,0,0-1.2-.5,2.7,2.7,0,0,0-1.7.3,7.13,7.13,0,0,0-2.2,1.6,31.19,31.19,0,0,0-3.6,4c-1,1.2-2,2.6-3,3.9l.3.1-.3,1.2c1.9-2.5,3.8-5.1,5.5-7a13.54,13.54,0,0,1,2.6-2.4c.4-.3.8-.5,1.1-.7C802.8,1259.9,803.1,1259.8,803.4,1259.8Zm23.2,10.3.2,1.2v-.2c.8-3.1,1.6-6.3,2.5-8.7a16.18,16.18,0,0,1,1.5-3.2,8.75,8.75,0,0,1,.8-1,3.51,3.51,0,0,1,.8-.5c.1,0,.2-.1.3-.1a3.75,3.75,0,0,1,1,.1,11.2,11.2,0,0,1,2.2,1.1,24.92,24.92,0,0,1,4.1,3.4c1.4,1.3,2.8,2.7,4.2,4.1l-.5-1.1.3-.1c-2-2-4-3.9-5.8-5.4a28.47,28.47,0,0,0-3-2.1,4.23,4.23,0,0,0-1.4-.6,3.73,3.73,0,0,0-1.8-.1,2.38,2.38,0,0,0-1.1.6,3.92,3.92,0,0,0-.8,1,13.32,13.32,0,0,0-1.2,2.4,47.29,47.29,0,0,0-1.6,4.9c-.4,1.4-.8,2.9-1.1,4.3Zm-13.9,1.1a85.19,85.19,0,0,0,12.4-.9c.4-1.6.8-3.2,1.3-4.8a35.73,35.73,0,0,1,1.7-5,10.46,10.46,0,0,1,1.4-2.6,3.56,3.56,0,0,1,1-1.1,3.8,3.8,0,0,1,3.8-.7,7.09,7.09,0,0,1,1.6.7,20.59,20.59,0,0,1,3.2,2.2,80.88,80.88,0,0,1,6.2,5.8,85.55,85.55,0,0,0,10.9-5.5,72.93,72.93,0,0,1-.9-7.7c-.1-1.4-.1-2.6-.1-3.6a11.33,11.33,0,0,1,.6-3,4,4,0,0,1,1.2-1.6,2.38,2.38,0,0,1,1.1-.6,8.4,8.4,0,0,1,4.2,0,20.52,20.52,0,0,1,3.4,1c2.1.7,4.5,1.7,6.8,2.6a78.51,78.51,0,0,0,8-9.3c-.9-1.5-1.8-3.1-2.7-4.6a36.08,36.08,0,0,1-2.4-5,13.34,13.34,0,0,1-.7-2.9v-1.2a5.63,5.63,0,0,1,.4-1.2,4.66,4.66,0,0,1,1.4-1.4,7.5,7.5,0,0,1,1.8-.8,17.14,17.14,0,0,1,4.6-.7c2.4-.2,5.1-.2,7.7-.2a83.24,83.24,0,0,0,3.9-11.6c-1.5-1.1-3-2.2-4.3-3.3-1.8-1.5-3.1-2.7-4.1-3.7a8.53,8.53,0,0,1-1.7-2.5,3.43,3.43,0,0,1-.4-1.6v-.7a5.23,5.23,0,0,1,.6-1.6,12.67,12.67,0,0,1,1.1-1.3,17,17,0,0,1,3.3-2.2,77.59,77.59,0,0,1,8.1-3.7c0-2.1-.1-4.2-.2-6.2s-.4-4.1-.7-6.2c-1.6-.4-3.2-.8-4.8-1.3a35.73,35.73,0,0,1-5-1.7,10.46,10.46,0,0,1-2.6-1.4,3.57,3.57,0,0,1-1.1-1,3.67,3.67,0,0,1-.8-1.5,1.48,1.48,0,0,1-.1-.7,4.68,4.68,0,0,1,.2-1.6,7.09,7.09,0,0,1,.7-1.6,20.59,20.59,0,0,1,2.2-3.2,80.89,80.89,0,0,1,5.8-6.2,85.55,85.55,0,0,0-5.5-10.9,72.91,72.91,0,0,1-7.7.9c-1.4.1-2.6.1-3.6.1a11.33,11.33,0,0,1-3-.6,4,4,0,0,1-1.6-1.2,2.38,2.38,0,0,1-.6-1.1,5,5,0,0,1-.2-1.2,8.24,8.24,0,0,1,.3-3,20.52,20.52,0,0,1,1-3.4c.7-2.1,1.7-4.5,2.6-6.8a78.51,78.51,0,0,0-9.3-8c-1.5.9-3.1,1.8-4.6,2.7a36.08,36.08,0,0,1-5,2.4,13.34,13.34,0,0,1-2.9.7h-1.2a5.63,5.63,0,0,1-1.2-.4,4.66,4.66,0,0,1-1.4-1.4,7.5,7.5,0,0,1-.8-1.8,17.84,17.84,0,0,1-.7-4.6c-.2-2.4-.2-5.1-.2-7.7a83.24,83.24,0,0,0-11.6-3.9c-1.1,1.5-2.2,3-3.3,4.3a43.09,43.09,0,0,1-3.7,4.1,8.52,8.52,0,0,1-2.5,1.7,3.9,3.9,0,0,1-2.3.4,5.23,5.23,0,0,1-1.6-.6,12.66,12.66,0,0,1-1.3-1.1,17,17,0,0,1-2.2-3.3,88.46,88.46,0,0,1-3.7-8.1,85.19,85.19,0,0,0-12.4.9c-.4,1.6-.8,3.2-1.3,4.8a35.73,35.73,0,0,1-1.7,5,15.65,15.65,0,0,1-1.3,2.6,3.56,3.56,0,0,1-1,1.1,3.8,3.8,0,0,1-3.8.7,7.09,7.09,0,0,1-1.6-.7,20.59,20.59,0,0,1-3.2-2.2,80.88,80.88,0,0,1-6.2-5.8,85.55,85.55,0,0,0-10.9,5.5,72.93,72.93,0,0,1,.9,7.7c.1,1.4.1,2.6.1,3.6a11.33,11.33,0,0,1-.6,3,4,4,0,0,1-1.2,1.6,2.38,2.38,0,0,1-1.1.6,8.4,8.4,0,0,1-4.2,0,20.52,20.52,0,0,1-3.4-1c-2.1-.7-4.5-1.7-6.8-2.6a78.51,78.51,0,0,0-8,9.3c.9,1.5,1.8,3.1,2.7,4.6a36.08,36.08,0,0,1,2.4,5,13.34,13.34,0,0,1,.7,2.9v1.2a5.63,5.63,0,0,1-.4,1.2,4.66,4.66,0,0,1-1.4,1.4,7.5,7.5,0,0,1-1.8.8,17.84,17.84,0,0,1-4.6.7c-2.4.2-5.1.2-7.7.2a83.24,83.24,0,0,0-3.9,11.6c1.5,1.1,3,2.2,4.3,3.3,1.8,1.5,3.1,2.7,4.1,3.7a8.53,8.53,0,0,1,1.7,2.5,3.43,3.43,0,0,1,.4,1.6v.7a5.23,5.23,0,0,1-.6,1.6,12.67,12.67,0,0,1-1.1,1.3,17,17,0,0,1-3.3,2.2,77.59,77.59,0,0,1-8.1,3.7c0,2.1.1,4.2.2,6.2s.4,4.1.7,6.2c1.6.4,3.2.8,4.8,1.3,2.1.6,3.7,1.1,5,1.6a10.46,10.46,0,0,1,2.6,1.4,3.57,3.57,0,0,1,1.1,1,3.67,3.67,0,0,1,.8,1.5,1.48,1.48,0,0,1,.1.7,4.68,4.68,0,0,1-.2,1.6,7.09,7.09,0,0,1-.7,1.6,20.59,20.59,0,0,1-2.2,3.2,80.89,80.89,0,0,1-5.8,6.2,85.55,85.55,0,0,0,5.5,10.9,72.91,72.91,0,0,1,7.7-.9c1.4-.1,2.6-.1,3.6-.1a11.33,11.33,0,0,1,3,.6,4,4,0,0,1,1.6,1.2,2.38,2.38,0,0,1,.6,1.1,5,5,0,0,1,.2,1.2,8.24,8.24,0,0,1-.3,3,20.52,20.52,0,0,1-1,3.4c-.7,2.1-1.7,4.5-2.6,6.8a78.51,78.51,0,0,0,9.3,8c1.5-.9,3.1-1.8,4.6-2.7a36.08,36.08,0,0,1,5-2.4,8.91,8.91,0,0,1,4.2-.7,5.63,5.63,0,0,1,1.2.4,4.66,4.66,0,0,1,1.4,1.4,7.5,7.5,0,0,1,.8,1.8,17.14,17.14,0,0,1,.7,4.6c.2,2.4.2,5.1.2,7.7a83.24,83.24,0,0,0,11.6,3.9c1.1-1.5,2.2-3,3.3-4.3,1.5-1.8,2.7-3.1,3.7-4.1a8.52,8.52,0,0,1,2.5-1.7,3.78,3.78,0,0,1,2.3-.4,5.23,5.23,0,0,1,1.6.6,12.66,12.66,0,0,1,1.3,1.1,17,17,0,0,1,2.2,3.3C810.3,1265.4,811.6,1268.3,812.7,1271.2Zm-33.4-5a82.51,82.51,0,0,0,13,4.3l-1-.7.2-.3a108.64,108.64,0,0,1-11-3.6v.3Zm66.6-.7.2.2-.9.9a92.58,92.58,0,0,0,12.2-6.1l-1.2.2v-.3A98.52,98.52,0,0,1,845.9,1265.5Zm-70.8-14.9h.8a1.42,1.42,0,0,1,.6.2,1.85,1.85,0,0,1,.7.8,7.55,7.55,0,0,1,.8,2.3,24.83,24.83,0,0,1,.4,3.3c.2,2.4.2,5.3.2,8.1v.1l.5-1.1.3.1c0-2.5,0-5-.2-7.2a20.2,20.2,0,0,0-.7-4.4,5.93,5.93,0,0,0-.7-1.6,2.4,2.4,0,0,0-1-1l-.9-.3a6.86,6.86,0,0,0-3.7.6,39,39,0,0,0-4.8,2.3l-4.2,2.4.3.2-.7,1c2.3-1.4,4.6-2.8,6.7-3.8,1.2-.6,2.2-1,3-1.4A9,9,0,0,1,775.1,1250.6Zm82.2,7.9.6,1v-.1c-.4-2.8-.8-5.6-1-8a30.4,30.4,0,0,1,0-4.3,5.41,5.41,0,0,1,.4-1.5,3.49,3.49,0,0,1,.6-.9l.6-.3a2,2,0,0,1,.8-.1,11.88,11.88,0,0,1,2.5.2,38.92,38.92,0,0,1,5,1.6c1.7.6,3.6,1.4,5.4,2.1h.1l-.9-.9.2-.2c-2.2-.9-4.3-1.8-6.3-2.4q-1.95-.6-3.3-.9a7.81,7.81,0,0,0-3.7-.1,2,2,0,0,0-.8.4,3.78,3.78,0,0,0-.9,1.2,6.33,6.33,0,0,0-.5,2.6,21.56,21.56,0,0,0,.1,3.5c.2,2.2.5,4.7.9,7.2Zm16.1-11.6.3.1-.5,1.1a80.12,80.12,0,0,0,8.9-10.4l-1,.6-.2-.3A80.23,80.23,0,0,1,873.4,1246.9Zm-121.8.5a80.12,80.12,0,0,0,10.4,8.9l-.6-1,.3-.2a90.45,90.45,0,0,1-8.8-7.6l-.1.3ZM881.3,1236l1,.7c-1.4-2.3-2.8-4.6-3.8-6.7-.6-1.2-1.1-2.2-1.4-3a6.91,6.91,0,0,1-.6-2.4v-.8a1.42,1.42,0,0,1,.2-.6,3,3,0,0,1,.8-.8,7.55,7.55,0,0,1,2.3-.8,72.27,72.27,0,0,1,11.4-.6h.1l-1.1-.5.1-.3c-2.5,0-5,0-7.2.2a20.2,20.2,0,0,0-4.4.7,5.93,5.93,0,0,0-1.6.7,2.4,2.4,0,0,0-1,1l-.3.9a1.7,1.7,0,0,0,0,1,12,12,0,0,0,.7,2.7,39,39,0,0,0,2.3,4.8l2.4,4.2Zm-133-5a30.4,30.4,0,0,1,4.3,0,5.41,5.41,0,0,1,1.5.4,3.49,3.49,0,0,1,.9.6l.3.6a2,2,0,0,1,.1.8,7.6,7.6,0,0,1-.2,2.5,38.9,38.9,0,0,1-1.6,5c-.6,1.7-1.4,3.6-2.1,5.4v.1l.9-.9.2.2c.9-2.2,1.8-4.3,2.4-6.3q.6-2,.9-3.3a15.73,15.73,0,0,0,.3-2.7,3,3,0,0,0-.2-1,2,2,0,0,0-.4-.8,3.78,3.78,0,0,0-1.2-.9,6.33,6.33,0,0,0-2.6-.5,21.56,21.56,0,0,0-3.5.1c-2.2.2-4.7.5-7.2.9l.2.3-1,.6h.1a78.7,78.7,0,0,1,7.9-1.1Zm143.4-11.8h.3v1.2a86.05,86.05,0,0,0,4.3-13l-.7,1-.3-.2A74.36,74.36,0,0,1,891.7,1219.2Zm-158.6.2a92.57,92.57,0,0,0,6.1,12.2l-.2-1.2h.3a82.82,82.82,0,0,1-5.2-10.3l-.2.2Zm-4.6-18.5h.2c3.1.8,6.3,1.6,8.7,2.5a16.18,16.18,0,0,1,3.2,1.5,8.74,8.74,0,0,1,1,.8,3.51,3.51,0,0,1,.5.8.37.37,0,0,0,.1.3,3.75,3.75,0,0,1-.1,1,11.2,11.2,0,0,1-1.1,2.2,24.92,24.92,0,0,1-3.4,4.1c-1.3,1.4-2.7,2.8-4.1,4.2l1.1-.5.1.3c2-2,3.9-4,5.4-5.8a28.46,28.46,0,0,0,2.1-3,4.23,4.23,0,0,0,.6-1.4,6.88,6.88,0,0,0,.2-1.3.9.9,0,0,0-.1-.5,2.38,2.38,0,0,0-.6-1.1,3.92,3.92,0,0,0-1-.8,13.31,13.31,0,0,0-2.4-1.2c-1.2-.5-2.8-1-4.8-1.6-1.4-.4-2.9-.8-4.3-1.1l.1.3Zm166.3,5.3,1.2.3c-2.5-1.9-5.1-3.8-7-5.5a13.55,13.55,0,0,1-2.4-2.6c-.3-.4-.5-.8-.7-1.1a1.93,1.93,0,0,1-.3-1v-.3a1.61,1.61,0,0,1,.3-.9,5,5,0,0,1,.7-.8,11.55,11.55,0,0,1,2-1.5,45.16,45.16,0,0,1,4.5-2.3c1.5-.7,3.2-1.4,4.7-2l.3-.1h-1.2v-.3a68.2,68.2,0,0,0-7.6,3.5,11.82,11.82,0,0,0-3.1,2.1,10,10,0,0,0-1,1.1,3.08,3.08,0,0,0-.5,1.2v.5a2.66,2.66,0,0,0,.3,1.2,7.13,7.13,0,0,0,1.6,2.2,31.2,31.2,0,0,0,4,3.6c1.2,1,2.6,2,3.9,3Zm-168-19.9c0,2.3.1,4.7.2,6.9s.4,4.6.8,6.9l.3-1.2.3.1a59,59,0,0,1-.6-5.9c-.1-1.9-.2-3.9-.2-5.9l-.3.1Zm172,1.1h0a51,51,0,0,0-.2-6.8c-.2-2.2-.4-4.6-.8-6.9l-.3,1.2-.3-.1a59,59,0,0,1,.6,5.9c.1,1.9.2,3.9.2,5.9l.3-.1Zm-7.8-31.8c-2,2-3.9,4-5.4,5.8a18.63,18.63,0,0,0-2.1,3,4.23,4.23,0,0,0-.6,1.4,6.88,6.88,0,0,0-.2,1.3.9.9,0,0,0,.1.5,2.38,2.38,0,0,0,.6,1.1,3.92,3.92,0,0,0,1,.8,13.31,13.31,0,0,0,2.4,1.2c1.2.5,2.8,1,4.8,1.6,1.4.4,2.9.8,4.3,1.1l-.1-.3,1.2-.2-.2-.1c-3.1-.8-6.3-1.6-8.7-2.5a16.18,16.18,0,0,1-3.2-1.5,8.74,8.74,0,0,1-1-.8,3.51,3.51,0,0,1-.5-.8.37.37,0,0,0-.1-.3,3.75,3.75,0,0,1,.1-1,11.2,11.2,0,0,1,1.1-2.2,24.92,24.92,0,0,1,3.4-4.1c1.3-1.4,2.7-2.8,4.1-4.2l-1.1.5Zm-163.7,29.9h1.2v.3a68.2,68.2,0,0,0,7.6-3.5,11.82,11.82,0,0,0,3.1-2.1,10,10,0,0,0,1-1.1,3.08,3.08,0,0,0,.5-1.2v-.5a2.66,2.66,0,0,0-.3-1.2,7.13,7.13,0,0,0-1.6-2.2,31.2,31.2,0,0,0-4-3.6c-1.2-1-2.6-2-3.9-3l-.1.3-1.2-.3c2.5,1.9,5.1,3.8,7,5.5a13.55,13.55,0,0,1,2.4,2.6c.3.4.5.8.7,1.1a1.93,1.93,0,0,1,.3,1v.3a1.61,1.61,0,0,1-.3.9,5,5,0,0,1-.7.8,11.55,11.55,0,0,1-2,1.5,45.16,45.16,0,0,1-4.5,2.3c-1.5.7-3.2,1.4-4.8,2Zm6.2-32a82.5,82.5,0,0,0-4.3,13l.7-1,.3.2a108.66,108.66,0,0,1,3.6-11h-.3Zm158.1.1.9.9a92.57,92.57,0,0,0-6.1-12.2l.2,1.2h-.3a82.82,82.82,0,0,1,5.2,10.3Zm-18.5-25.5c-.9,2.2-1.8,4.3-2.4,6.3q-.6,2-.9,3.3a15.73,15.73,0,0,0-.3,2.7,3,3,0,0,0,.2,1,2,2,0,0,0,.4.8,3.78,3.78,0,0,0,1.2.9,6.33,6.33,0,0,0,2.6.5,21.56,21.56,0,0,0,3.5-.1c2.2-.2,4.7-.5,7.2-.9l-.2-.3,1-.6h-.1c-2.8.4-5.6.8-8,1h-.1a28.85,28.85,0,0,1-4.2,0,5.41,5.41,0,0,1-1.5-.4,3.49,3.49,0,0,1-.9-.6l-.3-.6a2,2,0,0,1-.1-.8,11.88,11.88,0,0,1,.2-2.5,38.9,38.9,0,0,1,1.6-5c.6-1.7,1.4-3.6,2.2-5.4l-.9.9Zm-137.7,25.6c2.5,0,5,0,7.2-.2a20.2,20.2,0,0,0,4.4-.7,5.93,5.93,0,0,0,1.6-.7,2.4,2.4,0,0,0,1-1l.3-.9a1.7,1.7,0,0,0,0-1,13.47,13.47,0,0,0-.7-2.7,39,39,0,0,0-2.3-4.8l-2.4-4.2-.2.3-1-.7c1.4,2.3,2.8,4.6,3.8,6.7.6,1.2,1,2.2,1.4,3a6.91,6.91,0,0,1,.6,2.4v.8a1.42,1.42,0,0,1-.2.6,1.85,1.85,0,0,1-.8.7,7.55,7.55,0,0,1-2.3.8,24.83,24.83,0,0,1-3.3.4c-2.4.2-5.3.2-8.1.2h-.1l1.1.5ZM872.9,1126l1.1.5a88.74,88.74,0,0,0-10.4-8.9l.6,1-.3.2a90.45,90.45,0,0,1,8.8,7.6Zm-120.6-.3a88.72,88.72,0,0,0-8.9,10.4l1-.6.2.3a90.45,90.45,0,0,1,7.6-8.8l-.3-.1Zm93.7-16.2c0,2.5,0,5,.2,7.2a20.2,20.2,0,0,0,.7,4.4,5.93,5.93,0,0,0,.7,1.6,2.4,2.4,0,0,0,1,1l.9.3a1.7,1.7,0,0,0,1,0,13.48,13.48,0,0,0,2.7-.7,39,39,0,0,0,4.8-2.3l4.2-2.4-.3-.2.7-1c-2.3,1.4-4.6,2.8-6.7,3.8-1.2.6-2.2,1-3,1.4a6.91,6.91,0,0,1-2.4.6h-.8a1.42,1.42,0,0,1-.6-.2,3,3,0,0,1-.8-.8,7.55,7.55,0,0,1-.8-2.3,24.83,24.83,0,0,1-.4-3.3c-.2-2.4-.2-5.3-.2-8.1v-.1l-.5,1.1Zm-92,17.1c2.2.9,4.3,1.8,6.3,2.4q1.95.6,3.3.9a7.81,7.81,0,0,0,3.7.1,2,2,0,0,0,.8-.4,3.78,3.78,0,0,0,.9-1.2,6.33,6.33,0,0,0,.5-2.6,21.56,21.56,0,0,0-.1-3.5c-.2-2.2-.5-4.7-.9-7.2l-.3.2-.6-1v.1c.4,2.8.8,5.6,1,8a30.4,30.4,0,0,1,0,4.3,5.41,5.41,0,0,1-.4,1.5,3.49,3.49,0,0,1-.6.9l-.6.3a2,2,0,0,1-.8.1h0a12.36,12.36,0,0,1-2.5-.2,38.92,38.92,0,0,1-5-1.6c-1.7-.6-3.5-1.4-5.3-2.1h-.1l.9.9Zm59.9-23.9a68.19,68.19,0,0,0,3.5,7.6,11.82,11.82,0,0,0,2.1,3.1,10,10,0,0,0,1.1,1,3.08,3.08,0,0,0,1.2.5,2.59,2.59,0,0,0,1.7-.3,7.13,7.13,0,0,0,2.2-1.6,31.19,31.19,0,0,0,3.6-4c1-1.2,2-2.6,3-3.9l-.3-.1.3-1.2c-1.9,2.5-3.8,5.1-5.5,7a13.54,13.54,0,0,1-2.6,2.4c-.4.3-.8.5-1.1.7a1.93,1.93,0,0,1-1,.3h-.3a1.61,1.61,0,0,1-.9-.3,5,5,0,0,1-.8-.7,9.51,9.51,0,0,1-1.5-2.1,45.14,45.14,0,0,1-2.3-4.5c-.7-1.5-1.3-3.1-2-4.7l-.1-.3v1.2Zm-32.4,6c2,2,4,3.9,5.8,5.4a18.64,18.64,0,0,0,3,2.1,4.23,4.23,0,0,0,1.4.6,3.73,3.73,0,0,0,1.8.1,2.38,2.38,0,0,0,1.1-.6,3.92,3.92,0,0,0,.8-1,13.32,13.32,0,0,0,1.2-2.4c.5-1.2,1-2.8,1.6-4.8.4-1.4.8-2.9,1.1-4.3l-.3.1-.2-1.2v.2c-.8,3.1-1.6,6.3-2.5,8.7a16.18,16.18,0,0,1-1.5,3.2,8.75,8.75,0,0,1-.8,1,3.51,3.51,0,0,1-.8.5.37.37,0,0,0-.3.1,3.75,3.75,0,0,1-1-.1,11.2,11.2,0,0,1-2.2-1.1,24.92,24.92,0,0,1-4.1-3.4c-1.4-1.3-2.8-2.7-4.2-4.1l.5,1.1Zm-12.2,4.5v.3a82.82,82.82,0,0,1,10.3-5.2l-.2-.2.9-.9a92.58,92.58,0,0,0-12.2,6.1Zm64.8-8.8a108.64,108.64,0,0,1,11,3.6v-.3h1.2a82.51,82.51,0,0,0-13-4.3l1,.7Zm-27.5-2.5c1.9-.1,3.9-.2,5.9-.2l-.1-.3,1.1-.5a90.6,90.6,0,0,0-13.8,1l1.2.3-.1.3C802.7,1102.3,804.6,1102,806.6,1101.9Zm9.9,128-1,.1a43.1,43.1,0,0,1-30.9-10.4,43.17,43.17,0,0,1,25.1-75.7h0a43.13,43.13,0,0,1,6.8,86Zm-.2-1.7.1.8a42.13,42.13,0,0,0-6.7-84h0a41.77,41.77,0,0,0-28.8,14.5,41.29,41.29,0,0,0-10.1,30.6,42.22,42.22,0,0,0,44.6,39l-.1-.8a44.16,44.16,0,1,1,1-.1Zm-.5-1a39.83,39.83,0,0,0,27.6-13.9,40.3,40.3,0,0,0,9.7-29.3,39.83,39.83,0,0,0-13.9-27.6,40.3,40.3,0,0,0-29.3-9.7,39.83,39.83,0,0,0-27.6,13.9,40.3,40.3,0,0,0-9.7,29.3,40.39,40.39,0,0,0,43.2,37.3Z" transform="translate(-9.5 -17.6)"/><rect x="521.1" y="445.7" width="338.3" height="207.2"/><rect class="cls-5" x="521.1" y="445.7" width="21.5" height="207.2"/><path class="cls-6" d="M543.3,489h-3.9a4.69,4.69,0,0,1-4.7-4.7v-1.2a4.69,4.69,0,0,1,4.7-4.7h3.9a4.69,4.69,0,0,1,4.7,4.7v1.2A4.63,4.63,0,0,1,543.3,489Z" transform="translate(-9.5 -17.6)"/><path class="cls-6" d="M543.3,503.6h-3.9a4.69,4.69,0,0,1-4.7-4.7v-1.2a4.69,4.69,0,0,1,4.7-4.7h3.9a4.69,4.69,0,0,1,4.7,4.7v1.2A4.63,4.63,0,0,1,543.3,503.6Z" transform="translate(-9.5 -17.6)"/><path class="cls-6" d="M543.3,518.2h-3.9a4.69,4.69,0,0,1-4.7-4.7v-1.2a4.69,4.69,0,0,1,4.7-4.7h3.9a4.69,4.69,0,0,1,4.7,4.7v1.2A4.63,4.63,0,0,1,543.3,518.2Z" transform="translate(-9.5 -17.6)"/><path class="cls-6" d="M543.3,532.8h-3.9a4.69,4.69,0,0,1-4.7-4.7v-1.2a4.69,4.69,0,0,1,4.7-4.7h3.9a4.69,4.69,0,0,1,4.7,4.7v1.2A4.63,4.63,0,0,1,543.3,532.8Z" transform="translate(-9.5 -17.6)"/><path class="cls-6" d="M543.3,547.4h-3.9a4.69,4.69,0,0,1-4.7-4.7v-1.2a4.69,4.69,0,0,1,4.7-4.7h3.9a4.69,4.69,0,0,1,4.7,4.7v1.2A4.63,4.63,0,0,1,543.3,547.4Z" transform="translate(-9.5 -17.6)"/><path class="cls-7" d="M643.3,484.2H565.8a2.43,2.43,0,0,1-2.4-2.4v-.6a2.43,2.43,0,0,1,2.4-2.4h77.5a2.43,2.43,0,0,1,2.4,2.4v.6A2.37,2.37,0,0,1,643.3,484.2Z" transform="translate(-9.5 -17.6)"/><path class="cls-8" d="M618.4,494.7h-43a2.43,2.43,0,0,1-2.4-2.4v-.6a2.43,2.43,0,0,1,2.4-2.4h43a2.43,2.43,0,0,1,2.4,2.4v.6A2.31,2.31,0,0,1,618.4,494.7Z" transform="translate(-9.5 -17.6)"/><path class="cls-3" d="M639.4,505.2H590.8a2.43,2.43,0,0,1-2.4-2.4v-.6a2.43,2.43,0,0,1,2.4-2.4h48.6a2.43,2.43,0,0,1,2.4,2.4v.6A2.43,2.43,0,0,1,639.4,505.2Z" transform="translate(-9.5 -17.6)"/><path class="cls-9" d="M668.3,515.6H590.8a2.43,2.43,0,0,1-2.4-2.4v-.6a2.43,2.43,0,0,1,2.4-2.4h77.5a2.43,2.43,0,0,1,2.4,2.4v.6A2.31,2.31,0,0,1,668.3,515.6Z" transform="translate(-9.5 -17.6)"/><path class="cls-8" d="M604.2,526.1H575.5a2.43,2.43,0,0,1-2.4-2.4v-.6a2.43,2.43,0,0,1,2.4-2.4h28.7a2.43,2.43,0,0,1,2.4,2.4v.6A2.43,2.43,0,0,1,604.2,526.1Z" transform="translate(-9.5 -17.6)"/><path class="cls-3" d="M623.4,536.6H575.5a2.43,2.43,0,0,1-2.4-2.4v-.6a2.43,2.43,0,0,1,2.4-2.4h47.9a2.43,2.43,0,0,1,2.4,2.4v.6A2.43,2.43,0,0,1,623.4,536.6Z" transform="translate(-9.5 -17.6)"/><path class="cls-3" d="M605.4,547H590.8a2.43,2.43,0,0,1-2.4-2.4V544a2.43,2.43,0,0,1,2.4-2.4h14.6a2.43,2.43,0,0,1,2.4,2.4v.6A2.26,2.26,0,0,1,605.4,547Z" transform="translate(-9.5 -17.6)"/><path class="cls-10" d="M705.7,494.7H628.2a2.43,2.43,0,0,1-2.4-2.4v-.6a2.43,2.43,0,0,1,2.4-2.4h77.5a2.43,2.43,0,0,1,2.4,2.4v.6A2.31,2.31,0,0,1,705.7,494.7Z" transform="translate(-9.5 -17.6)"/><path class="cls-7" d="M693.6,505.2H649.3a2.43,2.43,0,0,1-2.4-2.4v-.6a2.43,2.43,0,0,1,2.4-2.4h44.3a2.43,2.43,0,0,1,2.4,2.4v.6A2.31,2.31,0,0,1,693.6,505.2Z" transform="translate(-9.5 -17.6)"/><path class="cls-8" d="M708.3,515.6H678a2.43,2.43,0,0,1-2.4-2.4v-.6a2.43,2.43,0,0,1,2.4-2.4h30.3a2.43,2.43,0,0,1,2.4,2.4v.6A2.31,2.31,0,0,1,708.3,515.6Z" transform="translate(-9.5 -17.6)"/><path class="cls-7" d="M691.9,526.1H614.4a2.43,2.43,0,0,1-2.4-2.4v-.6a2.43,2.43,0,0,1,2.4-2.4h77.5a2.43,2.43,0,0,1,2.4,2.4v.6A2.43,2.43,0,0,1,691.9,526.1Z" transform="translate(-9.5 -17.6)"/><path class="cls-10" d="M669,536.6H632.7a2.43,2.43,0,0,1-2.4-2.4v-.6a2.43,2.43,0,0,1,2.4-2.4H669a2.43,2.43,0,0,1,2.4,2.4v.6A2.31,2.31,0,0,1,669,536.6Z" transform="translate(-9.5 -17.6)"/><path class="cls-3" d="M648.4,547H616.1a2.43,2.43,0,0,1-2.4-2.4V544a2.43,2.43,0,0,1,2.4-2.4h32.3a2.43,2.43,0,0,1,2.4,2.4v.6A2.26,2.26,0,0,1,648.4,547Z" transform="translate(-9.5 -17.6)"/><path class="cls-9" d="M765.1,494.7H714.8a2.43,2.43,0,0,1-2.4-2.4v-.6a2.43,2.43,0,0,1,2.4-2.4h50.3a2.43,2.43,0,0,1,2.4,2.4v.6A2.31,2.31,0,0,1,765.1,494.7Z" transform="translate(-9.5 -17.6)"/><path class="cls-9" d="M843.8,505.2H793.5a2.43,2.43,0,0,1-2.4-2.4v-.6a2.43,2.43,0,0,1,2.4-2.4h50.3a2.43,2.43,0,0,1,2.4,2.4v.6A2.31,2.31,0,0,1,843.8,505.2Z" transform="translate(-9.5 -17.6)"/><path class="cls-8" d="M782.7,505.2H705.2a2.43,2.43,0,0,1-2.4-2.4v-.6a2.43,2.43,0,0,1,2.4-2.4h77.5a2.43,2.43,0,0,1,2.4,2.4v.6A2.43,2.43,0,0,1,782.7,505.2Z" transform="translate(-9.5 -17.6)"/><path class="cls-7" d="M797.8,515.6H720.3a2.43,2.43,0,0,1-2.4-2.4v-.6a2.43,2.43,0,0,1,2.4-2.4h77.5a2.43,2.43,0,0,1,2.4,2.4v.6A2.43,2.43,0,0,1,797.8,515.6Z" transform="translate(-9.5 -17.6)"/><path class="cls-3" d="M728.4,526.1H701.2a2.43,2.43,0,0,1-2.4-2.4v-.6a2.43,2.43,0,0,1,2.4-2.4h27.2a2.43,2.43,0,0,1,2.4,2.4v.6A2.43,2.43,0,0,1,728.4,526.1Z" transform="translate(-9.5 -17.6)"/><path class="cls-10" d="M711.5,547H660a2.43,2.43,0,0,1-2.4-2.4V544a2.43,2.43,0,0,1,2.4-2.4h51.5a2.43,2.43,0,0,1,2.4,2.4v.6A2.26,2.26,0,0,1,711.5,547Z" transform="translate(-9.5 -17.6)"/><path class="cls-9" d="M620.6,561.5H565.8a2.43,2.43,0,0,1-2.4-2.4v-.6a2.43,2.43,0,0,1,2.4-2.4h54.8a2.43,2.43,0,0,1,2.4,2.4v.6A2.43,2.43,0,0,1,620.6,561.5Z" transform="translate(-9.5 -17.6)"/><path class="cls-3" d="M618.4,572h-43a2.43,2.43,0,0,1-2.4-2.4V569a2.43,2.43,0,0,1,2.4-2.4h43a2.43,2.43,0,0,1,2.4,2.4v.6A2.31,2.31,0,0,1,618.4,572Z" transform="translate(-9.5 -17.6)"/><path class="cls-8" d="M639.4,582.5H590.8a2.43,2.43,0,0,1-2.4-2.4v-.6a2.43,2.43,0,0,1,2.4-2.4h48.6a2.43,2.43,0,0,1,2.4,2.4v.6A2.43,2.43,0,0,1,639.4,582.5Z" transform="translate(-9.5 -17.6)"/><path class="cls-3" d="M668.3,593H590.8a2.43,2.43,0,0,1-2.4-2.4V590a2.43,2.43,0,0,1,2.4-2.4h77.5a2.43,2.43,0,0,1,2.4,2.4v.6A2.31,2.31,0,0,1,668.3,593Z" transform="translate(-9.5 -17.6)"/><path class="cls-3" d="M706.7,637.5H678a2.43,2.43,0,0,1-2.4-2.4v-.6a2.43,2.43,0,0,1,2.4-2.4h28.7a2.43,2.43,0,0,1,2.4,2.4v.6A2.43,2.43,0,0,1,706.7,637.5Z" transform="translate(-9.5 -17.6)"/><path class="cls-10" d="M623.4,613.9H575.5a2.43,2.43,0,0,1-2.4-2.4v-.6a2.43,2.43,0,0,1,2.4-2.4h47.9a2.43,2.43,0,0,1,2.4,2.4v.6A2.43,2.43,0,0,1,623.4,613.9Z" transform="translate(-9.5 -17.6)"/><path class="cls-3" d="M605.4,624.4H590.8a2.43,2.43,0,0,1-2.4-2.4v-.6a2.43,2.43,0,0,1,2.4-2.4h14.6a2.43,2.43,0,0,1,2.4,2.4v.6A2.31,2.31,0,0,1,605.4,624.4Z" transform="translate(-9.5 -17.6)"/><path class="cls-10" d="M705.7,572H628.2a2.43,2.43,0,0,1-2.4-2.4V569a2.43,2.43,0,0,1,2.4-2.4h77.5a2.43,2.43,0,0,1,2.4,2.4v.6A2.31,2.31,0,0,1,705.7,572Z" transform="translate(-9.5 -17.6)"/><path class="cls-7" d="M693.6,582.5H649.3a2.43,2.43,0,0,1-2.4-2.4v-.6a2.43,2.43,0,0,1,2.4-2.4h44.3a2.43,2.43,0,0,1,2.4,2.4v.6A2.31,2.31,0,0,1,693.6,582.5Z" transform="translate(-9.5 -17.6)"/><path class="cls-3" d="M708.3,593H678a2.43,2.43,0,0,1-2.4-2.4V590a2.43,2.43,0,0,1,2.4-2.4h30.3a2.43,2.43,0,0,1,2.4,2.4v.6A2.31,2.31,0,0,1,708.3,593Z" transform="translate(-9.5 -17.6)"/><path class="cls-7" d="M794.4,637.5H716.9a2.43,2.43,0,0,1-2.4-2.4v-.6a2.43,2.43,0,0,1,2.4-2.4h77.5a2.43,2.43,0,0,1,2.4,2.4v.6A2.43,2.43,0,0,1,794.4,637.5Z" transform="translate(-9.5 -17.6)"/><path class="cls-9" d="M669,613.9H632.7a2.43,2.43,0,0,1-2.4-2.4v-.6a2.43,2.43,0,0,1,2.4-2.4H669a2.43,2.43,0,0,1,2.4,2.4v.6A2.31,2.31,0,0,1,669,613.9Z" transform="translate(-9.5 -17.6)"/><path class="cls-7" d="M622,637.5H574.1a2.43,2.43,0,0,1-2.4-2.4v-.6a2.43,2.43,0,0,1,2.4-2.4H622a2.43,2.43,0,0,1,2.4,2.4v.6A2.43,2.43,0,0,1,622,637.5Z" transform="translate(-9.5 -17.6)"/><path class="cls-8" d="M667.6,637.5H631.3a2.43,2.43,0,0,1-2.4-2.4v-.6a2.43,2.43,0,0,1,2.4-2.4h36.3a2.43,2.43,0,0,1,2.4,2.4v.6A2.31,2.31,0,0,1,667.6,637.5Z" transform="translate(-9.5 -17.6)"/><path class="cls-9" d="M648.4,624.4H616.1a2.43,2.43,0,0,1-2.4-2.4v-.6a2.43,2.43,0,0,1,2.4-2.4h32.3a2.43,2.43,0,0,1,2.4,2.4v.6A2.31,2.31,0,0,1,648.4,624.4Z" transform="translate(-9.5 -17.6)"/><path class="cls-9" d="M765.1,572H714.8a2.43,2.43,0,0,1-2.4-2.4V569a2.43,2.43,0,0,1,2.4-2.4h50.3a2.43,2.43,0,0,1,2.4,2.4v.6A2.31,2.31,0,0,1,765.1,572Z" transform="translate(-9.5 -17.6)"/><path class="cls-3" d="M752.1,593H720.3a2.43,2.43,0,0,1-2.4-2.4V590a2.43,2.43,0,0,1,2.4-2.4h31.8a2.43,2.43,0,0,1,2.4,2.4v.6A2.43,2.43,0,0,1,752.1,593Z" transform="translate(-9.5 -17.6)"/><path class="cls-7" d="M657.7,603.4H627.4A2.43,2.43,0,0,1,625,601v-.6a2.43,2.43,0,0,1,2.4-2.4h30.3a2.43,2.43,0,0,1,2.4,2.4v.6A2.31,2.31,0,0,1,657.7,603.4Z" transform="translate(-9.5 -17.6)"/><path class="cls-8" d="M701.4,603.4H669.6a2.43,2.43,0,0,1-2.4-2.4v-.6a2.43,2.43,0,0,1,2.4-2.4h31.8a2.43,2.43,0,0,1,2.4,2.4v.6A2.31,2.31,0,0,1,701.4,603.4Z" transform="translate(-9.5 -17.6)"/><path class="cls-10" d="M617.2,603.4H590a2.43,2.43,0,0,1-2.4-2.4v-.6A2.43,2.43,0,0,1,590,598h27.2a2.43,2.43,0,0,1,2.4,2.4v.6A2.37,2.37,0,0,1,617.2,603.4Z" transform="translate(-9.5 -17.6)"/><path class="cls-7" d="M711.5,624.4H660a2.43,2.43,0,0,1-2.4-2.4v-.6A2.43,2.43,0,0,1,660,619h51.5a2.43,2.43,0,0,1,2.4,2.4v.6A2.31,2.31,0,0,1,711.5,624.4Z" transform="translate(-9.5 -17.6)"/></svg>