<?xml version="1.0" encoding="utf-8"?>
<!-- Generator: Adobe Illustrator 25.0.0, SVG Export Plug-In . SVG Version: 6.00 Build 0)  -->
<svg version="1.1" id="Layer_1" xmlns="http://www.w3.org/2000/svg" xmlns:xlink="http://www.w3.org/1999/xlink" x="0px" y="0px"
	 viewBox="0 0 1080 1080" style="enable-background:new 0 0 1080 1080;" xml:space="preserve">
<style type="text/css">
	.st0{fill:#EB5746;}
	.st1{fill:#727172;}
	.st2{fill:#EC5646;}
	.st3{fill:#0D4C64;}
	.st4{opacity:0.4;}
	.st5{clip-path:url(#SVGID_2_);}
	.st6{clip-path:url(#SVGID_4_);fill:#EC5646;}
</style>
<g>
	<path class="st0" d="M225.59,542.86l11.81-11.81c6.81-6.81,10.56-15.86,10.56-25.49c0-9.63-3.75-18.68-10.56-25.49l-53.96-53.96
		c-6.8-6.81-15.86-10.56-25.49-10.56c-9.63,0-18.68,3.75-25.49,10.56L78.5,480.07c-6.81,6.81-10.56,15.86-10.56,25.49
		c0,9.63,3.75,18.68,10.56,25.49l11.81,11.81L78.5,554.67c-6.81,6.81-10.56,15.86-10.56,25.49c0,9.63,3.75,18.68,10.56,25.49
		l53.96,53.96c6.81,6.81,15.86,10.56,25.49,10.56c9.63,0,18.68-3.75,25.49-10.56l53.96-53.96c6.81-6.81,10.56-15.86,10.56-25.49
		c0-9.63-3.75-18.68-10.56-25.49L225.59,542.86z M92.81,516.74c-2.99-2.98-4.62-6.95-4.62-11.18c0-4.23,1.63-8.2,4.62-11.18
		l53.96-53.96c2.99-2.98,6.95-4.63,11.18-4.63c4.22,0,8.19,1.65,11.18,4.63l53.96,53.96c2.99,2.98,4.63,6.95,4.63,11.18
		c0,4.22-1.64,8.19-4.63,11.18l-11.81,11.81l-27.85-27.84c-6.8-6.81-15.86-10.56-25.49-10.56c-9.63,0-18.68,3.75-25.49,10.56
		l-27.84,27.84L92.81,516.74z M196.98,542.86l-27.84,27.84c-5.96,5.97-16.38,5.97-22.36,0l-27.84-27.84l27.84-27.84
		c2.99-2.98,6.95-4.63,11.18-4.63c4.22,0,8.19,1.65,11.18,4.63L196.98,542.86z M223.1,591.34l-53.96,53.96
		c-5.96,5.97-16.38,5.97-22.36,0l-53.96-53.96c-2.99-2.98-4.62-6.95-4.62-11.18c0-4.23,1.63-8.2,4.62-11.18l11.81-11.81l27.84,27.84
		c6.81,6.81,15.86,10.56,25.49,10.56c9.63,0,18.68-3.75,25.49-10.56l27.85-27.85l11.81,11.81c2.99,2.98,4.63,6.95,4.63,11.18
		C227.73,584.39,226.09,588.36,223.1,591.34z"/>
	<g>
		<path class="st1" d="M639.07,437.82v-0.13c0.01-0.15,0.01-0.29,0.01-0.45c0-0.99-0.03-1.97-0.11-2.92h-97.65
			c-9.79,0-19.16,1.71-27.83,4.87c-0.23,0.09-0.48,0.18-0.73,0.27c-9.72,3.64-18.52,9.09-25.98,15.91c-2.07,1.9-4.03,3.91-5.89,6.01
			c-0.66,0.73-1.29,1.47-1.91,2.23c0,0.01-0.02,0.02-0.02,0.05c0,0.01,0,0.01-0.01,0.02c-8.84,10.81-14.8,23.99-16.73,38.39v0.02
			c-0.09,0.7-0.17,1.39-0.24,2.09c-0.23,2.1-0.36,4.21-0.41,6.35c0.01,0.02,0,0.05,0,0.07c-0.01,0.65-0.02,1.29-0.02,1.93
			c0.15,42.92,35.8,77.66,79.77,77.66c10.18,0,19.9-1.86,28.84-5.26c0.01,0,0.01-0.01,0.02-0.01c0.35-0.12,0.69-0.26,1.04-0.4
			c0.39-0.16,0.77-0.32,1.16-0.48c-0.62,0.18-1.25,0.34-1.88,0.51c-0.51,0.12-1.01,0.25-1.52,0.36c6.07-2.29,11.79-5.3,17.03-8.92
			c11.67-8.02,21.02-19.01,26.93-31.85c0.02-0.05,0.05-0.11,0.07-0.16c4.43-9.69,6.89-20.42,6.89-31.73
			c0-5.32-0.55-10.51-1.57-15.53c-0.17-0.75-0.33-1.47-0.5-2.19c-1.79-7.54-4.71-14.66-8.57-21.18c-0.01-0.03-0.03-0.06-0.04-0.08
			c-0.03-0.05-0.05-0.09-0.09-0.14c-0.09-0.17-0.19-0.34-0.29-0.52c0.04,0,0.09,0.01,0.14,0.01c-0.01-0.02-0.02-0.04-0.04-0.06
			c0.13,0,0.26,0.01,0.39,0.01c0.02,0,0.04,0,0.06-0.01c0.19-0.02,0.39-0.05,0.57-0.09c0.04,0,0.07,0,0.12-0.01
			c0.89-0.15,1.78-0.33,2.64-0.55c-0.89,0.19-1.79,0.34-2.7,0.46c-0.03,0.01-0.09,0.01-0.13,0.01c-0.19,0.03-0.36,0.04-0.57,0.07
			c-0.15,0.02-0.28,0.04-0.43,0.04c0,0-0.01-0.02-0.02-0.03c-0.01-0.04-0.02-0.07-0.05-0.09c0.21-0.02,0.4-0.06,0.61-0.1h0.04
			c0.08,0,0.15-0.01,0.22-0.04c0.61-0.08,1.22-0.19,1.82-0.32c0.04,0,0.07-0.01,0.11-0.02c4.01-0.87,7.76-2.41,11.13-4.46
			c0.37-0.24,0.76-0.48,1.14-0.75c0.38-0.24,0.75-0.49,1.11-0.77c0.24-0.16,0.45-0.32,0.66-0.49c0.51-0.36,1.01-0.76,1.48-1.19
			c0.2-0.15,0.39-0.33,0.61-0.51c0.92-0.82,1.84-1.71,2.66-2.64c0.38-0.43,0.75-0.85,1.12-1.29c0.13-0.16,0.26-0.32,0.39-0.49
			c0.15-0.18,0.28-0.35,0.41-0.52c0.17-0.23,0.35-0.46,0.51-0.7c0.17-0.21,0.33-0.43,0.48-0.67c0.17-0.25,0.35-0.51,0.51-0.77
			c0.02-0.03,0.04-0.06,0.06-0.09c0.18-0.27,0.34-0.53,0.49-0.79c0.49-0.8,0.94-1.59,1.33-2.42c0.01-0.01,0.01-0.04,0.02-0.05
			c0.1-0.18,0.19-0.34,0.26-0.52c0.02-0.04,0.04-0.08,0.06-0.11c0.49-1.05,0.92-2.13,1.31-3.22c0.08-0.24,0.17-0.49,0.24-0.73
			c0.14-0.4,0.27-0.79,0.37-1.2c0.08-0.28,0.15-0.58,0.22-0.86c0.53-2.02,0.86-4.1,0.99-6.22c0.02-0.51,0.04-1.02,0.04-1.53
			c0.01-0.19,0.01-0.4,0.01-0.59v-0.44H639.07z M556.24,543.59c-4.52,2.07-9.59,3.22-14.92,3.22c-19.54,0-35.38-15.48-35.38-34.57
			c0-19.09,15.84-34.58,35.38-34.58c4.3,0,8.42,0.77,12.23,2.12c13.5,4.86,23.15,17.56,23.15,32.46
			C576.7,526.11,568.33,538.1,556.24,543.59"/>
		<path class="st2" d="M608.77,472.54c-0.04,0-0.09-0.01-0.14-0.01c-0.2-0.01-0.41-0.02-0.62-0.04h-0.07
			c-0.22,0-0.45-0.02-0.66-0.04c0.22-0.02,0.44-0.05,0.65-0.08c0.2-0.02,0.37-0.04,0.56-0.07c0.04,0,0.08,0,0.11-0.01
			c0.02,0.02,0.04,0.05,0.05,0.09c0.01,0.01,0.02,0.02,0.02,0.03c0.02,0.02,0.03,0.05,0.04,0.07
			C608.75,472.5,608.75,472.52,608.77,472.54"/>
		<path class="st2" d="M652.06,432.35c0,0.99-0.04,1.97-0.11,2.94c-0.09,1.15-0.21,2.29-0.4,3.42
			c-2.27,13.99-11.94,25.6-24.98,30.85c-0.93,0.36-1.86,0.71-2.82,1.01c5.08,10.36,7.93,21.97,7.93,34.22
			c0,31.28-18.56,58.34-45.52,71.2c11.64-8,20.97-18.96,26.86-31.77c0.02-0.05,0.04-0.11,0.06-0.16c4.42-9.66,6.87-20.38,6.87-31.65
			c0-5.31-0.54-10.48-1.57-15.5c-0.17-0.74-0.33-1.46-0.51-2.19c-1.16-4.69-2.77-9.22-4.77-13.54c0-0.02-0.01-0.03-0.02-0.05
			c-1.17-2.66-2.49-5.25-3.96-7.74c-0.11-0.21-0.23-0.41-0.36-0.6v-0.01c-0.04-0.08-0.09-0.16-0.13-0.24c0.04,0,0.09,0.01,0.13,0.01
			c-0.01-0.02-0.02-0.04-0.04-0.07c0.13,0,0.26,0.01,0.39,0.01c0.02,0,0.04,0,0.06-0.01c0.19-0.02,0.37-0.04,0.55-0.09
			c0.01,0.02,0.04,0.06,0.04,0.09c0.61-0.08,1.22-0.19,1.82-0.32c0.03,0,0.07-0.01,0.1-0.02c4-0.87,7.75-2.4,11.11-4.46
			c0.37-0.24,0.75-0.48,1.13-0.74c0.38-0.24,0.75-0.49,1.11-0.77c0.24-0.16,0.44-0.32,0.65-0.49c0.52-0.37,1.01-0.76,1.48-1.18
			c0.2-0.16,0.39-0.33,0.61-0.51c0.92-0.82,1.83-1.71,2.65-2.63c0.38-0.42,0.75-0.84,1.12-1.29c0.13-0.16,0.26-0.32,0.39-0.49
			c0.15-0.18,0.28-0.35,0.41-0.52c0.17-0.23,0.35-0.45,0.51-0.69c0.17-0.22,0.33-0.43,0.48-0.67c0.17-0.26,0.35-0.51,0.51-0.78
			c0.02-0.04,0.04-0.06,0.06-0.09c0.18-0.26,0.34-0.52,0.49-0.79c0.49-0.79,0.93-1.58,1.33-2.41c0.01-0.02,0.01-0.04,0.02-0.05
			c0.09-0.18,0.19-0.34,0.26-0.52c1.94-4.24,3.05-8.91,3.12-13.84c0.01-0.19,0.01-0.39,0.01-0.58c0-0.15,0-0.28-0.01-0.44v-0.13
			c0.01-0.15,0.01-0.3,0.01-0.46c0-0.98-0.03-1.96-0.12-2.91h-1.03c0-0.14-0.01-0.26-0.02-0.4h-95.59
			c-10.06,0-19.69,1.86-28.53,5.25c-0.23,0.09-0.48,0.18-0.72,0.28c-9.69,3.63-18.47,9.06-25.91,15.87
			c15.81-17.39,38.87-28.35,64.56-28.35h99.98C651.96,428.97,652.06,430.65,652.06,432.35"/>
		<path class="st2" d="M612.39,471.84c-0.84,0.22-1.7,0.39-2.58,0.54c-0.04,0.01-0.07,0.01-0.11,0.01
			c-0.17,0.05-0.36,0.07-0.55,0.09c-0.02,0.01-0.04,0.01-0.06,0.01c-0.13,0-0.26-0.01-0.38-0.01c-0.01-0.02-0.03-0.05-0.04-0.07
			c0.13-0.01,0.28-0.02,0.42-0.05c0.19-0.02,0.37-0.04,0.56-0.07c0.04,0,0.08,0,0.12-0.01
			C610.65,472.17,611.53,472.02,612.39,471.84"/>
		<path class="st2" d="M608.77,472.54c-0.04,0-0.09-0.01-0.14-0.01c-0.2-0.01-0.41-0.02-0.62-0.04h-0.07
			c-0.22,0-0.45-0.02-0.66-0.04c0.22-0.02,0.44-0.05,0.65-0.08c0.2-0.02,0.37-0.04,0.56-0.07c0.04,0,0.08,0,0.11-0.01
			c0.02,0.02,0.04,0.05,0.05,0.09c0.01,0.01,0.02,0.02,0.02,0.03c0.02,0.02,0.03,0.05,0.04,0.07
			C608.75,472.5,608.75,472.52,608.77,472.54"/>
		<path class="st3" d="M608.01,472.49h-0.07c-0.22,0-0.44-0.02-0.66-0.04c0.23-0.02,0.45-0.04,0.65-0.08
			c0.04,0.04,0.06,0.08,0.08,0.11C608.01,472.47,608.01,472.49,608.01,472.49"/>
		<path class="st3" d="M608.77,472.54c-0.04,0-0.09-0.01-0.14-0.01c-0.2-0.01-0.41-0.02-0.62-0.04h-0.07
			c-0.22,0-0.45-0.02-0.66-0.04c0.22-0.02,0.44-0.05,0.65-0.08c0.2-0.02,0.37-0.04,0.56-0.07c0.04,0,0.08,0,0.11-0.01
			c0.02,0.02,0.04,0.05,0.05,0.09c0.01,0.01,0.02,0.02,0.02,0.03c0.02,0.02,0.03,0.05,0.04,0.07
			C608.75,472.5,608.75,472.52,608.77,472.54"/>
		<path class="st2" d="M609.65,472.22c-0.01-0.03-0.03-0.07-0.04-0.09c-0.03-0.04-0.04-0.06-0.06-0.09
			c-0.19,0.03-0.36,0.04-0.56,0.07c-0.14,0.02-0.28,0.03-0.42,0.04c-0.07,0.02-0.15,0.02-0.23,0.04l0.28,0.03
			c0.12,0,0.26,0.01,0.39,0.01h0.07c0.12,0.01,0.22,0.02,0.33,0.02h0.03c0.08,0.01,0.18,0.02,0.26,0.02
			C609.68,472.25,609.66,472.24,609.65,472.22"/>
		<g class="st4">
			<g>
				<defs>
					<rect id="SVGID_1_" x="608.33" y="472.02" width="1.36" height="0.28"/>
				</defs>
				<clipPath id="SVGID_2_">
					<use xlink:href="#SVGID_1_"  style="overflow:visible;"/>
				</clipPath>
				<g class="st5">
					<defs>
						<rect id="SVGID_3_" x="608.33" y="472.04" width="1.35" height="0.24"/>
					</defs>
					<clipPath id="SVGID_4_">
						<use xlink:href="#SVGID_3_"  style="overflow:visible;"/>
					</clipPath>
					<path class="st6" d="M609.65,472.22c-0.01-0.03-0.03-0.07-0.04-0.09c-0.03-0.04-0.04-0.06-0.06-0.09
						c-0.19,0.03-0.36,0.04-0.56,0.07c-0.14,0.02-0.28,0.03-0.42,0.04c-0.07,0.02-0.15,0.02-0.23,0.04l0.28,0.03
						c0.12,0,0.26,0.01,0.39,0.01h0.07c0.12,0.01,0.22,0.02,0.33,0.02h0.03c0.08,0.01,0.18,0.02,0.26,0.02
						C609.68,472.25,609.66,472.24,609.65,472.22"/>
				</g>
			</g>
		</g>
		<path class="st1" d="M591.51,613.16c1.36,4.11,2.09,8.49,2.09,13.04c0,23.52-19.54,42.55-43.55,42.55
			c-24.08,0-43.56-19.03-43.56-42.55c0-4.54,0.73-8.93,2.08-13.04h-47.76c-0.64,4.26-0.99,8.61-0.99,13.04
			c0,48.69,40.38,88.14,90.22,88.14c49.77,0,90.21-39.45,90.21-88.14c0-4.43-0.33-8.78-0.98-13.04H591.51z"/>
		<path class="st2" d="M942.56,542.74c0,1.27-0.03,2.54-0.1,3.8v66.73h-37.21v-71.72c-0.2-5.66-1.82-10.98-4.52-15.61
			c-0.33-0.56-0.67-1.12-1.03-1.65c-5.98-9.03-16.23-15.12-27.98-15.53c-11.75,0.4-22,6.5-27.98,15.53
			c-0.36,0.54-0.7,1.09-1.03,1.65c-2.7,4.63-4.32,9.95-4.52,15.61v71.72h-37.21v-66.73c-0.07-1.25-0.1-2.52-0.1-3.8
			c0-1.27,0.03-2.54,0.1-3.79c0.28-5.05,1.09-9.95,2.4-14.66c5.16-18.59,17.91-34.14,34.81-43.25c9.97-5.38,21.39-8.51,33.53-8.72
			c12.15,0.2,23.56,3.34,33.53,8.72c16.9,9.11,29.65,24.67,34.81,43.25c1.31,4.71,2.12,9.62,2.4,14.66
			C942.53,540.2,942.56,541.47,942.56,542.74"/>
		<path class="st2" d="M788.06,542.86c0-6.39-0.86-12.59-2.5-18.47c-8.32-29.96-36.39-52.04-69.67-52.04
			c-26.54,0-49.73,14.01-62.27,34.85c-3.21,5.33-5.71,11.1-7.4,17.19c-1.63,5.89-2.51,12.08-2.51,18.47c0,4.83,0.49,9.54,1.44,14.09
			c1.61,7.73,4.5,15.01,8.46,21.6c12.53,20.84,35.73,34.83,62.27,34.83c16.02,0,30.83-5.11,42.81-13.75
			c1.7-1.22,3.35-2.53,4.93-3.89c2.92-3.23,4.69-7.48,4.69-12.13c0-10.14-8.41-18.35-18.79-18.35c-4.07,0-7.84,1.26-10.92,3.41
			c-0.55,0.47-1.11,0.9-1.69,1.33c-5.85,4.34-13.14,6.91-21.04,6.91c-14.11,0-26.26-8.18-31.73-19.95h102.47
			C787.57,552.4,788.06,547.69,788.06,542.86 M686.63,524.39c6.2-9.36,16.99-15.57,29.27-15.57c12.25,0,23.03,6.21,29.25,15.57
			H686.63z"/>
		<rect x="960" y="472.15" class="st2" width="41" height="141.04"/>
		<path class="st2" d="M448.14,542.6c0,1.28-0.04,2.54-0.1,3.8v66.91h-37.32v-71.91c-0.2-5.68-1.82-11.01-4.53-15.66
			c-0.33-0.56-0.67-1.11-1.03-1.66c-6-9.05-16.28-15.16-28.06-15.57c-11.78,0.41-22.06,6.51-28.06,15.57
			c-0.36,0.54-0.7,1.09-1.03,1.66c-2.7,4.65-4.33,9.98-4.53,15.66v71.91h-37.31v-66.91c-0.07-1.26-0.11-2.53-0.11-3.8
			c0-1.27,0.03-2.54,0.11-3.8c0.27-5.06,1.09-9.98,2.4-14.7c5.17-18.64,17.96-34.23,34.91-43.38c10-5.39,21.45-8.53,33.63-8.74
			c12.17,0.2,23.62,3.35,33.62,8.74c16.95,9.15,29.74,24.74,34.91,43.38c1.31,4.73,2.13,9.65,2.41,14.7
			C448.1,540.07,448.14,541.33,448.14,542.6"/>
	</g>
</g>
</svg>
