<svg id="Layer_1" data-name="Layer 1" xmlns="http://www.w3.org/2000/svg" viewBox="0 0 47.66 47.6"><defs><style>.cls-1{fill:none;stroke:#fff;stroke-linecap:round;stroke-linejoin:round;stroke-width:3px;}</style></defs><title>phoneicon</title><path class="cls-1" d="M865.17,525.58a10.94,10.94,0,0,0,13.71-1.51l1.54-1.51a3.7,3.7,0,0,0,0-5.18l-6.55-6.48a3.67,3.67,0,0,0-5.14,0h0a3.7,3.7,0,0,1-5.18,0l-10.29-10.29a3.63,3.63,0,0,1,0-5.14l0,0h0a3.67,3.67,0,0,0,0-5.14l-6.51-6.51a3.7,3.7,0,0,0-5.18,0l-1.51,1.54A10.94,10.94,0,0,0,838.57,499,99.22,99.22,0,0,0,865.17,525.58Z" transform="translate(-835.32 -481.23)"/></svg>