<?xml version="1.0" encoding="utf-8"?>
<!-- Generator: Adobe Illustrator 22.0.1, SVG Export Plug-In . SVG Version: 6.00 Build 0)  -->
<svg version="1.1" id="Layer_1" xmlns="http://www.w3.org/2000/svg" xmlns:xlink="http://www.w3.org/1999/xlink" x="0px" y="0px"
	 viewBox="0 0 283.5 283.5" style="enable-background:new 0 0 283.5 283.5;" xml:space="preserve">
<style type="text/css">
	.st0{opacity:0.15;fill:#E62524;}
	.st1{fill:none;}
	.st2{fill:#FFFFFF;}
</style>
<circle class="st0" cx="141.8" cy="141.8" r="140"/>
<g id="Layer_2_1_">
	<g id="Layer_1-2">
		<rect x="60.5" y="60.5" class="st1" width="162.5" height="162.5"/>
		<path class="st2" d="M105.9,86.6l-8,33.5l-7.7,1.9l3.6-16.8c0,0-16.5,16.7-14.8,38.1c1.6,21.3,14.8,29.3,24.2,24.8
			s13.5-6.4,23.8-40.3s29.3-43.8,47.7-40.6c18.4,3.2,57.7,48.4,24.2,97.4l14.2-4.2l-1.3,7.7l-33.9,10.3l8.1-34.2l7.7-1.9l-4.8,21
			c0,0,18.1-14.5,12.6-48.7c0,0-5.2-25.8-25.8-18.1c0,0-11.3,2.6-18.1,28.7c-6.8,26.1-12.3,47.1-41.6,53.2
			c-29.3,6.1-70.7-52.6-30.4-97.8l-16.1,4.2l1.3-8.4L105.9,86.6z M135.9,176.2c8.4-11.6,8.4-21.6,17.7-47.7s35.1-21.9,35.1-21.9
			c-14.8-18.7-34.5-7.4-37.7-3.9c-3.2,3.5-10.3,5.8-21.6,44.5s-38.3,31-38.3,31C110.8,197.5,127.5,187.8,135.9,176.2z"/>
	</g>
</g>
</svg>
