<?xml version="1.0" encoding="utf-8"?>
<!-- Generator: Adobe Illustrator 22.0.1, SVG Export Plug-In . SVG Version: 6.00 Build 0)  -->
<svg version="1.1" id="Layer_1" xmlns="http://www.w3.org/2000/svg" xmlns:xlink="http://www.w3.org/1999/xlink" x="0px" y="0px"
	 viewBox="0 0 283.5 283.5" style="enable-background:new 0 0 283.5 283.5;" xml:space="preserve">
<style type="text/css">
	.st0{opacity:0.15;fill:#E62524;}
	.st1{fill:none;}
	.st2{fill:#FFFFFF;}
</style>
<circle class="st0" cx="141.8" cy="141.8" r="140"/>
<rect class="st1" width="283.5" height="283.5"/>
<g>
	<path class="st2" d="M152.9,140.4c3.3-1.1,6.3-1.3,9.3-0.1c7.3,2.9,12.1,8.1,14.6,15.4c4.5,13.2,4.3,26.2-1.8,38.8
		c-2.6,5.4-7,9.2-12.7,11.2c-3.1,1.1-6.2,2.6-9.7,2.3c-11.2-0.8-17.5-5.7-20.5-16.3c-0.7-2.6-1-5.2-0.6-7.9c0.8-4.3,3.5-6.9,7.1-6.8
		c3.6,0.1,6.4,2.9,6.8,7.1c0.4,3.9,0.1,7.7-3.6,10.2c-0.7,0.5-0.4,0.8,0,1.3c1.1,1.5,2.6,2.4,4.3,3c8.9,3.2,16.6-0.1,19.7-9.3
		c3.8-11.4,3.8-23-0.9-34.3c-2.2-5.3-7.4-8.6-12.5-8.3c-3.6,0.1-6,2.6-8.9,4.3c-1,0.6-1.9,1.2-3.1,2c-0.1-1.8-0.2-3.2,0.7-4.6
		c7.5-12.5,14.8-25,22.2-37.5c0.1-0.2,0.2-0.5,0.3-0.7c-0.5-0.4-1-0.3-1.5-0.3c-9.7,0-19.4,0-29,0c-1.4,0-1.8,0.3-1.8,1.8
		c0,13.3,0,26.6,0,39.9c0,2.2,0.4,4.3,1.1,6.4c1.8,5.2,6.7,6.7,11,3.2c2.3-1.8,3.9-4.1,5.3-6.6c0.8-1.5,2-1.6,2.9-0.2
		c0.6,0.9,0.9,1.9,0.8,2.9c-0.7,4.9-4.8,12.5-11.7,13.4c-6.4,0.8-12.7,0.1-16.9-5.6c-3-3.9-3.7-8.7-3.7-13.5c0-13.2,0-26.4,0-39.7
		c0-1.5-0.2-2-1.9-1.9c-4.4,0.1-8.7,0-13.1,0.1c-1.2,0-1.7-0.2-1.6-1.5c0.1-1.6,0.1-3.3,0-4.9c0-1.1,0.4-1.4,1.4-1.3
		c4.5,0,9.1,0,13.7,0c1.2,0,1.5-0.3,1.5-1.5c0-5,0-9.9,0-14.9c0-2-1.5-3-2.5-4.3c-1.2-1.4-1.3-2.9-1.3-4.5c0-0.8,0.3-1.1,1-1
		c3.1,0,6.3,0,9.4,0c2.5,0.1,4.7,2.6,4.7,5.1c0,6.2,0.1,12.4,0,18.6c0,1.9,0.3,2.5,2.4,2.5c12.7-0.1,25.4,0,38-0.2
		c2.1,0,3.3,0.6,4.5,2.3c2.2,3.2,2.3,3.1,0,6c-7.5,9.7-15.2,19.4-22.8,29.1C153.4,139.6,153.2,139.8,152.9,140.4z"/>
</g>
</svg>
