<svg xmlns="http://www.w3.org/2000/svg" xmlns:xlink="http://www.w3.org/1999/xlink" viewBox="0 0 99 99"><defs><style>.cls-1,.cls-2{isolation:isolate;}.cls-2{fill:#EC5646;opacity:0.1;}.cls-3{mix-blend-mode:hard-light;}.cls-4,.cls-5,.cls-6,.cls-7,.cls-8{stroke:#fff;stroke-miterlimit:10;stroke-width:0.25px;}.cls-4{fill:url(#linear-gradient);}.cls-5{fill:url(#linear-gradient-2);}.cls-6{fill:url(#linear-gradient-3);}.cls-7{fill:url(#linear-gradient-4);}.cls-8{fill:url(#linear-gradient-5);}</style><linearGradient id="linear-gradient" x1="395.5" y1="249.45" x2="456.5" y2="249.45" gradientUnits="userSpaceOnUse"><stop offset="1" stop-color="#fff"/><stop offset="1"/></linearGradient><linearGradient id="linear-gradient-2" x1="34.92" y1="50.74" x2="46.66" y2="50.74" xlink:href="#linear-gradient"/><linearGradient id="linear-gradient-3" x1="424.72" y1="248.47" x2="431.06" y2="248.47" xlink:href="#linear-gradient"/><linearGradient id="linear-gradient-4" x1="433" y1="248" x2="439.02" y2="248" xlink:href="#linear-gradient"/><linearGradient id="linear-gradient-5" x1="439.64" y1="247.5" x2="445.44" y2="247.5" xlink:href="#linear-gradient"/></defs><title>dddd</title><g class="cls-1"><g id="Layer_1" data-name="Layer 1"><circle class="cls-2" cx="49.5" cy="49.5" r="49.5"/><g class="cls-3"><path class="cls-4" d="M451.58,255l.84-14.1a4.49,4.49,0,1,0-4.47-6.39l-9.71-3.65a4.46,4.46,0,0,0,.25-1.42,4.49,4.49,0,0,0-9-.53L404.45,228a4.49,4.49,0,1,0-4.8,4.92l3.65,22.37a4.49,4.49,0,1,0,4.71,7.48l15.5,7.8a4.49,4.49,0,0,0,9,0l17-6.93a4.49,4.49,0,1,0,2.13-8.65ZM452,234a2.5,2.5,0,1,1-2.5,2.5A2.5,2.5,0,0,1,452,234Zm-18-7a2.5,2.5,0,1,1-2.5,2.5A2.5,2.5,0,0,1,434,227Zm-36.5,1.5A2.5,2.5,0,1,1,400,231,2.5,2.5,0,0,1,397.5,228.45ZM405,262a2.5,2.5,0,1,1,2.5-2.5A2.5,2.5,0,0,1,405,262Zm23,11a2.5,2.5,0,1,1,2.5-2.5A2.5,2.5,0,0,1,428,272.95Zm4.41-3.41a4.49,4.49,0,0,0-4-3.54l-.94-12.59-1,.07.94,12.52a4.49,4.49,0,0,0-3.83,3.49l-14.9-7.5a4.49,4.49,0,0,0,.8-2.55,4.36,4.36,0,0,0-.23-1.36l9.46-4.83-.45-.89-9.41,4.8A4.55,4.55,0,0,0,405,255a4.4,4.4,0,0,0-.73.07l-3.61-22.14a4.47,4.47,0,0,0,2.7-1.47l14.84,10.94.59-.81L403.93,230.6a4.63,4.63,0,0,0,.52-1.6l25.1.92a4.49,4.49,0,0,0,2.28,3.45L429,241.24l.94.33,2.77-7.82a4.36,4.36,0,0,0,1.25.2,4.49,4.49,0,0,0,3.83-2.17l9.79,3.68a4.62,4.62,0,0,0-.12,1,4.5,4.5,0,0,0,.29,1.56l-9.51,4.49.43.9,9.52-4.5a4.47,4.47,0,0,0,3.18,2l-.84,14.1a4.5,4.5,0,0,0-3.57,2.41l-10.3-5-.44.9,10.37,5.07a4.41,4.41,0,0,0,1.66,4.7ZM451,262a2.5,2.5,0,1,1,2.5-2.5A2.5,2.5,0,0,1,451,262Z" transform="translate(-377.65 -197.26)"/><polygon class="cls-5" points="43.23 51.78 42.16 46.74 39.42 46.74 38.34 51.78 37.62 46.74 34.91 46.74 36.74 54.74 39.87 54.74 40.79 50.2 41.71 54.74 44.84 54.74 46.66 46.74 43.96 46.74 43.23 51.78"/><path class="cls-6" d="M429.52,245.67a3.73,3.73,0,0,0-3.28,0,2.72,2.72,0,0,0-1.12,1.11,3.77,3.77,0,0,0,0,3.38,2.78,2.78,0,0,0,1.12,1.11,3.4,3.4,0,0,0,1.64.39,3.3,3.3,0,0,0,1.41-.3,3.12,3.12,0,0,0,1.07-.82,2.69,2.69,0,0,0,.56-1.54h-2.58c-.12.6-.31.72-.57.72a.65.65,0,0,1-.46-.17c-.12-.11-.19-.32-.21.45H431c0-1.25,0-1.41,0-1.56a3.27,3.27,0,0,0-.4-1.66A2.83,2.83,0,0,0,429.52,245.67ZM427.11,248a.71.71,0,0,1,.77-.69.78.78,0,0,1,.5.17.62.62,0,0,1,.2.52Z" transform="translate(-377.65 -197.26)"/><path class="cls-7" d="M438.69,250.17a4.54,4.54,0,0,0,0-3.4,2.52,2.52,0,0,0-.92-1.1,2.39,2.39,0,0,0-1.31-.38,2,2,0,0,0-1,.25c-.29.17-.51.39-.42.68V244h-2v8h2v-1.27c-.1.29.13.51.42.68a2,2,0,0,0,1,.25,2.39,2.39,0,0,0,1.31-.38A2.74,2.74,0,0,0,438.69,250.17Zm-2.89-1.43a.85.85,0,0,1-.65.27.86.86,0,0,1-.65-.27,1.31,1.31,0,0,1,0-1.54.85.85,0,0,1,.65-.27.86.86,0,0,1,.65.27,1.08,1.08,0,0,1,.25.77A1.15,1.15,0,0,1,435.8,248.74Z" transform="translate(-377.65 -197.26)"/><path class="cls-8" d="M442.62,249.63a.55.55,0,0,1-.48-.2A.8.8,0,0,1,442,249h-2.38a2.51,2.51,0,0,0,.84,2,3.4,3.4,0,0,0,2.24.68,3.26,3.26,0,0,0,1.45-.3,2.2,2.2,0,0,0,.94-.84,2.32,2.32,0,0,0,.33-1.24c0-.9-1.44-1.84-1.44-1.84v0a3.29,3.29,0,0,0,.93-.59,1.83,1.83,0,0,0,.36-1.2,2.07,2.07,0,0,0-.31-1.14,2.16,2.16,0,0,0-.93-.8,3.38,3.38,0,0,0-1.49-.3,2.89,2.89,0,0,0-2.07.69,2.67,2.67,0,0,0-.76,2h2.38c0-.41.14-.64.41-.64a.36.36,0,0,1,.29.13.59.59,0,0,1,.12.41c0,.43-.25.62-.75,1.1H442v2h.19c.32-.54.55-.49.69-.38a.55.55,0,0,1,.2.47.56.56,0,0,1-.13.39A.43.43,0,0,1,442.62,249.63Z" transform="translate(-377.65 -197.26)"/></g></g></g></svg>