<?xml version="1.0" encoding="utf-8"?>
<!-- Generator: Adobe Illustrator 22.0.1, SVG Export Plug-In . SVG Version: 6.00 Build 0)  -->
<svg version="1.1" id="Layer_1" xmlns="http://www.w3.org/2000/svg" xmlns:xlink="http://www.w3.org/1999/xlink" x="0px" y="0px"
	 viewBox="0 0 283.5 283.5" style="enable-background:new 0 0 283.5 283.5;" xml:space="preserve">
<style type="text/css">
	.st0{opacity:0.15;fill:#E62524;}
	.st1{fill:#FFFFFF;}
</style>
<circle class="st0" cx="141.8" cy="141.7" r="140"/>
<g>
	<g>
		<path class="st1" d="M174.7,143.9c3.8-6.6,10-6.6,13.9,0l23.9,42c3.8,6.6,0.7,12-7,12h-48.2c-7.6,0-10.8-5.4-7-12L174.7,143.9z
			 M128.4,63c3.8-6.6,10-6.6,13.8,0l5.3,9.6l12.6,22.1c3.1,6.3,3.1,13.7,0,20L118,187.8c-3.8,5.9-10.2,9.7-17.3,10.1h-35
			c-7.7,0-10.8-5.3-7-12L128.4,63z"/>
	</g>
</g>
</svg>
