<?xml version="1.0" encoding="utf-8"?>
<!-- Generator: Adobe Illustrator 22.0.1, SVG Export Plug-In . SVG Version: 6.00 Build 0)  -->
<svg version="1.1" id="Layer_1" xmlns="http://www.w3.org/2000/svg" xmlns:xlink="http://www.w3.org/1999/xlink" x="0px" y="0px"
	 viewBox="0 0 283.5 283.5" style="enable-background:new 0 0 283.5 283.5;" xml:space="preserve">
<style type="text/css">
	.st0{opacity:0.15;fill:#E62524;}
	.st1{fill:#FFFFFF;}
</style>
<circle class="st0" cx="141.8" cy="141.7" r="140"/>
<g>
	<path class="st1" d="M134.3,98.5c3.5,0,6.4,2.9,6.4,6.4s-2.9,6.4-6.4,6.4s-6.4-2.9-6.4-6.4C127.8,101.4,130.7,98.5,134.3,98.5
		L134.3,98.5z"/>
	<path class="st1" d="M149.3,98.4c3.5,0,6.4,2.9,6.4,6.4s-2.9,6.4-6.4,6.4s-6.4-2.9-6.4-6.4S145.7,98.4,149.3,98.4L149.3,98.4z"/>
	<path class="st1" d="M156.9,111.4c3.5,0,6.4,2.9,6.4,6.4c0,3.5-2.9,6.4-6.4,6.4s-6.4-2.9-6.4-6.4
		C150.5,114.3,153.4,111.4,156.9,111.4L156.9,111.4z"/>
	<path class="st1" d="M149.4,124.6c3.5,0,6.4,2.9,6.4,6.4c0,3.5-2.9,6.4-6.4,6.4c-3.5,0-6.4-2.9-6.4-6.4
		C143,127.4,145.8,124.6,149.4,124.6L149.4,124.6z"/>
	<path class="st1" d="M134.3,124.6c3.5,0,6.4,2.9,6.4,6.4s-2.9,6.4-6.4,6.4s-6.4-2.9-6.4-6.4S130.7,124.6,134.3,124.6L134.3,124.6z"
		/>
	<path class="st1" d="M126.8,111.5c3.5,0,6.4,2.9,6.4,6.4c0,3.5-2.9,6.4-6.4,6.4s-6.4-2.9-6.4-6.4
		C120.4,114.4,123.2,111.5,126.8,111.5L126.8,111.5z"/>
	<path class="st1" d="M119.5,127.1c2.1,0,3.8,1.7,3.8,3.8c0,2.1-1.7,3.8-3.8,3.8c-2.1,0-3.8-1.7-3.8-3.8
		C115.7,128.8,117.4,127.1,119.5,127.1L119.5,127.1z"/>
	<path class="st1" d="M119.4,101.3c2.1,0,3.8,1.7,3.8,3.8c0,2.1-1.7,3.8-3.8,3.8c-2.1,0-3.8-1.7-3.8-3.8
		C115.6,103,117.3,101.3,119.4,101.3L119.4,101.3z"/>
	<path class="st1" d="M141.7,88.3c2.1,0,3.8,1.7,3.8,3.8c0,2.1-1.7,3.8-3.8,3.8c-2.1,0-3.8-1.7-3.8-3.8
		C138,90,139.7,88.3,141.7,88.3L141.7,88.3z"/>
	<path class="st1" d="M164.2,101.2c2.1,0,3.8,1.7,3.8,3.8c0,2.1-1.7,3.8-3.8,3.8c-2.1,0-3.8-1.7-3.8-3.8
		C160.4,102.9,162.1,101.2,164.2,101.2L164.2,101.2z"/>
	<path class="st1" d="M164.2,127c2.1,0,3.8,1.7,3.8,3.8c0,2.1-1.7,3.8-3.8,3.8c-2.1,0-3.8-1.7-3.8-3.8S162.2,127,164.2,127
		L164.2,127z"/>
	<path class="st1" d="M141.6,140c2.1,0,3.8,1.7,3.8,3.8c0,2.1-1.7,3.8-3.8,3.8c-2.1,0-3.8-1.7-3.8-3.8
		C137.8,141.7,139.5,140,141.6,140L141.6,140z"/>
	<path class="st1" d="M125.1,143.8c1.8,0,3.2,1.4,3.2,3.2s-1.4,3.2-3.2,3.2c-1.8,0-3.2-1.4-3.2-3.2
		C121.9,145.2,123.4,143.8,125.1,143.8L125.1,143.8z"/>
	<path class="st1" d="M108.3,114.8c1.8,0,3.2,1.4,3.2,3.2c0,1.8-1.4,3.2-3.2,3.2s-3.2-1.4-3.2-3.2
		C105.1,116.3,106.5,114.8,108.3,114.8L108.3,114.8z"/>
	<path class="st1" d="M125,85.7c1.8,0,3.2,1.4,3.2,3.2s-1.4,3.2-3.2,3.2s-3.2-1.4-3.2-3.2C121.8,87.2,123.2,85.7,125,85.7L125,85.7z
		"/>
	<path class="st1" d="M158.6,85.7c1.8,0,3.2,1.4,3.2,3.2s-1.4,3.2-3.2,3.2c-1.8,0-3.2-1.4-3.2-3.2S156.8,85.7,158.6,85.7L158.6,85.7
		z"/>
	<path class="st1" d="M175.4,114.6c1.8,0,3.2,1.4,3.2,3.2s-1.4,3.2-3.2,3.2c-1.8,0-3.2-1.4-3.2-3.2
		C172.2,116.1,173.6,114.6,175.4,114.6L175.4,114.6z"/>
	<path class="st1" d="M158.7,143.8c1.8,0,3.2,1.4,3.2,3.2c0,1.8-1.4,3.2-3.2,3.2c-1.8,0-3.2-1.4-3.2-3.2
		C155.5,145.2,156.9,143.8,158.7,143.8L158.7,143.8z"/>
	<path class="st1" d="M164.7,155.1c1.2,0,2.1,1,2.1,2.1c0,1.2-1,2.1-2.1,2.1s-2.1-1-2.1-2.1C162.5,156.1,163.5,155.1,164.7,155.1
		L164.7,155.1z"/>
	<path class="st1" d="M119.2,155.2c1.2,0,2.1,1,2.1,2.1c0,1.2-1,2.1-2.1,2.1c-1.2,0-2.1-1-2.1-2.1C117,156.2,118,155.2,119.2,155.2
		L119.2,155.2z"/>
	<path class="st1" d="M96.3,115.9c1.2,0,2.1,1,2.1,2.1c0,1.2-1,2.1-2.1,2.1c-1.2,0-2.1-1-2.1-2.1C94.2,116.9,95.2,115.9,96.3,115.9
		L96.3,115.9z"/>
	<path class="st1" d="M119,76.5c1.2,0,2.1,1,2.1,2.1s-1,2.1-2.1,2.1s-2.1-1-2.1-2.1S117.8,76.5,119,76.5L119,76.5z"/>
	<path class="st1" d="M164.5,76.4c1.2,0,2.1,1,2.1,2.1c0,1.2-1,2.1-2.1,2.1s-2.1-1-2.1-2.1C162.4,77.3,163.3,76.4,164.5,76.4
		L164.5,76.4z"/>
	<path class="st1" d="M187.3,115.7c1.2,0,2.1,1,2.1,2.1s-1,2.1-2.1,2.1c-1.2,0-2.1-1-2.1-2.1C185.2,116.7,186.1,115.7,187.3,115.7
		L187.3,115.7z"/>
	<path class="st1" d="M177.6,94.6c1.5,0,2.6,1.2,2.6,2.6c0,1.5-1.2,2.6-2.6,2.6c-1.5,0-2.6-1.2-2.6-2.6
		C174.9,95.8,176.1,94.6,177.6,94.6L177.6,94.6z"/>
	<path class="st1" d="M141.8,74c1.5,0,2.6,1.2,2.6,2.6c0,1.5-1.2,2.6-2.6,2.6c-1.5,0-2.6-1.2-2.6-2.6C139.2,75.2,140.3,74,141.8,74
		L141.8,74z"/>
	<path class="st1" d="M106,94.7c1.5,0,2.6,1.2,2.6,2.6c0,1.5-1.2,2.6-2.6,2.6s-2.6-1.2-2.6-2.6C103.4,95.9,104.5,94.7,106,94.7
		L106,94.7z"/>
	<path class="st1" d="M106.2,136c1.5,0,2.6,1.2,2.6,2.6c0,1.5-1.2,2.6-2.6,2.6c-1.5,0-2.6-1.2-2.6-2.6
		C103.5,137.2,104.7,136,106.2,136L106.2,136z"/>
	<path class="st1" d="M141.6,156.6c1.5,0,2.6,1.2,2.6,2.6c0,1.5-1.2,2.6-2.6,2.6s-2.6-1.2-2.6-2.6
		C139,157.7,140.2,156.6,141.6,156.6L141.6,156.6z"/>
	<path class="st1" d="M177.6,135.9c1.5,0,2.6,1.2,2.6,2.6c0,1.5-1.2,2.6-2.6,2.6c-1.5,0-2.6-1.2-2.6-2.6
		C175,137.1,176.1,135.9,177.6,135.9L177.6,135.9z"/>
	<path class="st1" d="M137.6,202.9l-5.1-0.1v-17.3h4.4c4.8,0,7.8,1.5,9,6C147.8,198.2,143.5,202.9,137.6,202.9L137.6,202.9z
		 M126.2,208.5l8.1,0.1c4.1,0,8.1-0.3,11-1.7c4.3-2,7.7-6.3,7.7-12.8c-0.1-10.9-8.3-14-17-14.1h-9.6L126.2,208.5L126.2,208.5z"/>
	<path class="st1" d="M103.4,195v-9.5l5.5-0.1c3.1,0,5.7,1.4,5.7,4.6c0.1,2.5-1.2,4.1-3.3,4.7c-0.5,0.2-1.5,0.3-2.6,0.3L103.4,195
		L103.4,195z M115.9,198.9c5.3-2.7,7-12,2-16.1c-2.4-2-5.2-2.5-9.3-2.5L97,180.4l0.1,27.9l6.2-0.1v-8h6.6l4.2,8.1l7.2-0.1
		L115.9,198.9L115.9,198.9z"/>
	<path class="st1" d="M74.8,197.8l4.1-10.1l4.1,10.1C80.2,197.8,77.5,197.8,74.8,197.8L74.8,197.8z M72.6,202.9h12.6l2.3,5.3
		l6.8-0.1c-0.1-0.9-5-12.3-5.8-14l-5.9-13.9l-6.9,0.1c-1.4,3.7-11.9,26.5-11.9,28l6.4-0.1L72.6,202.9L72.6,202.9z"/>
	<path class="st1" d="M59.8,189l3.3-4.4c-1.5-2.5-6.9-4.7-10.4-4.7c-21.8,0-19.2,28.7-1.7,28.7c8,0,9.5-2.7,12.2-4.7l-3.5-4.3
		c-1.3,0.4-5.2,4.6-10.5,2.5c-10.2-4-4.5-20.4,6.3-16C57.6,187.1,58.7,187.8,59.8,189L59.8,189z"/>
	<path class="st1" d="M164.2,197.9l4.1-10.1l4.1,10.1C169.7,197.9,166.9,197.9,164.2,197.9L164.2,197.9z M162,203.1h12.6l2.3,5.3
		l6.8-0.1c-0.1-0.9-5-12.3-5.8-14l-5.9-14l-6.9,0.1c-1.4,3.7-11.9,26.5-11.9,28l6.4-0.1L162,203.1L162,203.1z"/>
	<polygon class="st1" points="186.7,180.2 192.5,180.2 206,198.2 206.1,180.2 211.9,180.2 211.9,208.1 206,208.1 192.6,190.3 
		192.4,208 186.9,208 	"/>
	<path class="st1" d="M231.6,180c8.2,0,14.9,6.4,14.9,14.3s-6.7,14.3-14.9,14.3s-14.9-6.4-14.9-14.3
		C216.6,186.4,223.3,180,231.6,180L231.6,180z M231.6,185.5c4.8,0,8.6,4,8.6,8.9c0,4.9-3.9,8.9-8.6,8.9c-4.8,0-8.6-4-8.6-8.9
		C223,189.4,226.8,185.5,231.6,185.5L231.6,185.5z"/>
</g>
</svg>
