<?xml version="1.0" encoding="utf-8"?>
<!-- Generator: Adobe Illustrator 22.0.1, SVG Export Plug-In . SVG Version: 6.00 Build 0)  -->
<svg version="1.1" id="Layer_1" xmlns="http://www.w3.org/2000/svg" xmlns:xlink="http://www.w3.org/1999/xlink" x="0px" y="0px"
	 viewBox="0 0 283.5 283.5" style="enable-background:new 0 0 283.5 283.5;" xml:space="preserve">
<style type="text/css">
	.st0{opacity:0.15;fill:#E62524;}
	.st1{fill:#FFFFFF;}
</style>
<circle class="st0" cx="141.8" cy="141.7" r="140"/>
<g>
	<g id="Page-1_1_">
		<g id="wordmark_1_">
			<path id="Fill-3_1_" class="st1" d="M54.8,149l-3-3c-1.1,1.1-2.2,1.9-3.4,2.5c-1.1,0.6-2.5,1-4.2,1c-1.2,0-2.4-0.2-3.4-0.7
				c-1.1-0.5-2-1.1-2.8-2c-0.8-0.9-1.4-1.8-1.8-3c-0.4-1.1-0.7-2.3-0.7-3.7c0-1.3,0.2-2.5,0.7-3.6c0.4-1.1,1-2.1,1.8-3
				c0.8-0.8,1.7-1.5,2.8-2c1.1-0.5,2.2-0.7,3.4-0.7c1.5,0,2.9,0.3,4,0.9c1.2,0.6,2.3,1.4,3.3,2.4l3-3.4c-0.6-0.6-1.3-1.1-2-1.7
				c-0.7-0.5-1.5-1-2.3-1.3c-0.8-0.3-1.7-0.7-2.7-0.8c-1-0.2-2.1-0.3-3.3-0.3c-2,0-3.8,0.4-5.5,1.1c-1.7,0.7-3.1,1.7-4.3,2.9
				c-1.2,1.2-2.1,2.7-2.8,4.3c-0.7,1.7-1,3.4-1,5.3c0,1.9,0.3,3.7,1,5.4s1.6,3.1,2.8,4.3c1.2,1.2,2.6,2.2,4.2,2.9
				c1.6,0.7,3.4,1.1,5.4,1.1c1.2,0,2.3-0.1,3.3-0.3s2-0.5,2.8-1c0.9-0.4,1.7-0.9,2.4-1.5C53.4,150.3,54.1,149.7,54.8,149"/>
			<path id="Fill-4_1_" class="st1" d="M114.3,133.9c0-0.9,0.4-1.6,1.1-2.2c0.8-0.6,1.8-0.9,3.2-0.9c1.2,0,2.4,0.2,3.5,0.7
				c1.1,0.4,2.3,1.1,3.5,2l2.4-3.5c-1.3-1.1-2.8-1.9-4.3-2.4c-1.5-0.6-3.3-0.8-5.2-0.8c-1.3,0-2.5,0.2-3.6,0.5
				c-1.1,0.4-2,0.9-2.8,1.5c-0.8,0.7-1.4,1.5-1.8,2.4c-0.4,1-0.7,2-0.7,3.2c0,1.2,0.2,2.2,0.6,3.1s1,1.6,1.7,2.2
				c0.7,0.6,1.7,1.1,2.7,1.5c1.1,0.4,2.3,0.8,3.7,1.1c1.2,0.3,2.2,0.6,3,0.9c0.8,0.3,1.4,0.6,1.8,0.9c0.4,0.3,0.7,0.7,0.9,1.1
				c0.1,0.4,0.2,0.8,0.2,1.2c0,1-0.4,1.8-1.2,2.4c-0.8,0.6-2,0.9-3.4,0.9c-1.7,0-3.1-0.3-4.4-0.9c-1.3-0.6-2.5-1.4-3.9-2.5l-2.8,3.3
				c1.6,1.4,3.3,2.5,5.1,3.2c1.8,0.7,3.8,1.1,5.8,1.1c1.4,0,2.6-0.2,3.8-0.5c1.1-0.4,2.1-0.9,2.9-1.5c0.8-0.7,1.4-1.5,1.9-2.5
				c0.5-1,0.7-2.1,0.7-3.3c0-1.1-0.2-2.1-0.5-2.9c-0.4-0.8-0.9-1.5-1.6-2.1c-0.7-0.6-1.6-1.1-2.6-1.5c-1.1-0.4-2.2-0.8-3.6-1.1
				c-1.2-0.3-2.2-0.6-3.1-0.9c-0.8-0.3-1.4-0.6-1.9-0.9c-0.5-0.3-0.8-0.7-1-1.1C114.4,134.9,114.3,134.4,114.3,133.9"/>
			<polyline id="Fill-5_1_" class="st1" points="165.5,134.2 165.5,152.9 170,152.9 170,126.8 165.1,126.8 157.1,139.2 149.2,126.8 
				144.3,126.8 144.3,152.9 148.8,152.9 148.8,134.3 157,146.5 157.1,146.5 165.5,134.2 			"/>
			<path id="Fill-6_1_" class="st1" d="M208.3,140.1c0,1.2-0.2,2.5-0.7,3.6c-0.4,1.1-1.1,2.1-1.8,3c-0.8,0.8-1.7,1.5-2.8,2
				c-1.1,0.5-2.2,0.7-3.6,0.7c-1.3,0-2.5-0.2-3.6-0.8c-1.1-0.5-2.1-1.2-2.8-2c-0.8-0.9-1.4-1.8-1.8-3c-0.4-1.1-0.7-2.3-0.7-3.6
				c0-1.2,0.2-2.5,0.7-3.6c0.4-1.1,1.1-2.1,1.8-3c0.8-0.8,1.7-1.5,2.8-2c1.1-0.5,2.2-0.7,3.6-0.7s2.5,0.2,3.6,0.8
				c1.1,0.5,2.1,1.2,2.8,2c0.8,0.9,1.4,1.8,1.8,3C208.1,137.6,208.3,138.8,208.3,140.1z M213.1,140c0-1.8-0.3-3.6-1-5.3
				s-1.6-3.1-2.8-4.3s-2.6-2.2-4.3-2.9c-1.7-0.7-3.5-1.1-5.5-1.1s-3.9,0.4-5.5,1.1c-1.7,0.7-3.2,1.7-4.4,3c-1.2,1.2-2.2,2.7-2.9,4.3
				c-0.7,1.6-1,3.4-1,5.3c0,1.8,0.3,3.6,1,5.3c0.7,1.7,1.6,3.1,2.8,4.3c1.2,1.2,2.6,2.2,4.3,2.9c1.7,0.7,3.5,1.1,5.5,1.1
				s3.9-0.4,5.5-1.1c1.7-0.7,3.2-1.7,4.4-3c1.2-1.2,2.2-2.7,2.9-4.3C212.9,143.6,213.1,141.8,213.1,140z"/>
			<path id="Fill-7_1_" class="st1" d="M232.3,133.9c0-0.9,0.4-1.6,1.1-2.2c0.7-0.6,1.8-0.9,3.2-0.9c1.2,0,2.4,0.2,3.5,0.7
				c1.1,0.5,2.3,1.1,3.5,2l2.4-3.5c-1.3-1.1-2.8-1.9-4.3-2.4c-1.5-0.6-3.3-0.8-5.2-0.8c-1.3,0-2.5,0.2-3.6,0.5
				c-1.1,0.4-2,0.9-2.8,1.5c-0.8,0.7-1.4,1.5-1.8,2.4c-0.4,1-0.7,2-0.7,3.2c0,1.2,0.2,2.2,0.6,3.1c0.4,0.9,1,1.6,1.7,2.2
				c0.7,0.6,1.7,1.1,2.7,1.5c1.1,0.4,2.3,0.8,3.7,1.1c1.2,0.3,2.2,0.6,3,0.9c0.8,0.3,1.4,0.6,1.8,0.9c0.4,0.3,0.7,0.7,0.9,1.1
				c0.1,0.4,0.2,0.8,0.2,1.2c0,1-0.4,1.8-1.2,2.4c-0.8,0.6-2,0.9-3.4,0.9c-1.7,0-3.1-0.3-4.4-0.9c-1.3-0.6-2.5-1.4-3.9-2.5l-2.8,3.3
				c1.5,1.4,3.3,2.5,5.1,3.2c1.8,0.7,3.8,1.1,5.8,1.1c1.4,0,2.6-0.2,3.8-0.5s2.1-0.9,2.9-1.5c0.8-0.7,1.4-1.5,1.9-2.5
				c0.5-1,0.7-2.1,0.7-3.3c0-1.1-0.2-2.1-0.5-2.9c-0.4-0.8-0.9-1.5-1.6-2.1c-0.7-0.6-1.6-1.1-2.6-1.5c-1.1-0.4-2.2-0.8-3.6-1.1
				c-1.2-0.3-2.2-0.6-3.1-0.9c-0.8-0.3-1.4-0.6-1.9-0.9s-0.8-0.7-1-1.1C232.4,134.9,232.3,134.4,232.3,133.9"/>
			<path id="Fill-8_1_" class="st1" d="M86.1,132.1l-12.5,12.5c-0.1-0.3-0.3-0.7-0.4-1c-0.4-1.1-0.7-2.3-0.7-3.6s0.2-2.5,0.7-3.6
				c0.4-1.1,1.1-2.1,1.8-3c0.8-0.8,1.7-1.5,2.8-2c1.1-0.5,2.2-0.7,3.6-0.7s2.5,0.2,3.6,0.8C85.3,131.6,85.7,131.9,86.1,132.1z
				 M85,148.6c-1.1,0.5-2.2,0.7-3.6,0.7c-1.3,0-2.5-0.2-3.6-0.8c-0.4-0.2-0.8-0.4-1.1-0.6l12.5-12.5c0.1,0.3,0.3,0.7,0.4,1
				c0.4,1.1,0.7,2.3,0.7,3.6s-0.2,2.5-0.7,3.6s-1.1,2.1-1.8,3C87,147.4,86.1,148.1,85,148.6z M86.9,152.5c1.7-0.7,3.2-1.7,4.4-2.9
				s2.2-2.7,2.9-4.3s1-3.4,1-5.2s-0.3-3.6-1-5.2c-0.4-1-0.9-1.9-1.5-2.7l8.1-8.1l-3.3-3.3l-8.1,8.1c-0.7-0.5-1.5-1-2.4-1.3
				c-1.7-0.7-3.5-1.1-5.5-1.1s-3.9,0.4-5.5,1.1c-1.7,0.7-3.2,1.7-4.4,2.9s-2.2,2.7-2.9,4.3s-1,3.4-1,5.2s0.3,3.6,1,5.2
				c0.4,1,0.9,1.9,1.5,2.7L62,156l3.3,3.3l8.1-8.1c0.7,0.5,1.5,1,2.4,1.3c1.7,0.7,3.5,1.1,5.5,1.1C83.4,153.6,85.2,153.2,86.9,152.5
				z"/>
		</g>
	</g>
</g>
</svg>
