<?xml version="1.0" encoding="utf-8"?>
<!-- Generator: Adobe Illustrator 21.0.0, SVG Export Plug-In . SVG Version: 6.00 Build 0)  -->
<svg version="1.1" id="Layer_1" xmlns="http://www.w3.org/2000/svg" xmlns:xlink="http://www.w3.org/1999/xlink" x="0px" y="0px"
	 viewBox="0 0 283.5 283.5" style="enable-background:new 0 0 283.5 283.5;" xml:space="preserve">
<style type="text/css">
	.st0{opacity:0.15;fill:#E62524;enable-background:new    ;}
	.st1{fill:#FFFFFF;}
</style>
<circle class="st0" cx="141.8" cy="141.7" r="140"/>
<g>
	<g>
		<path class="st1" d="M104,173.8l14.9,1.1v12.2c0,0-27.8,26.2-68.3-4.8h13.8l1.5-12C66,170.3,81.7,185.6,104,173.8L104,173.8z"/>
		<path class="st1" d="M53.7,117.6c0,0-30.2,27-5.5,61.5l13.8,1.3l1.3-12.8c0,0-12.7-19.9,3.7-35.7l-14.7-1.1L53.7,117.6z"/>
		<path class="st1" d="M57,115.7c0,0,37.7-23.3,66.3,4.8l-12.7-0.8l-1.3,13.6c0,0-14.4-16.8-38.5-3.8l-14.7-0.6L57,115.7z"/>
		<path class="st1" d="M112.6,136.7l0.9-14.1l13.4,1.3l40.3,43h-13.8l-1.3,12L112.6,136.7z"/>
	</g>
	<g>
		<path class="st1" d="M107.8,171.5l51-54l13.6,1.3l-0.9,13.2l-50.1,53.5l0.2-13.9L107.8,171.5z"/>
		<path class="st1" d="M160.7,115.6l14.1,1.1l-1,12.9c0,0,20.8-12.8,36.1,0.8l14.9,0.6l1.3-12.6C226.3,118.5,202.9,93.3,160.7,115.6
			z"/>
		<path class="st1" d="M212.1,132.5l14.9,0.8l1.2-12.6c0,0,32.7,34.9-2.6,64.9l-14.4-1l1.3-14.3C212.5,170.3,232,149.3,212.1,132.5
			L212.1,132.5z"/>
		<path class="st1" d="M170.6,170.3l-15.1-1.3l-0.8,12.8c0,0,26.8,29.6,67.2,6l-13.8-1.1l1.3-13.7
			C209.3,173,191.8,186.5,170.6,170.3L170.6,170.3z"/>
	</g>
	<path class="st1" d="M189.7,148.2v4.8c0,0.2-0.1,0.4-0.1,0.6c0,0.2,0,0.4,0.1,0.6v7.7H186v-13.6L189.7,148.2z"/>
	<path class="st1" d="M193,148.2c-1.2,0.2-2.4,0.7-3.3,1.5c-1.3,0.9-2.1,2.3-2.2,3.9c0.1,1.6,0.9,3.1,2.2,4.1
		c0.8,0.7,1.8,1.2,2.9,1.3c3.5,0.1,5.2-2.8,5.2-5.3C197.8,151,195.6,148.1,193,148.2z M191.8,155.9c-1.1,0-1.9-0.8-2.1-1.8
		c0-0.2-0.1-0.4-0.1-0.6c0-0.2,0-0.4,0.1-0.6c0.2-1,1.1-1.7,2.1-1.8c1.4,0.1,2.4,1.3,2.2,2.6C194,154.9,193,155.8,191.8,155.9
		L191.8,155.9z M205.2,152.3c-0.5-0.2-2.5-0.5-2.5-1.2c0-0.4,0.6-0.5,0.9-0.4c0.9,0,2.1,1,2.8,0.8c0.6-0.2,1.2-1.7,1.4-2.3
		c-1.8-1-3.9-1.3-5.9-1c-1.9,0.4-3.2,2.1-2.8,4c0,0.2,0.1,0.3,0.1,0.5c0.9,2.2,3.7,1.4,5.1,2.7c0.6,0.6-0.6,0.8-1,0.8
		c-1.2-0.2-2.4-0.6-3.4-1.2c-0.3,0.5-1.4,1.6-1.3,2.2c0.1,0.6,1.5,1,2.1,1.2c2,0.6,5,0.8,6.5-0.9C209.1,155.5,207.5,153,205.2,152.3
		L205.2,152.3z M176.2,144.5c-4.3,0-7.8,3.4-7.8,7.5c0,4.1,3.5,7.5,7.8,7.5s7.8-3.4,7.8-7.5l0,0
		C184.1,147.8,180.6,144.5,176.2,144.5z M176.2,155.8c-2.2,0-4-1.7-4-3.9c0-2.1,1.8-3.8,4-3.8c2.2,0,4,1.7,4,3.8
		C180.3,154.1,178.5,155.8,176.2,155.8C176.2,155.8,176.2,155.8,176.2,155.8L176.2,155.8z"/>
	<path class="st1" d="M102.2,148.1h-4.5l4.7,11.8h2v-5L102.2,148.1z M106.8,148.1h4.5l-4.7,11.8h-2v-5L106.8,148.1z M80.5,146.4
		c-1.5-1-3.2-1.6-5-1.8c-2.4-0.2-5,0.1-7.2,0.1v15.2h0.1c0.4,0,0.9,0.1,1.3,0.1c1.7,0.1,3.4,0.1,5.1,0c3.3-0.3,5.4-1.4,6.6-2.7
		c1.1-1.2,1.8-2.8,1.8-4.5v-0.4v-0.2C83.2,150.1,82.6,147.9,80.5,146.4L80.5,146.4z M76.9,155.7c-1.3,0.7-3,0.5-4.5,0.5v-7.9
		c1.6,0,3.3-0.2,4.7,0.7C79.4,150.6,79.4,154.3,76.9,155.7L76.9,155.7z M95.8,156.9c-0.4-0.3-0.8-0.8-1.3-0.9
		c-0.8-0.1-1.8,0.9-2.6,1c-1.4,0.1-2.3-0.8-2.8-1.8h8.2c0-2.2-0.2-4.5-2.1-6c-3.6-2.8-9.5-0.7-10.2,3.7c-0.7,4.7,3.1,7.7,7.8,7.1
		c1.2-0.2,2.3-0.6,3.1-1.4c0.3-0.3,0.8-0.6,0.6-1.1C96.2,157.3,96,157.1,95.8,156.9L95.8,156.9z M93.1,153h-4.2
		c0.2-1.1,1.3-1.8,2.5-1.6C92.3,151.5,93,152.2,93.1,153z"/>
</g>
</svg>
