<svg id="Layer_1" data-name="Layer 1" xmlns="http://www.w3.org/2000/svg" viewBox="0 0 280 280"><defs><style>.cls-1{fill:#EC5646;opacity:0.15;isolation:isolate;}.cls-2{fill:#fff;}</style></defs><title>filecoin</title><circle class="cls-1" cx="140" cy="140" r="140"/><path class="cls-2" d="M146.08,136l-2.77,15,26.31,3.75-1.85,7-25.85-3.75c-1.85,6.1-2.77,12.66-5.08,18.29-2.31,6.56-4.62,13.13-7.38,19.22-3.69,8-10.15,13.6-18.92,15-5.08.94-10.62.47-14.77-2.81-1.38-.94-2.77-2.81-2.77-4.22,0-1.88.92-4.22,2.31-5.16.92-.47,3.23,0,4.62.47a20.81,20.81,0,0,1,3.69,5.16c2.77,3.75,6.46,4.22,10.15,1.41,4.15-3.75,6.46-8.91,7.85-14.07,2.77-11.25,5.54-22,7.85-33.29v-1.88L105,152.43l.92-7,25.38,3.75,3.23-14.54-26.31-4.22.92-7.5,27.23,3.75c.92-2.81,1.38-5.16,2.31-7.5,2.31-8.44,4.62-16.88,10.15-24.38s12-12.19,21.69-11.72a14.21,14.21,0,0,1,11.08,4.69A4,4,0,0,1,183,90.07c0,1.88,0,4.22-1.38,5.63-1.85,1.41-4.15.94-6-.94-1.38-1.41-2.31-2.81-3.69-4.22-2.77-3.75-6.92-4.22-10.15-.94a30.06,30.06,0,0,0-6,8.91c-3.23,9.85-5.54,20.16-8.77,30.48l25.38,3.75-1.85,7L146.08,136" transform="translate(-1.8 -1.7)"/></svg>