<?xml version="1.0" encoding="utf-8"?>
<!-- Generator: Adobe Illustrator 22.0.1, SVG Export Plug-In . SVG Version: 6.00 Build 0)  -->
<svg version="1.1" id="Layer_1" xmlns="http://www.w3.org/2000/svg" xmlns:xlink="http://www.w3.org/1999/xlink" x="0px" y="0px"
	 viewBox="0 0 283.5 283.5" style="enable-background:new 0 0 283.5 283.5;" xml:space="preserve">
<style type="text/css">
	.st0{opacity:0.15;fill:#E62524;}
	.st1{fill:#FFFFFF;}
</style>
<circle class="st0" cx="141.8" cy="141.7" r="140"/>
<g>
	<path class="st1" d="M141.5,74.6c-37.8,0-68.5,30.7-68.5,68.5c0,30.3,19.6,56,46.9,65c3.4,0.6,4.7-1.5,4.7-3.3
		c0-1.6-0.1-7-0.1-12.8c-19.1,4.1-23.1-8.1-23.1-8.1c-3.1-7.9-7.6-10-7.6-10c-6.2-4.3,0.5-4.2,0.5-4.2c6.9,0.5,10.5,7.1,10.5,7.1
		c6.1,10.5,16,7.4,19.9,5.7c0.6-4.4,2.4-7.5,4.4-9.2c-15.2-1.7-31.2-7.6-31.2-33.9c0-7.5,2.7-13.6,7.1-18.4
		c-0.7-1.7-3.1-8.7,0.7-18.1c0,0,5.8-1.8,18.8,7c5.5-1.5,11.3-2.3,17.2-2.3c5.8,0,11.7,0.8,17.2,2.3c13.1-8.9,18.8-7,18.8-7
		c3.7,9.4,1.4,16.4,0.7,18.1c4.4,4.8,7.1,10.9,7.1,18.4c0,26.3-16,32.1-31.3,33.8c2.5,2.1,4.6,6.3,4.6,12.7c0,9.2-0.1,16.5-0.1,18.8
		c0,1.8,1.2,4,4.7,3.3c27.2-9.1,46.8-34.7,46.8-65C210,105.2,179.3,74.6,141.5,74.6z M98.6,172.2c-0.2,0.3-0.7,0.4-1.2,0.2
		c-0.5-0.2-0.8-0.7-0.6-1c0.1-0.4,0.7-0.4,1.2-0.2C98.5,171.4,98.8,171.8,98.6,172.2z M102,175.2c-0.3,0.3-1,0.2-1.4-0.3
		c-0.4-0.5-0.5-1.1-0.2-1.4c0.3-0.3,1-0.2,1.4,0.3C102.2,174.3,102.3,174.9,102,175.2z M104.3,179c-0.4,0.3-1.1,0-1.5-0.6
		c-0.4-0.6-0.4-1.3,0-1.6c0.4-0.3,1.1,0,1.5,0.6C104.7,178,104.7,178.7,104.3,179z M108.2,183.5c-0.4,0.4-1.2,0.3-1.8-0.3
		c-0.6-0.6-0.8-1.3-0.4-1.8c0.4-0.4,1.2-0.3,1.8,0.3C108.4,182.3,108.6,183.1,108.2,183.5z M113.3,185c-0.2,0.5-0.9,0.8-1.7,0.6
		c-0.8-0.2-1.3-0.9-1.1-1.4c0.2-0.5,0.9-0.8,1.7-0.6C112.9,183.8,113.4,184.5,113.3,185z M119,185.6c0,0.6-0.6,1-1.5,1
		c-0.8,0-1.5-0.4-1.5-1c0-0.6,0.6-1,1.5-1C118.4,184.6,119,185.1,119,185.6z M124.7,185.4c0.1,0.6-0.5,1.1-1.3,1.3
		c-0.8,0.1-1.5-0.2-1.6-0.7c-0.1-0.6,0.5-1.1,1.3-1.3C123.8,184.5,124.6,184.9,124.7,185.4z"/>
</g>
</svg>
