<svg id="Layer_1" data-name="Layer 1" xmlns="http://www.w3.org/2000/svg" viewBox="0 0 307.77 295.17"><defs><style>.cls-1{fill:#EC5646;opacity:0.15;isolation:isolate;}.cls-2,.cls-3{fill:none;}.cls-3{stroke:#fff;stroke-linecap:round;stroke-linejoin:round;stroke-width:7px;}</style></defs><title>Internetcomputerprotocol</title><circle class="cls-1" cx="140" cy="140" r="140"/><rect class="cls-2" x="24.27" y="11.67" width="283.5" height="283.5"/><path class="cls-3" d="M1190.59,520.86a42,42,0,0,0,45.72-38.14,42.85,42.85,0,0,0,0-8.09c2.21-23.3-14.68-44-37.72-46.23a41.45,41.45,0,0,0-8,0c-41.91,0-64.77,92.46-106.68,92.46a42,42,0,0,1-45.72-38.14,42.85,42.85,0,0,1,0-8.09c-2.21-23.3,14.68-44,37.72-46.23a41.45,41.45,0,0,1,8,0C1125.82,428.4,1148.68,520.86,1190.59,520.86Z" transform="translate(-1000.44 -333.49)"/></svg>