<?xml version="1.0" encoding="utf-8"?>
<!-- Generator: Adobe Illustrator 22.0.1, SVG Export Plug-In . SVG Version: 6.00 Build 0)  -->
<svg version="1.1" id="Layer_1" xmlns="http://www.w3.org/2000/svg" xmlns:xlink="http://www.w3.org/1999/xlink" x="0px" y="0px"
	 viewBox="0 0 283.5 283.5" style="enable-background:new 0 0 283.5 283.5;" xml:space="preserve">
<style type="text/css">
	.st0{opacity:0.15;fill:#E62524;}
	.st1{fill:#FFFFFF;}
</style>
<circle class="st0" cx="141.8" cy="141.7" r="140"/>
<g>
	<path class="st1" d="M75.5,66.2l6,126l60.3,25l60.1-25.4L208,66.2H75.5z M137.5,189.3l-36-14.3l-1.2-24.6l13.3,4.2l0.2,7.5
		l10.1,3.8L121.9,91h15.6V189.3z M185.2,112.6l-14.1,0.3l0.1-4.6h-9.4l-0.6,18.8l23.4-0.7L182,175l-36.4,14.6v-18.3v-13.4l14.4-2.2
		l-0.3,10.2l9.9-3.8l0.6-20.1l-24.7,1.9V91h41L185.2,112.6z"/>
</g>
</svg>
