<?xml version="1.0" encoding="utf-8"?>
<!-- Generator: Adobe Illustrator 21.0.0, SVG Export Plug-In . SVG Version: 6.00 Build 0)  -->
<svg version="1.1" id="Layer_1" xmlns="http://www.w3.org/2000/svg" xmlns:xlink="http://www.w3.org/1999/xlink" x="0px" y="0px"
	 viewBox="0 0 283.5 283.5" style="enable-background:new 0 0 283.5 283.5;" xml:space="preserve">
<style type="text/css">
	.st0{opacity:0.15;fill:#E62524;enable-background:new    ;}
	.st1{fill:none;}
	.st2{fill:#FFFFFF;}
</style>
<circle class="st0" cx="141.8" cy="141.7" r="140"/>
<g>
	<path class="st1" d="M79,114.6c0,0-1.8,1.1,1.2,1.4c3.6,0.5,5.5,0.4,9.5-0.4c0,0,1.1,0.7,2.5,1.2C83.3,120.6,71.9,116.6,79,114.6
		L79,114.6z M77.8,109.6c0,0-1.9,1.5,1.1,1.8c3.9,0.4,7,0.5,12.3-0.6c0,0,0.7,0.8,1.8,1.2C82.2,115.1,70,112.2,77.8,109.6
		L77.8,109.6z M99,118.3c0,0,1.3,1.1-1.5,1.9c-5.1,1.5-21.6,2-26.2,0c-1.6-0.7,1.5-1.7,2.5-1.8c1-0.2,1.5-0.2,1.5-0.2
		c-1.8-1.2-11.8,2.5-5.1,3.6C88.6,124.8,103.8,120.5,99,118.3L99,118.3z M79.8,104.3c0,0-8.4,2-3,2.7c2.3,0.3,6.8,0.2,11.1-0.1
		c3.5-0.3,6.9-0.9,6.9-0.9s-1.2,0.5-2.1,1.1c-8.5,2.2-24.9,1.2-20.2-1.1C76.5,104.1,79.8,104.3,79.8,104.3L79.8,104.3z M94.8,112.7
		c8.6-4.5,4.6-8.8,1.8-8.2c-0.7,0.2-1,0.3-1,0.3s0.2-0.5,0.8-0.6c5.5-1.9,9.8,5.8-1.8,8.8C94.6,112.9,94.7,112.9,94.8,112.7
		L94.8,112.7z M80.6,124.9c8.3,0.5,21-0.3,21.3-4.2c0,0-0.6,1.5-6.8,2.7c-7.1,1.3-15.8,1.2-21,0.3C74.1,123.6,75.2,124.5,80.6,124.9
		L80.6,124.9z"/>
	<path class="st1" d="M89.6,79c0,0,4.8,4.8-4.5,12.1c-7.4,5.9-1.7,9.3,0,13.1c-4.4-3.9-7.5-7.4-5.4-10.6
		C82.8,88.9,91.5,86.6,89.6,79L89.6,79z M87.1,101c2.2,2.5-0.6,4.8-0.6,4.8s5.7-2.9,3.1-6.5c-2.4-3.5-4.2-5.1,5.8-10.9
		C95.3,88.4,79.6,92.4,87.1,101L87.1,101z"/>
	<path class="st1" d="M136.3,110.2V98.5c0-3-1.7-5-5.8-5c-2.4,0-4.4,0.6-6.2,1.3l0.6,2.1c1.3-0.5,3-1,4.8-1c2.3,0,3.3,1,3.3,2.9v1.6
		h-1.2c-5.7,0-8.3,2.1-8.3,5.6c0,2.9,1.8,4.5,5,4.5c2,0,3.6-1,5-2.1l0.2,1.8L136.3,110.2L136.3,110.2z M133,106.3
		c-1.2,1.1-2.5,1.7-3.7,1.7c-1.6,0-2.5-1-2.5-2.6c0-1.7,1-2.9,4.8-2.9h1.4V106.3L133,106.3z M147.5,110.2h-4.2l-5-16.3h3.6l3.1,10
		l0.7,3c1.6-4.3,2.7-8.7,3.2-13h3.6C151.6,99.2,149.9,105,147.5,110.2L147.5,110.2z M166.8,110.2V98.5c0-3-1.7-5-5.8-5
		c-2.4,0-4.4,0.6-6.2,1.3l0.5,2.1c1.4-0.5,3.1-1,4.9-1c2.3,0,3.3,1,3.3,2.9v1.6h-1.2c-5.7,0-8.3,2.1-8.3,5.6c0,2.9,1.7,4.5,4.9,4.5
		c2.1,0,3.7-1,5.1-2.1l0.2,1.8H166.8L166.8,110.2z M163.5,106.3c-1.2,1.1-2.5,1.7-3.7,1.7c-1.6,0-2.5-1-2.5-2.6c0-1.7,1-2.9,4.8-2.9
		h1.4V106.3L163.5,106.3z M119.8,112.9c-1,1.4-2.4,2.5-4.2,3.1l-1.6-1.9c1.2-0.7,2.4-1.8,2.9-2.7c0.5-0.8,0.6-2,0.6-4.8V88h3.6v18.3
		C121.1,110,120.7,111.5,119.8,112.9L119.8,112.9z"/>
</g>
<g>
	<path class="st2" d="M76.8,164c0,0-3,1.8,2.1,2.3c6.2,0.8,9.5,0.6,16.3-0.6c0,0,1.8,1.2,4.3,2.1C84.1,174.1,64.7,167.3,76.8,164
		L76.8,164z M74.8,155.6c0,0-3.3,2.4,1.8,3c6.7,0.6,12,0.8,21-1c0,0,1.2,1.3,3.2,1.9C82.3,164.9,61.5,160,74.8,155.6L74.8,155.6z
		 M111,170.3c0,0,2.2,1.8-2.5,3.2c-8.8,2.6-36.9,3.3-44.8,0c-2.8-1.2,2.5-2.8,4.2-3.1c1.7-0.4,2.6-0.4,2.6-0.4
		c-3-2.1-20.1,4.2-8.7,6C93.3,181.1,119.2,173.9,111,170.3L111,170.3z M78.2,146.9c0,0-14.3,3.3-5.1,4.5c3.9,0.5,11.7,0.4,18.9-0.1
		c5.9-0.5,11.8-1.5,11.8-1.5s-2.1,0.9-3.5,1.8c-14.6,3.7-42.6,2.1-34.5-1.8C72.6,146.5,78.2,146.9,78.2,146.9L78.2,146.9z
		 M103.8,160.9c14.7-7.5,7.9-14.7,3.2-13.8c-1.2,0.3-1.7,0.5-1.7,0.5s0.4-0.8,1.3-1c9.3-3.2,16.7,9.6-3,14.7
		C103.5,161.3,103.7,161.1,103.8,160.9L103.8,160.9z M79.6,181.2c14.2,0.9,35.9-0.5,36.4-7.1c0,0-1,2.6-11.7,4.5
		c-12.1,2.2-27.1,1.9-35.9,0.5C68.5,179.1,70.3,180.7,79.6,181.2L79.6,181.2z"/>
	<path class="st2" d="M94.9,104.4c0,0,8.1,8.1-7.7,20.3c-12.7,9.9-2.9,15.6,0,22c-7.5-6.6-12.9-12.3-9.2-17.7
		C83.3,121,98.2,117.2,94.9,104.4L94.9,104.4z M90.7,141.3c3.8,4.2-1.1,8.1-1.1,8.1s9.7-4.9,5.3-10.9c-4.1-5.8-7.2-8.6,9.8-18.3
		C104.7,120.3,77.8,126.8,90.7,141.3L90.7,141.3z"/>
	<path class="st2" d="M174.8,156.6v-19.5c0-5-2.9-8.4-10-8.4c-4.1,0-7.5,1-10.6,2.2l1,3.6c2.2-0.8,5.1-1.6,8.1-1.6
		c3.9,0,5.7,1.6,5.7,4.8v2.6h-2c-9.8,0-14.3,3.6-14.3,9.4c0,4.8,3.1,7.6,8.6,7.6c3.5,0,6.1-1.6,8.6-3.6l0.4,3L174.8,156.6
		L174.8,156.6z M169.1,150.2c-2,1.8-4.3,2.8-6.3,2.8c-2.7,0-4.3-1.6-4.3-4.4c0-2.8,1.6-4.8,8.1-4.8h2.4V150.2L169.1,150.2z
		 M194,156.6h-7.1l-8.6-27.3h6.1l5.3,16.8l1.2,5c2.7-7.2,4.7-14.6,5.5-21.7h6.1C200.9,138.3,198.1,148,194,156.6L194,156.6z
		 M227,156.6v-19.5c0-5-2.9-8.4-10-8.4c-4.1,0-7.5,1-10.6,2.2l0.8,3.6c2.4-0.8,5.3-1.6,8.4-1.6c3.9,0,5.7,1.6,5.7,4.8v2.6h-2
		c-9.8,0-14.3,3.6-14.3,9.4c0,4.8,2.9,7.6,8.4,7.6c3.7,0,6.3-1.6,8.8-3.6l0.4,3H227L227,156.6z M221.3,150.2c-2,1.8-4.3,2.8-6.3,2.8
		c-2.7,0-4.3-1.6-4.3-4.4c0-2.8,1.6-4.8,8.1-4.8h2.4V150.2L221.3,150.2z M146.5,161.2c-1.6,2.4-4.1,4.2-7.1,5.2l-2.7-3.2
		c2-1.2,4.1-3,4.9-4.6c0.8-1.4,1-3.4,1-8v-31.1h6.1v30.7C148.8,156.4,148.2,158.8,146.5,161.2L146.5,161.2z"/>
</g>
</svg>
