<?xml version="1.0" encoding="utf-8"?>
<!-- Generator: Adobe Illustrator 22.0.1, SVG Export Plug-In . SVG Version: 6.00 Build 0)  -->
<svg version="1.1" id="Layer_1" xmlns="http://www.w3.org/2000/svg" xmlns:xlink="http://www.w3.org/1999/xlink" x="0px" y="0px"
	 viewBox="0 0 283.5 283.5" style="enable-background:new 0 0 283.5 283.5;" xml:space="preserve">
<style type="text/css">
	.st0{opacity:0.15;fill:#E62524;}
	.st1{fill:#FFFFFF;}
</style>
<circle class="st0" cx="141.8" cy="141.7" r="140"/>
<g>
	<path class="st1" d="M189.7,179.5c-0.3-5-0.5-8.7-0.5-8.7l-1.8,0.3c0,0,3.7-14.7-5.5-30c-9.2-15.2-18.7-25-18.9-36.3
		c-0.3-11.3,1.3-33.4-23.7-33.6c0,0-19.2,0-18.7,18.1c0.5,18.1,1.6,30.8,1.6,30.8s-7.1,10-10.8,16c-3.7,6-8.9,21.3-10.8,23.4
		c0,0-2.6,1.8-2.1,5.8s0.5,5.5-2.9,8.9c-3.4,3.4-5.5,4.5-8.7,4.7c-3.2,0.3-3.7-0.5-3.7,3.4c0,3.9-1.3,17.6-1.3,17.6
		s4.7,3.7,12.9,5.3c8.1,1.6,9.2,1.3,14.2,3.7c5,2.4,10,3.9,12.4,1.6c2.4-2.4,4.7-6.8,15.5-6.8c10.8,0,16.3,0,16.3,0s6.3-0.8,6.8,1.3
		c0.5,2.1,1.3,3.7,4.7,4.5s7.1,2.4,17.3-5.8c10.3-8.1,15-6.8,18.9-12.9C201,190.8,190,184.5,189.7,179.5z M140.5,93.8
		c4.2-8.1,10.5-3.4,11.8,0.8c1.3,4.2,3.2,8.9-2.1,12.1l-4.7-1.6c0,0,7.6-4.7,0.8-9.2c0,0-3.2-0.3-2.9,4.7c0.3,5-0.8,3.4-0.8,3.4
		S136.3,101.9,140.5,93.8z M125.3,92.5c1.1-1.1,3.4-4.5,7.4,1.8c3.9,6.3-0.5,8.4-0.5,8.4c-1.1-10-4.2-5.8-4.2-5.8s-4.7,2.9-0.8,6.3
		c3.9,3.4,0,3.7,0,3.7C120.3,99.8,124.2,93.5,125.3,92.5z M165.8,170.8c-2.9-0.5-3.9,1.3-3.7,4.5c0.3,3.2,0,8.7-1.6,10.8
		c-1.6,2.1-10.3,12.9-24.4,12.4s-15.8-7.6-13.7-8.4c2.1-0.8,7.6-3.7,2.6-8.1c-5-4.5-15.2-12.4-15.2-12.4s-3.4-8.7,1.1-18.1
		c4.5-9.5,8.7-23.9,13.9-28.7c0,0-1.3-8.4,0.8-8.7c0,0,8.1,7.1,11.8,6.8c3.7-0.3,11.6-6.3,11.6-6.3s2.9-1.6,4.5,1.8
		c1.6,3.4,10,22.6,11.6,26c1.6,3.4,3.7,10.3,3.7,15.8S168.7,171.3,165.8,170.8z"/>
</g>
</svg>
