<?xml version="1.0" encoding="utf-8"?>
<!-- Generator: Adobe Illustrator 21.0.0, SVG Export Plug-In . SVG Version: 6.00 Build 0)  -->
<svg version="1.1" id="Layer_1" xmlns="http://www.w3.org/2000/svg" xmlns:xlink="http://www.w3.org/1999/xlink" x="0px" y="0px"
	 viewBox="0 0 283.5 283.5" style="enable-background:new 0 0 283.5 283.5;" xml:space="preserve">
<style type="text/css">
	.st0{opacity:0.15;fill:#E62524;enable-background:new    ;}
	.st1{fill:#FFFFFF;}
</style>
<circle class="st0" cx="141.8" cy="141.7" r="140"/>
<g>
	<path class="st1" d="M52.9,103.2c-2-3.5-3.8-7.1-4.1-7.8c0-0.1-0.1-0.1-0.1,0c-0.4,0.7-2.1,4.3-4.1,7.8
		c-17.3,32.3,2.7,54.1,2.7,54.1l0.2,0.2c0.1,3.4,0.5,8.2,0.5,8.2h0.7h0.7c0,0,0.4-4.8,0.5-8.2l0.2-0.2
		C50.2,157.2,70.3,135.4,52.9,103.2z M48.7,156.7c0,0-0.9-1.1-1.1-1.7V155l1.1-35.1c0-0.1,0.1-0.1,0.1,0l1.1,35.1v0.1
		C49.6,155.6,48.7,156.7,48.7,156.7z"/>
	<path class="st1" d="M86.3,149.6L78,119.7l0-0.1h-6.5v2h1.1c0.3,0,0.6,0.2,0.8,0.5c0.2,0.3,0.3,0.8,0.3,1.2l-0.2,30
		c0,0.9-0.5,1.7-1.2,1.7l-1.1,0v2h6.3v-2l-0.7,0c-0.6,0-1.2-0.8-1.2-1.7v-28.3l9.1,32c0.1,0.5,0.4,0.8,0.8,0.8
		c0.3,0,0.6-0.3,0.8-0.8l8.9-31.3l0.1,27.6c0,1-0.5,1.7-1.2,1.8h-0.7v2h7.4v-2h-1c-0.6,0-1.2-0.8-1.2-1.7l-0.1-30
		c0-1,0.5-1.7,1.2-1.8l1.1,0v-2h-6.3L86.3,149.6z"/>
	<path class="st1" d="M144.7,154.7c-0.2-0.3-0.3-0.7-0.3-1.2v-14.7c0-2.8-0.6-5-1.7-6.6c-1.1-1.6-2.7-2.4-4.6-2.4
		c-2.7,0-4.8,1.6-6.3,4.7c0,0.1-0.1,0.1-0.1,0.1c-0.1,0-0.1-0.1-0.1-0.1l-0.7-3.9h-1.2l-3,2.5v1.4h0.8c0.4,0,0.7,0.1,0.9,0.4
		c0.2,0.3,0.3,0.7,0.3,1.3v17.4c0,0.5-0.1,0.9-0.3,1.2c-0.2,0.3-0.5,0.5-0.8,0.5h-0.8v2h6.9v-2h-0.8c-0.3,0-0.6-0.2-0.8-0.5
		c-0.2-0.3-0.3-0.7-0.3-1.2v-11.5c0-1.5,0.2-2.9,0.6-4.3c0.4-1.4,1.1-2.6,1.9-3.5c0.8-0.9,1.9-1.3,3-1.3c1.3,0,2.3,0.6,2.9,1.8
		c0.6,1.2,0.9,2.8,0.9,4.6v14.2c0,0.5-0.1,0.9-0.3,1.2c-0.2,0.3-0.5,0.5-0.8,0.5h-0.8v2h6.9v-2h-0.8
		C145.1,155.1,144.9,155,144.7,154.7z"/>
	<path class="st1" d="M207.6,121.9c-1.9-1.5-4-2.2-6.3-2.2h-9v2h0.9c0.3,0,0.6,0.2,0.9,0.6c0.3,0.4,0.4,0.9,0.4,1.4v29.5
		c0,0.5-0.1,1-0.4,1.4c-0.3,0.4-0.6,0.6-0.9,0.6h-0.9v2h9c2.3,0,4.4-0.8,6.3-2.2c1.9-1.5,3.5-3.7,4.6-6.5c1.1-2.8,1.7-6.2,1.7-10
		c0-3.8-0.6-7.2-1.7-10C211,125.6,209.5,123.4,207.6,121.9z M210.2,138.4c0,3.5-0.4,6.5-1.3,8.8c-0.8,2.4-2,4.2-3.3,5.3
		c-1.4,1.1-2.9,1.7-4.6,1.7h-1.8c-0.3,0-0.6-0.2-0.9-0.6c-0.3-0.4-0.4-0.9-0.4-1.4v-27.8c0-0.5,0.1-0.9,0.4-1.4
		c0.3-0.4,0.6-0.6,0.9-0.6h1.8c1.6,0,3.2,0.6,4.6,1.7c1.4,1.1,2.5,2.9,3.3,5.3C209.8,131.9,210.2,134.9,210.2,138.4z"/>
	<path class="st1" d="M235,140.4c-0.8-1.4-2.4-2.6-4.3-3.2c2.6-1.9,3.9-4.5,3.9-8c0-1.9-0.3-3.5-1-5c-0.7-1.4-1.6-2.6-2.9-3.4
		c-1.2-0.8-2.7-1.2-4.3-1.2h-10.1v2h0.8c0.3,0,0.6,0.2,0.9,0.6c0.3,0.4,0.4,0.9,0.4,1.4v29.5c0,0.5-0.2,1-0.4,1.4
		c-0.3,0.4-0.6,0.6-0.9,0.6h-0.9v2h11c1.7,0,3.2-0.4,4.6-1.2c1.4-0.8,2.5-2,3.3-3.6c0.8-1.6,1.2-3.5,1.2-5.8
		C236.5,144.1,236,142,235,140.4z M222.4,153.6c-0.3-0.4-0.4-0.9-0.4-1.4V139h5.2c1.8,0,3.3,0.7,4.2,2.1c1,1.4,1.5,3.1,1.5,5.3
		c0,1.3-0.2,2.6-0.6,3.8c-0.4,1.2-1.1,2.2-1.9,2.9c-0.8,0.7-1.9,1.1-3.1,1.1h-3.9C223,154.2,222.7,154,222.4,153.6z M222,136.2
		v-11.7c0-0.5,0.1-0.9,0.4-1.4c0.3-0.4,0.6-0.6,0.9-0.6h2.5c1.8,0,3.1,0.7,3.9,1.9c0.8,1.3,1.2,2.9,1.2,5c0,2.1-0.4,3.8-1.2,5
		c-0.8,1.2-1.9,1.9-3.5,1.9H222z"/>
	<path class="st1" d="M118.5,131.5c-1.4-1.1-3-1.7-4.8-1.7s-3.4,0.6-4.8,1.7c-1.4,1.1-2.6,2.8-3.4,4.9s-1.3,4.6-1.3,7.3
		s0.4,5.2,1.3,7.3s2,3.8,3.4,4.9c1.4,1.1,3,1.7,4.8,1.7s3.4-0.6,4.8-1.7c1.4-1.1,2.6-2.8,3.4-4.9s1.3-4.6,1.3-7.3s-0.4-5.2-1.3-7.3
		S119.9,132.7,118.5,131.5z M119.8,143.7c0,3.4-0.6,6.1-1.7,8c-1.1,2-2.6,3-4.5,3c-1.9,0-3.4-1-4.5-3c-1.1-2-1.7-4.7-1.7-8
		s0.6-6.1,1.7-8c1.1-2,2.6-3,4.5-3c1.9,0,3.4,1,4.5,3C119.3,137.6,119.8,140.4,119.8,143.7z"/>
	<path class="st1" d="M184.6,131.5c-1.4-1.1-3-1.7-4.8-1.7s-3.4,0.6-4.8,1.7c-1.4,1.1-2.6,2.8-3.4,4.9s-1.3,4.6-1.3,7.3
		s0.4,5.2,1.3,7.3s2,3.8,3.4,4.9c1.4,1.1,3,1.7,4.8,1.7s3.4-0.6,4.8-1.7c1.4-1.1,2.6-2.8,3.4-4.9s1.3-4.6,1.3-7.3s-0.4-5.2-1.3-7.3
		S186,132.7,184.6,131.5z M186,143.7c0,3.4-0.6,6.1-1.7,8c-1.1,2-2.6,3-4.5,3c-1.9,0-3.4-1-4.5-3c-1.1-2-1.7-4.7-1.7-8
		c0-3.4,0.6-6.1,1.7-8c1.1-2,2.6-3,4.5-3c1.9,0,3.4,1,4.5,3C185.4,137.6,186,140.4,186,143.7z"/>
	<path class="st1" d="M157.9,129.8c-1.5,0-2.9,0.5-4.1,1.4c-1.2,0.9-2.2,2.2-2.9,3.8c-0.7,1.6-1.1,3.4-1.1,5.3
		c0,1.7,0.3,3.3,0.8,4.7c0.5,1.3,1.2,2.5,2.1,3.4l-2.7,5.3c-0.3,0.7-0.4,1.5-0.1,2.2c0.3,0.7,0.8,1.2,1.3,1.2h0.8
		c-0.8,0.7-1.4,1.6-1.8,2.7c-0.5,1.2-0.7,2.4-0.7,3.7c0,2.4,0.7,4.3,2.1,5.8c1.4,1.5,3.3,2.2,5.8,2.2c1.7,0,3.3-0.4,4.8-1.2
		c1.5-0.8,2.7-2,3.6-3.5c0.9-1.5,1.4-3.4,1.4-5.5c0-2.2-0.6-3.8-1.9-5.4c-1.1-1.3-2.9-2-5.1-2h-7.5c0,0,0,0,0,0s0-0.1,0-0.1l2-3.8
		c0.5,0.4,1,0.6,1.4,0.7c0.5,0.1,1,0.2,1.5,0.2c1.6,0,3-0.5,4.2-1.4c1.2-0.9,2.2-2.2,3-3.8c0.7-1.6,1.1-3.4,1.1-5.3
		c0-2-0.7-5.7-2.5-7.6c0,0,0,0,0,0l4,0.7v-2.7h-6.5C160.1,130.1,159,129.8,157.9,129.8z M160.2,146.9c-0.7,0.5-1.5,0.8-2.3,0.8
		c-1.3,0-2.4-0.7-3.3-1.9c-0.9-1.3-1.4-3.2-1.4-5.6c0-2.4,0.5-4.3,1.4-5.6c0.9-1.3,2-1.9,3.3-1.9c0.8,0,1.5,0.3,2.3,0.8
		c0.7,0.5,1.3,1.4,1.8,2.5c0.5,1.1,0.7,2.5,0.7,4.2c0,1.7-0.2,3.1-0.7,4.2C161.5,145.5,160.9,146.4,160.2,146.9z M155.1,157h5.1
		c1.4,0,2.3,0.4,2.9,1.3c0.6,0.9,0.9,2.1,0.9,3.4c0,2-0.5,3.6-1.6,4.9c-1.1,1.2-2.6,1.9-4.4,1.9c-1.6,0-2.9-0.5-3.9-1.5
		c-1-1-1.4-2.5-1.4-4.4c0-1.2,0.2-2.3,0.7-3.3C153.8,158.3,154.4,157.5,155.1,157z"/>
	<path class="st1" d="M240.3,156.7c-0.4-0.3-0.7-0.7-0.9-1.2c-0.2-0.5-0.3-1.1-0.3-1.7c0-0.6,0.1-1.2,0.3-1.7
		c0.2-0.5,0.5-0.9,0.9-1.2c0.4-0.3,0.8-0.5,1.2-0.5s0.9,0.2,1.2,0.5c0.4,0.3,0.7,0.7,0.9,1.2c0.2,0.5,0.3,1.1,0.3,1.7
		c0,0.6-0.1,1.2-0.3,1.7c-0.2,0.5-0.5,0.9-0.9,1.2c-0.4,0.3-0.8,0.5-1.2,0.5C241.1,157.1,240.7,157,240.3,156.7z M242.6,156.3
		c0.3-0.2,0.5-0.6,0.7-1c0.2-0.5,0.3-1,0.3-1.5s-0.1-1.1-0.3-1.5c-0.2-0.5-0.4-0.8-0.7-1c-0.3-0.2-0.7-0.4-1-0.4s-0.7,0.1-1,0.4
		c-0.3,0.2-0.5,0.6-0.7,1c-0.2,0.5-0.3,1-0.3,1.5s0.1,1.1,0.3,1.5c0.2,0.5,0.4,0.8,0.7,1c0.3,0.2,0.7,0.4,1,0.4
		S242.3,156.5,242.6,156.3z M240.5,155.3v-0.2l0,0h0.1c0,0,0.1,0,0.1-0.1c0-0.1,0-0.1,0-0.1v-2.5c0-0.1,0-0.1,0-0.1
		c0-0.1-0.1-0.1-0.1-0.1h-0.1l0,0v-0.2l0,0h1c0.3,0,0.5,0.1,0.7,0.3c0.2,0.2,0.2,0.4,0.2,0.8c0,0.2-0.1,0.5-0.2,0.6
		c-0.1,0.2-0.3,0.3-0.5,0.3l0.2,0.1l0.4,1c0,0.1,0.1,0.1,0.1,0.1h0.1l0,0v0.2l0,0h-0.6l0,0l-0.6-1.5h-0.1v1c0,0.1,0,0.1,0,0.1
		c0,0.1,0.1,0.1,0.1,0.1h0.1l0,0v0.2l0,0L240.5,155.3L240.5,155.3z M241.5,153.6c0.1,0,0.3-0.1,0.4-0.2c0.1-0.1,0.1-0.3,0.1-0.5
		c0-0.2,0-0.4-0.1-0.5c-0.1-0.1-0.2-0.2-0.3-0.2h-0.1c0,0-0.1,0-0.1,0.1c0,0.1,0,0.1,0,0.1v1.2H241.5z"/>
</g>
</svg>
