<?xml version="1.0" encoding="utf-8"?>
<!-- Generator: Adobe Illustrator 22.0.1, SVG Export Plug-In . SVG Version: 6.00 Build 0)  -->
<svg version="1.1" id="Layer_1" xmlns="http://www.w3.org/2000/svg" xmlns:xlink="http://www.w3.org/1999/xlink" x="0px" y="0px"
	 viewBox="0 0 283.5 283.5" style="enable-background:new 0 0 283.5 283.5;" xml:space="preserve">
<style type="text/css">
	.st0{opacity:0.15;fill:#E62524;}
	.st1{fill:#FFFFFF;}
</style>
<circle class="st0" cx="141.8" cy="141.7" r="140"/>
<g>
	<path class="st1" d="M141.1,213.2c-2,0-3.8-0.5-5.6-1.5L118,201.3c-2.6-1.5-1.3-2-0.5-2.2c3.6-1.2,4.2-1.5,7.9-3.6
		c0.4-0.3,0.9-0.1,1.3,0.1l13.5,8.1c0.5,0.3,1.2,0.3,1.6,0l52.7-30.5c0.5-0.3,0.8-0.8,0.8-1.5v-60.9c0-0.7-0.3-1.2-0.8-1.5
		l-52.7-30.4c-0.5-0.3-1.2-0.3-1.6,0l-52.7,30.4c-0.5,0.3-0.8,0.9-0.8,1.5v60.9c0,0.5,0.3,1.2,0.8,1.5l14.4,8.3
		c7.8,4,12.7-0.7,12.7-5.3v-60.2c0-0.8,0.7-1.6,1.6-1.6h6.7c0.8,0,1.6,0.7,1.6,1.6v60.2c0,10.4-5.7,16.5-15.6,16.5
		c-3,0-5.4,0-12.2-3.3l-13.9-7.9c-3.4-2-5.6-5.7-5.6-9.7v-60.9c0-4,2.1-7.7,5.6-9.7l52.7-30.5c3.3-1.9,7.8-1.9,11.1,0l52.7,30.5
		c3.4,2,5.6,5.7,5.6,9.7v60.9c0,4-2.1,7.7-5.6,9.7L146.7,212C145,212.8,143,213.2,141.1,213.2L141.1,213.2z M157.4,171.3
		c-23.1,0-27.9-10.6-27.9-19.6c0-0.8,0.7-1.6,1.6-1.6h6.9c0.8,0,1.5,0.5,1.5,1.3c1.1,7,4.1,10.4,18.1,10.4c11.1,0,15.9-2.5,15.9-8.5
		c0-3.4-1.3-5.9-18.6-7.7c-14.4-1.5-23.4-4.6-23.4-16.1c0-10.7,9-17.1,24.1-17.1c16.9,0,25.3,5.8,26.3,18.5c0,0.4-0.1,0.8-0.4,1.2
		c-0.3,0.3-0.7,0.5-1.1,0.5h-6.9c-0.7,0-1.3-0.5-1.5-1.2c-1.6-7.3-5.7-9.7-16.5-9.7c-12.2,0-13.6,4.2-13.6,7.4c0,3.8,1.7,5,18.1,7.1
		c16.3,2.1,23.9,5.2,23.9,16.5C183.7,164.7,174.2,171.3,157.4,171.3L157.4,171.3z"/>
</g>
</svg>
