<?xml version="1.0" encoding="utf-8"?>
<!-- Generator: Adobe Illustrator 22.0.1, SVG Export Plug-In . SVG Version: 6.00 Build 0)  -->
<svg version="1.1" id="Layer_1" xmlns="http://www.w3.org/2000/svg" xmlns:xlink="http://www.w3.org/1999/xlink" x="0px" y="0px"
	 viewBox="0 0 283.5 283.5" style="enable-background:new 0 0 283.5 283.5;" xml:space="preserve">
<style type="text/css">
	.st0{opacity:0.15;fill:#E62524;}
	.st1{fill:#FFFFFF;}
</style>
<circle class="st0" cx="141.8" cy="141.7" r="140"/>
<g>
	<path class="st1" d="M182.2,114.8c-2.9-1.6-6.6-1.6-9.9,0l-23,13.6l-15.6,8.6l-22.6,13.6c-2.9,1.6-6.6,1.6-9.9,0l-17.7-10.7
		c-2.9-1.6-4.9-4.9-4.9-8.6v-20.6c0-3.3,1.6-6.6,4.9-8.6l17.7-10.3c2.9-1.6,6.6-1.6,9.9,0l17.7,10.7c2.9,1.6,4.9,4.9,4.9,8.6v13.6
		l15.6-9v-14c0-3.3-1.6-6.6-4.9-8.6l-32.9-19.3c-2.9-1.6-6.6-1.6-9.9,0L67.9,93.4c-3.3,1.6-4.9,4.9-4.9,8.2v38.6
		c0,3.3,1.6,6.6,4.9,8.6l33.3,19.3c2.9,1.6,6.6,1.6,9.9,0l22.6-13.1l15.6-9l22.6-13.1c2.9-1.6,6.6-1.6,9.9,0l17.7,10.3
		c2.9,1.6,4.9,4.9,4.9,8.6v20.6c0,3.3-1.6,6.6-4.9,8.6l-17.3,10.3c-2.9,1.6-6.6,1.6-9.9,0L154.7,181c-2.9-1.6-4.9-4.9-4.9-8.6v-13.1
		l-15.6,9v13.6c0,3.3,1.6,6.6,4.9,8.6l33.3,19.3c2.9,1.6,6.6,1.6,9.9,0l33.3-19.3c2.9-1.6,4.9-4.9,4.9-8.6v-39.1
		c0-3.3-1.6-6.6-4.9-8.6L182.2,114.8z"/>
</g>
</svg>
