<?xml version="1.0" encoding="utf-8"?>
<!-- Generator: Adobe Illustrator 22.0.1, SVG Export Plug-In . SVG Version: 6.00 Build 0)  -->
<svg version="1.1" id="Layer_1" xmlns="http://www.w3.org/2000/svg" xmlns:xlink="http://www.w3.org/1999/xlink" x="0px" y="0px"
	 viewBox="0 0 283.5 283.5" style="enable-background:new 0 0 283.5 283.5;" xml:space="preserve">
<style type="text/css">
	.st0{opacity:0.15;fill:#E62524;}
	.st1{fill:#FFFFFF;}
</style>
<circle class="st0" cx="141.8" cy="141.7" r="140"/>
<g>
	<title>python</title>
	<g id="Layer_2_2_">
		<g id="JS_1_">
			<path class="st1" d="M140.7,71.8c-35.4,0-33.2,15.4-33.2,15.4l0,15.9h33.8v4.8H94.1c0,0-22.7-2.6-22.7,33.2s19.8,34.5,19.8,34.5
				h11.8v-16.6c0,0-0.6-19.8,19.5-19.8h33.5c0,0,18.8,0.3,18.8-18.2V90.3C174.9,90.3,177.7,71.7,140.7,71.8L140.7,71.8z M122.1,82.5
				c3.4,0,6.1,2.7,6.1,6.1c0,3.4-2.7,6.1-6.1,6.1c-3.4,0-6.1-2.7-6.1-6.1c0,0,0,0,0,0C116,85.2,118.7,82.5,122.1,82.5
				C122.1,82.5,122.1,82.5,122.1,82.5z"/>
			<path class="st1" d="M141.7,210.6c35.4,0,33.2-15.4,33.2-15.4l0-15.9h-33.8v-4.8h47.2c0,0,22.7,2.6,22.7-33.2
				s-19.8-34.5-19.8-34.5h-11.8v16.6c0,0,0.6,19.8-19.5,19.8h-33.5c0,0-18.8-0.3-18.8,18.2V192C107.6,192,104.7,210.6,141.7,210.6
				L141.7,210.6z M160.4,199.9c-3.4,0-6.1-2.7-6.1-6.1c0-3.4,2.7-6.1,6.1-6.1s6.1,2.7,6.1,6.1c0,0,0,0,0,0
				C166.5,197.1,163.7,199.9,160.4,199.9C160.4,199.9,160.4,199.9,160.4,199.9z"/>
		</g>
	</g>
</g>
</svg>
