<?xml version="1.0" encoding="utf-8"?>
<!-- Generator: Adobe Illustrator 21.0.0, SVG Export Plug-In . SVG Version: 6.00 Build 0)  -->
<svg version="1.1" id="Layer_1" xmlns="http://www.w3.org/2000/svg" xmlns:xlink="http://www.w3.org/1999/xlink" x="0px" y="0px"
	 viewBox="0 0 283.5 283.5" style="enable-background:new 0 0 283.5 283.5;" xml:space="preserve">
<style type="text/css">
	.st0{opacity:0.15;fill:#E62524;enable-background:new    ;}
	.st1{fill:#FFFFFF;}
</style>
<circle class="st0" cx="141.8" cy="141.7" r="140"/>
<path class="st1" d="M141.8,84C106.1,84,77,112.8,77,148.3s29.1,64.3,64.8,64.3s64.8-28.8,64.8-64.3S177.4,84,141.8,84z M141.7,89.7
	c2.3,0.1,4.1,1.9,4.1,4.2c0,2.3-1.9,4.2-4.3,4.2c-2.4,0-4.3-1.9-4.3-4.2c0-2.3,1.9-4.2,4.3-4.2C141.6,89.7,141.6,89.7,141.7,89.7z
	 M151.4,96.7c15.1,2.8,28.3,12.1,35.9,25.4l-5,11.3c-0.9,1.9,0,4.2,2,5.1l9.7,4.3c0.3,3,0.3,6,0.1,9h-5.4c-0.5,0-0.8,0.4-0.8,0.9
	v2.4c0,5.8-3.3,7-6.2,7.3c-2.7,0.3-5.8-1.1-6.2-2.8c-1.6-9-4.3-10.9-8.5-14.3c5.3-3.3,10.8-8.2,10.8-14.8c0-7.1-4.9-11.5-8.2-13.7
	c-4.7-3.1-9.9-3.7-11.3-3.7h-55.6c7.7-8.5,18-14.3,29.3-16.4l6.6,6.8c1.5,1.5,3.9,1.6,5.5,0.1L151.4,96.7z M90.9,128
	c2.3,0.1,4.1,1.9,4.1,4.2c0,2.3-1.9,4.2-4.3,4.2c-2.4,0-4.3-1.9-4.3-4.2c0-2.3,1.9-4.2,4.3-4.2C90.8,128,90.8,128,90.9,128z
	 M192.5,128.2c2.3,0.1,4.1,1.9,4.1,4.2c0,2.3-1.9,4.2-4.3,4.2s-4.3-1.9-4.3-4.2c0-2.3,1.9-4.2,4.3-4.2
	C192.4,128.2,192.4,128.2,192.5,128.2z M98.9,128.8h7.4v33.2h-15c-1.9-6.4-2.4-13.2-1.7-19.9l9.2-4.1c2-0.9,2.8-3.1,2-5.1
	L98.9,128.8z M129.9,129.2h17.7c0.9,0,6.5,1,6.5,5.2c0,3.4-4.2,4.6-7.7,4.6h-16.4L129.9,129.2z M129.9,153.1h13.5
	c1.2,0,6.6,0.4,8.3,7.2c0.5,2.1,1.7,8.9,2.5,11.1c0.8,2.4,4.1,7.3,7.6,7.3H184c-1.5,2-3.1,3.8-4.8,5.6l-9-1.9
	c-2.1-0.4-4.2,0.9-4.6,3l-2.1,9.9c-13.9,6.3-29.9,6.2-43.7-0.2l-2.1-9.9c-0.5-2.1-2.5-3.4-4.6-3l-8.8,1.9c-1.6-1.7-3.2-3.5-4.5-5.3
	h42.8c0.5,0,0.8-0.1,0.8-0.5v-15c0-0.4-0.3-0.5-0.8-0.5h-12.5L129.9,153.1z M110.1,187.5c2.3,0.1,4.1,1.9,4.1,4.2
	c0,2.3-1.9,4.2-4.3,4.2c-2.4,0-4.3-1.9-4.3-4.2c0-2.3,1.9-4.2,4.3-4.2C110,187.5,110.1,187.5,110.1,187.5z M173.2,187.7
	c2.3,0.1,4.1,1.9,4.1,4.2c0,2.3-1.9,4.2-4.3,4.2s-4.3-1.9-4.3-4.2c0-2.3,1.9-4.2,4.3-4.2C173.1,187.7,173.2,187.7,173.2,187.7z"/>
</svg>
