<?xml version="1.0" encoding="utf-8"?>
<!-- Generator: Adobe Illustrator 22.0.1, SVG Export Plug-In . SVG Version: 6.00 Build 0)  -->
<svg version="1.1" id="Layer_1" xmlns="http://www.w3.org/2000/svg" xmlns:xlink="http://www.w3.org/1999/xlink" x="0px" y="0px"
	 viewBox="0 0 283.5 283.5" style="enable-background:new 0 0 283.5 283.5;" xml:space="preserve">
<style type="text/css">
	.st0{opacity:0.15;fill:#E62524;enable-background:new    ;}
	.st1{fill:#FFFFFF;}
</style>
<circle class="st0" cx="141.8" cy="141.7" r="140"/>
<g>
	<path class="st1" d="M142.5,129.7c-2,0-3.7,0.8-4.7,2c-1.4,1.6-1.8,3.3-1.8,10.5c0,7.2,0.4,8.9,1.8,10.5c1,1.2,2.7,2,4.7,2
		c0.9,0,1.7-0.2,2.4-0.7l-3.3-3.2l3.9-3.8l2.8,2.8c0.6-1.6,0.7-3.8,0.7-7.6c0-7.2-0.4-8.9-1.8-10.5
		C146.1,130.4,144.5,129.7,142.5,129.7z"/>
	<path class="st1" d="M189.9,107.7H95.7c-8.3,0-15.1,6.8-15.1,15.1v40c0,8.3,6.8,15.1,15.1,15.1h94.2c8.3,0,15.1-6.8,15.1-15.1v-40
		C205,114.5,198.2,107.7,189.9,107.7z M109.2,161.1c-5.7,0-10-1.2-13.6-4.9l4.7-4.7c2.4,2.4,5.6,3.1,9,3.1c4.3,0,6.6-1.6,6.6-4.6
		c0-1.3-0.4-2.4-1.2-3.1c-0.7-0.7-1.6-1-3.3-1.3l-4.5-0.6c-3.2-0.5-5.6-1.5-7.2-3.1c-1.8-1.8-2.7-4.2-2.7-7.3
		c0-6.7,4.9-11.3,13-11.3c5.1,0,8.9,1.3,12.1,4.4l-4.6,4.6c-2.4-2.3-5.2-2.6-7.7-2.6c-3.9,0-5.8,2.2-5.8,4.7c0,0.9,0.3,1.9,1.1,2.7
		c0.7,0.7,1.9,1.3,3.5,1.5l4.4,0.6c3.4,0.5,5.6,1.4,7.1,2.9c2,1.9,2.9,4.6,2.9,7.9C123.1,157,117.1,161.1,109.2,161.1z M153.4,162.4
		l-3.3-3.3c-2.1,1.4-4.6,2-7.6,2c-4.2,0-7.5-1.5-10.1-4.1c-3.8-3.8-3.7-8.4-3.7-14.9c0-6.5-0.1-11.1,3.7-14.9
		c2.6-2.6,5.9-4.1,10.1-4.1c4.2,0,7.4,1.5,10.1,4.1c3.8,3.8,3.7,8.4,3.7,14.9c0,5.6,0.1,9.8-2.3,13.2l3.2,3.2L153.4,162.4z
		 M187.9,160.8h-24.2v-37.4h7.3v30.8h16.9V160.8z"/>
</g>
</svg>
