<svg id="Layer_1" data-name="Layer 1" xmlns="http://www.w3.org/2000/svg" viewBox="0 0 99 99"><defs><style>.cls-1{fill:#ff5733;opacity:0.1;isolation:isolate;}.cls-2{fill:#fff;}</style></defs><title>stellarBlockchain</title><circle class="cls-1" cx="49.5" cy="49.5" r="49.5"/><g id="Layer_2" data-name="Layer 2"><g id="Layer_1-2" data-name="Layer 1-2"><path class="cls-2" d="M71.56,30.3l-6.92,3.87L31.24,52.85A24.14,24.14,0,0,1,31.07,50C31.08,37.93,40,28.16,51,28.18A18.53,18.53,0,0,1,60.67,31l4-2.21.59-.33c-10.86-8.66-26.06-6-33.95,5.92A28.49,28.49,0,0,0,26.63,50q0,1,.07,2a5,5,0,0,1-2.4,4.69L22.22,57.9v5.45l6.15-3.44h0l2-1.12,2-1.1h0L67.53,38l4-2.21,8.18-4.58V25.76Z" transform="translate(-1.44 -0.5)"/><path class="cls-2" d="M79.66,36.66,34.32,62l-4,2.22-8.14,4.56v5.45l8.09-4.52,6.92-3.87L70.66,47.13A24.42,24.42,0,0,1,70.83,50c0,12.07-8.92,21.84-19.91,21.83A18.53,18.53,0,0,1,41.2,69l-.24.14-4.29,2.4c10.86,8.66,26.06,6,33.95-5.92A28.48,28.48,0,0,0,75.25,50c0-.69,0-1.37-.07-2a5,5,0,0,1,2.4-4.69l2.09-1.17Z" transform="translate(-1.44 -0.5)"/></g></g></svg>