<?xml version="1.0" encoding="utf-8"?>
<!-- Generator: Adobe Illustrator 22.0.1, SVG Export Plug-In . SVG Version: 6.00 Build 0)  -->
<svg version="1.1" id="Layer_1" xmlns="http://www.w3.org/2000/svg" xmlns:xlink="http://www.w3.org/1999/xlink" x="0px" y="0px"
	 viewBox="0 0 283.5 283.5" style="enable-background:new 0 0 283.5 283.5;" xml:space="preserve">
<style type="text/css">
	.st0{opacity:0.15;fill:#E62524;}
	.st1{fill:#FFFFFF;}
</style>
<circle class="st0" cx="141.8" cy="141.7" r="140"/>
<g>
	<path class="st1" d="M141.8,82H82.6v59.2v59.2h59.2H201v-59.2V82H141.8z M150.5,146.4h-7.7h-7.7v21.9v21.9h-5.4h-5.4v-21.9v-21.9
		h-7.7h-7.7l0-4.8l0.1-4.8l20.7-0.1c11.4,0,20.7,0,20.8,0.1c0.1,0.1,0.1,2.3,0.1,4.9V146.4z M190.7,181.2c-1.9,4.9-6.5,8.3-13.1,9.4
		c-2,0.4-6.8,0.3-9-0.1c-4.8-0.8-9.3-3.2-12-6.3c-1.1-1.2-3.2-4.3-3.1-4.6c0.1-0.1,0.5-0.4,1.1-0.7c0.5-0.3,2.5-1.4,4.4-2.5l3.4-2
		l0.7,1.1c1,1.5,3.2,3.6,4.5,4.3c3.8,2,9,1.7,11.5-0.6c1.1-1,1.5-2,1.5-3.5c0-1.4-0.2-2-0.9-3c-0.9-1.3-2.8-2.4-8.1-4.7
		c-6.1-2.6-8.7-4.3-11.1-6.9c-1.4-1.5-2.7-3.9-3.2-5.9c-0.5-1.7-0.6-5.9-0.2-7.6c1.3-5.9,5.7-10,12.1-11.2c2.1-0.4,6.9-0.2,9,0.3
		c3,0.8,5.3,2.1,7.4,4.3c1.1,1.2,2.7,3.3,2.8,3.8c0,0.2-5.1,3.6-8.2,5.5c-0.1,0.1-0.6-0.4-1.1-1.2c-1.5-2.2-3.1-3.2-5.6-3.3
		c-3.6-0.2-5.9,1.6-5.9,4.8c0,0.9,0.1,1.5,0.5,2.2c0.8,1.6,2.3,2.6,6.9,4.6c8.5,3.6,12.1,6,14.4,9.5
		C191.9,170.6,192.4,176.6,190.7,181.2z"/>
</g>
</svg>
