<?xml version="1.0" encoding="utf-8"?>
<!-- Generator: Adobe Illustrator 21.0.0, SVG Export Plug-In . SVG Version: 6.00 Build 0)  -->
<svg version="1.1" id="Layer_1" xmlns="http://www.w3.org/2000/svg" xmlns:xlink="http://www.w3.org/1999/xlink" x="0px" y="0px"
	 viewBox="0 0 283.5 283.5" style="enable-background:new 0 0 283.5 283.5;" xml:space="preserve">
<style type="text/css">
	.st0{opacity:0.15;fill:#E62524;enable-background:new    ;}
	.st1{fill:#FFFFFF;filter:url(#Adobe_OpacityMaskFilter);}
	.st2{mask:url(#mask0_2_);}
	.st3{fill:#FFFFFF;}
	.st4{opacity:0.25;}
</style>
<circle class="st0" cx="141.8" cy="141.7" r="140"/>
<g>
	<defs>
		<filter id="Adobe_OpacityMaskFilter" filterUnits="userSpaceOnUse" x="81" y="91" width="100.1" height="99.5">
			<feColorMatrix  type="matrix" values="1 0 0 0 0  0 1 0 0 0  0 0 1 0 0  0 0 0 1 0"/>
		</filter>
	</defs>
	<mask maskUnits="userSpaceOnUse" x="81" y="91" width="100.1" height="99.5" id="mask0_2_">
		<path class="st1" d="M152,190.1c1.6,0.6,3.4,0.6,5-0.2l20.6-9.9c2.2-1,3.5-3.2,3.5-5.6v-67.2c0-2.4-1.4-4.6-3.5-5.6l-20.6-9.9
			c-2.1-1-4.5-0.8-6.4,0.6c-0.3,0.2-0.5,0.4-0.7,0.6l-39.4,36l-17.2-13c-1.6-1.2-3.8-1.1-5.3,0.2l-5.5,5c-1.8,1.7-1.8,4.5,0,6.2
			l14.9,13.6l-14.9,13.6c-1.8,1.7-1.8,4.5,0,6.2l5.5,5c1.5,1.4,3.7,1.4,5.3,0.2l17.2-13l39.4,36C150.5,189.3,151.2,189.8,152,190.1z
			 M156.1,118l-29.9,22.7l29.9,22.7V118z"/>
	</mask>
	<g class="st2">
		<path class="st3" d="M177.5,101.5l-20.6-9.9c-2.4-1.1-5.2-0.7-7.1,1.2l-67.5,61.5c-1.8,1.7-1.8,4.5,0,6.2l5.5,5
			c1.5,1.4,3.7,1.4,5.3,0.2l81.2-61.6c2.7-2.1,6.6-0.1,6.6,3.3v-0.2C181.1,104.8,179.7,102.6,177.5,101.5z"/>
		<g>
			<path class="st3" d="M177.5,179.9l-20.6,9.9c-2.4,1.1-5.2,0.7-7.1-1.2l-67.5-61.5c-1.8-1.7-1.8-4.5,0-6.2l5.5-5
				c1.5-1.4,3.7-1.4,5.3-0.2l81.2,61.6c2.7,2.1,6.6,0.1,6.6-3.3v0.2C181.1,176.7,179.7,178.9,177.5,179.9z"/>
		</g>
		<g>
			<path class="st3" d="M156.9,189.9c-2.4,1.1-5.2,0.7-7.1-1.2c2.3,2.3,6.3,0.7,6.3-2.6V95.4c0-3.3-3.9-4.9-6.3-2.6
				c1.9-1.9,4.7-2.4,7.1-1.2l20.6,9.9c2.2,1,3.5,3.2,3.5,5.6v67.2c0,2.4-1.4,4.6-3.5,5.6L156.9,189.9z"/>
		</g>
		<g class="st4">
			<path class="st3" d="M151.9,190.1c1.6,0.6,3.4,0.6,5-0.2l20.6-9.9c2.2-1,3.5-3.2,3.5-5.6v-67.2c0-2.4-1.4-4.6-3.5-5.6l-20.6-9.9
				c-2.1-1-4.5-0.8-6.4,0.6c-0.3,0.2-0.5,0.4-0.7,0.6l-39.4,36l-17.2-13c-1.6-1.2-3.8-1.1-5.3,0.2l-5.5,5c-1.8,1.7-1.8,4.5,0,6.2
				l14.9,13.6l-14.9,13.6c-1.8,1.7-1.8,4.5,0,6.2l5.5,5c1.5,1.4,3.7,1.4,5.3,0.2l17.2-13l39.4,36
				C150.4,189.3,151.1,189.8,151.9,190.1z M156,118l-29.9,22.7l29.9,22.7V118z"/>
		</g>
	</g>
</g>
</svg>
