<svg id="Layer_1" data-name="Layer 1" xmlns="http://www.w3.org/2000/svg" viewBox="0 0 99 99"><defs><style>.cls-1{fill:#EC5646;opacity:0.1;isolation:isolate;}.cls-2{fill:#fff;}</style></defs><title>waxProtocal</title><circle class="cls-1" cx="49.5" cy="49.5" r="49.5"/><path class="cls-2" d="M616.54,466.11h-7.47l-5.3-4.63-5.28,4.61h-6.31l-3-3.74h-10.4l2.63-3.31h5.12l-3.9-4.86L569,471.07h-6.31l3.94-4.9H560L556.49,456,553,466.09h-6.67l-5.6-15.83h5.12L549.58,461l3.75-10.73h6.32L563.4,461l3.74-10.71h5.14l-5.65,15.86,1.26-1.57,11.54-14.32h6.35l9.6,11.94,4.62-4-14.62-12.88h7.51Zm-7.41-9.57-3.52-3.08,3.52-3.05h7.11Z" transform="translate(-529.54 -407.99)"/></svg>