<?xml version="1.0" encoding="utf-8"?>
<!-- Generator: Adobe Illustrator 22.0.1, SVG Export Plug-In . SVG Version: 6.00 Build 0)  -->
<svg version="1.1" id="Layer_1" xmlns="http://www.w3.org/2000/svg" xmlns:xlink="http://www.w3.org/1999/xlink" x="0px" y="0px"
	 viewBox="0 0 283.5 283.5" style="enable-background:new 0 0 283.5 283.5;" xml:space="preserve">
<style type="text/css">
	.st0{opacity:0.15;fill:#E62524;}
	.st1{fill:#FFFFFF;}
</style>
<circle class="st0" cx="141.8" cy="141.7" r="140"/>
<path class="st1" d="M212.1,139.8l-68.7-68.7c-1.2-1.2-3.3-1.2-4.4,0l-27.3,27.3c-1,0.2-1.8,0.9-2.2,1.9c-0.1,0.2-0.1,0.3-0.1,0.5
	l-39,39c-1.2,1.2-1.2,3.2,0,4.4l24.9,24.9c0.1,0.9,0.6,1.8,1.4,2.3c0.4,0.3,0.9,0.4,1.4,0.5l41,41c0.6,0.6,1.4,0.9,2.2,0.9
	c0.8,0,1.6-0.3,2.2-0.9l68.7-68.7c0.6-0.6,0.9-1.4,0.9-2.2C213,141.2,212.7,140.4,212.1,139.8z M184.5,163c-0.3-0.2-0.6-0.3-0.9-0.4
	l-18.7-4.1l4.8-30.4l34,13.8c0.4,0.2,0.8,0.2,1.2,0.2c0.2,0,0.4,0,0.6-0.1L184.5,163z M147.6,199.9l-28.7-45l38.8,8.5l-5,31.3
	L147.6,199.9z M95.6,160.6l6.3-3l-3.7,5.6L95.6,160.6z M81.7,146.8l19.4,4.2l-10.3,4.9L81.7,146.8z M93,125.9l12.5,19.6l-26.4-5.8
	L93,125.9z M113.6,105.3l17.9,7.3l-20.1,30.5l-13.9-21.8L113.6,105.3z M167.1,103.7l-2.5,15.6l-23.7-9.6l12.8-19.4L167.1,103.7z
	 M177.7,114.3l-6.4,3.1l1.3-8.2L177.7,114.3z M195.1,131.7l-21.3-8.6l8.5-4.1L195.1,131.7z M158.4,123.5l-38.9,18.6l17.9-27.2
	L158.4,123.5z M163.3,128.2l-4.6,29l-38.4-8.4L163.3,128.2z M163.8,164.7l15.5,3.4l-19.1,19.1L163.8,164.7z M141.2,77.8l8,8
	L135,107.3l-16.6-6.8L141.2,77.8z M102.7,167.8l8.6-13.1l31.7,49.8l-1.8,1.8L102.7,167.8z"/>
</svg>
