<?xml version="1.0" standalone="no"?>
<!DOCTYPE svg PUBLIC "-//W3C//DTD SVG 20010904//EN"
 "http://www.w3.org/TR/2001/REC-SVG-20010904/DTD/svg10.dtd">
<svg version="1.0" xmlns="http://www.w3.org/2000/svg"
 width="1552.000000pt" height="1552.000000pt" viewBox="0 0 1552.000000 1552.000000"
 preserveAspectRatio="xMidYMid meet">
<metadata>
Created by potrace 1.14, written by Peter Selinger 2001-2017
</metadata>
<g transform="translate(0.000000,1552.000000) scale(0.100000,-0.100000)"
fill="#000000" stroke="none">
<path d="M7530 15505 c-47 -7 -96 -15 -110 -18 -14 -4 -38 -9 -55 -12 -16 -3
-48 -11 -70 -17 -22 -7 -42 -12 -45 -13 -9 -2 -85 -26 -100 -32 -8 -4 -18 -5
-22 -5 -5 1 -8 -2 -8 -8 0 -5 -7 -7 -15 -4 -8 4 -15 1 -15 -5 0 -6 -5 -11 -11
-11 -35 0 -304 -145 -355 -191 -11 -11 -25 -19 -31 -19 -6 0 -13 -3 -15 -7 -1
-5 -23 -24 -48 -43 -79 -60 -212 -187 -290 -277 -19 -22 -69 -77 -110 -123
-41 -46 -84 -93 -95 -105 -11 -13 -47 -53 -80 -90 -78 -88 -87 -98 -170 -190
-38 -43 -79 -88 -90 -101 -36 -41 -140 -156 -165 -184 -14 -16 -51 -57 -82
-92 -32 -34 -65 -73 -75 -84 -26 -30 -141 -158 -190 -211 -24 -25 -43 -47 -43
-49 0 -2 -15 -18 -32 -37 -18 -18 -52 -55 -76 -83 -24 -27 -69 -78 -100 -113
-31 -34 -68 -75 -81 -90 -66 -74 -149 -167 -171 -191 -14 -15 -54 -60 -90
-100 -36 -41 -80 -89 -97 -108 -18 -18 -33 -35 -33 -37 0 -3 -19 -24 -42 -48
-24 -25 -62 -66 -85 -93 -49 -58 -92 -106 -173 -194 -89 -97 -120 -134 -120
-143 0 -5 -4 -5 -10 -2 -5 3 -10 2 -10 -4 0 -10 -39 -56 -126 -147 -28 -30
-49 -54 -46 -54 3 0 -6 -10 -19 -23 -13 -13 -49 -51 -79 -86 -30 -34 -73 -82
-95 -105 -22 -24 -63 -70 -92 -103 -29 -33 -65 -73 -80 -90 -33 -35 -155 -174
-196 -222 -7 -8 -35 -47 -64 -85 -29 -39 -56 -75 -60 -81 -12 -15 -46 -68 -59
-90 -6 -11 -21 -38 -34 -60 -41 -70 -114 -218 -139 -280 -13 -33 -29 -74 -37
-92 -8 -17 -14 -37 -14 -45 0 -8 -3 -18 -7 -22 -4 -3 -8 -13 -10 -21 -5 -27
-11 -50 -13 -52 -2 -2 -3 -6 -4 -10 -2 -5 -8 -27 -14 -50 -19 -64 -51 -222
-57 -283 -4 -30 -9 -62 -12 -70 -9 -26 -12 -412 -3 -480 4 -36 11 -87 14 -115
6 -52 14 -99 19 -125 2 -8 7 -33 11 -55 4 -22 12 -53 18 -68 6 -15 12 -36 12
-45 1 -9 7 -35 14 -57 6 -22 12 -44 13 -50 0 -5 6 -19 12 -30 6 -11 12 -22 12
-25 3 -22 31 -100 36 -100 3 0 6 -6 6 -13 0 -14 121 -269 132 -277 3 -3 12
-16 19 -30 25 -49 97 -164 124 -195 9 -11 39 -49 68 -85 59 -75 157 -186 441
-501 38 -41 76 -84 86 -96 97 -111 131 -149 152 -169 l24 -22 -39 -43 c-21
-23 -51 -55 -66 -71 -16 -16 -28 -31 -28 -33 0 -3 -15 -20 -32 -38 -18 -19
-60 -65 -93 -102 -33 -38 -76 -86 -95 -106 -19 -21 -53 -59 -75 -84 -22 -26
-53 -62 -70 -79 -16 -18 -59 -66 -95 -106 -36 -41 -73 -82 -82 -92 -10 -10
-18 -22 -18 -27 0 -5 -4 -11 -8 -13 -20 -8 -209 -282 -200 -290 1 -2 -7 -17
-20 -35 -12 -17 -29 -47 -37 -65 -9 -18 -19 -40 -24 -48 -13 -20 -61 -129 -61
-136 0 -3 -7 -20 -14 -37 -14 -29 -61 -161 -65 -179 0 -5 -1 -9 -2 -10 0 -2
-2 -10 -4 -18 -2 -8 -9 -33 -15 -55 -11 -41 -16 -61 -25 -105 -3 -14 -8 -35
-10 -47 -3 -13 -7 -31 -9 -40 -3 -18 -9 -57 -23 -168 -9 -70 -9 -427 0 -500
11 -85 16 -118 27 -175 6 -30 13 -71 16 -90 3 -19 10 -43 15 -52 5 -9 9 -21 8
-25 -1 -4 0 -10 1 -13 1 -3 3 -12 5 -20 2 -8 7 -26 10 -40 3 -14 7 -29 8 -35
2 -5 6 -16 10 -23 5 -7 11 -24 13 -39 3 -15 8 -31 12 -37 3 -6 8 -20 9 -31 2
-10 7 -22 11 -25 4 -3 8 -12 10 -20 10 -44 169 -361 185 -368 4 -2 7 -10 7
-18 0 -8 4 -14 9 -14 5 0 12 -8 16 -18 4 -15 55 -90 92 -137 78 -98 112 -138
158 -189 56 -62 167 -186 196 -220 19 -21 48 -53 64 -70 28 -30 137 -153 177
-198 24 -28 147 -165 178 -198 14 -15 54 -60 90 -101 36 -40 108 -121 160
-179 52 -58 99 -111 105 -117 5 -7 29 -33 52 -57 23 -24 39 -47 36 -50 -4 -3
1 -6 10 -6 10 0 17 -3 17 -7 0 -9 25 -39 115 -138 36 -38 72 -79 82 -91 17
-20 129 -145 183 -204 14 -15 50 -56 80 -90 30 -34 66 -74 80 -89 14 -14 52
-57 85 -95 33 -38 78 -88 100 -112 22 -23 61 -67 87 -96 25 -29 65 -73 87 -97
23 -24 41 -46 41 -47 0 -2 15 -19 33 -38 17 -18 61 -67 97 -107 55 -62 121
-137 165 -185 6 -6 37 -41 70 -78 33 -37 74 -82 90 -101 17 -18 59 -65 95
-106 36 -40 81 -90 101 -111 20 -21 35 -38 33 -38 -2 0 11 -15 29 -33 17 -19
55 -61 84 -93 109 -126 232 -245 333 -322 30 -23 60 -46 66 -51 65 -53 346
-205 358 -194 3 4 6 2 6 -4 0 -8 46 -27 85 -34 6 -1 26 -9 45 -17 39 -16 90
-31 133 -37 16 -3 33 -7 38 -11 11 -6 24 -9 149 -28 94 -14 409 -15 475 -2 35
7 88 16 130 23 17 2 54 11 84 20 29 8 59 16 65 18 6 1 25 7 41 14 17 7 38 13
48 14 9 1 17 6 17 11 0 5 3 7 6 3 4 -3 24 3 45 14 22 11 39 16 39 13 0 -4 9 1
20 11 11 10 20 15 20 12 0 -13 251 131 295 169 15 13 36 26 46 29 11 4 19 10
19 14 0 4 20 22 46 40 59 43 344 329 344 346 0 2 21 26 48 54 50 54 69 74 177
197 38 43 86 97 107 119 20 22 46 51 57 64 28 32 153 172 171 191 8 9 47 52
85 95 39 44 81 91 95 106 14 14 45 49 70 78 25 29 63 72 85 95 22 24 65 72 95
107 30 34 69 77 85 95 27 29 74 81 190 212 22 25 54 60 70 77 17 18 55 61 85
95 30 35 69 78 85 95 17 18 55 61 85 96 30 35 69 78 85 95 17 18 55 60 85 94
30 34 64 72 75 84 11 12 49 55 85 96 36 40 76 85 88 99 13 14 49 55 80 90 32
35 73 80 92 101 34 36 137 152 173 194 10 12 32 37 50 56 18 19 68 75 112 124
44 50 87 97 95 106 8 9 40 44 70 79 30 34 69 77 85 95 17 18 48 54 70 81 22
26 50 59 63 72 12 13 22 28 22 33 0 6 5 10 10 10 6 0 10 6 10 14 0 8 7 17 16
20 8 3 13 10 10 15 -4 5 -3 11 2 13 9 4 82 105 82 114 0 3 13 25 28 48 54 79
202 396 185 396 -3 0 -1 6 4 12 13 17 74 218 89 291 12 63 25 136 29 172 3 22
9 69 14 105 13 99 10 382 -4 500 -21 165 -42 274 -57 304 -7 14 -7 17 2 11 9
-6 9 -1 -1 16 -10 20 -18 45 -32 104 -1 6 -6 16 -10 23 -5 6 -6 12 -2 12 3 0
-1 13 -9 29 -9 16 -12 31 -9 35 4 3 1 6 -6 6 -7 0 -10 4 -6 10 3 5 1 17 -4 27
-5 10 -18 38 -29 63 -39 92 -87 195 -92 200 -3 3 -12 19 -20 35 -8 17 -19 33
-25 37 -5 4 -6 8 -2 8 4 0 -4 16 -19 35 -14 19 -23 35 -20 35 4 0 2 6 -4 13
-5 6 -37 50 -69 97 -32 47 -71 98 -85 113 -14 15 -26 30 -26 33 0 2 -15 21
-32 41 -18 20 -37 41 -43 47 -5 6 -44 49 -85 96 -41 46 -82 91 -90 100 -8 9
-35 39 -60 67 -25 28 -75 84 -111 124 -37 41 -77 87 -90 102 -13 15 -44 50
-69 77 -25 26 -57 62 -73 79 l-27 31 32 36 c71 78 208 231 231 258 10 12 47
53 82 91 35 39 73 81 85 95 23 27 137 155 183 204 15 16 44 51 64 78 21 26 41
48 45 48 4 0 8 4 8 10 0 7 74 114 108 155 5 6 11 15 13 20 12 30 84 151 91
153 4 2 8 11 8 21 0 9 6 23 13 29 6 7 12 16 13 20 0 4 13 34 29 67 15 33 28
66 28 73 0 6 3 12 7 12 5 0 29 62 35 90 0 3 6 15 13 28 7 12 10 22 6 22 -3 0
-1 7 6 15 7 8 9 15 5 15 -4 0 -2 7 5 15 7 8 10 15 6 15 -3 0 0 16 8 35 8 19
13 35 11 35 -2 0 1 15 6 33 12 39 13 43 32 137 34 166 41 246 42 455 0 187 -8
307 -28 400 -6 28 -18 114 -17 117 1 2 -4 17 -11 33 -6 17 -13 39 -15 50 -2
11 -8 38 -14 60 -6 22 -12 45 -13 50 -2 6 -9 21 -17 35 -7 14 -12 25 -11 25
15 0 -72 212 -141 345 -37 70 -130 225 -160 265 -82 109 -157 201 -221 268
-20 23 -51 57 -67 77 -16 20 -47 54 -67 76 -21 22 -67 73 -103 113 -36 41 -76
86 -90 101 -14 15 -50 55 -80 89 -30 35 -66 75 -80 90 -33 36 -165 182 -187
208 -87 99 -134 152 -170 190 -24 24 -43 46 -43 48 0 3 -15 20 -32 39 -28 28
-124 135 -178 196 -46 52 -142 160 -171 191 -28 30 -93 103 -169 190 -51 58
-170 188 -197 216 -18 19 -33 36 -33 40 0 3 -10 15 -22 27 -13 12 -52 55 -88
95 -36 41 -81 92 -100 113 -19 21 -60 66 -90 99 -30 34 -70 77 -87 96 -18 19
-33 36 -33 38 0 2 -15 19 -32 37 -18 19 -58 63 -88 97 -30 35 -70 80 -88 100
-68 73 -224 248 -278 310 -16 18 -42 48 -59 65 -16 18 -48 52 -69 77 -196 223
-333 361 -425 429 -19 14 -40 31 -47 38 -7 6 -17 12 -22 12 -6 0 -12 4 -14 9
-10 25 -339 207 -352 194 -3 -4 -6 -2 -6 4 0 8 -61 33 -90 37 -3 1 -25 9 -50
18 -25 9 -58 19 -75 24 -16 4 -37 9 -45 11 -8 2 -25 6 -37 8 -11 1 -29 5 -40
9 -10 3 -36 8 -58 11 -23 3 -52 8 -65 11 -52 12 -377 11 -460 -1z m365 -1230
c63 -10 164 -45 234 -80 75 -39 195 -131 212 -162 7 -12 16 -20 21 -17 4 3 8
1 8 -3 0 -5 12 -22 28 -39 15 -17 45 -51 66 -75 70 -80 170 -191 201 -224 17
-18 55 -61 85 -95 30 -35 69 -78 85 -95 26 -28 113 -126 168 -188 10 -12 48
-55 86 -96 69 -77 148 -166 186 -210 11 -13 36 -40 55 -60 19 -20 64 -70 100
-111 36 -41 72 -82 80 -90 8 -9 47 -51 85 -95 39 -43 80 -89 92 -103 12 -13
46 -51 75 -84 29 -33 70 -78 92 -101 21 -23 59 -66 85 -96 25 -30 64 -73 86
-97 22 -23 65 -71 95 -105 30 -35 69 -78 87 -96 18 -18 31 -33 29 -33 -3 0 10
-15 27 -33 18 -18 61 -66 97 -107 36 -40 76 -85 90 -101 14 -15 40 -45 59 -66
18 -21 52 -58 75 -83 22 -25 75 -83 116 -130 41 -46 82 -91 90 -100 8 -9 47
-52 85 -95 39 -44 79 -89 90 -100 11 -12 49 -55 85 -96 36 -41 76 -86 90 -101
14 -15 38 -42 54 -60 16 -18 47 -53 70 -78 23 -25 58 -65 78 -90 40 -50 131
-200 121 -200 -3 0 1 -8 9 -17 20 -24 65 -172 81 -264 7 -42 12 -120 11 -175
-1 -93 -4 -117 -19 -204 -6 -37 -34 -128 -44 -145 -3 -5 -6 -16 -7 -22 -3 -20
-67 -147 -81 -161 -7 -7 -13 -18 -13 -23 0 -5 -11 -22 -25 -37 -14 -15 -25
-30 -25 -34 0 -4 -15 -23 -32 -42 -18 -19 -55 -59 -81 -89 -26 -31 -58 -66
-70 -79 -12 -14 -51 -57 -87 -97 -36 -40 -76 -86 -90 -101 -14 -15 -52 -58
-85 -95 -103 -116 -115 -129 -139 -155 -13 -14 -40 -44 -59 -67 l-35 -42 -63
71 c-35 39 -80 88 -99 108 -19 21 -46 50 -59 66 -13 16 -61 69 -105 119 -45
49 -85 95 -91 102 -5 7 -32 36 -60 66 -27 29 -77 84 -110 122 -33 37 -71 80
-85 95 -23 26 -146 162 -180 200 -8 9 -40 45 -70 80 -30 34 -73 82 -95 105
-22 24 -62 69 -90 100 -27 32 -66 75 -85 96 -37 39 -142 157 -173 193 -126
146 -296 320 -372 383 -84 69 -203 153 -215 153 -5 0 -10 5 -10 10 0 6 -5 10
-10 10 -6 0 -29 12 -53 27 -23 15 -44 28 -47 28 -3 0 -39 17 -82 37 -68 33
-203 86 -235 92 -7 1 -16 5 -19 9 -4 4 -21 7 -39 7 -17 0 -36 5 -42 11 -5 5
-24 11 -42 11 -17 1 -31 4 -31 7 0 3 -10 7 -22 7 -13 1 -45 5 -73 8 -159 21
-397 22 -505 1 -14 -2 -38 -7 -55 -10 -16 -3 -41 -7 -55 -10 -14 -3 -41 -8
-60 -11 -19 -3 -39 -9 -45 -12 -5 -4 -21 -8 -35 -10 -13 -2 -28 -9 -32 -15 -4
-7 -8 -9 -8 -5 0 25 -399 -158 -420 -193 -4 -6 -11 -10 -16 -10 -11 1 -118
-75 -199 -143 -69 -56 -198 -186 -300 -301 -38 -43 -79 -88 -90 -101 -11 -12
-49 -54 -85 -94 -36 -40 -70 -78 -75 -84 -6 -6 -47 -51 -90 -101 -44 -49 -84
-95 -90 -101 -5 -6 -41 -46 -80 -89 -38 -43 -83 -93 -100 -111 -16 -18 -55
-60 -85 -95 -30 -34 -66 -74 -80 -89 -14 -15 -52 -58 -85 -95 -33 -37 -71 -80
-85 -95 -27 -30 -118 -132 -190 -212 -25 -28 -56 -63 -70 -78 -14 -15 -54 -60
-90 -100 -147 -165 -134 -154 -158 -139 -12 8 -22 17 -22 22 0 4 -15 23 -32
41 -18 19 -62 67 -98 107 -36 39 -69 77 -75 83 -5 6 -44 49 -85 96 -41 47 -79
90 -85 96 -5 6 -38 42 -72 80 -34 38 -80 89 -102 114 -106 115 -223 301 -246
390 0 3 -6 21 -13 41 -24 69 -42 162 -37 188 2 12 0 21 -4 21 -10 0 -6 200 5
265 4 28 7 53 6 58 -1 4 3 7 9 7 5 0 7 4 4 10 -9 14 40 154 82 235 42 81 105
174 148 220 17 18 57 63 90 100 33 37 67 76 75 85 8 9 46 51 83 92 37 42 77
87 88 99 19 22 95 107 179 199 19 21 55 62 80 90 25 29 59 67 75 85 17 17 58
64 93 103 35 39 73 82 85 95 12 13 54 59 92 102 39 43 84 93 100 111 17 18 49
54 71 81 23 26 60 67 82 91 22 24 62 68 88 99 27 30 60 68 74 83 14 15 57 62
95 105 39 43 81 91 95 106 14 15 50 55 80 90 30 34 69 77 85 95 17 18 53 58
80 89 28 31 64 71 80 89 17 18 57 63 90 100 33 38 69 78 80 90 25 28 98 110
173 195 32 35 68 76 82 91 21 22 61 67 175 194 79 88 167 187 186 209 13 16
38 43 54 61 17 17 57 63 90 101 68 78 236 249 278 283 15 12 34 22 42 22 8 0
15 4 15 9 0 12 148 78 185 82 6 0 17 5 26 10 9 4 45 11 80 15 35 3 65 7 67 8
4 4 146 -3 187 -9z m15 -4549 c8 -3 26 -7 40 -10 38 -6 139 -46 190 -74 103
-57 171 -116 290 -252 30 -35 74 -83 96 -106 23 -24 40 -44 37 -44 -2 0 9 -13
24 -28 15 -15 54 -57 85 -93 31 -35 71 -81 90 -101 18 -19 62 -69 98 -109 36
-40 80 -88 98 -107 17 -18 32 -36 32 -38 0 -2 26 -32 58 -66 63 -69 98 -107
169 -187 26 -30 60 -67 75 -83 15 -15 25 -28 23 -28 -3 0 8 -12 23 -27 30 -31
92 -99 202 -222 41 -47 84 -95 95 -107 11 -12 47 -53 80 -89 33 -37 71 -80 85
-95 14 -15 40 -44 58 -63 l32 -37 -27 -31 c-16 -17 -41 -46 -58 -64 -16 -18
-61 -68 -100 -111 -38 -43 -78 -86 -87 -96 -10 -10 -18 -23 -18 -29 0 -5 -4
-7 -10 -4 -5 3 -10 3 -10 -2 0 -4 -17 -27 -38 -50 -76 -85 -158 -177 -175
-197 -58 -67 -146 -163 -174 -192 -18 -18 -33 -34 -33 -37 0 -3 -17 -22 -37
-44 -21 -22 -54 -58 -73 -80 -55 -61 -182 -203 -211 -235 -15 -16 -51 -57 -82
-91 -30 -34 -65 -74 -78 -88 -13 -14 -51 -57 -84 -94 -33 -37 -73 -83 -90
-101 -70 -76 -170 -187 -175 -193 -24 -32 -250 -181 -250 -165 0 4 -6 2 -12
-3 -11 -9 -28 -15 -78 -28 -3 0 -14 -4 -25 -8 -11 -3 -33 -9 -50 -13 -44 -10
-267 -13 -291 -4 -11 5 -34 10 -50 13 -45 8 -157 48 -175 63 -8 8 -19 14 -24
14 -14 0 -108 63 -149 100 -59 53 -31 23 -301 325 -54 61 -104 115 -109 121
-12 12 -130 145 -158 177 -19 21 -128 143 -168 187 -14 15 -54 60 -90 100 -36
40 -76 85 -90 100 -14 15 -50 55 -80 90 -30 34 -64 72 -75 84 -71 79 -157 175
-175 196 -12 14 -49 56 -83 93 -75 83 -94 104 -177 197 -36 40 -71 80 -79 87
-11 12 -11 17 5 32 11 9 42 43 69 75 28 32 64 73 80 91 17 18 62 67 100 110
39 43 79 88 90 101 11 12 45 50 75 84 30 35 73 82 95 106 22 23 53 58 69 76
15 18 60 68 99 111 39 43 79 87 88 98 42 48 146 164 164 183 11 12 46 51 77
88 31 36 59 64 62 60 3 -3 6 0 6 6 0 6 10 22 23 34 12 13 54 59 92 103 39 44
77 87 85 95 14 15 102 113 205 229 63 71 158 161 170 161 2 0 21 12 42 26 44
29 137 74 156 74 7 0 18 5 25 12 7 7 12 8 12 4 0 -5 7 -3 15 4 8 7 15 10 15 8
0 -2 26 1 58 8 56 11 262 12 292 0z m2851 -2938 c35 -39 73 -81 84 -94 12 -12
48 -53 80 -90 33 -36 75 -82 93 -100 17 -19 32 -36 32 -39 0 -3 12 -17 28 -32
15 -16 63 -68 107 -118 43 -49 86 -97 95 -106 62 -65 143 -178 172 -239 27
-58 55 -123 67 -155 16 -42 41 -167 35 -176 -2 -4 0 -10 5 -13 5 -3 8 -60 8
-126 0 -156 -33 -325 -82 -421 -9 -16 -16 -32 -17 -36 -2 -19 -22 -53 -30 -53
-4 0 -7 -3 -6 -7 3 -8 -40 -84 -52 -93 -4 -3 -11 -12 -16 -21 -8 -14 -73 -91
-149 -175 -11 -12 -47 -53 -80 -90 -33 -37 -76 -84 -95 -105 -19 -21 -55 -61
-80 -90 -25 -28 -56 -63 -70 -78 -14 -15 -54 -60 -90 -101 -36 -40 -76 -85
-90 -100 -23 -25 -131 -145 -169 -189 -35 -40 -157 -176 -186 -207 -16 -18
-50 -56 -75 -84 -25 -29 -58 -67 -75 -85 -38 -42 -82 -91 -170 -190 -38 -43
-85 -94 -102 -112 -18 -19 -33 -37 -33 -39 0 -3 -15 -20 -32 -38 -18 -18 -61
-64 -95 -102 -34 -39 -74 -84 -90 -100 -15 -17 -53 -59 -83 -94 -58 -67 -66
-75 -172 -192 -36 -40 -75 -82 -85 -94 -44 -51 -140 -159 -163 -184 -25 -28
-137 -152 -175 -194 -11 -13 -45 -51 -75 -86 -30 -34 -68 -77 -85 -95 -16 -17
-61 -67 -100 -110 -38 -43 -82 -91 -97 -107 -15 -15 -25 -28 -23 -28 2 0 -15
-19 -38 -43 -23 -24 -60 -65 -82 -91 -22 -27 -57 -65 -77 -86 -21 -20 -38 -42
-38 -48 0 -7 -7 -12 -15 -12 -8 0 -15 -7 -15 -15 0 -8 -3 -15 -7 -15 -5 0 -30
-21 -56 -45 -26 -25 -50 -45 -54 -45 -4 0 -14 -6 -22 -14 -23 -20 -151 -88
-151 -80 0 3 -6 2 -12 -4 -18 -14 -113 -41 -173 -49 -89 -12 -230 -7 -311 11
-60 13 -218 78 -234 96 -3 3 -25 18 -50 34 -49 32 -147 128 -250 245 -36 40
-75 84 -87 98 -13 13 -23 29 -23 34 0 6 -4 7 -10 4 -5 -3 -10 -2 -10 3 0 6
-15 25 -32 44 -18 19 -60 65 -93 102 -33 38 -74 84 -92 103 -17 19 -44 49 -60
67 -15 18 -50 58 -78 88 -27 30 -79 88 -115 129 -36 40 -78 87 -95 105 -16 17
-41 45 -55 61 -14 17 -59 68 -100 113 -41 46 -88 98 -105 118 -16 19 -47 53
-68 76 -22 22 -65 70 -96 105 -31 35 -75 84 -98 109 -24 24 -43 47 -43 51 0 4
-8 14 -17 22 -10 9 -47 48 -83 89 -36 40 -76 85 -90 100 -14 15 -50 55 -80 89
-30 35 -71 80 -90 101 -19 20 -51 56 -71 78 -19 22 -66 74 -103 115 -37 41
-75 84 -84 95 -29 33 -146 164 -169 189 -27 30 -140 156 -162 181 -27 31 -154
173 -186 208 -16 18 -57 63 -90 101 -33 37 -75 83 -93 102 -17 18 -32 35 -32
37 0 1 -10 14 -22 26 -13 13 -52 57 -88 97 -36 40 -74 83 -85 95 -108 114
-215 310 -250 461 -4 17 -9 39 -12 50 -3 11 -6 41 -8 66 -1 26 -5 51 -7 55 -7
12 -2 156 6 224 10 76 39 184 65 245 29 67 91 185 102 195 3 3 18 23 35 45 30
41 61 78 104 124 14 14 54 60 90 100 36 41 76 86 90 101 14 15 57 62 95 105
39 43 81 90 95 106 14 15 50 55 80 90 115 132 126 141 149 127 12 -7 21 -16
21 -19 0 -4 18 -25 40 -48 22 -22 38 -41 35 -41 -2 0 10 -15 28 -32 18 -18 88
-96 156 -173 68 -77 133 -149 143 -160 10 -11 33 -36 51 -56 17 -20 55 -61 82
-91 28 -31 75 -84 105 -118 30 -35 66 -75 80 -90 14 -16 57 -63 95 -106 39
-42 82 -91 98 -106 15 -16 27 -31 27 -33 0 -2 17 -21 38 -43 20 -21 60 -65 89
-98 28 -32 62 -71 75 -85 12 -14 55 -60 93 -103 39 -44 87 -97 108 -120 22
-22 58 -63 80 -90 63 -74 227 -237 272 -271 22 -17 51 -40 65 -53 14 -12 48
-37 75 -55 28 -17 52 -34 55 -37 3 -4 12 -10 20 -13 8 -4 31 -17 50 -29 121
-74 365 -175 465 -193 11 -2 20 -4 20 -5 0 -2 16 -5 60 -14 17 -3 41 -8 55
-11 106 -22 375 -33 470 -20 19 3 58 7 85 10 49 5 90 12 90 15 0 1 9 3 20 5
39 5 88 16 95 20 4 2 22 7 40 10 18 3 38 9 44 13 6 4 13 7 16 7 25 3 134 47
220 88 211 101 371 217 545 391 106 106 136 138 252 272 28 32 73 82 100 111
26 29 68 75 93 104 25 28 59 66 75 84 17 18 55 61 85 95 30 34 68 76 84 94 72
80 106 117 176 196 41 47 85 95 97 107 13 12 23 24 23 26 0 3 21 27 48 55 26
27 70 76 97 107 56 65 64 73 157 176 37 41 75 83 85 95 23 27 158 178 198 221
26 28 32 30 41 17 7 -8 41 -47 75 -86z"/>
</g>
</svg>
