<svg id="Layer_1" data-name="Layer 1" xmlns="http://www.w3.org/2000/svg" viewBox="0 0 81.52 98.63"><defs><style>.cls-1{fill:#EC5646;stroke:#EC5646;stroke-width:2px;}</style></defs><title>Botsdevelopment</title><path class="cls-1" d="M747.32,483.08a15.4,15.4,0,0,1-7-1.92,18.62,18.62,0,0,1-5.81-5.07,23.52,23.52,0,0,1-3.76-7.45,27.48,27.48,0,0,1,.5-17.29,23.52,23.52,0,0,1,4.19-7.21,18.62,18.62,0,0,1,6.09-4.72,15.41,15.41,0,0,1,7.07-1.52,16.8,16.8,0,0,1,12.78,7,26.46,26.46,0,0,1-.93,32A16.8,16.8,0,0,1,747.32,483.08Zm.57,50.27a16.8,16.8,0,0,1-12.78-7,26.46,26.46,0,0,1,.93-32,16,16,0,0,1,25.94.76,26.46,26.46,0,0,1-.93,32,16.8,16.8,0,0,1-13.15,6.24Zm42.23-49a15.4,15.4,0,0,1-7-1.92,18.62,18.62,0,0,1-5.81-5.07,23.52,23.52,0,0,1-3.76-7.45,27.48,27.48,0,0,1,.5-17.29,23.52,23.52,0,0,1,4.19-7.21,18.62,18.62,0,0,1,6.09-4.72,15.41,15.41,0,0,1,7.07-1.52,16.8,16.8,0,0,1,12.78,7,26.46,26.46,0,0,1-.93,32,16.8,16.8,0,0,1-13.13,6.16Zm-1.46,50.17a16.8,16.8,0,0,1-12.78-7,26.46,26.46,0,0,1,.93-32,16,16,0,0,1,25.94.76,26.46,26.46,0,0,1-.93,32A16.8,16.8,0,0,1,788.66,534.52Zm-41-61.5a9.33,9.33,0,0,0,7.31-3.47,14.7,14.7,0,0,0,.52-17.75,8.9,8.9,0,0,0-14.41-.42,14.7,14.7,0,0,0-.52,17.75,9.33,9.33,0,0,0,7.06,3.91Zm.57,50.27a9.33,9.33,0,0,0,7.31-3.47,14.7,14.7,0,0,0,.52-17.75,8.9,8.9,0,0,0-14.41-.42,14.7,14.7,0,0,0-.59,17.77,9.33,9.33,0,0,0,7.13,3.89Zm42.23-49a9.33,9.33,0,0,0,7.31-3.47,14.7,14.7,0,0,0,.52-17.75,8.9,8.9,0,0,0-14.41-.42,14.7,14.7,0,0,0-.52,17.75,9.33,9.33,0,0,0,7,3.89ZM789,524.52a9.33,9.33,0,0,0,7.31-3.47,14.7,14.7,0,0,0,.52-17.75,8.9,8.9,0,0,0-14.41-.42,14.7,14.7,0,0,0-.52,17.75,9.33,9.33,0,0,0,7.1,3.89Z" transform="translate(-728.6 -436.9)"/></svg>