<svg width="24" height="24" viewBox="0 0 24 24" fill="none" xmlns="http://www.w3.org/2000/svg">
<path d="M15.8492 11.6066V11.6066C16.6303 10.8255 17.8966 10.8255 18.6777 11.6066L22.2132 15.1421C22.9942 15.9232 22.9942 17.1895 22.2132 17.9705L17.9706 22.2132C17.1895 22.9942 15.9232 22.9942 15.1421 22.2132L11.6066 18.6776C10.8255 17.8966 10.8255 16.6303 11.6066 15.8492V15.8492" stroke="#EC5646" stroke-width="2"/>
<path d="M13.0211 8.77814V8.77814C13.8022 7.99709 13.8016 6.73025 13.0206 5.9492C11.6949 4.6235 10.8118 3.7404 9.4861 2.4147C8.70505 1.63365 7.4382 1.63313 6.65715 2.41418L2.41451 6.65682C1.63346 7.43787 1.63346 8.7042 2.41451 9.48525L5.95004 13.0208C6.73109 13.8018 7.99742 13.8018 8.77847 13.0208V13.0208" stroke="#EC5646" stroke-width="2"/>
<path d="M17.2638 17.2634L7.36426 7.36395" stroke="#EC5646" stroke-width="2"/>
</svg>
