<svg id="Layer_1" data-name="Layer 1" xmlns="http://www.w3.org/2000/svg" viewBox="0 0 49.57 49.57"><defs><style>.cls-1{fill:none;stroke:#EC5646;stroke-linecap:round;stroke-linejoin:round;stroke-width:5px;}</style></defs><title>deeplearning</title><path class="cls-1" d="M860.92,480.23a3.43,3.43,0,0,0,3.43,3.43" transform="translate(-858.42 -450.3)"/><path class="cls-1" d="M864.35,452.8a3.43,3.43,0,0,0-3.43,3.43" transform="translate(-858.42 -450.3)"/><path class="cls-1" d="M891.78,456.23a3.43,3.43,0,0,0-3.43-3.43" transform="translate(-858.42 -450.3)"/><line class="cls-1" x1="14.5" y1="2.5" x2="21.36" y2="2.5"/><line class="cls-1" x1="2.5" y1="14.5" x2="2.5" y2="21.36"/><path class="cls-1" d="M874.63,493.94a3.43,3.43,0,0,0,3.43,3.43" transform="translate(-858.42 -450.3)"/><path class="cls-1" d="M905.49,469.94a3.43,3.43,0,0,0-3.43-3.43" transform="translate(-858.42 -450.3)"/><path class="cls-1" d="M902.06,497.37a3.43,3.43,0,0,0,3.43-3.43" transform="translate(-858.42 -450.3)"/><line class="cls-1" x1="28.21" y1="47.07" x2="35.07" y2="47.07"/><line class="cls-1" x1="47.07" y1="28.21" x2="47.07" y2="35.07"/><path class="cls-1" d="M891.78,480.23V466.51H878.06a3.43,3.43,0,0,0-3.43,3.43v13.71h13.71A3.43,3.43,0,0,0,891.78,480.23Z" transform="translate(-858.42 -450.3)"/></svg>