<svg id="Layer_1" data-name="Layer 1" xmlns="http://www.w3.org/2000/svg" viewBox="0 0 87 85.76"><defs><style>.cls-1{fill:none;stroke:#EC5646;stroke-width:7px;}</style></defs><title>nftmarketplaces</title><path class="cls-1" d="M875.27,408.62c0-21.75-17.93-39.38-40-39.38s-40,17.63-40,39.38S813.2,448,835.27,448a40.23,40.23,0,0,0,31.29-14.77" transform="translate(-791.77 -365.74)"/><path class="cls-1" d="M810.18,408.62a25,25,0,1,1,25.38,24.62h-.38A25.14,25.14,0,0,1,815.64,424" transform="translate(-791.77 -365.74)"/><path class="cls-1" d="M847.72,408.62A12.52,12.52,0,1,0,835,420.93h.21a12.57,12.57,0,0,0,9.77-4.62" transform="translate(-791.77 -365.74)"/></svg>