<svg id="Layer_1" data-name="Layer 1" xmlns="http://www.w3.org/2000/svg" viewBox="0 0 44.92 48.57"><defs><style>.cls-1{fill:none;stroke:#EC5646;stroke-linecap:round;stroke-linejoin:round;stroke-width:4px;}</style></defs><title>productivitytools</title><path class="cls-1" d="M841,546.5l1.47-3.81a3.43,3.43,0,0,1,3.19-2.19h2.81a3.43,3.43,0,0,1,3.19,2.19l1.47,3.81,5,2.88,4-.62a3.43,3.43,0,0,1,3.43,1.68l1.37,2.4a3.43,3.43,0,0,1-.27,3.87l-2.5,3.19v5.76l2.57,3.19a3.43,3.43,0,0,1,.27,3.87l-1.37,2.4a3.43,3.43,0,0,1-3.43,1.68l-4-.62-5,2.88-1.47,3.81a3.43,3.43,0,0,1-3.19,2.19h-2.88a3.43,3.43,0,0,1-3.19-2.19L841,579.07l-5-2.88-4,.62a3.43,3.43,0,0,1-3.43-1.68l-1.37-2.4a3.43,3.43,0,0,1,.27-3.87l2.5-3.19v-5.76l-2.57-3.19a3.43,3.43,0,0,1-.27-3.87l1.37-2.4a3.43,3.43,0,0,1,3.43-1.68l4,.62Z" transform="translate(-824.59 -538.5)"/><circle class="cls-1" cx="22.46" cy="24.29" r="10.29"/><polyline class="cls-1" points="22.46 14 22.46 24.29 32.75 24.29"/><line class="cls-1" x1="22.46" y1="24.29" x2="15.19" y2="31.55"/></svg>