<svg id="Layer_1" data-name="Layer 1" xmlns="http://www.w3.org/2000/svg" viewBox="0 0 93.56 98.83"><defs><style>.cls-1{fill:none;stroke:#EC5646;stroke-linecap:round;stroke-linejoin:round;stroke-width:6px;}</style></defs><title>Side-Chain-Development</title><path class="cls-1" d="M746.89,595.78h16.84a3.47,3.47,0,0,1,3.37,3.57h0V617.2a3.47,3.47,0,0,1-3.37,3.57H746.89a3.47,3.47,0,0,1-3.37-3.57h0V599.35a3.47,3.47,0,0,1,3.37-3.57Z" transform="translate(-740.52 -524.94)"/><path class="cls-1" d="M810.87,595.78h16.84a3.47,3.47,0,0,1,3.37,3.57h0V617.2a3.47,3.47,0,0,1-3.37,3.57H810.87a3.47,3.47,0,0,1-3.37-3.57h0V599.35a3.47,3.47,0,0,1,3.37-3.57Z" transform="translate(-740.52 -524.94)"/><path class="cls-1" d="M777.2,527.94h20.21a3.47,3.47,0,0,1,3.37,3.57h0v21.43a3.47,3.47,0,0,1-3.37,3.57H777.2a3.47,3.47,0,0,1-3.37-3.57h0v-21.4a3.47,3.47,0,0,1,3.34-3.6Z" transform="translate(-740.52 -524.94)"/><line class="cls-1" x1="26.57" y1="85.12" x2="66.99" y2="85.12"/><line class="cls-1" x1="33.92" y1="30.06" x2="16.47" y2="70.84"/><line class="cls-1" x1="59.64" y1="30.06" x2="77.09" y2="70.84"/></svg>