<svg id="Layer_1" data-name="Layer 1" xmlns="http://www.w3.org/2000/svg" viewBox="0 0 280 280"><defs><style>.cls-1{fill:#EC5646;opacity:0.15;isolation:isolate;}.cls-2{fill:#fff;}</style></defs><title>solanaofficial-a</title><circle class="cls-1" cx="140" cy="140" r="140"/><g id="Artboard"><g id="light-horizontal-combined-green"><path id="Combined-Shape" class="cls-2" d="M889.8,638.24c5.9,0,8.85,4.69,4.68,7.43l-27.82,18.28a8.66,8.66,0,0,1-4.68,1.27H696.14c-5.86,0-8.83-4.64-4.73-7.39l27.2-18.28a8.63,8.63,0,0,1,4.73-1.31ZM862,596.69a8.66,8.66,0,0,1,4.68,1.27h0l27.82,18.28c4.17,2.74,1.22,7.43-4.68,7.43H723.35a8.63,8.63,0,0,1-4.73-1.31h0l-27.2-18.28c-4.1-2.75-1.13-7.39,4.73-7.39H862Zm27.82-41.51c5.9,0,8.85,4.69,4.68,7.43l-27.82,18.28a8.66,8.66,0,0,1-4.68,1.27H696.14c-5.86,0-8.83-4.64-4.73-7.39l27.2-18.28a8.63,8.63,0,0,1,4.73-1.31Z" transform="translate(-654.69 -465.44)"/></g></g></svg>