<svg id="Layer_1" data-name="Layer 1" xmlns="http://www.w3.org/2000/svg" viewBox="0 0 307.77 295.17"><defs><style>.cls-1{fill:#EC5646;opacity:0.15;isolation:isolate;}.cls-2,.cls-3{fill:none;}.cls-3{stroke:#fff;stroke-linecap:round;stroke-linejoin:round;stroke-width:5px;}</style></defs><title>specialsituations</title><circle class="cls-1" cx="140" cy="140" r="140"/><rect class="cls-2" x="24.27" y="11.67" width="283.5" height="283.5"/><path class="cls-3" d="M1062.89,388.47h163.95c3.77,0,6.83,3.69,6.83,8.24V528.58c0,4.55-3.06,8.24-6.83,8.24H1062.89c-3.77,0-6.83-3.69-6.83-8.24V396.72C1056.06,392.16,1059.11,388.47,1062.89,388.47Z" transform="translate(-1000.44 -333.49)"/><line class="cls-3" x1="130.76" y1="203.33" x2="117.09" y2="244.53"/><line class="cls-3" x1="158.08" y1="203.33" x2="171.74" y2="244.53"/><line class="cls-3" x1="103.43" y1="244.53" x2="185.41" y2="244.53"/><polyline class="cls-3" points="110.26 137.4 137.59 162.12 185.41 96.19"/><path class="cls-3" d="M1124.63,402.47h23.67c2.18,0,3.95,2.3,3.95,5.14V464.1c0,2.84-1.77,5.14-3.95,5.14h-23.67c-2.18,0-3.95-2.3-3.95-5.14V407.61C1120.69,404.77,1122.45,402.47,1124.63,402.47Z" transform="translate(-1000.44 -333.49)"/><line class="cls-3" x1="120.24" y1="84.39" x2="110.38" y2="84.39"/><line class="cls-3" x1="120.24" y1="102.36" x2="110.38" y2="102.36"/><line class="cls-3" x1="120.24" y1="120.33" x2="110.38" y2="120.33"/><line class="cls-3" x1="161.67" y1="84.39" x2="151.81" y2="84.39"/><line class="cls-3" x1="161.67" y1="102.36" x2="151.81" y2="102.36"/><line class="cls-3" x1="161.67" y1="120.33" x2="151.81" y2="120.33"/><line class="cls-3" x1="134.05" y1="120.33" x2="141.95" y2="120.33"/></svg>