<svg id="Layer_1" data-name="Layer 1" xmlns="http://www.w3.org/2000/svg" viewBox="0 0 46.86 48.61"><defs><style>.cls-1{fill:none;stroke:#EC5646;stroke-linecap:round;stroke-linejoin:round;stroke-width:4px;}</style></defs><title>automatingtradingalgorithms</title><line class="cls-1" x1="3.68" y1="22.71" x2="43.11" y2="4.78"/><polyline class="cls-1" points="35.74 2 43.11 4.78 40.37 12.15"/><path class="cls-1" d="M978.4,525.76h-8.57v-24a1.71,1.71,0,0,1,1.71-1.71h5.14a1.71,1.71,0,0,1,1.71,1.71v24Z" transform="translate(-933.54 -479.16)"/><path class="cls-1" d="M961.26,525.76h-8.57V506.91a1.71,1.71,0,0,1,1.71-1.71h5.14a1.71,1.71,0,0,1,1.71,1.71v18.86Z" transform="translate(-933.54 -479.16)"/><path class="cls-1" d="M944.12,525.76h-8.57V512a1.71,1.71,0,0,1,1.71-1.71h5.14a1.71,1.71,0,0,1,1.71,1.71v13.71Z" transform="translate(-933.54 -479.16)"/></svg>