<svg id="Layer_1" data-name="Layer 1" xmlns="http://www.w3.org/2000/svg" viewBox="0 0 49.57 49.57"><defs><style>.cls-1{fill:none;stroke:#EC5646;stroke-linecap:round;stroke-linejoin:round;stroke-width:5px;}</style></defs><title>tradingautomation</title><path class="cls-1" d="M826,417.1h3.43a3.43,3.43,0,0,1,3.43,3.43v13.71a3.43,3.43,0,0,1-3.43,3.43h-6.86a3.43,3.43,0,0,1-3.43-3.43V415.38a22.29,22.29,0,0,1,44.57,0v18.86a3.43,3.43,0,0,1-3.43,3.43h-6.86a3.43,3.43,0,0,1-3.43-3.43V420.53a3.43,3.43,0,0,1,3.43-3.43h3.43" transform="translate(-816.63 -390.6)"/></svg>